# Dn-FamiTracker text export 0.5.0.1
# Module version 0450

# INFO block
TITLE           "BLUE CLAPPER"
AUTHOR          "Ongakucraft"
COPYRIGHT       "COVER Corp."

# COMMENTS block

# PARAMS block
MACHINE         0
FRAMERATE       0
EXPANSION       1
VIBRATO         1
SPLIT           32
PLAYBACKRATE    0 16639

# SEQUENCES block
MACRO 0 0 -1  18   0 : 15 13 12 11 11 10 9 9 8 7 6 6 5 5 5 4 4 3 3 3 3 2 2 2 2 2 2 1 1 1 1 0
MACRO 0 1 -1  -1   0 : 15 15 15 15 0
MACRO 1 0 -1  -1   0 : 12 8 4 0
MACRO 4 0 -1  -1   0 : 1
MACROVRC6 0 2 -1  -1   0 : 15 14 13 13 11 10 10 9 8 8 7 6 6 6 5 5 5 4 4 4 3 3 2 2 1 1 1 1 0
MACROVRC6 4 1 -1  -1   0 : 7

# DPCM SAMPLES block

# DETUNETABLES block

# GROOVES block

# Tracks using default groove:

# INSTRUMENTS block
INST2A03 0 0 -1 -1 -1 0 "cookie-snow-2a03-piano"
INST2A03 1 1 -1 -1 -1 -1 "trojan-mage-2a03-Tri Bass 1"
INST2A03 2 -1 0 -1 -1 -1 "cookie-snow-2a03-kick bass"
INSTVRC6 3 2 -1 -1 -1 1 "cookie-smile-vrc6-chimes"
INSTFDS 4 1 0 0 0 "isabelle-trouble-fds-Bass"
FDSWAVE 4 : 0 46 49 51 60 60 61 60 61 1 1 5 10 14 17 21 24 29 33 37 42 45 55 58 62 63 63 63 63 63 63 63 63 63 63 63 63 63 17 17 15 12 9 7 5 4 46 34 37 40 43 46 50 53 55 57 58 59 59 59 18 12 6 0
FDSMOD 4 : 0 0 0 0 0 0 0 0 0 0 0 0 0 0 0 0 0 0 0 0 0 0 0 0 0 0 0 0 0 0 0 0
FDSMACRO 4 0 -1 -1 0 : 21 19 17

# track HEADER block
TRACK  64   5 120 "SONG_NAME"
COLUMNS : 1 1 1 1 1 1 1 1

# track FRAMES block
ORDER 00 : 00 00 00 00 00 00 00 00
ORDER 01 : 01 01 01 01 01 01 01 01
ORDER 02 : 02 02 02 02 02 02 02 02
ORDER 03 : 03 03 03 03 03 03 03 03
ORDER 04 : 04 04 04 04 04 04 04 04
ORDER 05 : 05 05 05 05 05 05 05 05
ORDER 06 : 06 06 06 06 06 06 06 06
ORDER 07 : 07 07 07 07 07 07 07 07
ORDER 08 : 08 08 08 08 08 08 08 08
ORDER 09 : 09 09 09 09 09 09 09 09
ORDER 0a : 0a 0a 0a 0a 0a 0a 0a 0a
ORDER 0b : 0b 0b 0b 0b 0b 0b 0b 0b
ORDER 0c : 0c 0c 0c 0c 0c 0c 0c 0c
ORDER 0d : 0d 0d 0d 0d 0d 0d 0d 0d
ORDER 0e : 0e 0e 0e 0e 0e 0e 0e 0e
ORDER 0f : 0f 0f 0f 0f 0f 0f 0f 0f
ORDER 10 : 10 10 10 10 10 10 10 10
ORDER 11 : 11 11 11 11 11 11 11 11
ORDER 12 : 12 12 12 12 12 12 12 12
ORDER 13 : 13 13 13 13 13 13 13 13
ORDER 14 : 14 14 14 14 14 14 14 14
ORDER 15 : 15 15 15 15 15 15 15 15
ORDER 16 : 16 16 16 16 16 16 16 16
ORDER 17 : 17 17 17 17 17 17 17 17
ORDER 18 : 18 18 18 18 18 18 18 18
ORDER 19 : 19 19 19 19 19 19 19 19
ORDER 1a : 1a 1a 1a 1a 1a 1a 1a 1a
ORDER 1b : 1b 1b 1b 1b 1b 1b 1b 1b
ORDER 1c : 1c 1c 1c 1c 1c 1c 1c 1c
ORDER 1d : 1d 1d 1d 1d 1d 1d 1d 1d
ORDER 1e : 1e 1e 1e 1e 1e 1e 1e 1e
ORDER 1f : 1f 1f 1f 1f 1f 1f 1f 1f
ORDER 20 : 20 20 20 20 20 20 20 20
ORDER 21 : 21 21 21 21 21 21 21 21
ORDER 22 : 22 22 22 22 22 22 22 22
ORDER 23 : 23 23 23 23 23 23 23 23
ORDER 24 : 24 24 24 24 24 24 24 24
ORDER 25 : 25 25 25 25 25 25 25 25

# track PATTERNS block
PATTERN 00
ROW 00 : ... .. . ... : ... .. . ... : ... .. . ... : ... .. . ... : ... .. . ... : ... .. . ... : ... .. . ... : ... .. . ...
ROW 01 : ... .. . ... : ... .. . ... : ... .. . ... : ... .. . ... : ... .. . ... : ... .. . ... : ... .. . ... : ... .. . ...
ROW 02 : ... .. . ... : ... .. . ... : ... .. . ... : ... .. . ... : ... .. . ... : ... .. . ... : ... .. . ... : ... .. . ...
ROW 03 : ... .. . ... : ... .. . ... : ... .. . ... : ... .. . ... : ... .. . ... : ... .. . ... : ... .. . ... : ... .. . ...
ROW 04 : ... .. . ... : ... .. . ... : ... .. . ... : ... .. . ... : ... .. . ... : ... .. . ... : ... .. . ... : ... .. . ...
ROW 05 : ... .. . ... : ... .. . ... : ... .. . ... : ... .. . ... : ... .. . ... : ... .. . ... : ... .. . ... : ... .. . ...
ROW 06 : D-5 00 8 ... : F-4 00 8 ... : ... .. . ... : ... .. . ... : ... .. . ... : ... .. . ... : ... .. . ... : ... .. . ...
ROW 07 : ... .. . ... : ... .. . ... : ... .. . ... : ... .. . ... : ... .. . ... : ... .. . ... : ... .. . ... : ... .. . ...
ROW 08 : D-5 00 8 ... : F-4 00 8 ... : ... .. . ... : ... .. . ... : ... .. . ... : ... .. . ... : ... .. . ... : ... .. . ...
ROW 09 : ... .. . ... : ... .. . ... : ... .. . ... : ... .. . ... : ... .. . ... : ... .. . ... : ... .. . ... : ... .. . ...
ROW 0a : D-5 00 8 ... : F-4 00 8 ... : ... .. . ... : ... .. . ... : ... .. . ... : ... .. . ... : ... .. . ... : ... .. . ...
ROW 0b : ... .. . ... : ... .. . ... : ... .. . ... : ... .. . ... : ... .. . ... : ... .. . ... : ... .. . ... : ... .. . ...
ROW 0c : F-5 00 8 ... : A-4 00 8 ... : ... .. . ... : ... .. . ... : ... .. . ... : ... .. . ... : ... .. . ... : ... .. . ...
ROW 0d : ... .. . ... : ... .. . ... : ... .. . ... : ... .. . ... : ... .. . ... : ... .. . ... : ... .. . ... : ... .. . ...
ROW 0e : D-5 00 8 ... : F-4 00 8 ... : ... .. . ... : ... .. . ... : ... .. . ... : ... .. . ... : ... .. . ... : ... .. . ...
ROW 0f : ... .. . ... : ... .. . ... : ... .. . ... : ... .. . ... : ... .. . ... : ... .. . ... : ... .. . ... : ... .. . ...
ROW 10 : A-5 00 8 ... : C-5 00 8 ... : ... .. . ... : ... .. . ... : ... .. . ... : A#2 03 6 07B : ... .. . ... : ... .. . ...
ROW 11 : ... .. . ... : ... .. . ... : ... .. . ... : ... .. . ... : ... .. . ... : ... .. . ... : ... .. . ... : ... .. . ...
ROW 12 : ... .. . ... : ... .. . ... : ... .. . ... : ... .. . ... : ... .. . ... : --- .. . ... : ... .. . ... : ... .. . ...
ROW 13 : ... .. . ... : ... .. . ... : ... .. . ... : ... .. . ... : ... .. . ... : A#2 03 6 07B : ... .. . ... : ... .. . ...
ROW 14 : A-5 00 8 ... : C-5 00 8 ... : ... .. . ... : ... .. . ... : ... .. . ... : --- .. . ... : ... .. . ... : ... .. . ...
ROW 15 : ... .. . ... : ... .. . ... : ... .. . ... : ... .. . ... : ... .. . ... : ... .. . ... : ... .. . ... : ... .. . ...
ROW 16 : ... .. . ... : ... .. . ... : ... .. . ... : ... .. . ... : ... .. . ... : A#2 03 6 07B : ... .. . ... : ... .. . ...
ROW 17 : ... .. . ... : ... .. . ... : ... .. . ... : ... .. . ... : ... .. . ... : ... .. . ... : ... .. . ... : ... .. . ...
ROW 18 : A-5 00 8 ... : C-5 00 8 ... : ... .. . ... : ... .. . ... : ... .. . ... : --- .. . ... : ... .. . ... : ... .. . ...
ROW 19 : ... .. . ... : ... .. . ... : ... .. . ... : ... .. . ... : ... .. . ... : A#2 03 6 07B : ... .. . ... : ... .. . ...
ROW 1a : ... .. . ... : ... .. . ... : ... .. . ... : ... .. . ... : ... .. . ... : --- .. . ... : ... .. . ... : ... .. . ...
ROW 1b : ... .. . ... : ... .. . ... : ... .. . ... : ... .. . ... : ... .. . ... : ... .. . ... : ... .. . ... : ... .. . ...
ROW 1c : F-5 00 8 ... : ... .. . ... : ... .. . ... : ... .. . ... : ... .. . ... : A#2 03 6 07B : ... .. . ... : ... .. . ...
ROW 1d : ... .. . ... : ... .. . ... : ... .. . ... : ... .. . ... : ... .. . ... : ... .. . ... : ... .. . ... : ... .. . ...
ROW 1e : G-5 00 8 ... : ... .. . ... : ... .. . ... : ... .. . ... : ... .. . ... : --- .. . ... : ... .. . ... : ... .. . ...
ROW 1f : ... .. . ... : ... .. . ... : ... .. . ... : ... .. . ... : ... .. . ... : ... .. . ... : ... .. . ... : ... .. . ...
ROW 20 : A-5 00 8 ... : C#5 00 8 ... : ... .. . ... : ... .. . ... : ... .. . ... : A-2 03 6 07A : ... .. . ... : ... .. . ...
ROW 21 : ... .. . ... : ... .. . ... : ... .. . ... : ... .. . ... : ... .. . ... : ... .. . ... : ... .. . ... : ... .. . ...
ROW 22 : F-5 00 8 ... : ... .. . ... : ... .. . ... : ... .. . ... : ... .. . ... : --- .. . ... : ... .. . ... : ... .. . ...
ROW 23 : ... .. . ... : ... .. . ... : ... .. . ... : ... .. . ... : ... .. . ... : A-2 03 6 07A : ... .. . ... : ... .. . ...
ROW 24 : F-5 00 8 ... : ... .. . ... : ... .. . ... : ... .. . ... : ... .. . ... : --- .. . ... : ... .. . ... : ... .. . ...
ROW 25 : ... .. . ... : ... .. . ... : ... .. . ... : ... .. . ... : ... .. . ... : ... .. . ... : ... .. . ... : ... .. . ...
ROW 26 : D-5 00 8 ... : ... .. . ... : ... .. . ... : ... .. . ... : ... .. . ... : A-2 03 6 07A : ... .. . ... : ... .. . ...
ROW 27 : ... .. . ... : ... .. . ... : ... .. . ... : ... .. . ... : ... .. . ... : ... .. . ... : ... .. . ... : ... .. . ...
ROW 28 : F-5 00 8 ... : A-4 00 8 ... : ... .. . ... : ... .. . ... : ... .. . ... : --- .. . ... : ... .. . ... : ... .. . ...
ROW 29 : ... .. . ... : ... .. . ... : ... .. . ... : ... .. . ... : ... .. . ... : A-2 03 6 07A : ... .. . ... : ... .. . ...
ROW 2a : ... .. . ... : ... .. . ... : ... .. . ... : ... .. . ... : ... .. . ... : --- .. . ... : ... .. . ... : ... .. . ...
ROW 2b : ... .. . ... : ... .. . ... : ... .. . ... : ... .. . ... : ... .. . ... : ... .. . ... : ... .. . ... : ... .. . ...
ROW 2c : G-5 00 8 ... : A#4 00 8 ... : ... .. . ... : ... .. . ... : ... .. . ... : A-2 03 6 07A : ... .. . ... : ... .. . ...
ROW 2d : ... .. . ... : ... .. . ... : ... .. . ... : ... .. . ... : ... .. . ... : ... .. . ... : ... .. . ... : ... .. . ...
ROW 2e : ... .. . ... : ... .. . ... : ... .. . ... : ... .. . ... : ... .. . ... : --- .. . ... : ... .. . ... : ... .. . ...
ROW 2f : ... .. . ... : ... .. . ... : ... .. . ... : ... .. . ... : ... .. . ... : ... .. . ... : ... .. . ... : ... .. . ...
ROW 30 : A-5 00 8 ... : C-5 00 8 ... : ... .. . ... : ... .. . ... : ... .. . ... : D-3 03 6 07A : ... .. . ... : ... .. . ...
ROW 31 : ... .. . ... : ... .. . ... : ... .. . ... : ... .. . ... : ... .. . ... : ... .. . ... : ... .. . ... : ... .. . ...
ROW 32 : ... .. . ... : ... .. . ... : ... .. . ... : ... .. . ... : ... .. . ... : --- .. . ... : ... .. . ... : ... .. . ...
ROW 33 : ... .. . ... : ... .. . ... : ... .. . ... : ... .. . ... : ... .. . ... : D-3 03 6 07A : ... .. . ... : ... .. . ...
ROW 34 : A-5 00 8 ... : C-5 00 8 ... : ... .. . ... : ... .. . ... : ... .. . ... : --- .. . ... : ... .. . ... : ... .. . ...
ROW 35 : ... .. . ... : ... .. . ... : ... .. . ... : ... .. . ... : ... .. . ... : ... .. . ... : ... .. . ... : ... .. . ...
ROW 36 : ... .. . ... : ... .. . ... : ... .. . ... : ... .. . ... : ... .. . ... : D-3 03 6 07A : ... .. . ... : ... .. . ...
ROW 37 : ... .. . ... : ... .. . ... : ... .. . ... : ... .. . ... : ... .. . ... : ... .. . ... : ... .. . ... : ... .. . ...
ROW 38 : A-5 00 8 ... : C-5 00 8 ... : ... .. . ... : ... .. . ... : ... .. . ... : --- .. . ... : ... .. . ... : ... .. . ...
ROW 39 : ... .. . ... : ... .. . ... : ... .. . ... : ... .. . ... : ... .. . ... : D-3 03 6 07A : ... .. . ... : ... .. . ...
ROW 3a : ... .. . ... : ... .. . ... : ... .. . ... : ... .. . ... : ... .. . ... : --- .. . ... : ... .. . ... : ... .. . ...
ROW 3b : ... .. . ... : ... .. . ... : ... .. . ... : ... .. . ... : ... .. . ... : ... .. . ... : ... .. . ... : ... .. . ...
ROW 3c : F-5 00 8 ... : ... .. . ... : ... .. . ... : ... .. . ... : ... .. . ... : D-3 03 6 07A : ... .. . ... : ... .. . ...
ROW 3d : ... .. . ... : ... .. . ... : ... .. . ... : ... .. . ... : ... .. . ... : ... .. . ... : ... .. . ... : ... .. . ...
ROW 3e : D-5 00 8 ... : ... .. . ... : ... .. . ... : ... .. . ... : ... .. . ... : --- .. . ... : ... .. . ... : ... .. . ...
ROW 3f : ... .. . ... : ... .. . ... : ... .. . ... : ... .. . ... : ... .. . ... : ... .. . ... : ... .. . ... : ... .. . ...
PATTERN 01
ROW 00 : F-5 00 8 ... : A-4 00 8 ... : ... .. . ... : ... .. . ... : ... .. . ... : D-3 03 6 07A : ... .. . ... : ... .. . ...
ROW 01 : ... .. . ... : ... .. . ... : ... .. . ... : ... .. . ... : ... .. . ... : ... .. . ... : ... .. . ... : ... .. . ...
ROW 02 : D-5 00 8 ... : ... .. . ... : ... .. . ... : ... .. . ... : ... .. . ... : --- .. . ... : ... .. . ... : ... .. . ...
ROW 03 : ... .. . ... : ... .. . ... : ... .. . ... : ... .. . ... : ... .. . ... : D-3 03 6 07A : ... .. . ... : ... .. . ...
ROW 04 : F-5 00 8 ... : ... .. . ... : ... .. . ... : ... .. . ... : ... .. . ... : --- .. . ... : ... .. . ... : ... .. . ...
ROW 05 : ... .. . ... : ... .. . ... : ... .. . ... : ... .. . ... : ... .. . ... : ... .. . ... : ... .. . ... : ... .. . ...
ROW 06 : G-5 00 8 ... : ... .. . ... : ... .. . ... : ... .. . ... : ... .. . ... : D-3 03 6 07A : ... .. . ... : ... .. . ...
ROW 07 : ... .. . ... : ... .. . ... : ... .. . ... : ... .. . ... : ... .. . ... : ... .. . ... : ... .. . ... : ... .. . ...
ROW 08 : F-5 00 8 ... : A-4 00 8 ... : ... .. . ... : ... .. . ... : ... .. . ... : --- .. . ... : ... .. . ... : ... .. . ...
ROW 09 : ... .. . ... : ... .. . ... : ... .. . ... : ... .. . ... : ... .. . ... : D-3 03 6 07A : ... .. . ... : ... .. . ...
ROW 0a : ... .. . ... : ... .. . ... : ... .. . ... : ... .. . ... : ... .. . ... : --- .. . ... : ... .. . ... : ... .. . ...
ROW 0b : ... .. . ... : ... .. . ... : ... .. . ... : ... .. . ... : ... .. . ... : ... .. . ... : ... .. . ... : ... .. . ...
ROW 0c : --- .. . ... : --- .. . ... : ... .. . ... : ... .. . ... : ... .. . ... : D-3 03 6 07A : ... .. . ... : ... .. . ...
ROW 0d : ... .. . ... : ... .. . ... : ... .. . ... : ... .. . ... : ... .. . ... : ... .. . ... : ... .. . ... : ... .. . ...
ROW 0e : D-5 00 8 ... : ... .. . ... : ... .. . ... : ... .. . ... : ... .. . ... : --- .. . ... : ... .. . ... : ... .. . ...
ROW 0f : ... .. . ... : ... .. . ... : ... .. . ... : ... .. . ... : ... .. . ... : ... .. . ... : ... .. . ... : ... .. . ...
ROW 10 : --- .. . ... : F-5 00 8 ... : A-4 01 7 ... : ... .. . ... : ... .. . ... : A#2 03 6 07B : ... .. . ... : ... .. . ...
ROW 11 : ... .. . ... : ... .. . ... : ... .. . ... : ... .. . ... : ... .. . ... : ... .. . ... : ... .. . ... : ... .. . ...
ROW 12 : ... .. . ... : G-5 00 8 ... : A#4 01 7 ... : ... .. . ... : ... .. . ... : --- .. . ... : ... .. . ... : ... .. . ...
ROW 13 : ... .. . ... : ... .. . ... : ... .. . ... : ... .. . ... : ... .. . ... : A#2 03 6 07B : ... .. . ... : ... .. . ...
ROW 14 : ... .. . ... : A-5 00 8 ... : C-5 01 7 ... : ... .. . ... : ... .. . ... : --- .. . ... : ... .. . ... : ... .. . ...
ROW 15 : ... .. . ... : ... .. . ... : ... .. . ... : ... .. . ... : ... .. . ... : ... .. . ... : ... .. . ... : ... .. . ...
ROW 16 : ... .. . ... : ... .. . ... : ... .. . ... : ... .. . ... : ... .. . ... : A#2 03 6 07B : ... .. . ... : ... .. . ...
ROW 17 : ... .. . ... : ... .. . ... : ... .. . ... : ... .. . ... : ... .. . ... : ... .. . ... : ... .. . ... : ... .. . ...
ROW 18 : A-5 00 8 080 : --- .. . ... : --- .. . ... : ... .. . ... : ... .. . ... : --- .. . ... : ... .. . ... : ... .. . ...
ROW 19 : ... .. . ... : ... .. . ... : ... .. . ... : ... .. . ... : ... .. . ... : A#2 03 6 07B : ... .. . ... : ... .. . ...
ROW 1a : A-5 00 8 080 : ... .. . ... : ... .. . ... : ... .. . ... : ... .. . ... : --- .. . ... : ... .. . ... : ... .. . ...
ROW 1b : ... .. . ... : ... .. . ... : ... .. . ... : ... .. . ... : ... .. . ... : ... .. . ... : ... .. . ... : ... .. . ...
ROW 1c : A-5 00 8 080 : ... .. . ... : ... .. . ... : ... .. . ... : ... .. . ... : A#2 03 6 07B : ... .. . ... : ... .. . ...
ROW 1d : ... .. . ... : ... .. . ... : ... .. . ... : ... .. . ... : ... .. . ... : ... .. . ... : ... .. . ... : ... .. . ...
ROW 1e : --- .. . ... : D-5 00 8 ... : ... .. . ... : ... .. . ... : ... .. . ... : --- .. . ... : ... .. . ... : ... .. . ...
ROW 1f : ... .. . ... : ... .. . ... : ... .. . ... : ... .. . ... : ... .. . ... : ... .. . ... : ... .. . ... : ... .. . ...
ROW 20 : ... .. . ... : A-4 00 8 ... : F-5 01 7 ... : ... .. . ... : ... .. . ... : A-2 03 6 04A : ... .. . ... : ... .. . ...
ROW 21 : ... .. . ... : ... .. . ... : ... .. . ... : ... .. . ... : ... .. . ... : ... .. . ... : ... .. . ... : ... .. . ...
ROW 22 : ... .. . ... : A#4 00 8 ... : G-5 01 7 ... : ... .. . ... : ... .. . ... : --- .. . ... : ... .. . ... : ... .. . ...
ROW 23 : ... .. . ... : ... .. . ... : ... .. . ... : ... .. . ... : ... .. . ... : A-2 03 6 04A : ... .. . ... : ... .. . ...
ROW 24 : ... .. . ... : C-5 00 8 ... : A-5 01 7 ... : ... .. . ... : ... .. . ... : --- .. . ... : ... .. . ... : ... .. . ...
ROW 25 : ... .. . ... : ... .. . ... : ... .. . ... : ... .. . ... : ... .. . ... : ... .. . ... : ... .. . ... : ... .. . ...
ROW 26 : ... .. . ... : ... .. . ... : ... .. . ... : ... .. . ... : ... .. . ... : A-2 03 6 04A : ... .. . ... : ... .. . ...
ROW 27 : ... .. . ... : ... .. . ... : ... .. . ... : ... .. . ... : ... .. . ... : ... .. . ... : ... .. . ... : ... .. . ...
ROW 28 : A-5 00 8 080 : --- .. . ... : --- .. . ... : ... .. . ... : ... .. . ... : --- .. . ... : ... .. . ... : ... .. . ...
ROW 29 : ... .. . ... : ... .. . ... : ... .. . ... : ... .. . ... : ... .. . ... : A-2 03 6 04A : ... .. . ... : ... .. . ...
ROW 2a : A-5 00 8 080 : ... .. . ... : ... .. . ... : ... .. . ... : ... .. . ... : --- .. . ... : ... .. . ... : ... .. . ...
ROW 2b : ... .. . ... : ... .. . ... : ... .. . ... : ... .. . ... : ... .. . ... : ... .. . ... : ... .. . ... : ... .. . ...
ROW 2c : A-5 00 8 080 : ... .. . ... : ... .. . ... : ... .. . ... : ... .. . ... : A-2 03 6 04A : ... .. . ... : ... .. . ...
ROW 2d : ... .. . ... : ... .. . ... : ... .. . ... : ... .. . ... : ... .. . ... : ... .. . ... : ... .. . ... : ... .. . ...
ROW 2e : --- .. . ... : ... .. . ... : ... .. . ... : ... .. . ... : ... .. . ... : --- .. . ... : ... .. . ... : ... .. . ...
ROW 2f : ... .. . ... : ... .. . ... : ... .. . ... : ... .. . ... : ... .. . ... : ... .. . ... : ... .. . ... : ... .. . ...
ROW 30 : F#5 00 8 ... : A-4 00 8 ... : ... .. . ... : ... .. . ... : ... .. . ... : D-3 03 6 07A : ... .. . ... : ... .. . ...
ROW 31 : ... .. . ... : ... .. . ... : ... .. . ... : ... .. . ... : ... .. . ... : ... .. . ... : ... .. . ... : ... .. . ...
ROW 32 : ... .. . ... : ... .. . ... : ... .. . ... : ... .. . ... : ... .. . ... : --- .. . ... : ... .. . ... : ... .. . ...
ROW 33 : ... .. . ... : ... .. . ... : ... .. . ... : ... .. . ... : ... .. . ... : D-3 03 6 07A : ... .. . ... : ... .. . ...
ROW 34 : F#5 00 8 ... : A-4 00 8 ... : ... .. . ... : ... .. . ... : ... .. . ... : --- .. . ... : ... .. . ... : ... .. . ...
ROW 35 : ... .. . ... : ... .. . ... : ... .. . ... : ... .. . ... : ... .. . ... : ... .. . ... : ... .. . ... : ... .. . ...
ROW 36 : ... .. . ... : ... .. . ... : ... .. . ... : ... .. . ... : ... .. . ... : D-3 03 6 07A : ... .. . ... : ... .. . ...
ROW 37 : ... .. . ... : ... .. . ... : ... .. . ... : ... .. . ... : ... .. . ... : ... .. . ... : ... .. . ... : ... .. . ...
ROW 38 : F#5 00 8 ... : A-4 00 8 ... : ... .. . ... : ... .. . ... : ... .. . ... : --- .. . ... : ... .. . ... : ... .. . ...
ROW 39 : ... .. . ... : ... .. . ... : ... .. . ... : ... .. . ... : ... .. . ... : D-3 03 6 07A : ... .. . ... : ... .. . ...
ROW 3a : ... .. . ... : ... .. . ... : ... .. . ... : ... .. . ... : ... .. . ... : --- .. . ... : ... .. . ... : ... .. . ...
ROW 3b : G-5 00 8 ... : A#4 00 8 ... : ... .. . ... : ... .. . ... : ... .. . ... : ... .. . ... : ... .. . ... : ... .. . ...
ROW 3c : ... .. . ... : ... .. . ... : ... .. . ... : ... .. . ... : ... .. . ... : D-3 03 6 07A : ... .. . ... : ... .. . ...
ROW 3d : ... .. . ... : ... .. . ... : ... .. . ... : ... .. . ... : ... .. . ... : ... .. . ... : ... .. . ... : ... .. . ...
ROW 3e : A-5 00 8 ... : C-5 00 8 ... : ... .. . ... : ... .. . ... : ... .. . ... : --- .. . ... : ... .. . ... : ... .. . ...
ROW 3f : ... .. . ... : ... .. . ... : ... .. . ... : ... .. . ... : ... .. . ... : ... .. . ... : ... .. . ... : ... .. . ...
PATTERN 02
ROW 00 : ... .. . ... : ... .. . ... : ... .. . ... : ... .. . ... : ... .. . ... : D-3 03 6 07A : ... .. . ... : ... .. . ...
ROW 01 : ... .. . ... : ... .. . ... : ... .. . ... : ... .. . ... : ... .. . ... : ... .. . ... : ... .. . ... : ... .. . ...
ROW 02 : ... .. . ... : ... .. . ... : ... .. . ... : ... .. . ... : ... .. . ... : --- .. . ... : ... .. . ... : ... .. . ...
ROW 03 : ... .. . ... : ... .. . ... : ... .. . ... : ... .. . ... : ... .. . ... : D-3 03 6 07A : ... .. . ... : ... .. . ...
ROW 04 : --- .. . ... : --- .. . ... : ... .. . ... : ... .. . ... : ... .. . ... : --- .. . ... : ... .. . ... : ... .. . ...
ROW 05 : ... .. . ... : ... .. . ... : ... .. . ... : ... .. . ... : ... .. . ... : ... .. . ... : ... .. . ... : ... .. . ...
ROW 06 : ... .. . ... : ... .. . ... : ... .. . ... : ... .. . ... : ... .. . ... : D-3 03 6 07A : ... .. . ... : ... .. . ...
ROW 07 : ... .. . ... : ... .. . ... : ... .. . ... : ... .. . ... : ... .. . ... : ... .. . ... : ... .. . ... : ... .. . ...
ROW 08 : D-5 00 8 ... : ... .. . ... : ... .. . ... : ... .. . ... : ... .. . ... : --- .. . ... : ... .. . ... : ... .. . ...
ROW 09 : ... .. . ... : ... .. . ... : ... .. . ... : ... .. . ... : ... .. . ... : D-3 03 6 07A : ... .. . ... : ... .. . ...
ROW 0a : D-5 00 8 ... : ... .. . ... : ... .. . ... : ... .. . ... : ... .. . ... : --- .. . ... : ... .. . ... : ... .. . ...
ROW 0b : ... .. . ... : ... .. . ... : ... .. . ... : ... .. . ... : ... .. . ... : ... .. . ... : ... .. . ... : ... .. . ...
ROW 0c : F-5 00 8 ... : A-4 00 8 ... : ... .. . ... : ... .. . ... : ... .. . ... : D-3 03 6 07A : ... .. . ... : ... .. . ...
ROW 0d : ... .. . ... : ... .. . ... : ... .. . ... : ... .. . ... : ... .. . ... : ... .. . ... : ... .. . ... : ... .. . ...
ROW 0e : D-5 00 8 ... : ... .. . ... : ... .. . ... : ... .. . ... : ... .. . ... : --- .. . ... : ... .. . ... : ... .. . ...
ROW 0f : ... .. . ... : ... .. . ... : ... .. . ... : ... .. . ... : ... .. . ... : ... .. . ... : ... .. . ... : ... .. . ...
ROW 10 : A-5 00 8 ... : C-5 00 8 ... : ... .. . ... : ... .. . ... : ... .. . ... : A#2 03 6 07B : ... .. . ... : ... .. . ...
ROW 11 : ... .. . ... : ... .. . ... : ... .. . ... : ... .. . ... : ... .. . ... : ... .. . ... : ... .. . ... : ... .. . ...
ROW 12 : ... .. . ... : ... .. . ... : ... .. . ... : ... .. . ... : ... .. . ... : --- .. . ... : ... .. . ... : ... .. . ...
ROW 13 : ... .. . ... : ... .. . ... : ... .. . ... : ... .. . ... : ... .. . ... : A#2 03 6 07B : ... .. . ... : ... .. . ...
ROW 14 : A-5 00 8 ... : C-5 00 8 ... : ... .. . ... : ... .. . ... : ... .. . ... : --- .. . ... : ... .. . ... : ... .. . ...
ROW 15 : ... .. . ... : ... .. . ... : ... .. . ... : ... .. . ... : ... .. . ... : ... .. . ... : ... .. . ... : ... .. . ...
ROW 16 : ... .. . ... : ... .. . ... : ... .. . ... : ... .. . ... : ... .. . ... : A#2 03 6 07B : ... .. . ... : ... .. . ...
ROW 17 : ... .. . ... : ... .. . ... : ... .. . ... : ... .. . ... : ... .. . ... : ... .. . ... : ... .. . ... : ... .. . ...
ROW 18 : A-5 00 8 ... : C-5 00 8 ... : ... .. . ... : ... .. . ... : ... .. . ... : --- .. . ... : ... .. . ... : ... .. . ...
ROW 19 : ... .. . ... : ... .. . ... : ... .. . ... : ... .. . ... : ... .. . ... : A#2 03 6 07B : ... .. . ... : ... .. . ...
ROW 1a : ... .. . ... : ... .. . ... : ... .. . ... : ... .. . ... : ... .. . ... : --- .. . ... : ... .. . ... : ... .. . ...
ROW 1b : ... .. . ... : ... .. . ... : ... .. . ... : ... .. . ... : ... .. . ... : ... .. . ... : ... .. . ... : ... .. . ...
ROW 1c : F-5 00 8 ... : ... .. . ... : ... .. . ... : ... .. . ... : ... .. . ... : A#2 03 6 07B : ... .. . ... : ... .. . ...
ROW 1d : ... .. . ... : ... .. . ... : ... .. . ... : ... .. . ... : ... .. . ... : ... .. . ... : ... .. . ... : ... .. . ...
ROW 1e : G-5 00 8 ... : ... .. . ... : ... .. . ... : ... .. . ... : ... .. . ... : --- .. . ... : ... .. . ... : ... .. . ...
ROW 1f : ... .. . ... : ... .. . ... : ... .. . ... : ... .. . ... : ... .. . ... : ... .. . ... : ... .. . ... : ... .. . ...
ROW 20 : A-5 00 8 ... : C#5 00 8 ... : ... .. . ... : ... .. . ... : ... .. . ... : A-2 03 6 07A : ... .. . ... : ... .. . ...
ROW 21 : ... .. . ... : ... .. . ... : ... .. . ... : ... .. . ... : ... .. . ... : ... .. . ... : ... .. . ... : ... .. . ...
ROW 22 : F-5 00 8 ... : ... .. . ... : ... .. . ... : ... .. . ... : ... .. . ... : --- .. . ... : ... .. . ... : ... .. . ...
ROW 23 : ... .. . ... : ... .. . ... : ... .. . ... : ... .. . ... : ... .. . ... : A-2 03 6 07A : ... .. . ... : ... .. . ...
ROW 24 : F-5 00 8 ... : ... .. . ... : ... .. . ... : ... .. . ... : ... .. . ... : --- .. . ... : ... .. . ... : ... .. . ...
ROW 25 : ... .. . ... : ... .. . ... : ... .. . ... : ... .. . ... : ... .. . ... : ... .. . ... : ... .. . ... : ... .. . ...
ROW 26 : D-5 00 8 ... : ... .. . ... : ... .. . ... : ... .. . ... : ... .. . ... : A-2 03 6 07A : ... .. . ... : ... .. . ...
ROW 27 : ... .. . ... : ... .. . ... : ... .. . ... : ... .. . ... : ... .. . ... : ... .. . ... : ... .. . ... : ... .. . ...
ROW 28 : F-5 00 8 ... : A-4 00 8 ... : ... .. . ... : ... .. . ... : ... .. . ... : --- .. . ... : ... .. . ... : ... .. . ...
ROW 29 : ... .. . ... : ... .. . ... : ... .. . ... : ... .. . ... : ... .. . ... : A-2 03 6 07A : ... .. . ... : ... .. . ...
ROW 2a : ... .. . ... : ... .. . ... : ... .. . ... : ... .. . ... : ... .. . ... : --- .. . ... : ... .. . ... : ... .. . ...
ROW 2b : ... .. . ... : ... .. . ... : ... .. . ... : ... .. . ... : ... .. . ... : ... .. . ... : ... .. . ... : ... .. . ...
ROW 2c : G-5 00 8 ... : A#4 00 8 ... : ... .. . ... : ... .. . ... : ... .. . ... : C#3 03 6 039 : ... .. . ... : ... .. . ...
ROW 2d : ... .. . ... : ... .. . ... : ... .. . ... : ... .. . ... : ... .. . ... : ... .. . ... : ... .. . ... : ... .. . ...
ROW 2e : ... .. . ... : ... .. . ... : ... .. . ... : ... .. . ... : ... .. . ... : --- .. . ... : ... .. . ... : ... .. . ...
ROW 2f : ... .. . ... : ... .. . ... : ... .. . ... : ... .. . ... : ... .. . ... : ... .. . ... : ... .. . ... : ... .. . ...
ROW 30 : A-5 00 8 ... : C-5 00 8 ... : ... .. . ... : ... .. . ... : ... .. . ... : D-3 03 6 07A : ... .. . ... : ... .. . ...
ROW 31 : ... .. . ... : ... .. . ... : ... .. . ... : ... .. . ... : ... .. . ... : ... .. . ... : ... .. . ... : ... .. . ...
ROW 32 : ... .. . ... : ... .. . ... : ... .. . ... : ... .. . ... : ... .. . ... : --- .. . ... : ... .. . ... : ... .. . ...
ROW 33 : ... .. . ... : ... .. . ... : ... .. . ... : ... .. . ... : ... .. . ... : D-3 03 6 07A : ... .. . ... : ... .. . ...
ROW 34 : A-5 00 8 ... : C-5 00 8 ... : ... .. . ... : ... .. . ... : ... .. . ... : --- .. . ... : ... .. . ... : ... .. . ...
ROW 35 : ... .. . ... : ... .. . ... : ... .. . ... : ... .. . ... : ... .. . ... : ... .. . ... : ... .. . ... : ... .. . ...
ROW 36 : ... .. . ... : ... .. . ... : ... .. . ... : ... .. . ... : ... .. . ... : D-3 03 6 07A : ... .. . ... : ... .. . ...
ROW 37 : ... .. . ... : ... .. . ... : ... .. . ... : ... .. . ... : ... .. . ... : ... .. . ... : ... .. . ... : ... .. . ...
ROW 38 : A-5 00 8 ... : C-5 00 8 ... : ... .. . ... : ... .. . ... : ... .. . ... : --- .. . ... : ... .. . ... : ... .. . ...
ROW 39 : ... .. . ... : ... .. . ... : ... .. . ... : ... .. . ... : ... .. . ... : D-3 03 6 07A : ... .. . ... : ... .. . ...
ROW 3a : ... .. . ... : ... .. . ... : ... .. . ... : ... .. . ... : ... .. . ... : --- .. . ... : ... .. . ... : ... .. . ...
ROW 3b : ... .. . ... : ... .. . ... : ... .. . ... : ... .. . ... : ... .. . ... : ... .. . ... : ... .. . ... : ... .. . ...
ROW 3c : F-5 00 8 ... : ... .. . ... : ... .. . ... : ... .. . ... : ... .. . ... : D-3 03 6 07A : ... .. . ... : ... .. . ...
ROW 3d : ... .. . ... : ... .. . ... : ... .. . ... : ... .. . ... : ... .. . ... : ... .. . ... : ... .. . ... : ... .. . ...
ROW 3e : D-5 00 8 ... : ... .. . ... : ... .. . ... : ... .. . ... : ... .. . ... : --- .. . ... : ... .. . ... : ... .. . ...
ROW 3f : ... .. . ... : ... .. . ... : ... .. . ... : ... .. . ... : ... .. . ... : ... .. . ... : ... .. . ... : ... .. . ...
PATTERN 03
ROW 00 : F-5 00 8 ... : A-4 00 8 ... : ... .. . ... : ... .. . ... : ... .. . ... : D-3 03 6 07A : ... .. . ... : ... .. . ...
ROW 01 : ... .. . ... : ... .. . ... : ... .. . ... : ... .. . ... : ... .. . ... : ... .. . ... : ... .. . ... : ... .. . ...
ROW 02 : D-5 00 8 ... : ... .. . ... : ... .. . ... : ... .. . ... : ... .. . ... : --- .. . ... : ... .. . ... : ... .. . ...
ROW 03 : ... .. . ... : ... .. . ... : ... .. . ... : ... .. . ... : ... .. . ... : D-3 03 6 07A : ... .. . ... : ... .. . ...
ROW 04 : F-5 00 8 ... : ... .. . ... : ... .. . ... : ... .. . ... : ... .. . ... : --- .. . ... : ... .. . ... : ... .. . ...
ROW 05 : ... .. . ... : ... .. . ... : ... .. . ... : ... .. . ... : ... .. . ... : ... .. . ... : ... .. . ... : ... .. . ...
ROW 06 : G-5 00 8 ... : ... .. . ... : ... .. . ... : ... .. . ... : ... .. . ... : D-3 03 6 07A : ... .. . ... : ... .. . ...
ROW 07 : ... .. . ... : ... .. . ... : ... .. . ... : ... .. . ... : ... .. . ... : ... .. . ... : ... .. . ... : ... .. . ...
ROW 08 : F-5 00 8 ... : A-4 00 8 ... : ... .. . ... : ... .. . ... : ... .. . ... : --- .. . ... : ... .. . ... : ... .. . ...
ROW 09 : ... .. . ... : ... .. . ... : ... .. . ... : ... .. . ... : ... .. . ... : D-3 03 6 07A : ... .. . ... : ... .. . ...
ROW 0a : ... .. . ... : ... .. . ... : ... .. . ... : ... .. . ... : ... .. . ... : --- .. . ... : ... .. . ... : ... .. . ...
ROW 0b : ... .. . ... : ... .. . ... : ... .. . ... : ... .. . ... : ... .. . ... : ... .. . ... : ... .. . ... : ... .. . ...
ROW 0c : --- .. . ... : --- .. . ... : ... .. . ... : ... .. . ... : ... .. . ... : D-3 03 6 07A : ... .. . ... : ... .. . ...
ROW 0d : ... .. . ... : ... .. . ... : ... .. . ... : ... .. . ... : ... .. . ... : ... .. . ... : ... .. . ... : ... .. . ...
ROW 0e : D-5 00 8 ... : ... .. . ... : ... .. . ... : ... .. . ... : ... .. . ... : --- .. . ... : ... .. . ... : ... .. . ...
ROW 0f : ... .. . ... : ... .. . ... : ... .. . ... : ... .. . ... : ... .. . ... : ... .. . ... : ... .. . ... : ... .. . ...
ROW 10 : --- .. . ... : F-5 00 8 ... : A-4 01 7 ... : ... .. . ... : ... .. . ... : A#2 03 6 07B : ... .. . ... : ... .. . ...
ROW 11 : ... .. . ... : ... .. . ... : ... .. . ... : ... .. . ... : ... .. . ... : ... .. . ... : ... .. . ... : ... .. . ...
ROW 12 : ... .. . ... : G-5 00 8 ... : A#4 01 7 ... : ... .. . ... : ... .. . ... : --- .. . ... : ... .. . ... : ... .. . ...
ROW 13 : ... .. . ... : ... .. . ... : ... .. . ... : ... .. . ... : ... .. . ... : A#2 03 6 07B : ... .. . ... : ... .. . ...
ROW 14 : ... .. . ... : A-5 00 8 ... : C-5 01 7 ... : ... .. . ... : ... .. . ... : --- .. . ... : ... .. . ... : ... .. . ...
ROW 15 : ... .. . ... : ... .. . ... : ... .. . ... : ... .. . ... : ... .. . ... : ... .. . ... : ... .. . ... : ... .. . ...
ROW 16 : ... .. . ... : ... .. . ... : ... .. . ... : ... .. . ... : ... .. . ... : A#2 03 6 07B : ... .. . ... : ... .. . ...
ROW 17 : ... .. . ... : ... .. . ... : ... .. . ... : ... .. . ... : ... .. . ... : ... .. . ... : ... .. . ... : ... .. . ...
ROW 18 : A-5 00 8 080 : --- .. . ... : --- .. . ... : ... .. . ... : ... .. . ... : --- .. . ... : ... .. . ... : ... .. . ...
ROW 19 : ... .. . ... : ... .. . ... : ... .. . ... : ... .. . ... : ... .. . ... : A#2 03 6 07B : ... .. . ... : ... .. . ...
ROW 1a : A-5 00 8 080 : ... .. . ... : ... .. . ... : ... .. . ... : ... .. . ... : --- .. . ... : ... .. . ... : ... .. . ...
ROW 1b : ... .. . ... : ... .. . ... : ... .. . ... : ... .. . ... : ... .. . ... : ... .. . ... : ... .. . ... : ... .. . ...
ROW 1c : A-5 00 8 080 : ... .. . ... : ... .. . ... : ... .. . ... : ... .. . ... : A#2 03 6 07B : ... .. . ... : ... .. . ...
ROW 1d : ... .. . ... : ... .. . ... : ... .. . ... : ... .. . ... : ... .. . ... : ... .. . ... : ... .. . ... : ... .. . ...
ROW 1e : --- .. . ... : D-5 00 8 ... : ... .. . ... : ... .. . ... : ... .. . ... : --- .. . ... : ... .. . ... : ... .. . ...
ROW 1f : ... .. . ... : ... .. . ... : ... .. . ... : ... .. . ... : ... .. . ... : ... .. . ... : ... .. . ... : ... .. . ...
ROW 20 : ... .. . ... : F-5 00 8 ... : A-4 01 7 ... : ... .. . ... : ... .. . ... : A-2 03 6 04A : ... .. . ... : ... .. . ...
ROW 21 : ... .. . ... : ... .. . ... : ... .. . ... : ... .. . ... : ... .. . ... : ... .. . ... : ... .. . ... : ... .. . ...
ROW 22 : ... .. . ... : G-5 00 8 ... : A#4 01 7 ... : ... .. . ... : ... .. . ... : --- .. . ... : ... .. . ... : ... .. . ...
ROW 23 : ... .. . ... : ... .. . ... : ... .. . ... : ... .. . ... : ... .. . ... : A-2 03 6 04A : ... .. . ... : ... .. . ...
ROW 24 : ... .. . ... : A-5 00 8 ... : C-5 01 7 ... : ... .. . ... : ... .. . ... : --- .. . ... : ... .. . ... : ... .. . ...
ROW 25 : ... .. . ... : ... .. . ... : ... .. . ... : ... .. . ... : ... .. . ... : ... .. . ... : ... .. . ... : ... .. . ...
ROW 26 : ... .. . ... : ... .. . ... : ... .. . ... : ... .. . ... : ... .. . ... : A-2 03 6 04A : ... .. . ... : ... .. . ...
ROW 27 : ... .. . ... : ... .. . ... : ... .. . ... : ... .. . ... : ... .. . ... : ... .. . ... : ... .. . ... : ... .. . ...
ROW 28 : A-5 00 8 080 : --- .. . ... : --- .. . ... : ... .. . ... : ... .. . ... : --- .. . ... : ... .. . ... : ... .. . ...
ROW 29 : ... .. . ... : ... .. . ... : ... .. . ... : ... .. . ... : ... .. . ... : A-2 03 6 04A : ... .. . ... : ... .. . ...
ROW 2a : A-5 00 8 080 : ... .. . ... : ... .. . ... : ... .. . ... : ... .. . ... : --- .. . ... : ... .. . ... : ... .. . ...
ROW 2b : ... .. . ... : ... .. . ... : ... .. . ... : ... .. . ... : ... .. . ... : ... .. . ... : ... .. . ... : ... .. . ...
ROW 2c : A-5 00 8 080 : ... .. . ... : ... .. . ... : ... .. . ... : ... .. . ... : A-2 03 6 04A : ... .. . ... : ... .. . ...
ROW 2d : ... .. . ... : ... .. . ... : ... .. . ... : ... .. . ... : ... .. . ... : ... .. . ... : ... .. . ... : ... .. . ...
ROW 2e : --- .. . ... : ... .. . ... : ... .. . ... : ... .. . ... : ... .. . ... : --- .. . ... : ... .. . ... : ... .. . ...
ROW 2f : ... .. . ... : ... .. . ... : ... .. . ... : ... .. . ... : ... .. . ... : ... .. . ... : ... .. . ... : ... .. . ...
ROW 30 : C-6 00 8 ... : F-5 00 8 ... : ... .. . ... : ... .. . ... : ... .. . ... : A#2 03 6 07B : ... .. . ... : ... .. . ...
ROW 31 : ... .. . ... : ... .. . ... : ... .. . ... : ... .. . ... : ... .. . ... : ... .. . ... : ... .. . ... : ... .. . ...
ROW 32 : ... .. . ... : ... .. . ... : ... .. . ... : ... .. . ... : ... .. . ... : --- .. . ... : ... .. . ... : ... .. . ...
ROW 33 : ... .. . ... : ... .. . ... : ... .. . ... : ... .. . ... : ... .. . ... : A#2 03 6 07B : ... .. . ... : ... .. . ...
ROW 34 : A#5 00 8 ... : D-5 00 8 ... : ... .. . ... : ... .. . ... : ... .. . ... : --- .. . ... : ... .. . ... : ... .. . ...
ROW 35 : ... .. . ... : ... .. . ... : ... .. . ... : ... .. . ... : ... .. . ... : ... .. . ... : ... .. . ... : ... .. . ...
ROW 36 : ... .. . ... : ... .. . ... : ... .. . ... : ... .. . ... : ... .. . ... : A#2 03 6 07B : ... .. . ... : ... .. . ...
ROW 37 : ... .. . ... : ... .. . ... : ... .. . ... : ... .. . ... : ... .. . ... : ... .. . ... : ... .. . ... : ... .. . ...
ROW 38 : A-5 00 8 ... : C-5 00 8 ... : ... .. . ... : ... .. . ... : ... .. . ... : --- .. . ... : ... .. . ... : ... .. . ...
ROW 39 : ... .. . ... : ... .. . ... : ... .. . ... : ... .. . ... : ... .. . ... : A#2 03 6 07B : ... .. . ... : ... .. . ...
ROW 3a : ... .. . ... : ... .. . ... : ... .. . ... : ... .. . ... : ... .. . ... : --- .. . ... : ... .. . ... : ... .. . ...
ROW 3b : ... .. . ... : ... .. . ... : ... .. . ... : ... .. . ... : ... .. . ... : ... .. . ... : ... .. . ... : ... .. . ...
ROW 3c : A#5 00 8 ... : D-5 00 8 ... : ... .. . ... : ... .. . ... : ... .. . ... : A#2 03 6 07B : ... .. . ... : ... .. . ...
ROW 3d : ... .. . ... : ... .. . ... : ... .. . ... : ... .. . ... : ... .. . ... : ... .. . ... : ... .. . ... : ... .. . ...
ROW 3e : ... .. . ... : ... .. . ... : ... .. . ... : ... .. . ... : ... .. . ... : --- .. . ... : ... .. . ... : ... .. . ...
ROW 3f : ... .. . ... : ... .. . ... : ... .. . ... : ... .. . ... : ... .. . ... : ... .. . ... : ... .. . ... : ... .. . ...
PATTERN 04
ROW 00 : E-5 00 8 050 : C-5 00 8 ... : ... .. . ... : ... .. . ... : ... .. . ... : C-2 03 6 0C0 : ... .. . ... : ... .. . ...
ROW 01 : ... .. . ... : ... .. . ... : ... .. . ... : ... .. . ... : ... .. . ... : ... .. . ... : ... .. . ... : ... .. . ...
ROW 02 : ... .. . ... : ... .. . ... : ... .. . ... : ... .. . ... : ... .. . ... : ... .. . ... : ... .. . ... : ... .. . ...
ROW 03 : ... .. . ... : ... .. . ... : ... .. . ... : ... .. . ... : ... .. . ... : ... .. . ... : ... .. . ... : ... .. . ...
ROW 04 : --- .. . ... : --- .. . ... : ... .. . ... : ... .. . ... : ... .. . ... : --- .. . ... : ... .. . ... : ... .. . ...
ROW 05 : ... .. . ... : ... .. . ... : ... .. . ... : ... .. . ... : ... .. . ... : ... .. . ... : ... .. . ... : ... .. . ...
ROW 06 : F-5 00 8 ... : ... .. . ... : ... .. . ... : ... .. . ... : ... .. . ... : ... .. . ... : ... .. . ... : ... .. . ...
ROW 07 : ... .. . ... : ... .. . ... : ... .. . ... : ... .. . ... : ... .. . ... : ... .. . ... : ... .. . ... : ... .. . ...
ROW 08 : F-5 00 8 ... : A-4 00 8 ... : ... .. . ... : ... .. . ... : ... .. . ... : ... .. . ... : ... .. . ... : ... .. . ...
ROW 09 : ... .. . ... : ... .. . ... : ... .. . ... : ... .. . ... : ... .. . ... : ... .. . ... : ... .. . ... : ... .. . ...
ROW 0a : F-5 00 8 ... : A-4 00 8 ... : ... .. . ... : ... .. . ... : ... .. . ... : ... .. . ... : ... .. . ... : ... .. . ...
ROW 0b : ... .. . ... : ... .. . ... : ... .. . ... : ... .. . ... : ... .. . ... : ... .. . ... : ... .. . ... : ... .. . ...
ROW 0c : F-5 00 8 ... : A-4 00 8 ... : ... .. . ... : ... .. . ... : ... .. . ... : ... .. . ... : ... .. . ... : ... .. . ...
ROW 0d : ... .. . ... : ... .. . ... : ... .. . ... : ... .. . ... : ... .. . ... : ... .. . ... : ... .. . ... : ... .. . ...
ROW 0e : G-5 00 8 ... : A#4 00 8 ... : ... .. . ... : ... .. . ... : ... .. . ... : ... .. . ... : ... .. . ... : ... .. . ...
ROW 0f : F-5 00 8 ... : A-4 00 8 ... : ... .. . ... : ... .. . ... : ... .. . ... : ... .. . ... : ... .. . ... : ... .. . ...
ROW 10 : --- .. . ... : --- .. . ... : ... .. . ... : ... .. . ... : ... .. . ... : D-2 03 6 0C0 : ... .. . ... : ... .. . ...
ROW 11 : ... .. . ... : ... .. . ... : ... .. . ... : ... .. . ... : ... .. . ... : ... .. . ... : ... .. . ... : ... .. . ...
ROW 12 : ... .. . ... : ... .. . ... : ... .. . ... : ... .. . ... : ... .. . ... : ... .. . ... : ... .. . ... : ... .. . ...
ROW 13 : ... .. . ... : ... .. . ... : ... .. . ... : ... .. . ... : ... .. . ... : ... .. . ... : ... .. . ... : ... .. . ...
ROW 14 : F-3 00 8 04B : ... .. . ... : ... .. . ... : ... .. . ... : ... .. . ... : D-2 03 6 0C0 : ... .. . ... : ... .. . ...
ROW 15 : ... .. . ... : ... .. . ... : ... .. . ... : ... .. . ... : ... .. . ... : ... .. . ... : ... .. . ... : ... .. . ...
ROW 16 : ... .. . ... : ... .. . ... : ... .. . ... : ... .. . ... : ... .. . ... : ... .. . ... : ... .. . ... : ... .. . ...
ROW 17 : ... .. . ... : ... .. . ... : ... .. . ... : ... .. . ... : ... .. . ... : ... .. . ... : ... .. . ... : ... .. . ...
ROW 18 : F-3 00 8 04B : ... .. . ... : ... .. . ... : ... .. . ... : ... .. . ... : D-2 03 6 0C0 : ... .. . ... : ... .. . ...
ROW 19 : ... .. . ... : ... .. . ... : ... .. . ... : ... .. . ... : ... .. . ... : ... .. . ... : ... .. . ... : ... .. . ...
ROW 1a : --- .. . ... : ... .. . ... : ... .. . ... : ... .. . ... : ... .. . ... : --- .. . ... : ... .. . ... : ... .. . ...
ROW 1b : F-3 00 8 04B : ... .. . ... : ... .. . ... : ... .. . ... : ... .. . ... : D-2 03 6 0C0 : ... .. . ... : ... .. . ...
ROW 1c : --- .. . ... : ... .. . ... : ... .. . ... : ... .. . ... : ... .. . ... : --- .. . ... : ... .. . ... : ... .. . ...
ROW 1d : ... .. . ... : ... .. . ... : ... .. . ... : ... .. . ... : ... .. . ... : ... .. . ... : ... .. . ... : ... .. . ...
ROW 1e : F-3 00 8 04B : ... .. . ... : ... .. . ... : ... .. . ... : ... .. . ... : D-2 03 6 0C0 : ... .. . ... : ... .. . ...
ROW 1f : ... .. . ... : ... .. . ... : ... .. . ... : ... .. . ... : ... .. . ... : ... .. . ... : ... .. . ... : ... .. . ...
ROW 20 : F-3 00 8 04B : ... .. . ... : ... .. . ... : ... .. . ... : ... .. . ... : D-2 03 6 0C0 : ... .. . ... : ... .. . ...
ROW 21 : ... .. . ... : ... .. . ... : ... .. . ... : ... .. . ... : ... .. . ... : ... .. . ... : ... .. . ... : ... .. . ...
ROW 22 : ... .. . ... : ... .. . ... : ... .. . ... : ... .. . ... : ... .. . ... : ... .. . ... : ... .. . ... : ... .. . ...
ROW 23 : ... .. . ... : ... .. . ... : ... .. . ... : ... .. . ... : ... .. . ... : ... .. . ... : ... .. . ... : ... .. . ...
ROW 24 : F-3 00 8 04B : ... .. . ... : ... .. . ... : ... .. . ... : ... .. . ... : D-2 03 6 0C0 : ... .. . ... : ... .. . ...
ROW 25 : ... .. . ... : ... .. . ... : ... .. . ... : ... .. . ... : ... .. . ... : ... .. . ... : ... .. . ... : ... .. . ...
ROW 26 : ... .. . ... : ... .. . ... : ... .. . ... : ... .. . ... : ... .. . ... : ... .. . ... : ... .. . ... : ... .. . ...
ROW 27 : ... .. . ... : ... .. . ... : ... .. . ... : ... .. . ... : ... .. . ... : ... .. . ... : ... .. . ... : ... .. . ...
ROW 28 : F-3 00 8 04B : ... .. . ... : ... .. . ... : ... .. . ... : ... .. . ... : D-2 03 6 0C0 : ... .. . ... : ... .. . ...
ROW 29 : ... .. . ... : ... .. . ... : ... .. . ... : ... .. . ... : ... .. . ... : ... .. . ... : ... .. . ... : ... .. . ...
ROW 2a : --- .. . ... : ... .. . ... : ... .. . ... : ... .. . ... : ... .. . ... : --- .. . ... : ... .. . ... : ... .. . ...
ROW 2b : F-3 00 8 04B : ... .. . ... : ... .. . ... : ... .. . ... : ... .. . ... : D-2 03 6 0C0 : ... .. . ... : ... .. . ...
ROW 2c : --- .. . ... : ... .. . ... : ... .. . ... : ... .. . ... : ... .. . ... : --- .. . ... : ... .. . ... : ... .. . ...
ROW 2d : ... .. . ... : ... .. . ... : ... .. . ... : ... .. . ... : ... .. . ... : ... .. . ... : ... .. . ... : ... .. . ...
ROW 2e : F-3 00 8 04B : ... .. . ... : ... .. . ... : ... .. . ... : ... .. . ... : D-2 03 6 0C0 : ... .. . ... : ... .. . ...
ROW 2f : ... .. . ... : ... .. . ... : ... .. . ... : ... .. . ... : ... .. . ... : ... .. . ... : ... .. . ... : ... .. . ...
ROW 30 : F-3 00 8 04B : ... .. . ... : ... .. . ... : ... .. . ... : ... .. . ... : D-2 03 6 0C0 : ... .. . ... : ... .. . ...
ROW 31 : ... .. . ... : ... .. . ... : ... .. . ... : ... .. . ... : ... .. . ... : ... .. . ... : ... .. . ... : ... .. . ...
ROW 32 : ... .. . ... : ... .. . ... : ... .. . ... : ... .. . ... : ... .. . ... : ... .. . ... : ... .. . ... : ... .. . ...
ROW 33 : ... .. . ... : ... .. . ... : ... .. . ... : ... .. . ... : ... .. . ... : ... .. . ... : ... .. . ... : ... .. . ...
ROW 34 : F-3 00 8 04B : ... .. . ... : ... .. . ... : ... .. . ... : ... .. . ... : D-2 03 6 0C0 : ... .. . ... : ... .. . ...
ROW 35 : ... .. . ... : ... .. . ... : ... .. . ... : ... .. . ... : ... .. . ... : ... .. . ... : ... .. . ... : ... .. . ...
ROW 36 : ... .. . ... : ... .. . ... : ... .. . ... : ... .. . ... : ... .. . ... : ... .. . ... : ... .. . ... : ... .. . ...
ROW 37 : ... .. . ... : ... .. . ... : ... .. . ... : ... .. . ... : ... .. . ... : ... .. . ... : ... .. . ... : ... .. . ...
ROW 38 : F-3 00 8 04B : ... .. . ... : ... .. . ... : ... .. . ... : ... .. . ... : D-2 03 6 0C0 : ... .. . ... : ... .. . ...
ROW 39 : ... .. . ... : ... .. . ... : ... .. . ... : ... .. . ... : ... .. . ... : ... .. . ... : ... .. . ... : ... .. . ...
ROW 3a : --- .. . ... : ... .. . ... : ... .. . ... : ... .. . ... : ... .. . ... : --- .. . ... : ... .. . ... : ... .. . ...
ROW 3b : F-3 00 8 04B : ... .. . ... : ... .. . ... : ... .. . ... : ... .. . ... : D-2 03 6 0C0 : ... .. . ... : ... .. . ...
ROW 3c : --- .. . ... : ... .. . ... : ... .. . ... : ... .. . ... : ... .. . ... : --- .. . ... : ... .. . ... : ... .. . ...
ROW 3d : ... .. . ... : ... .. . ... : ... .. . ... : ... .. . ... : ... .. . ... : ... .. . ... : ... .. . ... : ... .. . ...
ROW 3e : F-3 00 8 04B : ... .. . ... : ... .. . ... : ... .. . ... : ... .. . ... : D-2 03 6 0C0 : ... .. . ... : ... .. . ...
ROW 3f : ... .. . ... : ... .. . ... : ... .. . ... : ... .. . ... : ... .. . ... : ... .. . ... : ... .. . ... : ... .. . ...
PATTERN 05
ROW 00 : F-3 00 8 04B : ... .. . ... : ... .. . ... : ... .. . ... : ... .. . ... : D-2 03 6 0C0 : ... .. . ... : ... .. . ...
ROW 01 : ... .. . ... : ... .. . ... : ... .. . ... : ... .. . ... : ... .. . ... : ... .. . ... : ... .. . ... : ... .. . ...
ROW 02 : ... .. . ... : ... .. . ... : ... .. . ... : ... .. . ... : ... .. . ... : ... .. . ... : ... .. . ... : ... .. . ...
ROW 03 : ... .. . ... : ... .. . ... : ... .. . ... : ... .. . ... : ... .. . ... : ... .. . ... : ... .. . ... : ... .. . ...
ROW 04 : F-3 00 8 04B : ... .. . ... : ... .. . ... : ... .. . ... : ... .. . ... : D-2 03 6 0C0 : ... .. . ... : ... .. . ...
ROW 05 : ... .. . ... : ... .. . ... : ... .. . ... : ... .. . ... : ... .. . ... : ... .. . ... : ... .. . ... : ... .. . ...
ROW 06 : ... .. . ... : ... .. . ... : ... .. . ... : ... .. . ... : ... .. . ... : ... .. . ... : ... .. . ... : ... .. . ...
ROW 07 : ... .. . ... : ... .. . ... : ... .. . ... : ... .. . ... : ... .. . ... : ... .. . ... : ... .. . ... : ... .. . ...
ROW 08 : F-3 00 8 04B : ... .. . ... : ... .. . ... : ... .. . ... : ... .. . ... : D-2 03 6 0C0 : ... .. . ... : ... .. . ...
ROW 09 : ... .. . ... : ... .. . ... : ... .. . ... : ... .. . ... : ... .. . ... : ... .. . ... : ... .. . ... : ... .. . ...
ROW 0a : --- .. . ... : ... .. . ... : ... .. . ... : ... .. . ... : ... .. . ... : --- .. . ... : ... .. . ... : ... .. . ...
ROW 0b : F-3 00 8 04B : ... .. . ... : ... .. . ... : ... .. . ... : ... .. . ... : D-2 03 6 0C0 : ... .. . ... : ... .. . ...
ROW 0c : --- .. . ... : ... .. . ... : ... .. . ... : ... .. . ... : ... .. . ... : --- .. . ... : ... .. . ... : ... .. . ...
ROW 0d : ... .. . ... : ... .. . ... : ... .. . ... : ... .. . ... : ... .. . ... : ... .. . ... : ... .. . ... : ... .. . ...
ROW 0e : F-3 00 8 04B : ... .. . ... : ... .. . ... : ... .. . ... : ... .. . ... : D-2 03 6 0C0 : ... .. . ... : ... .. . ...
ROW 0f : ... .. . ... : ... .. . ... : ... .. . ... : ... .. . ... : ... .. . ... : ... .. . ... : ... .. . ... : ... .. . ...
ROW 10 : F-3 00 8 04B : ... .. . ... : ... .. . ... : ... .. . ... : ... .. . ... : D-2 03 6 0C0 : ... .. . ... : ... .. . ...
ROW 11 : ... .. . ... : ... .. . ... : ... .. . ... : ... .. . ... : ... .. . ... : ... .. . ... : ... .. . ... : ... .. . ...
ROW 12 : F-3 00 8 04B : ... .. . ... : ... .. . ... : ... .. . ... : ... .. . ... : D-2 03 6 0C0 : ... .. . ... : ... .. . ...
ROW 13 : ... .. . ... : ... .. . ... : ... .. . ... : ... .. . ... : ... .. . ... : ... .. . ... : ... .. . ... : ... .. . ...
ROW 14 : F#3 00 8 04B : ... .. . ... : ... .. . ... : ... .. . ... : ... .. . ... : D#2 03 6 0C0 : ... .. . ... : ... .. . ...
ROW 15 : ... .. . ... : ... .. . ... : ... .. . ... : ... .. . ... : ... .. . ... : ... .. . ... : ... .. . ... : ... .. . ...
ROW 16 : F#3 00 8 04B : ... .. . ... : ... .. . ... : ... .. . ... : ... .. . ... : D#2 03 6 0C0 : ... .. . ... : ... .. . ...
ROW 17 : ... .. . ... : ... .. . ... : ... .. . ... : ... .. . ... : ... .. . ... : ... .. . ... : ... .. . ... : ... .. . ...
ROW 18 : G-3 00 8 04B : ... .. . ... : ... .. . ... : ... .. . ... : ... .. . ... : E-2 03 6 0C0 : ... .. . ... : ... .. . ...
ROW 19 : ... .. . ... : ... .. . ... : ... .. . ... : ... .. . ... : ... .. . ... : ... .. . ... : ... .. . ... : ... .. . ...
ROW 1a : G-3 00 8 04B : ... .. . ... : ... .. . ... : ... .. . ... : ... .. . ... : E-2 03 6 0C0 : ... .. . ... : ... .. . ...
ROW 1b : ... .. . ... : ... .. . ... : ... .. . ... : ... .. . ... : ... .. . ... : ... .. . ... : ... .. . ... : ... .. . ...
ROW 1c : G#3 00 8 04B : ... .. . ... : ... .. . ... : ... .. . ... : ... .. . ... : F-2 03 6 0C0 : ... .. . ... : ... .. . ...
ROW 1d : ... .. . ... : ... .. . ... : ... .. . ... : ... .. . ... : ... .. . ... : ... .. . ... : ... .. . ... : ... .. . ...
ROW 1e : G#3 00 8 04B : ... .. . ... : ... .. . ... : ... .. . ... : ... .. . ... : F-2 03 6 0C0 : ... .. . ... : ... .. . ...
ROW 1f : ... .. . ... : ... .. . ... : ... .. . ... : ... .. . ... : ... .. . ... : ... .. . ... : ... .. . ... : ... .. . ...
ROW 20 : A-3 00 8 04B : ... .. . ... : ... .. . ... : ... .. . ... : ... .. . ... : F#2 03 6 0C0 : ... .. . ... : ... .. . ...
ROW 21 : ... .. . ... : ... .. . ... : ... .. . ... : ... .. . ... : ... .. . ... : ... .. . ... : ... .. . ... : ... .. . ...
ROW 22 : A-3 00 8 04B : ... .. . ... : ... .. . ... : ... .. . ... : ... .. . ... : F#2 03 6 0C0 : ... .. . ... : ... .. . ...
ROW 23 : ... .. . ... : ... .. . ... : ... .. . ... : ... .. . ... : ... .. . ... : ... .. . ... : ... .. . ... : ... .. . ...
ROW 24 : A#3 00 8 04B : ... .. . ... : ... .. . ... : ... .. . ... : ... .. . ... : G-2 03 6 0C0 : ... .. . ... : ... .. . ...
ROW 25 : ... .. . ... : ... .. . ... : ... .. . ... : ... .. . ... : ... .. . ... : ... .. . ... : ... .. . ... : ... .. . ...
ROW 26 : A#3 00 8 04B : ... .. . ... : ... .. . ... : ... .. . ... : ... .. . ... : G-2 03 6 0C0 : ... .. . ... : ... .. . ...
ROW 27 : ... .. . ... : ... .. . ... : ... .. . ... : ... .. . ... : ... .. . ... : ... .. . ... : ... .. . ... : ... .. . ...
ROW 28 : B-3 00 8 04B : ... .. . ... : ... .. . ... : ... .. . ... : ... .. . ... : G#2 03 6 0C0 : ... .. . ... : ... .. . ...
ROW 29 : ... .. . ... : ... .. . ... : ... .. . ... : ... .. . ... : ... .. . ... : ... .. . ... : ... .. . ... : ... .. . ...
ROW 2a : B-3 00 8 04B : ... .. . ... : ... .. . ... : ... .. . ... : ... .. . ... : G#2 03 6 0C0 : ... .. . ... : ... .. . ...
ROW 2b : ... .. . ... : ... .. . ... : ... .. . ... : ... .. . ... : ... .. . ... : ... .. . ... : ... .. . ... : ... .. . ...
ROW 2c : C-4 00 8 04B : ... .. . ... : ... .. . ... : ... .. . ... : ... .. . ... : A-2 03 6 0C0 : ... .. . ... : ... .. . ...
ROW 2d : ... .. . ... : ... .. . ... : ... .. . ... : ... .. . ... : ... .. . ... : ... .. . ... : ... .. . ... : ... .. . ...
ROW 2e : C-4 00 8 04B : ... .. . ... : ... .. . ... : ... .. . ... : ... .. . ... : A-2 03 6 0C0 : ... .. . ... : ... .. . ...
ROW 2f : ... .. . ... : ... .. . ... : ... .. . ... : ... .. . ... : ... .. . ... : ... .. . ... : ... .. . ... : ... .. . ...
ROW 30 : C#4 00 8 04B : ... .. . ... : ... .. . ... : ... .. . ... : ... .. . ... : A#2 03 6 ... : ... .. . ... : ... .. . ...
ROW 31 : ... .. . ... : ... .. . ... : ... .. . ... : ... .. . ... : ... .. . ... : A#3 03 6 ... : ... .. . ... : ... .. . ...
ROW 32 : ... .. . ... : ... .. . ... : ... .. . ... : ... .. . ... : ... .. . ... : A#2 03 6 ... : ... .. . ... : ... .. . ...
ROW 33 : ... .. . ... : ... .. . ... : ... .. . ... : ... .. . ... : ... .. . ... : A#3 03 6 ... : ... .. . ... : ... .. . ...
ROW 34 : ... .. . ... : ... .. . ... : ... .. . ... : ... .. . ... : ... .. . ... : A#2 03 6 ... : ... .. . ... : ... .. . ...
ROW 35 : ... .. . ... : ... .. . ... : ... .. . ... : ... .. . ... : ... .. . ... : A#3 03 6 ... : ... .. . ... : ... .. . ...
ROW 36 : ... .. . ... : ... .. . ... : ... .. . ... : ... .. . ... : ... .. . ... : A#2 03 6 ... : ... .. . ... : ... .. . ...
ROW 37 : ... .. . ... : ... .. . ... : ... .. . ... : ... .. . ... : ... .. . ... : A#3 03 6 ... : ... .. . ... : ... .. . ...
ROW 38 : D-4 00 8 04B : ... .. . ... : ... .. . ... : ... .. . ... : ... .. . ... : B-2 03 6 ... : ... .. . ... : ... .. . ...
ROW 39 : ... .. . ... : ... .. . ... : ... .. . ... : ... .. . ... : ... .. . ... : B-3 03 6 ... : ... .. . ... : ... .. . ...
ROW 3a : ... .. . ... : ... .. . ... : ... .. . ... : ... .. . ... : ... .. . ... : B-2 03 6 ... : ... .. . ... : ... .. . ...
ROW 3b : ... .. . ... : ... .. . ... : ... .. . ... : ... .. . ... : ... .. . ... : B-3 03 6 ... : ... .. . ... : ... .. . ...
ROW 3c : ... .. . ... : ... .. . ... : ... .. . ... : ... .. . ... : ... .. . ... : B-2 03 6 ... : ... .. . ... : ... .. . ...
ROW 3d : ... .. . ... : ... .. . ... : ... .. . ... : ... .. . ... : ... .. . ... : B-3 03 6 ... : ... .. . ... : ... .. . ...
ROW 3e : ... .. . ... : ... .. . ... : ... .. . ... : ... .. . ... : ... .. . ... : B-2 03 6 ... : ... .. . ... : ... .. . ...
ROW 3f : ... .. . ... : ... .. . ... : ... .. . ... : ... .. . ... : ... .. . ... : B-3 03 6 ... : ... .. . ... : ... .. . ...
PATTERN 06
ROW 00 : D#4 00 8 04B : ... .. . ... : ... .. . ... : ... .. . ... : ... .. . ... : C-3 03 6 ... : ... .. . ... : ... .. . ...
ROW 01 : ... .. . ... : ... .. . ... : ... .. . ... : ... .. . ... : ... .. . ... : C-4 03 6 ... : ... .. . ... : ... .. . ...
ROW 02 : ... .. . ... : ... .. . ... : ... .. . ... : ... .. . ... : ... .. . ... : C-3 03 6 ... : ... .. . ... : ... .. . ...
ROW 03 : ... .. . ... : ... .. . ... : ... .. . ... : ... .. . ... : ... .. . ... : C-4 03 6 ... : ... .. . ... : ... .. . ...
ROW 04 : E-4 00 8 04B : ... .. . ... : ... .. . ... : ... .. . ... : ... .. . ... : C#3 03 6 ... : ... .. . ... : ... .. . ...
ROW 05 : ... .. . ... : ... .. . ... : ... .. . ... : ... .. . ... : ... .. . ... : C#4 03 6 ... : ... .. . ... : ... .. . ...
ROW 06 : ... .. . ... : ... .. . ... : ... .. . ... : ... .. . ... : ... .. . ... : C#3 03 6 ... : ... .. . ... : ... .. . ...
ROW 07 : ... .. . ... : ... .. . ... : ... .. . ... : ... .. . ... : ... .. . ... : C#4 03 6 ... : ... .. . ... : ... .. . ...
ROW 08 : F-4 00 8 04B : ... .. . ... : ... .. . ... : ... .. . ... : ... .. . ... : D-3 03 6 ... : ... .. . ... : ... .. . ...
ROW 09 : ... .. . ... : ... .. . ... : ... .. . ... : ... .. . ... : ... .. . ... : D-4 03 6 ... : ... .. . ... : ... .. . ...
ROW 0a : ... .. . ... : ... .. . ... : ... .. . ... : ... .. . ... : ... .. . ... : D-3 03 6 ... : ... .. . ... : ... .. . ...
ROW 0b : ... .. . ... : ... .. . ... : ... .. . ... : ... .. . ... : ... .. . ... : D-4 03 6 ... : ... .. . ... : ... .. . ...
ROW 0c : ... .. . ... : ... .. . ... : ... .. . ... : ... .. . ... : ... .. . ... : D-3 03 6 ... : ... .. . ... : ... .. . ...
ROW 0d : ... .. . ... : ... .. . ... : ... .. . ... : ... .. . ... : ... .. . ... : D-4 03 6 ... : ... .. . ... : ... .. . ...
ROW 0e : ... .. . ... : ... .. . ... : ... .. . ... : ... .. . ... : ... .. . ... : D-3 03 6 ... : ... .. . ... : ... .. . ...
ROW 0f : ... .. . ... : ... .. . ... : ... .. . ... : ... .. . ... : ... .. . ... : D-4 03 6 ... : ... .. . ... : ... .. . ...
ROW 10 : --- .. . ... : ... .. . ... : ... .. . ... : ... .. . ... : ... .. . ... : --- .. . ... : ... .. . ... : ... .. . ...
ROW 11 : ... .. . ... : ... .. . ... : ... .. . ... : ... .. . ... : ... .. . ... : ... .. . ... : ... .. . ... : ... .. . ...
ROW 12 : ... .. . ... : ... .. . ... : ... .. . ... : ... .. . ... : ... .. . ... : ... .. . ... : ... .. . ... : ... .. . ...
ROW 13 : ... .. . ... : ... .. . ... : ... .. . ... : ... .. . ... : ... .. . ... : ... .. . ... : ... .. . ... : ... .. . ...
ROW 14 : ... .. . ... : ... .. . ... : ... .. . ... : ... .. . ... : ... .. . ... : ... .. . ... : ... .. . ... : ... .. . ...
ROW 15 : ... .. . ... : ... .. . ... : ... .. . ... : ... .. . ... : ... .. . ... : ... .. . ... : ... .. . ... : ... .. . ...
ROW 16 : ... .. . ... : ... .. . ... : ... .. . ... : ... .. . ... : ... .. . ... : ... .. . ... : ... .. . ... : ... .. . ...
ROW 17 : ... .. . ... : ... .. . ... : ... .. . ... : ... .. . ... : ... .. . ... : ... .. . ... : ... .. . ... : ... .. . ...
ROW 18 : ... .. . ... : ... .. . ... : ... .. . ... : ... .. . ... : ... .. . ... : ... .. . ... : ... .. . ... : ... .. . ...
ROW 19 : ... .. . ... : ... .. . ... : ... .. . ... : ... .. . ... : ... .. . ... : ... .. . ... : ... .. . ... : ... .. . ...
ROW 1a : ... .. . ... : ... .. . ... : ... .. . ... : ... .. . ... : ... .. . ... : ... .. . ... : ... .. . ... : ... .. . ...
ROW 1b : ... .. . ... : ... .. . ... : ... .. . ... : ... .. . ... : ... .. . ... : ... .. . ... : ... .. . ... : ... .. . ...
ROW 1c : ... .. . ... : ... .. . ... : ... .. . ... : ... .. . ... : ... .. . ... : A-2 03 6 070 : ... .. . ... : ... .. . ...
ROW 1d : ... .. . ... : ... .. . ... : ... .. . ... : ... .. . ... : ... .. . ... : ... .. . ... : ... .. . ... : ... .. . ...
ROW 1e : ... .. . ... : ... .. . ... : ... .. . ... : ... .. . ... : ... .. . ... : ... .. . ... : ... .. . ... : ... .. . ...
ROW 1f : ... .. . ... : ... .. . ... : ... .. . ... : ... .. . ... : ... .. . ... : ... .. . ... : ... .. . ... : ... .. . ...
ROW 20 : ... .. . ... : ... .. . ... : ... .. . ... : ... .. . ... : ... .. . ... : D-2 03 6 ... : ... .. . ... : ... .. . ...
ROW 21 : ... .. . ... : ... .. . ... : ... .. . ... : ... .. . ... : ... .. . ... : ... .. . ... : ... .. . ... : ... .. . ...
ROW 22 : A-4 00 8 080 : ... .. . ... : ... .. . ... : ... .. . ... : ... .. . ... : D-3 03 6 ... : ... .. . ... : ... .. . ...
ROW 23 : ... .. . ... : ... .. . ... : ... .. . ... : ... .. . ... : ... .. . ... : ... .. . ... : ... .. . ... : ... .. . ...
ROW 24 : A-4 00 8 080 : ... .. . ... : ... .. . ... : ... .. . ... : ... .. . ... : A-2 03 6 ... : ... .. . ... : ... .. . ...
ROW 25 : ... .. . ... : ... .. . ... : ... .. . ... : ... .. . ... : ... .. . ... : ... .. . ... : ... .. . ... : ... .. . ...
ROW 26 : D-5 00 8 ... : ... .. . ... : ... .. . ... : ... .. . ... : ... .. . ... : C-3 03 6 ... : ... .. . ... : ... .. . ...
ROW 27 : A-4 00 8 080 : ... .. . ... : ... .. . ... : ... .. . ... : ... .. . ... : ... .. . ... : ... .. . ... : ... .. . ...
ROW 28 : ... .. . ... : ... .. . ... : ... .. . ... : ... .. . ... : ... .. . ... : D-2 03 6 ... : ... .. . ... : ... .. . ...
ROW 29 : A-4 00 8 080 : ... .. . ... : ... .. . ... : ... .. . ... : ... .. . ... : ... .. . ... : ... .. . ... : ... .. . ...
ROW 2a : ... .. . ... : ... .. . ... : ... .. . ... : ... .. . ... : ... .. . ... : D-3 03 6 ... : ... .. . ... : ... .. . ...
ROW 2b : D-5 00 8 ... : ... .. . ... : ... .. . ... : ... .. . ... : ... .. . ... : ... .. . ... : ... .. . ... : ... .. . ...
ROW 2c : A-4 00 8 080 : ... .. . ... : ... .. . ... : ... .. . ... : ... .. . ... : A-2 03 6 ... : ... .. . ... : ... .. . ...
ROW 2d : ... .. . ... : ... .. . ... : ... .. . ... : ... .. . ... : ... .. . ... : ... .. . ... : ... .. . ... : ... .. . ...
ROW 2e : D-5 00 8 ... : ... .. . ... : ... .. . ... : ... .. . ... : ... .. . ... : C-3 03 6 ... : ... .. . ... : ... .. . ...
ROW 2f : ... .. . ... : ... .. . ... : ... .. . ... : ... .. . ... : ... .. . ... : ... .. . ... : ... .. . ... : ... .. . ...
ROW 30 : --- .. . ... : ... .. . ... : ... .. . ... : ... .. . ... : ... .. . ... : D-2 03 6 ... : ... .. . ... : ... .. . ...
ROW 31 : ... .. . ... : ... .. . ... : ... .. . ... : ... .. . ... : ... .. . ... : ... .. . ... : ... .. . ... : ... .. . ...
ROW 32 : A-4 00 8 080 : ... .. . ... : ... .. . ... : ... .. . ... : ... .. . ... : D-3 03 6 ... : ... .. . ... : ... .. . ...
ROW 33 : ... .. . ... : ... .. . ... : ... .. . ... : ... .. . ... : ... .. . ... : ... .. . ... : ... .. . ... : ... .. . ...
ROW 34 : A-4 00 8 080 : ... .. . ... : ... .. . ... : ... .. . ... : ... .. . ... : A-2 03 6 ... : ... .. . ... : ... .. . ...
ROW 35 : ... .. . ... : ... .. . ... : ... .. . ... : ... .. . ... : ... .. . ... : ... .. . ... : ... .. . ... : ... .. . ...
ROW 36 : D-5 00 8 ... : ... .. . ... : ... .. . ... : ... .. . ... : ... .. . ... : C-3 03 6 ... : ... .. . ... : ... .. . ...
ROW 37 : A-4 00 8 080 : ... .. . ... : ... .. . ... : ... .. . ... : ... .. . ... : ... .. . ... : ... .. . ... : ... .. . ...
ROW 38 : ... .. . ... : ... .. . ... : ... .. . ... : ... .. . ... : ... .. . ... : D-2 03 6 ... : ... .. . ... : ... .. . ...
ROW 39 : A-4 00 8 080 : ... .. . ... : ... .. . ... : ... .. . ... : ... .. . ... : ... .. . ... : ... .. . ... : ... .. . ...
ROW 3a : ... .. . ... : ... .. . ... : ... .. . ... : ... .. . ... : ... .. . ... : D-3 03 6 ... : ... .. . ... : ... .. . ...
ROW 3b : D-5 00 8 ... : ... .. . ... : ... .. . ... : ... .. . ... : ... .. . ... : ... .. . ... : ... .. . ... : ... .. . ...
ROW 3c : A-4 00 8 080 : ... .. . ... : ... .. . ... : ... .. . ... : ... .. . ... : A-2 03 6 ... : ... .. . ... : ... .. . ...
ROW 3d : ... .. . ... : ... .. . ... : ... .. . ... : ... .. . ... : ... .. . ... : ... .. . ... : ... .. . ... : ... .. . ...
ROW 3e : A#4 00 8 090 : ... .. . ... : ... .. . ... : ... .. . ... : ... .. . ... : C-3 03 6 ... : ... .. . ... : ... .. . ...
ROW 3f : ... .. . ... : ... .. . ... : ... .. . ... : ... .. . ... : ... .. . ... : ... .. . ... : ... .. . ... : ... .. . ...
PATTERN 07
ROW 00 : --- .. . ... : ... .. . ... : ... .. . ... : ... .. . ... : ... .. . ... : D-2 03 6 ... : ... .. . ... : ... .. . ...
ROW 01 : ... .. . ... : ... .. . ... : ... .. . ... : ... .. . ... : ... .. . ... : ... .. . ... : ... .. . ... : ... .. . ...
ROW 02 : A-4 00 8 080 : ... .. . ... : ... .. . ... : ... .. . ... : ... .. . ... : D-3 03 6 ... : ... .. . ... : ... .. . ...
ROW 03 : ... .. . ... : ... .. . ... : ... .. . ... : ... .. . ... : ... .. . ... : ... .. . ... : ... .. . ... : ... .. . ...
ROW 04 : A-4 00 8 080 : ... .. . ... : ... .. . ... : ... .. . ... : ... .. . ... : A-2 03 6 ... : ... .. . ... : ... .. . ...
ROW 05 : ... .. . ... : ... .. . ... : ... .. . ... : ... .. . ... : ... .. . ... : ... .. . ... : ... .. . ... : ... .. . ...
ROW 06 : D-5 00 8 ... : ... .. . ... : ... .. . ... : ... .. . ... : ... .. . ... : C-3 03 6 ... : ... .. . ... : ... .. . ...
ROW 07 : A-4 00 8 080 : ... .. . ... : ... .. . ... : ... .. . ... : ... .. . ... : ... .. . ... : ... .. . ... : ... .. . ...
ROW 08 : ... .. . ... : ... .. . ... : ... .. . ... : ... .. . ... : ... .. . ... : D-2 03 6 ... : ... .. . ... : ... .. . ...
ROW 09 : A-4 00 8 080 : ... .. . ... : ... .. . ... : ... .. . ... : ... .. . ... : ... .. . ... : ... .. . ... : ... .. . ...
ROW 0a : ... .. . ... : ... .. . ... : ... .. . ... : ... .. . ... : ... .. . ... : D-3 03 6 ... : ... .. . ... : ... .. . ...
ROW 0b : D-5 00 8 ... : ... .. . ... : ... .. . ... : ... .. . ... : ... .. . ... : ... .. . ... : ... .. . ... : ... .. . ...
ROW 0c : A-4 00 8 080 : ... .. . ... : ... .. . ... : ... .. . ... : ... .. . ... : A-2 03 6 ... : ... .. . ... : ... .. . ...
ROW 0d : ... .. . ... : ... .. . ... : ... .. . ... : ... .. . ... : ... .. . ... : ... .. . ... : ... .. . ... : ... .. . ...
ROW 0e : D-5 00 8 ... : ... .. . ... : ... .. . ... : ... .. . ... : ... .. . ... : C-3 03 6 ... : ... .. . ... : ... .. . ...
ROW 0f : ... .. . ... : ... .. . ... : ... .. . ... : ... .. . ... : ... .. . ... : ... .. . ... : ... .. . ... : ... .. . ...
ROW 10 : A-5 00 8 ... : F-5 00 8 ... : ... .. . ... : ... .. . ... : ... .. . ... : D-2 03 6 ... : ... .. . ... : ... .. . ...
ROW 11 : ... .. . ... : ... .. . ... : ... .. . ... : ... .. . ... : ... .. . ... : ... .. . ... : ... .. . ... : ... .. . ...
ROW 12 : ... .. . ... : ... .. . ... : ... .. . ... : ... .. . ... : ... .. . ... : D-3 03 6 ... : ... .. . ... : ... .. . ...
ROW 13 : ... .. . ... : ... .. . ... : ... .. . ... : ... .. . ... : ... .. . ... : ... .. . ... : ... .. . ... : ... .. . ...
ROW 14 : G-5 00 8 ... : D-5 00 8 ... : ... .. . ... : ... .. . ... : ... .. . ... : A-2 03 6 ... : ... .. . ... : ... .. . ...
ROW 15 : ... .. . ... : ... .. . ... : ... .. . ... : ... .. . ... : ... .. . ... : ... .. . ... : ... .. . ... : ... .. . ...
ROW 16 : ... .. . ... : ... .. . ... : ... .. . ... : ... .. . ... : ... .. . ... : C-3 03 6 ... : ... .. . ... : ... .. . ...
ROW 17 : ... .. . ... : ... .. . ... : ... .. . ... : ... .. . ... : ... .. . ... : ... .. . ... : ... .. . ... : ... .. . ...
ROW 18 : F-5 00 8 ... : C-5 00 8 ... : ... .. . ... : ... .. . ... : ... .. . ... : G-2 03 6 ... : ... .. . ... : ... .. . ...
ROW 19 : ... .. . ... : ... .. . ... : ... .. . ... : ... .. . ... : ... .. . ... : ... .. . ... : ... .. . ... : ... .. . ...
ROW 1a : ... .. . ... : ... .. . ... : ... .. . ... : ... .. . ... : ... .. . ... : G-3 03 6 ... : ... .. . ... : ... .. . ...
ROW 1b : ... .. . ... : ... .. . ... : ... .. . ... : ... .. . ... : ... .. . ... : ... .. . ... : ... .. . ... : ... .. . ...
ROW 1c : G-5 00 8 ... : D-5 00 8 ... : ... .. . ... : ... .. . ... : ... .. . ... : A-2 03 6 ... : ... .. . ... : ... .. . ...
ROW 1d : ... .. . ... : ... .. . ... : ... .. . ... : ... .. . ... : ... .. . ... : ... .. . ... : ... .. . ... : ... .. . ...
ROW 1e : ... .. . ... : ... .. . ... : ... .. . ... : ... .. . ... : ... .. . ... : A-3 03 6 ... : ... .. . ... : ... .. . ...
ROW 1f : ... .. . ... : ... .. . ... : ... .. . ... : ... .. . ... : ... .. . ... : ... .. . ... : ... .. . ... : ... .. . ...
ROW 20 : --- .. . ... : --- .. . ... : ... .. . ... : ... .. . ... : ... .. . ... : D-2 03 6 ... : ... .. . ... : ... .. . ...
ROW 21 : ... .. . ... : ... .. . ... : ... .. . ... : ... .. . ... : ... .. . ... : ... .. . ... : ... .. . ... : ... .. . ...
ROW 22 : A-4 00 8 080 : ... .. . ... : ... .. . ... : ... .. . ... : ... .. . ... : D-3 03 6 ... : ... .. . ... : ... .. . ...
ROW 23 : ... .. . ... : ... .. . ... : ... .. . ... : ... .. . ... : ... .. . ... : ... .. . ... : ... .. . ... : ... .. . ...
ROW 24 : A-4 00 8 080 : ... .. . ... : ... .. . ... : ... .. . ... : ... .. . ... : A-2 03 6 ... : ... .. . ... : ... .. . ...
ROW 25 : ... .. . ... : ... .. . ... : ... .. . ... : ... .. . ... : ... .. . ... : ... .. . ... : ... .. . ... : ... .. . ...
ROW 26 : D-5 00 8 ... : ... .. . ... : ... .. . ... : ... .. . ... : ... .. . ... : C-3 03 6 ... : ... .. . ... : ... .. . ...
ROW 27 : A-4 00 8 080 : ... .. . ... : ... .. . ... : ... .. . ... : ... .. . ... : ... .. . ... : ... .. . ... : ... .. . ...
ROW 28 : ... .. . ... : ... .. . ... : ... .. . ... : ... .. . ... : ... .. . ... : D-2 03 6 ... : ... .. . ... : ... .. . ...
ROW 29 : A-4 00 8 080 : ... .. . ... : ... .. . ... : ... .. . ... : ... .. . ... : ... .. . ... : ... .. . ... : ... .. . ...
ROW 2a : ... .. . ... : ... .. . ... : ... .. . ... : ... .. . ... : ... .. . ... : D-3 03 6 ... : ... .. . ... : ... .. . ...
ROW 2b : D-5 00 8 ... : ... .. . ... : ... .. . ... : ... .. . ... : ... .. . ... : ... .. . ... : ... .. . ... : ... .. . ...
ROW 2c : A-4 00 8 080 : ... .. . ... : ... .. . ... : ... .. . ... : ... .. . ... : A-2 03 6 ... : ... .. . ... : ... .. . ...
ROW 2d : ... .. . ... : ... .. . ... : ... .. . ... : ... .. . ... : ... .. . ... : ... .. . ... : ... .. . ... : ... .. . ...
ROW 2e : D-5 00 8 ... : ... .. . ... : ... .. . ... : ... .. . ... : ... .. . ... : C-3 03 6 ... : ... .. . ... : ... .. . ...
ROW 2f : ... .. . ... : ... .. . ... : ... .. . ... : ... .. . ... : ... .. . ... : ... .. . ... : ... .. . ... : ... .. . ...
ROW 30 : --- .. . ... : ... .. . ... : ... .. . ... : ... .. . ... : ... .. . ... : D-2 03 6 ... : ... .. . ... : ... .. . ...
ROW 31 : ... .. . ... : ... .. . ... : ... .. . ... : ... .. . ... : ... .. . ... : ... .. . ... : ... .. . ... : ... .. . ...
ROW 32 : A-4 00 8 080 : ... .. . ... : ... .. . ... : ... .. . ... : ... .. . ... : D-3 03 6 ... : ... .. . ... : ... .. . ...
ROW 33 : ... .. . ... : ... .. . ... : ... .. . ... : ... .. . ... : ... .. . ... : ... .. . ... : ... .. . ... : ... .. . ...
ROW 34 : A-4 00 8 080 : ... .. . ... : ... .. . ... : ... .. . ... : ... .. . ... : A-2 03 6 ... : ... .. . ... : ... .. . ...
ROW 35 : ... .. . ... : ... .. . ... : ... .. . ... : ... .. . ... : ... .. . ... : ... .. . ... : ... .. . ... : ... .. . ...
ROW 36 : D-5 00 8 ... : ... .. . ... : ... .. . ... : ... .. . ... : ... .. . ... : C-3 03 6 ... : ... .. . ... : ... .. . ...
ROW 37 : A-4 00 8 080 : ... .. . ... : ... .. . ... : ... .. . ... : ... .. . ... : ... .. . ... : ... .. . ... : ... .. . ...
ROW 38 : ... .. . ... : ... .. . ... : ... .. . ... : ... .. . ... : ... .. . ... : D-2 03 6 ... : ... .. . ... : ... .. . ...
ROW 39 : A-4 00 8 080 : ... .. . ... : ... .. . ... : ... .. . ... : ... .. . ... : ... .. . ... : ... .. . ... : ... .. . ...
ROW 3a : ... .. . ... : ... .. . ... : ... .. . ... : ... .. . ... : ... .. . ... : D-3 03 6 ... : ... .. . ... : ... .. . ...
ROW 3b : D-5 00 8 ... : ... .. . ... : ... .. . ... : ... .. . ... : ... .. . ... : ... .. . ... : ... .. . ... : ... .. . ...
ROW 3c : A-4 00 8 080 : ... .. . ... : ... .. . ... : ... .. . ... : ... .. . ... : A-2 03 6 ... : ... .. . ... : ... .. . ...
ROW 3d : ... .. . ... : ... .. . ... : ... .. . ... : ... .. . ... : ... .. . ... : ... .. . ... : ... .. . ... : ... .. . ...
ROW 3e : A#4 00 8 090 : ... .. . ... : ... .. . ... : ... .. . ... : ... .. . ... : C-3 03 6 ... : ... .. . ... : ... .. . ...
ROW 3f : ... .. . ... : ... .. . ... : ... .. . ... : ... .. . ... : ... .. . ... : ... .. . ... : ... .. . ... : ... .. . ...
PATTERN 08
ROW 00 : --- .. . ... : ... .. . ... : ... .. . ... : ... .. . ... : ... .. . ... : D-2 03 6 ... : ... .. . ... : ... .. . ...
ROW 01 : ... .. . ... : ... .. . ... : ... .. . ... : ... .. . ... : ... .. . ... : ... .. . ... : ... .. . ... : ... .. . ...
ROW 02 : A-4 00 8 080 : ... .. . ... : ... .. . ... : ... .. . ... : ... .. . ... : D-3 03 6 ... : ... .. . ... : ... .. . ...
ROW 03 : ... .. . ... : ... .. . ... : ... .. . ... : ... .. . ... : ... .. . ... : ... .. . ... : ... .. . ... : ... .. . ...
ROW 04 : A-4 00 8 080 : ... .. . ... : ... .. . ... : ... .. . ... : ... .. . ... : A-2 03 6 ... : ... .. . ... : ... .. . ...
ROW 05 : ... .. . ... : ... .. . ... : ... .. . ... : ... .. . ... : ... .. . ... : ... .. . ... : ... .. . ... : ... .. . ...
ROW 06 : D-5 00 8 ... : ... .. . ... : ... .. . ... : ... .. . ... : ... .. . ... : C-3 03 6 ... : ... .. . ... : ... .. . ...
ROW 07 : A-4 00 8 080 : ... .. . ... : ... .. . ... : ... .. . ... : ... .. . ... : ... .. . ... : ... .. . ... : ... .. . ...
ROW 08 : ... .. . ... : ... .. . ... : ... .. . ... : ... .. . ... : ... .. . ... : D-2 03 6 ... : ... .. . ... : ... .. . ...
ROW 09 : A-4 00 8 080 : ... .. . ... : ... .. . ... : ... .. . ... : ... .. . ... : ... .. . ... : ... .. . ... : ... .. . ...
ROW 0a : ... .. . ... : ... .. . ... : ... .. . ... : ... .. . ... : ... .. . ... : D-3 03 6 ... : ... .. . ... : ... .. . ...
ROW 0b : D-5 00 8 ... : ... .. . ... : ... .. . ... : ... .. . ... : ... .. . ... : ... .. . ... : ... .. . ... : ... .. . ...
ROW 0c : A-4 00 8 080 : ... .. . ... : ... .. . ... : ... .. . ... : ... .. . ... : A-2 03 6 ... : ... .. . ... : ... .. . ...
ROW 0d : ... .. . ... : ... .. . ... : ... .. . ... : ... .. . ... : ... .. . ... : ... .. . ... : ... .. . ... : ... .. . ...
ROW 0e : D-5 00 8 ... : ... .. . ... : ... .. . ... : ... .. . ... : ... .. . ... : C-3 03 6 ... : ... .. . ... : ... .. . ...
ROW 0f : ... .. . ... : ... .. . ... : ... .. . ... : ... .. . ... : ... .. . ... : ... .. . ... : ... .. . ... : ... .. . ...
ROW 10 : C-5 00 8 ... : F-4 00 8 040 : ... .. . ... : ... .. . ... : ... .. . ... : G-1 03 6 ... : ... .. . ... : ... .. . ...
ROW 11 : ... .. . ... : ... .. . ... : ... .. . ... : ... .. . ... : ... .. . ... : ... .. . ... : ... .. . ... : ... .. . ...
ROW 12 : ... .. . ... : ... .. . ... : ... .. . ... : ... .. . ... : ... .. . ... : ... .. . ... : ... .. . ... : ... .. . ...
ROW 13 : ... .. . ... : ... .. . ... : ... .. . ... : ... .. . ... : ... .. . ... : ... .. . ... : ... .. . ... : ... .. . ...
ROW 14 : C-5 00 8 ... : F-4 00 8 040 : ... .. . ... : ... .. . ... : ... .. . ... : G-2 03 6 ... : ... .. . ... : ... .. . ...
ROW 15 : ... .. . ... : ... .. . ... : ... .. . ... : ... .. . ... : ... .. . ... : ... .. . ... : ... .. . ... : ... .. . ...
ROW 16 : ... .. . ... : ... .. . ... : ... .. . ... : ... .. . ... : ... .. . ... : ... .. . ... : ... .. . ... : ... .. . ...
ROW 17 : ... .. . ... : ... .. . ... : ... .. . ... : ... .. . ... : ... .. . ... : ... .. . ... : ... .. . ... : ... .. . ...
ROW 18 : C-5 00 8 ... : F-4 00 8 040 : ... .. . ... : ... .. . ... : ... .. . ... : --- .. . ... : ... .. . ... : ... .. . ...
ROW 19 : ... .. . ... : ... .. . ... : ... .. . ... : ... .. . ... : ... .. . ... : ... .. . ... : ... .. . ... : ... .. . ...
ROW 1a : ... .. . ... : ... .. . ... : ... .. . ... : ... .. . ... : ... .. . ... : ... .. . ... : ... .. . ... : ... .. . ...
ROW 1b : ... .. . ... : ... .. . ... : ... .. . ... : ... .. . ... : ... .. . ... : ... .. . ... : ... .. . ... : ... .. . ...
ROW 1c : D-5 00 8 ... : A-4 00 8 ... : ... .. . ... : ... .. . ... : ... .. . ... : ... .. . ... : ... .. . ... : ... .. . ...
ROW 1d : ... .. . ... : ... .. . ... : ... .. . ... : ... .. . ... : ... .. . ... : ... .. . ... : ... .. . ... : ... .. . ...
ROW 1e : ... .. . ... : ... .. . ... : ... .. . ... : ... .. . ... : ... .. . ... : ... .. . ... : ... .. . ... : ... .. . ...
ROW 1f : ... .. . ... : ... .. . ... : ... .. . ... : ... .. . ... : ... .. . ... : ... .. . ... : ... .. . ... : ... .. . ...
ROW 20 : --- .. . ... : --- .. . ... : ... .. . ... : ... .. . ... : ... .. . ... : D-2 03 6 ... : ... .. . ... : ... .. . ...
ROW 21 : ... .. . ... : ... .. . ... : ... .. . ... : ... .. . ... : ... .. . ... : ... .. . ... : ... .. . ... : ... .. . ...
ROW 22 : A-4 00 8 080 : ... .. . ... : ... .. . ... : ... .. . ... : ... .. . ... : D-3 03 6 ... : ... .. . ... : ... .. . ...
ROW 23 : ... .. . ... : ... .. . ... : ... .. . ... : ... .. . ... : ... .. . ... : ... .. . ... : ... .. . ... : ... .. . ...
ROW 24 : A-4 00 8 080 : ... .. . ... : ... .. . ... : ... .. . ... : ... .. . ... : A-2 03 6 ... : ... .. . ... : ... .. . ...
ROW 25 : ... .. . ... : ... .. . ... : ... .. . ... : ... .. . ... : ... .. . ... : ... .. . ... : ... .. . ... : ... .. . ...
ROW 26 : D-5 00 8 ... : ... .. . ... : ... .. . ... : ... .. . ... : ... .. . ... : C-3 03 6 ... : ... .. . ... : ... .. . ...
ROW 27 : A-4 00 8 080 : ... .. . ... : ... .. . ... : ... .. . ... : ... .. . ... : ... .. . ... : ... .. . ... : ... .. . ...
ROW 28 : ... .. . ... : ... .. . ... : ... .. . ... : ... .. . ... : ... .. . ... : D-2 03 6 ... : ... .. . ... : ... .. . ...
ROW 29 : A-4 00 8 080 : ... .. . ... : ... .. . ... : ... .. . ... : ... .. . ... : ... .. . ... : ... .. . ... : ... .. . ...
ROW 2a : ... .. . ... : ... .. . ... : ... .. . ... : ... .. . ... : ... .. . ... : D-3 03 6 ... : ... .. . ... : ... .. . ...
ROW 2b : D-5 00 8 ... : ... .. . ... : ... .. . ... : ... .. . ... : ... .. . ... : ... .. . ... : ... .. . ... : ... .. . ...
ROW 2c : A-4 00 8 080 : ... .. . ... : ... .. . ... : ... .. . ... : ... .. . ... : A-2 03 6 ... : ... .. . ... : ... .. . ...
ROW 2d : ... .. . ... : ... .. . ... : ... .. . ... : ... .. . ... : ... .. . ... : ... .. . ... : ... .. . ... : ... .. . ...
ROW 2e : D-5 00 8 ... : ... .. . ... : ... .. . ... : ... .. . ... : ... .. . ... : C-3 03 6 ... : ... .. . ... : ... .. . ...
ROW 2f : ... .. . ... : ... .. . ... : ... .. . ... : ... .. . ... : ... .. . ... : ... .. . ... : ... .. . ... : ... .. . ...
ROW 30 : --- .. . ... : ... .. . ... : ... .. . ... : ... .. . ... : ... .. . ... : D-2 03 6 ... : ... .. . ... : ... .. . ...
ROW 31 : ... .. . ... : ... .. . ... : ... .. . ... : ... .. . ... : ... .. . ... : ... .. . ... : ... .. . ... : ... .. . ...
ROW 32 : A-4 00 8 080 : ... .. . ... : ... .. . ... : ... .. . ... : ... .. . ... : D-3 03 6 ... : ... .. . ... : ... .. . ...
ROW 33 : ... .. . ... : ... .. . ... : ... .. . ... : ... .. . ... : ... .. . ... : ... .. . ... : ... .. . ... : ... .. . ...
ROW 34 : A-4 00 8 080 : ... .. . ... : ... .. . ... : ... .. . ... : ... .. . ... : A-2 03 6 ... : ... .. . ... : ... .. . ...
ROW 35 : ... .. . ... : ... .. . ... : ... .. . ... : ... .. . ... : ... .. . ... : ... .. . ... : ... .. . ... : ... .. . ...
ROW 36 : D-5 00 8 ... : ... .. . ... : ... .. . ... : ... .. . ... : ... .. . ... : C-3 03 6 ... : ... .. . ... : ... .. . ...
ROW 37 : A-4 00 8 080 : ... .. . ... : ... .. . ... : ... .. . ... : ... .. . ... : ... .. . ... : ... .. . ... : ... .. . ...
ROW 38 : ... .. . ... : ... .. . ... : ... .. . ... : ... .. . ... : ... .. . ... : D-2 03 6 ... : ... .. . ... : ... .. . ...
ROW 39 : A-4 00 8 080 : ... .. . ... : ... .. . ... : ... .. . ... : ... .. . ... : ... .. . ... : ... .. . ... : ... .. . ...
ROW 3a : ... .. . ... : ... .. . ... : ... .. . ... : ... .. . ... : ... .. . ... : D-3 03 6 ... : ... .. . ... : ... .. . ...
ROW 3b : D-5 00 8 ... : ... .. . ... : ... .. . ... : ... .. . ... : ... .. . ... : ... .. . ... : ... .. . ... : ... .. . ...
ROW 3c : A-4 00 8 080 : ... .. . ... : ... .. . ... : ... .. . ... : ... .. . ... : A-2 03 6 ... : ... .. . ... : ... .. . ...
ROW 3d : ... .. . ... : ... .. . ... : ... .. . ... : ... .. . ... : ... .. . ... : ... .. . ... : ... .. . ... : ... .. . ...
ROW 3e : A#4 00 8 090 : ... .. . ... : ... .. . ... : ... .. . ... : ... .. . ... : C-3 03 6 ... : ... .. . ... : ... .. . ...
ROW 3f : ... .. . ... : ... .. . ... : ... .. . ... : ... .. . ... : ... .. . ... : ... .. . ... : ... .. . ... : ... .. . ...
PATTERN 09
ROW 00 : --- .. . ... : ... .. . ... : ... .. . ... : ... .. . ... : ... .. . ... : D-2 03 6 ... : ... .. . ... : ... .. . ...
ROW 01 : ... .. . ... : ... .. . ... : ... .. . ... : ... .. . ... : ... .. . ... : ... .. . ... : ... .. . ... : ... .. . ...
ROW 02 : A-4 00 8 080 : ... .. . ... : ... .. . ... : ... .. . ... : ... .. . ... : D-3 03 6 ... : ... .. . ... : ... .. . ...
ROW 03 : ... .. . ... : ... .. . ... : ... .. . ... : ... .. . ... : ... .. . ... : ... .. . ... : ... .. . ... : ... .. . ...
ROW 04 : A-4 00 8 080 : ... .. . ... : ... .. . ... : ... .. . ... : ... .. . ... : A-2 03 6 ... : ... .. . ... : ... .. . ...
ROW 05 : ... .. . ... : ... .. . ... : ... .. . ... : ... .. . ... : ... .. . ... : ... .. . ... : ... .. . ... : ... .. . ...
ROW 06 : D-5 00 8 ... : ... .. . ... : ... .. . ... : ... .. . ... : ... .. . ... : C-3 03 6 ... : ... .. . ... : ... .. . ...
ROW 07 : A-4 00 8 080 : ... .. . ... : ... .. . ... : ... .. . ... : ... .. . ... : ... .. . ... : ... .. . ... : ... .. . ...
ROW 08 : ... .. . ... : ... .. . ... : ... .. . ... : ... .. . ... : ... .. . ... : D-2 03 6 ... : ... .. . ... : ... .. . ...
ROW 09 : A-4 00 8 080 : ... .. . ... : ... .. . ... : ... .. . ... : ... .. . ... : ... .. . ... : ... .. . ... : ... .. . ...
ROW 0a : ... .. . ... : ... .. . ... : ... .. . ... : ... .. . ... : ... .. . ... : D-3 03 6 ... : ... .. . ... : ... .. . ...
ROW 0b : D-5 00 8 ... : ... .. . ... : ... .. . ... : ... .. . ... : ... .. . ... : ... .. . ... : ... .. . ... : ... .. . ...
ROW 0c : A-4 00 8 080 : ... .. . ... : ... .. . ... : ... .. . ... : ... .. . ... : A-2 03 6 ... : ... .. . ... : ... .. . ...
ROW 0d : ... .. . ... : ... .. . ... : ... .. . ... : ... .. . ... : ... .. . ... : ... .. . ... : ... .. . ... : ... .. . ...
ROW 0e : D-5 00 8 ... : ... .. . ... : ... .. . ... : ... .. . ... : ... .. . ... : C-3 03 6 ... : ... .. . ... : ... .. . ...
ROW 0f : ... .. . ... : ... .. . ... : ... .. . ... : ... .. . ... : ... .. . ... : ... .. . ... : ... .. . ... : ... .. . ...
ROW 10 : A-5 00 8 ... : F-5 00 8 ... : ... .. . ... : ... .. . ... : ... .. . ... : D-2 03 6 ... : ... .. . ... : ... .. . ...
ROW 11 : ... .. . ... : ... .. . ... : ... .. . ... : ... .. . ... : ... .. . ... : ... .. . ... : ... .. . ... : ... .. . ...
ROW 12 : ... .. . ... : ... .. . ... : ... .. . ... : ... .. . ... : ... .. . ... : D-3 03 6 ... : ... .. . ... : ... .. . ...
ROW 13 : ... .. . ... : ... .. . ... : ... .. . ... : ... .. . ... : ... .. . ... : ... .. . ... : ... .. . ... : ... .. . ...
ROW 14 : G-5 00 8 ... : D-5 00 8 ... : ... .. . ... : ... .. . ... : ... .. . ... : A-2 03 6 ... : ... .. . ... : ... .. . ...
ROW 15 : ... .. . ... : ... .. . ... : ... .. . ... : ... .. . ... : ... .. . ... : ... .. . ... : ... .. . ... : ... .. . ...
ROW 16 : ... .. . ... : ... .. . ... : ... .. . ... : ... .. . ... : ... .. . ... : C-3 03 6 ... : ... .. . ... : ... .. . ...
ROW 17 : ... .. . ... : ... .. . ... : ... .. . ... : ... .. . ... : ... .. . ... : ... .. . ... : ... .. . ... : ... .. . ...
ROW 18 : F-5 00 8 ... : C-5 00 8 ... : ... .. . ... : ... .. . ... : ... .. . ... : G-2 03 6 ... : ... .. . ... : ... .. . ...
ROW 19 : ... .. . ... : ... .. . ... : ... .. . ... : ... .. . ... : ... .. . ... : ... .. . ... : ... .. . ... : ... .. . ...
ROW 1a : ... .. . ... : ... .. . ... : ... .. . ... : ... .. . ... : ... .. . ... : G-3 03 6 ... : ... .. . ... : ... .. . ...
ROW 1b : ... .. . ... : ... .. . ... : ... .. . ... : ... .. . ... : ... .. . ... : ... .. . ... : ... .. . ... : ... .. . ...
ROW 1c : G-5 00 8 ... : D-5 00 8 ... : ... .. . ... : ... .. . ... : ... .. . ... : A-2 03 6 ... : ... .. . ... : ... .. . ...
ROW 1d : ... .. . ... : ... .. . ... : ... .. . ... : ... .. . ... : ... .. . ... : ... .. . ... : ... .. . ... : ... .. . ...
ROW 1e : ... .. . ... : ... .. . ... : ... .. . ... : ... .. . ... : ... .. . ... : A-3 03 6 ... : ... .. . ... : ... .. . ...
ROW 1f : ... .. . ... : ... .. . ... : ... .. . ... : ... .. . ... : ... .. . ... : ... .. . ... : ... .. . ... : ... .. . ...
ROW 20 : --- .. . ... : --- .. . ... : ... .. . ... : ... .. . ... : ... .. . ... : D-2 03 6 ... : ... .. . ... : ... .. . ...
ROW 21 : ... .. . ... : ... .. . ... : ... .. . ... : ... .. . ... : ... .. . ... : ... .. . ... : ... .. . ... : ... .. . ...
ROW 22 : A-4 00 8 080 : ... .. . ... : ... .. . ... : ... .. . ... : ... .. . ... : D-3 03 6 ... : ... .. . ... : ... .. . ...
ROW 23 : ... .. . ... : ... .. . ... : ... .. . ... : ... .. . ... : ... .. . ... : ... .. . ... : ... .. . ... : ... .. . ...
ROW 24 : A-4 00 8 080 : ... .. . ... : ... .. . ... : ... .. . ... : ... .. . ... : A-2 03 6 ... : ... .. . ... : ... .. . ...
ROW 25 : ... .. . ... : ... .. . ... : ... .. . ... : ... .. . ... : ... .. . ... : ... .. . ... : ... .. . ... : ... .. . ...
ROW 26 : D-5 00 8 ... : ... .. . ... : ... .. . ... : ... .. . ... : ... .. . ... : C-3 03 6 ... : ... .. . ... : ... .. . ...
ROW 27 : A-4 00 8 080 : ... .. . ... : ... .. . ... : ... .. . ... : ... .. . ... : ... .. . ... : ... .. . ... : ... .. . ...
ROW 28 : ... .. . ... : ... .. . ... : ... .. . ... : ... .. . ... : ... .. . ... : D-2 03 6 ... : ... .. . ... : ... .. . ...
ROW 29 : A-4 00 8 080 : ... .. . ... : ... .. . ... : ... .. . ... : ... .. . ... : ... .. . ... : ... .. . ... : ... .. . ...
ROW 2a : ... .. . ... : ... .. . ... : ... .. . ... : ... .. . ... : ... .. . ... : D-3 03 6 ... : ... .. . ... : ... .. . ...
ROW 2b : D-5 00 8 ... : ... .. . ... : ... .. . ... : ... .. . ... : ... .. . ... : ... .. . ... : ... .. . ... : ... .. . ...
ROW 2c : A-4 00 8 080 : ... .. . ... : ... .. . ... : ... .. . ... : ... .. . ... : A-2 03 6 ... : ... .. . ... : ... .. . ...
ROW 2d : ... .. . ... : ... .. . ... : ... .. . ... : ... .. . ... : ... .. . ... : ... .. . ... : ... .. . ... : ... .. . ...
ROW 2e : D-5 00 8 ... : ... .. . ... : ... .. . ... : ... .. . ... : ... .. . ... : C-3 03 6 ... : ... .. . ... : ... .. . ...
ROW 2f : ... .. . ... : ... .. . ... : ... .. . ... : ... .. . ... : ... .. . ... : ... .. . ... : ... .. . ... : ... .. . ...
ROW 30 : --- .. . ... : ... .. . ... : ... .. . ... : ... .. . ... : ... .. . ... : D-2 03 6 ... : ... .. . ... : ... .. . ...
ROW 31 : ... .. . ... : ... .. . ... : ... .. . ... : ... .. . ... : ... .. . ... : ... .. . ... : ... .. . ... : ... .. . ...
ROW 32 : A-4 00 8 080 : ... .. . ... : ... .. . ... : ... .. . ... : ... .. . ... : D-3 03 6 ... : ... .. . ... : ... .. . ...
ROW 33 : ... .. . ... : ... .. . ... : ... .. . ... : ... .. . ... : ... .. . ... : ... .. . ... : ... .. . ... : ... .. . ...
ROW 34 : A-4 00 8 080 : ... .. . ... : ... .. . ... : ... .. . ... : ... .. . ... : A-2 03 6 ... : ... .. . ... : ... .. . ...
ROW 35 : ... .. . ... : ... .. . ... : ... .. . ... : ... .. . ... : ... .. . ... : ... .. . ... : ... .. . ... : ... .. . ...
ROW 36 : D-5 00 8 ... : ... .. . ... : ... .. . ... : ... .. . ... : ... .. . ... : C-3 03 6 ... : ... .. . ... : ... .. . ...
ROW 37 : A-4 00 8 080 : ... .. . ... : ... .. . ... : ... .. . ... : ... .. . ... : ... .. . ... : ... .. . ... : ... .. . ...
ROW 38 : ... .. . ... : ... .. . ... : ... .. . ... : ... .. . ... : ... .. . ... : D-2 03 6 ... : ... .. . ... : ... .. . ...
ROW 39 : A-4 00 8 080 : ... .. . ... : ... .. . ... : ... .. . ... : ... .. . ... : ... .. . ... : ... .. . ... : ... .. . ...
ROW 3a : ... .. . ... : ... .. . ... : ... .. . ... : ... .. . ... : ... .. . ... : D-3 03 6 ... : ... .. . ... : ... .. . ...
ROW 3b : D-5 00 8 ... : ... .. . ... : ... .. . ... : ... .. . ... : ... .. . ... : ... .. . ... : ... .. . ... : ... .. . ...
ROW 3c : A-4 00 8 080 : ... .. . ... : ... .. . ... : ... .. . ... : ... .. . ... : A-2 03 6 ... : ... .. . ... : ... .. . ...
ROW 3d : ... .. . ... : ... .. . ... : ... .. . ... : ... .. . ... : ... .. . ... : ... .. . ... : ... .. . ... : ... .. . ...
ROW 3e : A#4 00 8 090 : ... .. . ... : ... .. . ... : ... .. . ... : ... .. . ... : C-3 03 6 ... : ... .. . ... : ... .. . ...
ROW 3f : ... .. . ... : ... .. . ... : ... .. . ... : ... .. . ... : ... .. . ... : ... .. . ... : ... .. . ... : ... .. . ...
PATTERN 0a
ROW 00 : --- .. . ... : ... .. . ... : ... .. . ... : ... .. . ... : ... .. . ... : D-2 03 6 ... : ... .. . ... : ... .. . ...
ROW 01 : ... .. . ... : ... .. . ... : ... .. . ... : ... .. . ... : ... .. . ... : ... .. . ... : ... .. . ... : ... .. . ...
ROW 02 : A-4 00 8 080 : ... .. . ... : ... .. . ... : ... .. . ... : ... .. . ... : D-3 03 6 ... : ... .. . ... : ... .. . ...
ROW 03 : ... .. . ... : ... .. . ... : ... .. . ... : ... .. . ... : ... .. . ... : ... .. . ... : ... .. . ... : ... .. . ...
ROW 04 : A-4 00 8 080 : ... .. . ... : ... .. . ... : ... .. . ... : ... .. . ... : A-2 03 6 ... : ... .. . ... : ... .. . ...
ROW 05 : ... .. . ... : ... .. . ... : ... .. . ... : ... .. . ... : ... .. . ... : ... .. . ... : ... .. . ... : ... .. . ...
ROW 06 : D-5 00 8 ... : ... .. . ... : ... .. . ... : ... .. . ... : ... .. . ... : C-3 03 6 ... : ... .. . ... : ... .. . ...
ROW 07 : A-4 00 8 080 : ... .. . ... : ... .. . ... : ... .. . ... : ... .. . ... : ... .. . ... : ... .. . ... : ... .. . ...
ROW 08 : ... .. . ... : ... .. . ... : ... .. . ... : ... .. . ... : ... .. . ... : D-2 03 6 ... : ... .. . ... : ... .. . ...
ROW 09 : A-4 00 8 080 : ... .. . ... : ... .. . ... : ... .. . ... : ... .. . ... : ... .. . ... : ... .. . ... : ... .. . ...
ROW 0a : ... .. . ... : ... .. . ... : ... .. . ... : ... .. . ... : ... .. . ... : D-3 03 6 ... : ... .. . ... : ... .. . ...
ROW 0b : D-5 00 8 ... : ... .. . ... : ... .. . ... : ... .. . ... : ... .. . ... : ... .. . ... : ... .. . ... : ... .. . ...
ROW 0c : A-4 00 8 080 : ... .. . ... : ... .. . ... : ... .. . ... : ... .. . ... : A-2 03 6 ... : ... .. . ... : ... .. . ...
ROW 0d : ... .. . ... : ... .. . ... : ... .. . ... : ... .. . ... : ... .. . ... : ... .. . ... : ... .. . ... : ... .. . ...
ROW 0e : D-5 00 8 ... : ... .. . ... : ... .. . ... : ... .. . ... : ... .. . ... : C-3 03 6 ... : ... .. . ... : ... .. . ...
ROW 0f : ... .. . ... : ... .. . ... : ... .. . ... : ... .. . ... : ... .. . ... : ... .. . ... : ... .. . ... : ... .. . ...
ROW 10 : F-5 00 8 ... : A-4 00 8 ... : ... .. . ... : ... .. . ... : ... .. . ... : G-1 03 6 ... : ... .. . ... : ... .. . ...
ROW 11 : ... .. . ... : ... .. . ... : ... .. . ... : ... .. . ... : ... .. . ... : ... .. . ... : ... .. . ... : ... .. . ...
ROW 12 : ... .. . ... : ... .. . ... : ... .. . ... : ... .. . ... : ... .. . ... : ... .. . ... : ... .. . ... : ... .. . ...
ROW 13 : ... .. . ... : ... .. . ... : ... .. . ... : ... .. . ... : ... .. . ... : ... .. . ... : ... .. . ... : ... .. . ...
ROW 14 : F-5 00 8 ... : A-4 00 8 ... : ... .. . ... : ... .. . ... : ... .. . ... : G-2 03 6 ... : ... .. . ... : ... .. . ...
ROW 15 : ... .. . ... : ... .. . ... : ... .. . ... : ... .. . ... : ... .. . ... : ... .. . ... : ... .. . ... : ... .. . ...
ROW 16 : ... .. . ... : ... .. . ... : ... .. . ... : ... .. . ... : ... .. . ... : ... .. . ... : ... .. . ... : ... .. . ...
ROW 17 : ... .. . ... : ... .. . ... : ... .. . ... : ... .. . ... : ... .. . ... : ... .. . ... : ... .. . ... : ... .. . ...
ROW 18 : G-5 00 8 ... : A#4 00 8 ... : ... .. . ... : ... .. . ... : ... .. . ... : C-3 03 6 ... : ... .. . ... : ... .. . ...
ROW 19 : ... .. . ... : ... .. . ... : ... .. . ... : ... .. . ... : ... .. . ... : F-3 03 6 ... : ... .. . ... : ... .. . ...
ROW 1a : ... .. . ... : ... .. . ... : ... .. . ... : ... .. . ... : ... .. . ... : C-3 03 6 ... : ... .. . ... : ... .. . ...
ROW 1b : ... .. . ... : ... .. . ... : ... .. . ... : ... .. . ... : ... .. . ... : --- .. . ... : ... .. . ... : ... .. . ...
ROW 1c : A-5 00 8 ... : C-5 00 8 ... : ... .. . ... : ... .. . ... : ... .. . ... : F-2 03 6 ... : ... .. . ... : ... .. . ...
ROW 1d : ... .. . ... : ... .. . ... : ... .. . ... : ... .. . ... : ... .. . ... : ... .. . ... : ... .. . ... : ... .. . ...
ROW 1e : ... .. . ... : ... .. . ... : ... .. . ... : ... .. . ... : ... .. . ... : ... .. . ... : ... .. . ... : ... .. . ...
ROW 1f : ... .. . ... : ... .. . ... : ... .. . ... : ... .. . ... : ... .. . ... : ... .. . ... : ... .. . ... : ... .. . ...
ROW 20 : D-5 00 8 03A : --- .. . ... : ... .. . ... : ... .. . ... : ... .. . ... : --- .. . ... : A#1 03 6 ... : ... .. . ...
ROW 21 : ... .. . ... : ... .. . ... : ... .. . ... : ... .. . ... : ... .. . ... : ... .. . ... : ... .. . ... : ... .. . ...
ROW 22 : ... .. . ... : ... .. . ... : ... .. . ... : ... .. . ... : ... .. . ... : ... .. . ... : ... .. . ... : ... .. . ...
ROW 23 : ... .. . ... : ... .. . ... : ... .. . ... : ... .. . ... : ... .. . ... : ... .. . ... : ... .. . ... : ... .. . ...
ROW 24 : ... .. . ... : ... .. . ... : ... .. . ... : ... .. . ... : ... .. . ... : D-3 03 6 037 : ... .. . ... : ... .. . ...
ROW 25 : ... .. . ... : ... .. . ... : ... .. . ... : ... .. . ... : ... .. . ... : ... .. . ... : ... .. . ... : ... .. . ...
ROW 26 : A-4 00 8 058 : ... .. . ... : ... .. . ... : ... .. . ... : ... .. . ... : ... .. . ... : ... .. . ... : ... .. . ...
ROW 27 : ... .. . ... : ... .. . ... : ... .. . ... : ... .. . ... : ... .. . ... : ... .. . ... : ... .. . ... : ... .. . ...
ROW 28 : ... .. . ... : ... .. . ... : ... .. . ... : ... .. . ... : ... .. . ... : D-3 03 6 037 : ... .. . ... : ... .. . ...
ROW 29 : ... .. . ... : ... .. . ... : ... .. . ... : ... .. . ... : ... .. . ... : ... .. . ... : ... .. . ... : ... .. . ...
ROW 2a : ... .. . ... : ... .. . ... : ... .. . ... : ... .. . ... : ... .. . ... : ... .. . ... : ... .. . ... : ... .. . ...
ROW 2b : ... .. . ... : ... .. . ... : ... .. . ... : ... .. . ... : ... .. . ... : D-3 03 6 037 : ... .. . ... : ... .. . ...
ROW 2c : ... .. . ... : ... .. . ... : ... .. . ... : ... .. . ... : ... .. . ... : ... .. . ... : ... .. . ... : ... .. . ...
ROW 2d : ... .. . ... : ... .. . ... : ... .. . ... : ... .. . ... : ... .. . ... : ... .. . ... : ... .. . ... : ... .. . ...
ROW 2e : ... .. . ... : ... .. . ... : ... .. . ... : ... .. . ... : ... .. . ... : D-3 03 6 037 : ... .. . ... : ... .. . ...
ROW 2f : ... .. . ... : ... .. . ... : ... .. . ... : ... .. . ... : ... .. . ... : ... .. . ... : ... .. . ... : ... .. . ...
ROW 30 : --- .. . ... : ... .. . ... : ... .. . ... : ... .. . ... : ... .. . ... : --- .. . ... : A#1 03 6 ... : ... .. . ...
ROW 31 : ... .. . ... : ... .. . ... : ... .. . ... : ... .. . ... : ... .. . ... : ... .. . ... : ... .. . ... : ... .. . ...
ROW 32 : F-5 00 8 ... : ... .. . ... : ... .. . ... : ... .. . ... : ... .. . ... : ... .. . ... : ... .. . ... : ... .. . ...
ROW 33 : ... .. . ... : ... .. . ... : ... .. . ... : ... .. . ... : ... .. . ... : ... .. . ... : ... .. . ... : ... .. . ...
ROW 34 : G#5 00 8 ... : C#5 00 8 ... : ... .. . ... : ... .. . ... : ... .. . ... : C#3 03 6 047 : ... .. . ... : ... .. . ...
ROW 35 : ... .. . ... : ... .. . ... : ... .. . ... : ... .. . ... : ... .. . ... : ... .. . ... : ... .. . ... : ... .. . ...
ROW 36 : ... .. . ... : ... .. . ... : ... .. . ... : ... .. . ... : ... .. . ... : ... .. . ... : ... .. . ... : ... .. . ...
ROW 37 : ... .. . ... : ... .. . ... : ... .. . ... : ... .. . ... : ... .. . ... : ... .. . ... : ... .. . ... : ... .. . ...
ROW 38 : G-5 00 8 ... : A#4 00 8 ... : ... .. . ... : ... .. . ... : ... .. . ... : C#3 03 6 047 : ... .. . ... : ... .. . ...
ROW 39 : ... .. . ... : ... .. . ... : ... .. . ... : ... .. . ... : ... .. . ... : ... .. . ... : ... .. . ... : ... .. . ...
ROW 3a : F-5 00 8 ... : ... .. . ... : ... .. . ... : ... .. . ... : ... .. . ... : ... .. . ... : ... .. . ... : ... .. . ...
ROW 3b : ... .. . ... : ... .. . ... : ... .. . ... : ... .. . ... : ... .. . ... : C#3 03 6 047 : ... .. . ... : ... .. . ...
ROW 3c : G-5 00 8 ... : A#4 00 8 ... : ... .. . ... : ... .. . ... : ... .. . ... : ... .. . ... : ... .. . ... : ... .. . ...
ROW 3d : ... .. . ... : ... .. . ... : ... .. . ... : ... .. . ... : ... .. . ... : ... .. . ... : ... .. . ... : ... .. . ...
ROW 3e : F-5 00 8 ... : ... .. . ... : ... .. . ... : ... .. . ... : ... .. . ... : C#3 03 6 047 : ... .. . ... : ... .. . ...
ROW 3f : ... .. . ... : ... .. . ... : ... .. . ... : ... .. . ... : ... .. . ... : ... .. . ... : ... .. . ... : ... .. . ...
PATTERN 0b
ROW 00 : F-5 00 8 047 : --- .. . ... : ... .. . ... : ... .. . ... : ... .. . ... : --- .. . ... : A-1 03 6 ... : ... .. . ...
ROW 01 : ... .. . ... : ... .. . ... : ... .. . ... : ... .. . ... : ... .. . ... : ... .. . ... : ... .. . ... : ... .. . ...
ROW 02 : ... .. . ... : ... .. . ... : ... .. . ... : ... .. . ... : ... .. . ... : ... .. . ... : ... .. . ... : ... .. . ...
ROW 03 : ... .. . ... : ... .. . ... : ... .. . ... : ... .. . ... : ... .. . ... : ... .. . ... : ... .. . ... : ... .. . ...
ROW 04 : ... .. . ... : ... .. . ... : ... .. . ... : ... .. . ... : ... .. . ... : F-3 03 6 047 : ... .. . ... : ... .. . ...
ROW 05 : ... .. . ... : ... .. . ... : ... .. . ... : ... .. . ... : ... .. . ... : ... .. . ... : ... .. . ... : ... .. . ...
ROW 06 : A-4 00 8 038 : ... .. . ... : ... .. . ... : ... .. . ... : ... .. . ... : ... .. . ... : ... .. . ... : ... .. . ...
ROW 07 : ... .. . ... : ... .. . ... : ... .. . ... : ... .. . ... : ... .. . ... : ... .. . ... : ... .. . ... : ... .. . ...
ROW 08 : ... .. . ... : ... .. . ... : ... .. . ... : ... .. . ... : ... .. . ... : F-3 03 6 047 : ... .. . ... : ... .. . ...
ROW 09 : ... .. . ... : ... .. . ... : ... .. . ... : ... .. . ... : ... .. . ... : ... .. . ... : ... .. . ... : ... .. . ...
ROW 0a : ... .. . ... : ... .. . ... : ... .. . ... : ... .. . ... : ... .. . ... : ... .. . ... : ... .. . ... : ... .. . ...
ROW 0b : ... .. . ... : ... .. . ... : ... .. . ... : ... .. . ... : ... .. . ... : F-3 03 6 047 : ... .. . ... : ... .. . ...
ROW 0c : ... .. . ... : ... .. . ... : ... .. . ... : ... .. . ... : ... .. . ... : ... .. . ... : ... .. . ... : ... .. . ...
ROW 0d : ... .. . ... : ... .. . ... : ... .. . ... : ... .. . ... : ... .. . ... : ... .. . ... : ... .. . ... : ... .. . ...
ROW 0e : ... .. . ... : ... .. . ... : ... .. . ... : ... .. . ... : ... .. . ... : F-3 03 6 047 : ... .. . ... : ... .. . ...
ROW 0f : ... .. . ... : ... .. . ... : ... .. . ... : ... .. . ... : ... .. . ... : ... .. . ... : ... .. . ... : ... .. . ...
ROW 10 : --- .. . ... : ... .. . ... : ... .. . ... : ... .. . ... : ... .. . ... : --- .. . ... : D-2 03 6 ... : ... .. . ...
ROW 11 : ... .. . ... : ... .. . ... : ... .. . ... : ... .. . ... : ... .. . ... : ... .. . ... : ... .. . ... : ... .. . ...
ROW 12 : F-5 00 8 ... : ... .. . ... : ... .. . ... : ... .. . ... : ... .. . ... : ... .. . ... : ... .. . ... : ... .. . ...
ROW 13 : ... .. . ... : ... .. . ... : ... .. . ... : ... .. . ... : ... .. . ... : ... .. . ... : ... .. . ... : ... .. . ...
ROW 14 : G#5 00 8 ... : C-5 00 8 ... : ... .. . ... : ... .. . ... : ... .. . ... : F-3 03 6 047 : ... .. . ... : ... .. . ...
ROW 15 : ... .. . ... : ... .. . ... : ... .. . ... : ... .. . ... : ... .. . ... : ... .. . ... : ... .. . ... : ... .. . ...
ROW 16 : ... .. . ... : ... .. . ... : ... .. . ... : ... .. . ... : ... .. . ... : ... .. . ... : ... .. . ... : ... .. . ...
ROW 17 : ... .. . ... : ... .. . ... : ... .. . ... : ... .. . ... : ... .. . ... : ... .. . ... : ... .. . ... : ... .. . ...
ROW 18 : G-5 00 8 ... : A#4 00 8 ... : ... .. . ... : ... .. . ... : ... .. . ... : F-3 03 6 047 : ... .. . ... : ... .. . ...
ROW 19 : ... .. . ... : ... .. . ... : ... .. . ... : ... .. . ... : ... .. . ... : ... .. . ... : ... .. . ... : ... .. . ...
ROW 1a : F-5 00 8 ... : A-4 00 8 ... : ... .. . ... : ... .. . ... : ... .. . ... : ... .. . ... : ... .. . ... : ... .. . ...
ROW 1b : ... .. . ... : ... .. . ... : ... .. . ... : ... .. . ... : ... .. . ... : F-3 03 6 047 : ... .. . ... : ... .. . ...
ROW 1c : F-5 00 8 ... : A-4 00 8 ... : ... .. . ... : ... .. . ... : ... .. . ... : ... .. . ... : ... .. . ... : ... .. . ...
ROW 1d : ... .. . ... : ... .. . ... : ... .. . ... : ... .. . ... : ... .. . ... : ... .. . ... : ... .. . ... : ... .. . ...
ROW 1e : ... .. . ... : ... .. . ... : ... .. . ... : ... .. . ... : ... .. . ... : F-3 03 6 047 : ... .. . ... : ... .. . ...
ROW 1f : ... .. . ... : ... .. . ... : ... .. . ... : ... .. . ... : ... .. . ... : ... .. . ... : ... .. . ... : ... .. . ...
ROW 20 : --- .. . ... : --- .. . ... : ... .. . ... : ... .. . ... : ... .. . ... : G-1 03 6 ... : --- .. . ... : ... .. . ...
ROW 21 : ... .. . ... : ... .. . ... : ... .. . ... : ... .. . ... : ... .. . ... : ... .. . ... : ... .. . ... : ... .. . ...
ROW 22 : D-5 00 8 ... : ... .. . ... : ... .. . ... : ... .. . ... : ... .. . ... : G-2 03 6 ... : ... .. . ... : ... .. . ...
ROW 23 : ... .. . ... : ... .. . ... : ... .. . ... : ... .. . ... : ... .. . ... : ... .. . ... : ... .. . ... : ... .. . ...
ROW 24 : D-5 00 8 030 : A#4 00 8 ... : ... .. . ... : ... .. . ... : ... .. . ... : G-1 03 6 ... : ... .. . ... : ... .. . ...
ROW 25 : ... .. . ... : ... .. . ... : ... .. . ... : ... .. . ... : ... .. . ... : ... .. . ... : ... .. . ... : ... .. . ...
ROW 26 : ... .. . ... : ... .. . ... : ... .. . ... : ... .. . ... : ... .. . ... : G-2 03 6 ... : ... .. . ... : ... .. . ...
ROW 27 : F-5 00 8 ... : ... .. . ... : ... .. . ... : ... .. . ... : ... .. . ... : ... .. . ... : ... .. . ... : ... .. . ...
ROW 28 : F-5 00 8 ... : A-4 00 8 ... : ... .. . ... : ... .. . ... : ... .. . ... : G-1 03 6 ... : ... .. . ... : ... .. . ...
ROW 29 : ... .. . ... : ... .. . ... : ... .. . ... : ... .. . ... : ... .. . ... : ... .. . ... : ... .. . ... : ... .. . ...
ROW 2a : G-5 00 8 ... : A#4 00 8 ... : ... .. . ... : ... .. . ... : ... .. . ... : G-2 03 6 ... : ... .. . ... : ... .. . ...
ROW 2b : ... .. . ... : ... .. . ... : ... .. . ... : ... .. . ... : ... .. . ... : ... .. . ... : ... .. . ... : ... .. . ...
ROW 2c : A-5 00 8 ... : C-5 00 8 ... : ... .. . ... : ... .. . ... : ... .. . ... : G-1 03 6 ... : ... .. . ... : ... .. . ...
ROW 2d : ... .. . ... : ... .. . ... : ... .. . ... : ... .. . ... : ... .. . ... : ... .. . ... : ... .. . ... : ... .. . ...
ROW 2e : ... .. . ... : ... .. . ... : ... .. . ... : ... .. . ... : ... .. . ... : G-2 03 6 ... : ... .. . ... : ... .. . ...
ROW 2f : ... .. . ... : ... .. . ... : ... .. . ... : ... .. . ... : ... .. . ... : ... .. . ... : ... .. . ... : ... .. . ...
ROW 30 : --- .. . ... : --- .. . ... : ... .. . ... : ... .. . ... : ... .. . ... : A-1 03 6 ... : ... .. . ... : ... .. . ...
ROW 31 : ... .. . ... : ... .. . ... : ... .. . ... : ... .. . ... : ... .. . ... : ... .. . ... : ... .. . ... : ... .. . ...
ROW 32 : D-5 00 8 ... : ... .. . ... : ... .. . ... : ... .. . ... : ... .. . ... : A-2 03 6 ... : ... .. . ... : ... .. . ...
ROW 33 : ... .. . ... : ... .. . ... : ... .. . ... : ... .. . ... : ... .. . ... : ... .. . ... : ... .. . ... : ... .. . ...
ROW 34 : D-5 00 8 030 : A#4 00 8 ... : ... .. . ... : ... .. . ... : ... .. . ... : A-1 03 6 ... : ... .. . ... : ... .. . ...
ROW 35 : ... .. . ... : ... .. . ... : ... .. . ... : ... .. . ... : ... .. . ... : ... .. . ... : ... .. . ... : ... .. . ...
ROW 36 : ... .. . ... : ... .. . ... : ... .. . ... : ... .. . ... : ... .. . ... : A-2 03 6 ... : ... .. . ... : ... .. . ...
ROW 37 : F-5 00 8 ... : ... .. . ... : ... .. . ... : ... .. . ... : ... .. . ... : ... .. . ... : ... .. . ... : ... .. . ...
ROW 38 : F-5 00 8 ... : A-4 00 8 ... : ... .. . ... : ... .. . ... : ... .. . ... : A-1 03 6 ... : ... .. . ... : ... .. . ...
ROW 39 : ... .. . ... : ... .. . ... : ... .. . ... : ... .. . ... : ... .. . ... : ... .. . ... : ... .. . ... : ... .. . ...
ROW 3a : G-5 00 8 ... : A#4 00 8 ... : ... .. . ... : ... .. . ... : ... .. . ... : A-2 03 6 ... : ... .. . ... : ... .. . ...
ROW 3b : ... .. . ... : ... .. . ... : ... .. . ... : ... .. . ... : ... .. . ... : ... .. . ... : ... .. . ... : ... .. . ...
ROW 3c : A-5 00 8 ... : C-5 00 8 ... : ... .. . ... : ... .. . ... : ... .. . ... : A-1 03 6 ... : ... .. . ... : ... .. . ...
ROW 3d : ... .. . ... : ... .. . ... : ... .. . ... : ... .. . ... : ... .. . ... : ... .. . ... : ... .. . ... : ... .. . ...
ROW 3e : F-5 00 8 ... : A-4 00 8 ... : ... .. . ... : ... .. . ... : ... .. . ... : A-2 03 6 ... : ... .. . ... : ... .. . ...
ROW 3f : ... .. . ... : ... .. . ... : ... .. . ... : ... .. . ... : ... .. . ... : ... .. . ... : ... .. . ... : ... .. . ...
PATTERN 0c
ROW 00 : F-5 00 8 047 : --- .. . ... : ... .. . ... : ... .. . ... : ... .. . ... : A#1 03 6 0C0 : ... .. . ... : ... .. . ...
ROW 01 : ... .. . ... : ... .. . ... : ... .. . ... : ... .. . ... : ... .. . ... : ... .. . ... : ... .. . ... : ... .. . ...
ROW 02 : ... .. . ... : ... .. . ... : ... .. . ... : ... .. . ... : ... .. . ... : A#1 03 6 0C0 : ... .. . ... : ... .. . ...
ROW 03 : ... .. . ... : ... .. . ... : ... .. . ... : ... .. . ... : ... .. . ... : ... .. . ... : ... .. . ... : ... .. . ...
ROW 04 : ... .. . ... : ... .. . ... : ... .. . ... : ... .. . ... : ... .. . ... : A#1 03 6 0C0 : ... .. . ... : ... .. . ...
ROW 05 : ... .. . ... : ... .. . ... : ... .. . ... : ... .. . ... : ... .. . ... : ... .. . ... : ... .. . ... : ... .. . ...
ROW 06 : ... .. . ... : ... .. . ... : ... .. . ... : ... .. . ... : ... .. . ... : A#1 03 6 0C0 : ... .. . ... : ... .. . ...
ROW 07 : ... .. . ... : ... .. . ... : ... .. . ... : ... .. . ... : ... .. . ... : ... .. . ... : ... .. . ... : ... .. . ...
ROW 08 : ... .. . ... : ... .. . ... : ... .. . ... : ... .. . ... : ... .. . ... : A#1 03 6 0C0 : ... .. . ... : ... .. . ...
ROW 09 : ... .. . ... : ... .. . ... : ... .. . ... : ... .. . ... : ... .. . ... : ... .. . ... : ... .. . ... : ... .. . ...
ROW 0a : ... .. . ... : ... .. . ... : ... .. . ... : ... .. . ... : ... .. . ... : A#1 03 6 0C0 : ... .. . ... : ... .. . ...
ROW 0b : ... .. . ... : ... .. . ... : ... .. . ... : ... .. . ... : ... .. . ... : ... .. . ... : ... .. . ... : ... .. . ...
ROW 0c : A#5 00 8 ... : D-5 00 8 ... : ... .. . ... : ... .. . ... : ... .. . ... : A#1 03 6 0C0 : ... .. . ... : ... .. . ...
ROW 0d : ... .. . ... : ... .. . ... : ... .. . ... : ... .. . ... : ... .. . ... : ... .. . ... : ... .. . ... : ... .. . ...
ROW 0e : A-5 00 8 ... : C-5 00 8 ... : ... .. . ... : ... .. . ... : ... .. . ... : A#1 03 6 0C0 : ... .. . ... : ... .. . ...
ROW 0f : ... .. . ... : ... .. . ... : ... .. . ... : ... .. . ... : ... .. . ... : ... .. . ... : ... .. . ... : ... .. . ...
ROW 10 : --- .. . ... : --- .. . ... : ... .. . ... : ... .. . ... : ... .. . ... : A-1 03 6 0C0 : ... .. . ... : ... .. . ...
ROW 11 : ... .. . ... : ... .. . ... : ... .. . ... : ... .. . ... : ... .. . ... : ... .. . ... : ... .. . ... : ... .. . ...
ROW 12 : ... .. . ... : ... .. . ... : ... .. . ... : ... .. . ... : ... .. . ... : ... .. . ... : ... .. . ... : ... .. . ...
ROW 13 : ... .. . ... : ... .. . ... : ... .. . ... : ... .. . ... : ... .. . ... : ... .. . ... : ... .. . ... : ... .. . ...
ROW 14 : ... .. . ... : ... .. . ... : ... .. . ... : ... .. . ... : ... .. . ... : --- .. . ... : ... .. . ... : ... .. . ...
ROW 15 : ... .. . ... : ... .. . ... : ... .. . ... : ... .. . ... : ... .. . ... : ... .. . ... : ... .. . ... : ... .. . ...
ROW 16 : D-5 00 8 ... : F-4 00 8 ... : ... .. . ... : ... .. . ... : ... .. . ... : ... .. . ... : ... .. . ... : ... .. . ...
ROW 17 : ... .. . ... : ... .. . ... : ... .. . ... : ... .. . ... : ... .. . ... : ... .. . ... : ... .. . ... : ... .. . ...
ROW 18 : D-5 00 8 ... : F-4 00 8 ... : ... .. . ... : ... .. . ... : ... .. . ... : ... .. . ... : ... .. . ... : ... .. . ...
ROW 19 : ... .. . ... : ... .. . ... : ... .. . ... : ... .. . ... : ... .. . ... : ... .. . ... : ... .. . ... : ... .. . ...
ROW 1a : D-5 00 8 ... : F-4 00 8 ... : ... .. . ... : ... .. . ... : ... .. . ... : ... .. . ... : ... .. . ... : ... .. . ...
ROW 1b : ... .. . ... : ... .. . ... : ... .. . ... : ... .. . ... : ... .. . ... : ... .. . ... : ... .. . ... : ... .. . ...
ROW 1c : F-5 00 8 ... : A-4 00 8 ... : ... .. . ... : ... .. . ... : ... .. . ... : ... .. . ... : ... .. . ... : ... .. . ...
ROW 1d : ... .. . ... : ... .. . ... : ... .. . ... : ... .. . ... : ... .. . ... : ... .. . ... : ... .. . ... : ... .. . ...
ROW 1e : D-5 00 8 ... : F-4 00 8 ... : ... .. . ... : ... .. . ... : ... .. . ... : ... .. . ... : ... .. . ... : ... .. . ...
ROW 1f : ... .. . ... : ... .. . ... : ... .. . ... : ... .. . ... : ... .. . ... : ... .. . ... : ... .. . ... : ... .. . ...
ROW 20 : F-5 00 8 040 : C-5 00 8 ... : ... .. . ... : ... .. . ... : ... .. . ... : A#1 03 6 ... : ... .. . ... : ... .. . ...
ROW 21 : ... .. . ... : ... .. . ... : ... .. . ... : ... .. . ... : ... .. . ... : ... .. . ... : ... .. . ... : ... .. . ...
ROW 22 : ... .. . ... : ... .. . ... : ... .. . ... : ... .. . ... : ... .. . ... : A#2 03 6 ... : ... .. . ... : ... .. . ...
ROW 23 : ... .. . ... : ... .. . ... : ... .. . ... : ... .. . ... : ... .. . ... : ... .. . ... : ... .. . ... : ... .. . ...
ROW 24 : F-5 00 8 040 : C-5 00 8 ... : ... .. . ... : ... .. . ... : ... .. . ... : A#1 03 6 ... : ... .. . ... : ... .. . ...
ROW 25 : ... .. . ... : ... .. . ... : ... .. . ... : ... .. . ... : ... .. . ... : ... .. . ... : ... .. . ... : ... .. . ...
ROW 26 : ... .. . ... : ... .. . ... : ... .. . ... : ... .. . ... : ... .. . ... : A#2 03 6 ... : ... .. . ... : ... .. . ...
ROW 27 : ... .. . ... : ... .. . ... : ... .. . ... : ... .. . ... : ... .. . ... : ... .. . ... : ... .. . ... : ... .. . ...
ROW 28 : F-5 00 8 040 : C-5 00 8 ... : ... .. . ... : ... .. . ... : ... .. . ... : A#1 03 6 ... : ... .. . ... : ... .. . ...
ROW 29 : ... .. . ... : ... .. . ... : ... .. . ... : ... .. . ... : ... .. . ... : ... .. . ... : ... .. . ... : ... .. . ...
ROW 2a : ... .. . ... : ... .. . ... : ... .. . ... : ... .. . ... : ... .. . ... : A#2 03 6 ... : ... .. . ... : ... .. . ...
ROW 2b : ... .. . ... : ... .. . ... : ... .. . ... : ... .. . ... : ... .. . ... : ... .. . ... : ... .. . ... : ... .. . ...
ROW 2c : F-5 00 8 ... : ... .. . ... : ... .. . ... : ... .. . ... : ... .. . ... : A#1 03 6 ... : ... .. . ... : ... .. . ...
ROW 2d : ... .. . ... : ... .. . ... : ... .. . ... : ... .. . ... : ... .. . ... : ... .. . ... : ... .. . ... : ... .. . ...
ROW 2e : G-5 00 8 ... : ... .. . ... : ... .. . ... : ... .. . ... : ... .. . ... : A#2 03 6 ... : ... .. . ... : ... .. . ...
ROW 2f : ... .. . ... : ... .. . ... : ... .. . ... : ... .. . ... : ... .. . ... : ... .. . ... : ... .. . ... : ... .. . ...
ROW 30 : E-5 00 8 050 : C-5 00 8 ... : ... .. . ... : ... .. . ... : ... .. . ... : C-2 03 6 ... : ... .. . ... : ... .. . ...
ROW 31 : ... .. . ... : ... .. . ... : ... .. . ... : ... .. . ... : ... .. . ... : ... .. . ... : ... .. . ... : ... .. . ...
ROW 32 : F-5 00 8 ... : ... .. . ... : ... .. . ... : ... .. . ... : ... .. . ... : C-3 03 6 ... : ... .. . ... : ... .. . ...
ROW 33 : ... .. . ... : ... .. . ... : ... .. . ... : ... .. . ... : ... .. . ... : ... .. . ... : ... .. . ... : ... .. . ...
ROW 34 : F-5 00 8 ... : ... .. . ... : ... .. . ... : ... .. . ... : ... .. . ... : C-2 03 6 ... : ... .. . ... : ... .. . ...
ROW 35 : ... .. . ... : ... .. . ... : ... .. . ... : ... .. . ... : ... .. . ... : ... .. . ... : ... .. . ... : ... .. . ...
ROW 36 : D-5 00 8 ... : ... .. . ... : ... .. . ... : ... .. . ... : ... .. . ... : C-3 03 6 ... : ... .. . ... : ... .. . ...
ROW 37 : ... .. . ... : ... .. . ... : ... .. . ... : ... .. . ... : ... .. . ... : ... .. . ... : ... .. . ... : ... .. . ...
ROW 38 : F-5 00 8 ... : A-4 00 8 ... : ... .. . ... : ... .. . ... : ... .. . ... : C-2 03 6 ... : ... .. . ... : ... .. . ...
ROW 39 : ... .. . ... : ... .. . ... : ... .. . ... : ... .. . ... : ... .. . ... : ... .. . ... : ... .. . ... : ... .. . ...
ROW 3a : ... .. . ... : ... .. . ... : ... .. . ... : ... .. . ... : ... .. . ... : C-3 03 6 ... : ... .. . ... : ... .. . ...
ROW 3b : ... .. . ... : ... .. . ... : ... .. . ... : ... .. . ... : ... .. . ... : ... .. . ... : ... .. . ... : ... .. . ...
ROW 3c : G-5 00 8 ... : A#4 00 8 ... : ... .. . ... : ... .. . ... : ... .. . ... : C-2 03 6 ... : ... .. . ... : ... .. . ...
ROW 3d : ... .. . ... : ... .. . ... : ... .. . ... : ... .. . ... : ... .. . ... : ... .. . ... : ... .. . ... : ... .. . ...
ROW 3e : ... .. . ... : ... .. . ... : ... .. . ... : ... .. . ... : ... .. . ... : C-3 03 6 ... : ... .. . ... : ... .. . ...
ROW 3f : ... .. . ... : ... .. . ... : ... .. . ... : ... .. . ... : ... .. . ... : ... .. . ... : ... .. . ... : ... .. . ...
PATTERN 0d
ROW 00 : E-5 00 8 050 : C-5 00 8 ... : ... .. . ... : ... .. . ... : ... .. . ... : A-1 03 6 ... : ... .. . ... : ... .. . ...
ROW 01 : ... .. . ... : ... .. . ... : ... .. . ... : ... .. . ... : ... .. . ... : ... .. . ... : ... .. . ... : ... .. . ...
ROW 02 : ... .. . ... : ... .. . ... : ... .. . ... : ... .. . ... : ... .. . ... : A-2 03 6 ... : ... .. . ... : ... .. . ...
ROW 03 : ... .. . ... : ... .. . ... : ... .. . ... : ... .. . ... : ... .. . ... : ... .. . ... : ... .. . ... : ... .. . ...
ROW 04 : E-5 00 8 050 : C-5 00 8 ... : ... .. . ... : ... .. . ... : ... .. . ... : A-1 03 6 ... : ... .. . ... : ... .. . ...
ROW 05 : ... .. . ... : ... .. . ... : ... .. . ... : ... .. . ... : ... .. . ... : ... .. . ... : ... .. . ... : ... .. . ...
ROW 06 : ... .. . ... : ... .. . ... : ... .. . ... : ... .. . ... : ... .. . ... : A-2 03 6 ... : ... .. . ... : ... .. . ...
ROW 07 : ... .. . ... : ... .. . ... : ... .. . ... : ... .. . ... : ... .. . ... : ... .. . ... : ... .. . ... : ... .. . ...
ROW 08 : E-5 00 8 050 : C-5 00 8 ... : ... .. . ... : ... .. . ... : ... .. . ... : A-1 03 6 ... : ... .. . ... : ... .. . ...
ROW 09 : ... .. . ... : ... .. . ... : ... .. . ... : ... .. . ... : ... .. . ... : ... .. . ... : ... .. . ... : ... .. . ...
ROW 0a : ... .. . ... : ... .. . ... : ... .. . ... : ... .. . ... : ... .. . ... : A-2 03 6 ... : ... .. . ... : ... .. . ...
ROW 0b : ... .. . ... : ... .. . ... : ... .. . ... : ... .. . ... : ... .. . ... : ... .. . ... : ... .. . ... : ... .. . ...
ROW 0c : F-5 00 8 ... : ... .. . ... : ... .. . ... : ... .. . ... : ... .. . ... : A-1 03 6 ... : ... .. . ... : ... .. . ...
ROW 0d : ... .. . ... : ... .. . ... : ... .. . ... : ... .. . ... : ... .. . ... : ... .. . ... : ... .. . ... : ... .. . ...
ROW 0e : D-5 00 8 ... : ... .. . ... : ... .. . ... : ... .. . ... : ... .. . ... : A-2 03 6 ... : ... .. . ... : ... .. . ...
ROW 0f : ... .. . ... : ... .. . ... : ... .. . ... : ... .. . ... : ... .. . ... : ... .. . ... : ... .. . ... : ... .. . ...
ROW 10 : C-5 00 8 050 : A-4 00 8 ... : ... .. . ... : ... .. . ... : ... .. . ... : D-2 03 6 ... : ... .. . ... : ... .. . ...
ROW 11 : ... .. . ... : ... .. . ... : ... .. . ... : ... .. . ... : ... .. . ... : ... .. . ... : ... .. . ... : ... .. . ...
ROW 12 : D-5 00 8 ... : ... .. . ... : ... .. . ... : ... .. . ... : ... .. . ... : D-3 03 6 ... : ... .. . ... : ... .. . ...
ROW 13 : ... .. . ... : ... .. . ... : ... .. . ... : ... .. . ... : ... .. . ... : ... .. . ... : ... .. . ... : ... .. . ...
ROW 14 : F-5 00 8 ... : A-4 00 8 ... : ... .. . ... : ... .. . ... : ... .. . ... : D-2 03 6 ... : ... .. . ... : ... .. . ...
ROW 15 : ... .. . ... : ... .. . ... : ... .. . ... : ... .. . ... : ... .. . ... : ... .. . ... : ... .. . ... : ... .. . ...
ROW 16 : G-5 00 8 ... : A#4 00 8 ... : ... .. . ... : ... .. . ... : ... .. . ... : D-3 03 6 ... : ... .. . ... : ... .. . ...
ROW 17 : ... .. . ... : ... .. . ... : ... .. . ... : ... .. . ... : ... .. . ... : ... .. . ... : ... .. . ... : ... .. . ...
ROW 18 : F-5 00 8 ... : A-4 00 8 ... : ... .. . ... : ... .. . ... : ... .. . ... : D-2 03 6 ... : ... .. . ... : ... .. . ...
ROW 19 : ... .. . ... : ... .. . ... : ... .. . ... : ... .. . ... : ... .. . ... : ... .. . ... : ... .. . ... : ... .. . ...
ROW 1a : ... .. . ... : ... .. . ... : ... .. . ... : ... .. . ... : ... .. . ... : D-3 03 6 ... : ... .. . ... : ... .. . ...
ROW 1b : ... .. . ... : ... .. . ... : ... .. . ... : ... .. . ... : ... .. . ... : ... .. . ... : ... .. . ... : ... .. . ...
ROW 1c : --- .. . ... : --- .. . ... : ... .. . ... : ... .. . ... : ... .. . ... : D-2 03 6 ... : ... .. . ... : ... .. . ...
ROW 1d : ... .. . ... : ... .. . ... : ... .. . ... : ... .. . ... : ... .. . ... : ... .. . ... : ... .. . ... : ... .. . ...
ROW 1e : D-5 00 8 ... : ... .. . ... : ... .. . ... : ... .. . ... : ... .. . ... : D-3 03 6 ... : ... .. . ... : ... .. . ...
ROW 1f : ... .. . ... : ... .. . ... : ... .. . ... : ... .. . ... : ... .. . ... : ... .. . ... : ... .. . ... : ... .. . ...
ROW 20 : --- .. . ... : A-4 00 8 ... : F-5 01 7 ... : ... .. . ... : ... .. . ... : G-1 03 6 ... : ... .. . ... : ... .. . ...
ROW 21 : ... .. . ... : ... .. . ... : ... .. . ... : ... .. . ... : ... .. . ... : ... .. . ... : ... .. . ... : ... .. . ...
ROW 22 : ... .. . ... : A#4 00 8 ... : G-5 01 7 ... : ... .. . ... : ... .. . ... : G-2 03 6 ... : ... .. . ... : ... .. . ...
ROW 23 : ... .. . ... : ... .. . ... : ... .. . ... : ... .. . ... : ... .. . ... : ... .. . ... : ... .. . ... : ... .. . ...
ROW 24 : ... .. . ... : C-5 00 8 ... : A-5 01 7 ... : ... .. . ... : ... .. . ... : G-1 03 6 ... : ... .. . ... : ... .. . ...
ROW 25 : ... .. . ... : ... .. . ... : ... .. . ... : ... .. . ... : ... .. . ... : ... .. . ... : ... .. . ... : ... .. . ...
ROW 26 : ... .. . ... : ... .. . ... : ... .. . ... : ... .. . ... : ... .. . ... : G-2 03 6 ... : ... .. . ... : ... .. . ...
ROW 27 : ... .. . ... : ... .. . ... : ... .. . ... : ... .. . ... : ... .. . ... : ... .. . ... : ... .. . ... : ... .. . ...
ROW 28 : A-5 00 8 080 : --- .. . ... : --- .. . ... : ... .. . ... : ... .. . ... : G-1 03 6 ... : ... .. . ... : ... .. . ...
ROW 29 : ... .. . ... : ... .. . ... : ... .. . ... : ... .. . ... : ... .. . ... : ... .. . ... : ... .. . ... : ... .. . ...
ROW 2a : A-5 00 8 080 : ... .. . ... : ... .. . ... : ... .. . ... : ... .. . ... : G-2 03 6 ... : ... .. . ... : ... .. . ...
ROW 2b : ... .. . ... : ... .. . ... : ... .. . ... : ... .. . ... : ... .. . ... : ... .. . ... : ... .. . ... : ... .. . ...
ROW 2c : A-5 00 8 080 : ... .. . ... : ... .. . ... : ... .. . ... : ... .. . ... : G-1 03 6 ... : ... .. . ... : ... .. . ...
ROW 2d : ... .. . ... : ... .. . ... : ... .. . ... : ... .. . ... : ... .. . ... : ... .. . ... : ... .. . ... : ... .. . ...
ROW 2e : --- .. . ... : D-5 00 8 ... : ... .. . ... : ... .. . ... : ... .. . ... : G-2 03 6 ... : ... .. . ... : ... .. . ...
ROW 2f : ... .. . ... : ... .. . ... : ... .. . ... : ... .. . ... : ... .. . ... : ... .. . ... : ... .. . ... : ... .. . ...
ROW 30 : ... .. . ... : A-4 00 8 ... : F-5 01 7 ... : ... .. . ... : ... .. . ... : C-2 03 6 ... : ... .. . ... : ... .. . ...
ROW 31 : ... .. . ... : ... .. . ... : ... .. . ... : ... .. . ... : ... .. . ... : ... .. . ... : ... .. . ... : ... .. . ...
ROW 32 : ... .. . ... : A#4 00 8 ... : G-5 01 7 ... : ... .. . ... : ... .. . ... : C-3 03 6 ... : ... .. . ... : ... .. . ...
ROW 33 : ... .. . ... : ... .. . ... : ... .. . ... : ... .. . ... : ... .. . ... : ... .. . ... : ... .. . ... : ... .. . ...
ROW 34 : ... .. . ... : C-5 00 8 ... : A-5 01 7 ... : ... .. . ... : ... .. . ... : C-2 03 6 ... : ... .. . ... : ... .. . ...
ROW 35 : ... .. . ... : ... .. . ... : ... .. . ... : ... .. . ... : ... .. . ... : ... .. . ... : ... .. . ... : ... .. . ...
ROW 36 : ... .. . ... : ... .. . ... : ... .. . ... : ... .. . ... : ... .. . ... : C-3 03 6 ... : ... .. . ... : ... .. . ...
ROW 37 : ... .. . ... : ... .. . ... : ... .. . ... : ... .. . ... : ... .. . ... : ... .. . ... : ... .. . ... : ... .. . ...
ROW 38 : A-5 00 8 080 : --- .. . ... : --- .. . ... : ... .. . ... : ... .. . ... : C-2 03 6 ... : ... .. . ... : ... .. . ...
ROW 39 : ... .. . ... : ... .. . ... : ... .. . ... : ... .. . ... : ... .. . ... : ... .. . ... : ... .. . ... : ... .. . ...
ROW 3a : A-5 00 8 080 : ... .. . ... : ... .. . ... : ... .. . ... : ... .. . ... : C-3 03 6 ... : ... .. . ... : ... .. . ...
ROW 3b : ... .. . ... : ... .. . ... : ... .. . ... : ... .. . ... : ... .. . ... : ... .. . ... : ... .. . ... : ... .. . ...
ROW 3c : A-5 00 8 080 : ... .. . ... : ... .. . ... : ... .. . ... : ... .. . ... : C-2 03 6 ... : ... .. . ... : ... .. . ...
ROW 3d : ... .. . ... : ... .. . ... : ... .. . ... : ... .. . ... : ... .. . ... : ... .. . ... : ... .. . ... : ... .. . ...
ROW 3e : --- .. . ... : ... .. . ... : ... .. . ... : ... .. . ... : ... .. . ... : C-3 03 6 ... : ... .. . ... : ... .. . ...
ROW 3f : ... .. . ... : ... .. . ... : ... .. . ... : ... .. . ... : ... .. . ... : ... .. . ... : ... .. . ... : ... .. . ...
PATTERN 0e
ROW 00 : C-5 00 8 060 : A-4 00 8 ... : ... .. . ... : ... .. . ... : ... .. . ... : D-2 03 6 ... : ... .. . ... : ... .. . ...
ROW 01 : ... .. . ... : ... .. . ... : ... .. . ... : ... .. . ... : ... .. . ... : ... .. . ... : ... .. . ... : ... .. . ...
ROW 02 : ... .. . ... : ... .. . ... : ... .. . ... : ... .. . ... : ... .. . ... : D-3 03 6 ... : ... .. . ... : ... .. . ...
ROW 03 : ... .. . ... : ... .. . ... : ... .. . ... : ... .. . ... : ... .. . ... : ... .. . ... : ... .. . ... : ... .. . ...
ROW 04 : C-5 00 8 060 : A-4 00 8 ... : ... .. . ... : ... .. . ... : ... .. . ... : D-2 03 6 ... : ... .. . ... : ... .. . ...
ROW 05 : ... .. . ... : ... .. . ... : ... .. . ... : ... .. . ... : ... .. . ... : ... .. . ... : ... .. . ... : ... .. . ...
ROW 06 : ... .. . ... : ... .. . ... : ... .. . ... : ... .. . ... : ... .. . ... : D-3 03 6 ... : ... .. . ... : ... .. . ...
ROW 07 : ... .. . ... : ... .. . ... : ... .. . ... : ... .. . ... : ... .. . ... : ... .. . ... : ... .. . ... : ... .. . ...
ROW 08 : F#5 00 8 ... : A-4 00 8 ... : ... .. . ... : ... .. . ... : ... .. . ... : D-2 03 6 ... : ... .. . ... : ... .. . ...
ROW 09 : ... .. . ... : ... .. . ... : ... .. . ... : ... .. . ... : ... .. . ... : ... .. . ... : ... .. . ... : ... .. . ...
ROW 0a : ... .. . ... : ... .. . ... : ... .. . ... : ... .. . ... : ... .. . ... : D-3 03 6 ... : ... .. . ... : ... .. . ...
ROW 0b : G-5 00 8 ... : A#4 00 8 ... : ... .. . ... : ... .. . ... : ... .. . ... : ... .. . ... : ... .. . ... : ... .. . ...
ROW 0c : ... .. . ... : ... .. . ... : ... .. . ... : ... .. . ... : ... .. . ... : D-2 03 6 ... : ... .. . ... : ... .. . ...
ROW 0d : ... .. . ... : ... .. . ... : ... .. . ... : ... .. . ... : ... .. . ... : ... .. . ... : ... .. . ... : ... .. . ...
ROW 0e : A-5 00 8 ... : C-5 00 8 ... : ... .. . ... : ... .. . ... : ... .. . ... : D-3 03 6 ... : ... .. . ... : ... .. . ...
ROW 0f : ... .. . ... : ... .. . ... : ... .. . ... : ... .. . ... : ... .. . ... : ... .. . ... : ... .. . ... : ... .. . ...
ROW 10 : ... .. . ... : ... .. . ... : ... .. . ... : ... .. . ... : ... .. . ... : D-2 03 6 ... : ... .. . ... : ... .. . ...
ROW 11 : ... .. . ... : ... .. . ... : ... .. . ... : ... .. . ... : ... .. . ... : ... .. . ... : ... .. . ... : ... .. . ...
ROW 12 : ... .. . ... : ... .. . ... : ... .. . ... : ... .. . ... : ... .. . ... : D-3 03 6 ... : ... .. . ... : ... .. . ...
ROW 13 : ... .. . ... : ... .. . ... : ... .. . ... : ... .. . ... : ... .. . ... : ... .. . ... : ... .. . ... : ... .. . ...
ROW 14 : --- .. . ... : --- .. . ... : ... .. . ... : ... .. . ... : ... .. . ... : D-2 03 6 ... : ... .. . ... : ... .. . ...
ROW 15 : ... .. . ... : ... .. . ... : ... .. . ... : ... .. . ... : ... .. . ... : ... .. . ... : ... .. . ... : ... .. . ...
ROW 16 : ... .. . ... : ... .. . ... : ... .. . ... : ... .. . ... : ... .. . ... : D-3 03 6 ... : ... .. . ... : ... .. . ...
ROW 17 : ... .. . ... : ... .. . ... : ... .. . ... : ... .. . ... : ... .. . ... : ... .. . ... : ... .. . ... : ... .. . ...
ROW 18 : D-5 00 8 ... : ... .. . ... : ... .. . ... : ... .. . ... : ... .. . ... : D-2 03 6 ... : ... .. . ... : ... .. . ...
ROW 19 : ... .. . ... : ... .. . ... : ... .. . ... : ... .. . ... : ... .. . ... : ... .. . ... : ... .. . ... : ... .. . ...
ROW 1a : D-5 00 8 ... : ... .. . ... : ... .. . ... : ... .. . ... : ... .. . ... : D-3 03 6 ... : ... .. . ... : ... .. . ...
ROW 1b : ... .. . ... : ... .. . ... : ... .. . ... : ... .. . ... : ... .. . ... : ... .. . ... : ... .. . ... : ... .. . ...
ROW 1c : F-5 00 8 ... : A-4 00 8 ... : ... .. . ... : ... .. . ... : ... .. . ... : C-2 03 6 ... : ... .. . ... : ... .. . ...
ROW 1d : ... .. . ... : ... .. . ... : ... .. . ... : ... .. . ... : ... .. . ... : ... .. . ... : ... .. . ... : ... .. . ...
ROW 1e : D-5 00 8 ... : ... .. . ... : ... .. . ... : ... .. . ... : ... .. . ... : C-3 03 6 ... : ... .. . ... : ... .. . ...
ROW 1f : ... .. . ... : ... .. . ... : ... .. . ... : ... .. . ... : ... .. . ... : ... .. . ... : ... .. . ... : ... .. . ...
ROW 20 : F-5 00 8 040 : C-5 00 8 ... : ... .. . ... : ... .. . ... : ... .. . ... : A#1 03 6 ... : ... .. . ... : ... .. . ...
ROW 21 : ... .. . ... : ... .. . ... : ... .. . ... : ... .. . ... : ... .. . ... : ... .. . ... : ... .. . ... : ... .. . ...
ROW 22 : ... .. . ... : ... .. . ... : ... .. . ... : ... .. . ... : ... .. . ... : A#2 03 6 ... : ... .. . ... : ... .. . ...
ROW 23 : ... .. . ... : ... .. . ... : ... .. . ... : ... .. . ... : ... .. . ... : ... .. . ... : ... .. . ... : ... .. . ...
ROW 24 : F-5 00 8 040 : C-5 00 8 ... : ... .. . ... : ... .. . ... : ... .. . ... : A#1 03 6 ... : ... .. . ... : ... .. . ...
ROW 25 : ... .. . ... : ... .. . ... : ... .. . ... : ... .. . ... : ... .. . ... : ... .. . ... : ... .. . ... : ... .. . ...
ROW 26 : ... .. . ... : ... .. . ... : ... .. . ... : ... .. . ... : ... .. . ... : A#2 03 6 ... : ... .. . ... : ... .. . ...
ROW 27 : ... .. . ... : ... .. . ... : ... .. . ... : ... .. . ... : ... .. . ... : ... .. . ... : ... .. . ... : ... .. . ...
ROW 28 : F-5 00 8 040 : C-5 00 8 ... : ... .. . ... : ... .. . ... : ... .. . ... : A#1 03 6 ... : ... .. . ... : ... .. . ...
ROW 29 : ... .. . ... : ... .. . ... : ... .. . ... : ... .. . ... : ... .. . ... : ... .. . ... : ... .. . ... : ... .. . ...
ROW 2a : ... .. . ... : ... .. . ... : ... .. . ... : ... .. . ... : ... .. . ... : A#2 03 6 ... : ... .. . ... : ... .. . ...
ROW 2b : ... .. . ... : ... .. . ... : ... .. . ... : ... .. . ... : ... .. . ... : ... .. . ... : ... .. . ... : ... .. . ...
ROW 2c : F-5 00 8 ... : ... .. . ... : ... .. . ... : ... .. . ... : ... .. . ... : A#1 03 6 ... : ... .. . ... : ... .. . ...
ROW 2d : ... .. . ... : ... .. . ... : ... .. . ... : ... .. . ... : ... .. . ... : ... .. . ... : ... .. . ... : ... .. . ...
ROW 2e : G-5 00 8 ... : ... .. . ... : ... .. . ... : ... .. . ... : ... .. . ... : A#2 03 6 ... : ... .. . ... : ... .. . ...
ROW 2f : ... .. . ... : ... .. . ... : ... .. . ... : ... .. . ... : ... .. . ... : ... .. . ... : ... .. . ... : ... .. . ...
ROW 30 : E-5 00 8 050 : C-5 00 8 ... : ... .. . ... : ... .. . ... : ... .. . ... : C-2 03 6 ... : ... .. . ... : ... .. . ...
ROW 31 : ... .. . ... : ... .. . ... : ... .. . ... : ... .. . ... : ... .. . ... : ... .. . ... : ... .. . ... : ... .. . ...
ROW 32 : F-5 00 8 ... : ... .. . ... : ... .. . ... : ... .. . ... : ... .. . ... : C-3 03 6 ... : ... .. . ... : ... .. . ...
ROW 33 : ... .. . ... : ... .. . ... : ... .. . ... : ... .. . ... : ... .. . ... : ... .. . ... : ... .. . ... : ... .. . ...
ROW 34 : F-5 00 8 ... : ... .. . ... : ... .. . ... : ... .. . ... : ... .. . ... : C-2 03 6 ... : ... .. . ... : ... .. . ...
ROW 35 : ... .. . ... : ... .. . ... : ... .. . ... : ... .. . ... : ... .. . ... : ... .. . ... : ... .. . ... : ... .. . ...
ROW 36 : D-5 00 8 ... : ... .. . ... : ... .. . ... : ... .. . ... : ... .. . ... : C-3 03 6 ... : ... .. . ... : ... .. . ...
ROW 37 : ... .. . ... : ... .. . ... : ... .. . ... : ... .. . ... : ... .. . ... : ... .. . ... : ... .. . ... : ... .. . ...
ROW 38 : F-5 00 8 ... : A-4 00 8 ... : ... .. . ... : ... .. . ... : ... .. . ... : C-2 03 6 ... : ... .. . ... : ... .. . ...
ROW 39 : ... .. . ... : ... .. . ... : ... .. . ... : ... .. . ... : ... .. . ... : ... .. . ... : ... .. . ... : ... .. . ...
ROW 3a : ... .. . ... : ... .. . ... : ... .. . ... : ... .. . ... : ... .. . ... : C-3 03 6 ... : ... .. . ... : ... .. . ...
ROW 3b : ... .. . ... : ... .. . ... : ... .. . ... : ... .. . ... : ... .. . ... : ... .. . ... : ... .. . ... : ... .. . ...
ROW 3c : G-5 00 8 ... : A#4 00 8 ... : ... .. . ... : ... .. . ... : ... .. . ... : C-2 03 6 ... : ... .. . ... : ... .. . ...
ROW 3d : ... .. . ... : ... .. . ... : ... .. . ... : ... .. . ... : ... .. . ... : ... .. . ... : ... .. . ... : ... .. . ...
ROW 3e : ... .. . ... : ... .. . ... : ... .. . ... : ... .. . ... : ... .. . ... : C-3 03 6 ... : ... .. . ... : ... .. . ...
ROW 3f : ... .. . ... : ... .. . ... : ... .. . ... : ... .. . ... : ... .. . ... : ... .. . ... : ... .. . ... : ... .. . ...
PATTERN 0f
ROW 00 : E-5 00 8 050 : C-5 00 8 ... : ... .. . ... : ... .. . ... : ... .. . ... : A-1 03 6 ... : ... .. . ... : ... .. . ...
ROW 01 : ... .. . ... : ... .. . ... : ... .. . ... : ... .. . ... : ... .. . ... : ... .. . ... : ... .. . ... : ... .. . ...
ROW 02 : ... .. . ... : ... .. . ... : ... .. . ... : ... .. . ... : ... .. . ... : A-2 03 6 ... : ... .. . ... : ... .. . ...
ROW 03 : ... .. . ... : ... .. . ... : ... .. . ... : ... .. . ... : ... .. . ... : ... .. . ... : ... .. . ... : ... .. . ...
ROW 04 : E-5 00 8 050 : C-5 00 8 ... : ... .. . ... : ... .. . ... : ... .. . ... : A-1 03 6 ... : ... .. . ... : ... .. . ...
ROW 05 : ... .. . ... : ... .. . ... : ... .. . ... : ... .. . ... : ... .. . ... : ... .. . ... : ... .. . ... : ... .. . ...
ROW 06 : ... .. . ... : ... .. . ... : ... .. . ... : ... .. . ... : ... .. . ... : A-2 03 6 ... : ... .. . ... : ... .. . ...
ROW 07 : ... .. . ... : ... .. . ... : ... .. . ... : ... .. . ... : ... .. . ... : ... .. . ... : ... .. . ... : ... .. . ...
ROW 08 : E-5 00 8 050 : C-5 00 8 ... : ... .. . ... : ... .. . ... : ... .. . ... : A-1 03 6 ... : ... .. . ... : ... .. . ...
ROW 09 : ... .. . ... : ... .. . ... : ... .. . ... : ... .. . ... : ... .. . ... : ... .. . ... : ... .. . ... : ... .. . ...
ROW 0a : ... .. . ... : ... .. . ... : ... .. . ... : ... .. . ... : ... .. . ... : A-2 03 6 ... : ... .. . ... : ... .. . ...
ROW 0b : ... .. . ... : ... .. . ... : ... .. . ... : ... .. . ... : ... .. . ... : ... .. . ... : ... .. . ... : ... .. . ...
ROW 0c : F-5 00 8 ... : ... .. . ... : ... .. . ... : ... .. . ... : ... .. . ... : A-1 03 6 ... : ... .. . ... : ... .. . ...
ROW 0d : ... .. . ... : ... .. . ... : ... .. . ... : ... .. . ... : ... .. . ... : ... .. . ... : ... .. . ... : ... .. . ...
ROW 0e : D-5 00 8 ... : ... .. . ... : ... .. . ... : ... .. . ... : ... .. . ... : A-2 03 6 ... : ... .. . ... : ... .. . ...
ROW 0f : ... .. . ... : ... .. . ... : ... .. . ... : ... .. . ... : ... .. . ... : ... .. . ... : ... .. . ... : ... .. . ...
ROW 10 : C-5 00 8 050 : A-4 00 8 ... : ... .. . ... : ... .. . ... : ... .. . ... : D-2 03 6 ... : ... .. . ... : ... .. . ...
ROW 11 : ... .. . ... : ... .. . ... : ... .. . ... : ... .. . ... : ... .. . ... : ... .. . ... : ... .. . ... : ... .. . ...
ROW 12 : D-5 00 8 ... : ... .. . ... : ... .. . ... : ... .. . ... : ... .. . ... : D-3 03 6 ... : ... .. . ... : ... .. . ...
ROW 13 : ... .. . ... : ... .. . ... : ... .. . ... : ... .. . ... : ... .. . ... : ... .. . ... : ... .. . ... : ... .. . ...
ROW 14 : F-5 00 8 ... : A-4 00 8 ... : ... .. . ... : ... .. . ... : ... .. . ... : D-2 03 6 ... : ... .. . ... : ... .. . ...
ROW 15 : ... .. . ... : ... .. . ... : ... .. . ... : ... .. . ... : ... .. . ... : ... .. . ... : ... .. . ... : ... .. . ...
ROW 16 : G-5 00 8 ... : A#4 00 8 ... : ... .. . ... : ... .. . ... : ... .. . ... : D-3 03 6 ... : ... .. . ... : ... .. . ...
ROW 17 : ... .. . ... : ... .. . ... : ... .. . ... : ... .. . ... : ... .. . ... : ... .. . ... : ... .. . ... : ... .. . ...
ROW 18 : F-5 00 8 ... : A-4 00 8 ... : ... .. . ... : ... .. . ... : ... .. . ... : D-2 03 6 ... : ... .. . ... : ... .. . ...
ROW 19 : ... .. . ... : ... .. . ... : ... .. . ... : ... .. . ... : ... .. . ... : ... .. . ... : ... .. . ... : ... .. . ...
ROW 1a : ... .. . ... : ... .. . ... : ... .. . ... : ... .. . ... : ... .. . ... : D-3 03 6 ... : ... .. . ... : ... .. . ...
ROW 1b : ... .. . ... : ... .. . ... : ... .. . ... : ... .. . ... : ... .. . ... : ... .. . ... : ... .. . ... : ... .. . ...
ROW 1c : --- .. . ... : --- .. . ... : ... .. . ... : ... .. . ... : ... .. . ... : D-2 03 6 ... : ... .. . ... : ... .. . ...
ROW 1d : ... .. . ... : ... .. . ... : ... .. . ... : ... .. . ... : ... .. . ... : ... .. . ... : ... .. . ... : ... .. . ...
ROW 1e : D-5 00 8 ... : ... .. . ... : ... .. . ... : ... .. . ... : ... .. . ... : D-3 03 6 ... : ... .. . ... : ... .. . ...
ROW 1f : ... .. . ... : ... .. . ... : ... .. . ... : ... .. . ... : ... .. . ... : ... .. . ... : ... .. . ... : ... .. . ...
ROW 20 : --- .. . ... : A-4 00 8 ... : F-5 01 7 ... : ... .. . ... : ... .. . ... : G-1 03 6 ... : ... .. . ... : ... .. . ...
ROW 21 : ... .. . ... : ... .. . ... : ... .. . ... : ... .. . ... : ... .. . ... : ... .. . ... : ... .. . ... : ... .. . ...
ROW 22 : ... .. . ... : A#4 00 8 ... : G-5 01 7 ... : ... .. . ... : ... .. . ... : G-2 03 6 ... : ... .. . ... : ... .. . ...
ROW 23 : ... .. . ... : ... .. . ... : ... .. . ... : ... .. . ... : ... .. . ... : ... .. . ... : ... .. . ... : ... .. . ...
ROW 24 : ... .. . ... : C-5 00 8 ... : A-5 01 7 ... : ... .. . ... : ... .. . ... : G-1 03 6 ... : ... .. . ... : ... .. . ...
ROW 25 : ... .. . ... : ... .. . ... : ... .. . ... : ... .. . ... : ... .. . ... : ... .. . ... : ... .. . ... : ... .. . ...
ROW 26 : ... .. . ... : ... .. . ... : ... .. . ... : ... .. . ... : ... .. . ... : G-2 03 6 ... : ... .. . ... : ... .. . ...
ROW 27 : ... .. . ... : ... .. . ... : ... .. . ... : ... .. . ... : ... .. . ... : ... .. . ... : ... .. . ... : ... .. . ...
ROW 28 : A-5 00 8 080 : --- .. . ... : --- .. . ... : ... .. . ... : ... .. . ... : G-1 03 6 ... : ... .. . ... : ... .. . ...
ROW 29 : ... .. . ... : ... .. . ... : ... .. . ... : ... .. . ... : ... .. . ... : ... .. . ... : ... .. . ... : ... .. . ...
ROW 2a : A-5 00 8 080 : ... .. . ... : ... .. . ... : ... .. . ... : ... .. . ... : G-2 03 6 ... : ... .. . ... : ... .. . ...
ROW 2b : ... .. . ... : ... .. . ... : ... .. . ... : ... .. . ... : ... .. . ... : ... .. . ... : ... .. . ... : ... .. . ...
ROW 2c : A-5 00 8 080 : ... .. . ... : ... .. . ... : ... .. . ... : ... .. . ... : G-1 03 6 ... : ... .. . ... : ... .. . ...
ROW 2d : ... .. . ... : ... .. . ... : ... .. . ... : ... .. . ... : ... .. . ... : ... .. . ... : ... .. . ... : ... .. . ...
ROW 2e : --- .. . ... : D-5 00 8 ... : ... .. . ... : ... .. . ... : ... .. . ... : G-2 03 6 ... : ... .. . ... : ... .. . ...
ROW 2f : ... .. . ... : ... .. . ... : ... .. . ... : ... .. . ... : ... .. . ... : ... .. . ... : ... .. . ... : ... .. . ...
ROW 30 : ... .. . ... : A-4 00 8 ... : F-5 01 7 ... : ... .. . ... : ... .. . ... : A-1 03 6 ... : ... .. . ... : ... .. . ...
ROW 31 : ... .. . ... : ... .. . ... : ... .. . ... : ... .. . ... : ... .. . ... : ... .. . ... : ... .. . ... : ... .. . ...
ROW 32 : ... .. . ... : A#4 00 8 ... : G-5 01 7 ... : ... .. . ... : ... .. . ... : A-2 03 6 ... : ... .. . ... : ... .. . ...
ROW 33 : ... .. . ... : ... .. . ... : ... .. . ... : ... .. . ... : ... .. . ... : ... .. . ... : ... .. . ... : ... .. . ...
ROW 34 : ... .. . ... : C-5 00 8 ... : A-5 01 7 ... : ... .. . ... : ... .. . ... : A-1 03 6 ... : ... .. . ... : ... .. . ...
ROW 35 : ... .. . ... : ... .. . ... : ... .. . ... : ... .. . ... : ... .. . ... : ... .. . ... : ... .. . ... : ... .. . ...
ROW 36 : ... .. . ... : ... .. . ... : ... .. . ... : ... .. . ... : ... .. . ... : A-2 03 6 ... : ... .. . ... : ... .. . ...
ROW 37 : ... .. . ... : ... .. . ... : ... .. . ... : ... .. . ... : ... .. . ... : ... .. . ... : ... .. . ... : ... .. . ...
ROW 38 : A-5 00 8 080 : --- .. . ... : --- .. . ... : ... .. . ... : ... .. . ... : A-1 03 6 ... : ... .. . ... : ... .. . ...
ROW 39 : ... .. . ... : ... .. . ... : ... .. . ... : ... .. . ... : ... .. . ... : ... .. . ... : ... .. . ... : ... .. . ...
ROW 3a : A-5 00 8 080 : ... .. . ... : ... .. . ... : ... .. . ... : ... .. . ... : A-2 03 6 ... : ... .. . ... : ... .. . ...
ROW 3b : ... .. . ... : ... .. . ... : ... .. . ... : ... .. . ... : ... .. . ... : ... .. . ... : ... .. . ... : ... .. . ...
ROW 3c : A-5 00 8 080 : ... .. . ... : ... .. . ... : ... .. . ... : ... .. . ... : A-1 03 6 ... : ... .. . ... : ... .. . ...
ROW 3d : ... .. . ... : ... .. . ... : ... .. . ... : ... .. . ... : ... .. . ... : ... .. . ... : ... .. . ... : ... .. . ...
ROW 3e : --- .. . ... : ... .. . ... : ... .. . ... : ... .. . ... : ... .. . ... : A-2 03 6 ... : ... .. . ... : ... .. . ...
ROW 3f : ... .. . ... : ... .. . ... : ... .. . ... : ... .. . ... : ... .. . ... : ... .. . ... : ... .. . ... : ... .. . ...
PATTERN 10
ROW 00 : C-6 00 8 ... : F-5 00 8 ... : ... .. . ... : ... .. . ... : ... .. . ... : A#1 03 6 0C0 : ... .. . ... : ... .. . ...
ROW 01 : ... .. . ... : ... .. . ... : ... .. . ... : ... .. . ... : ... .. . ... : ... .. . ... : ... .. . ... : ... .. . ...
ROW 02 : ... .. . ... : ... .. . ... : ... .. . ... : ... .. . ... : ... .. . ... : A#1 03 6 0C0 : ... .. . ... : ... .. . ...
ROW 03 : ... .. . ... : ... .. . ... : ... .. . ... : ... .. . ... : ... .. . ... : ... .. . ... : ... .. . ... : ... .. . ...
ROW 04 : A#5 00 8 ... : D-5 00 8 ... : ... .. . ... : ... .. . ... : ... .. . ... : A#1 03 6 0C0 : ... .. . ... : ... .. . ...
ROW 05 : ... .. . ... : ... .. . ... : ... .. . ... : ... .. . ... : ... .. . ... : ... .. . ... : ... .. . ... : ... .. . ...
ROW 06 : ... .. . ... : ... .. . ... : ... .. . ... : ... .. . ... : ... .. . ... : A#1 03 6 0C0 : ... .. . ... : ... .. . ...
ROW 07 : ... .. . ... : ... .. . ... : ... .. . ... : ... .. . ... : ... .. . ... : ... .. . ... : ... .. . ... : ... .. . ...
ROW 08 : A-5 00 8 ... : C-5 00 8 ... : ... .. . ... : ... .. . ... : ... .. . ... : A#1 03 6 0C0 : ... .. . ... : ... .. . ...
ROW 09 : ... .. . ... : ... .. . ... : ... .. . ... : ... .. . ... : ... .. . ... : ... .. . ... : ... .. . ... : ... .. . ...
ROW 0a : ... .. . ... : ... .. . ... : ... .. . ... : ... .. . ... : ... .. . ... : A#1 03 6 0C0 : ... .. . ... : ... .. . ...
ROW 0b : ... .. . ... : ... .. . ... : ... .. . ... : ... .. . ... : ... .. . ... : ... .. . ... : ... .. . ... : ... .. . ...
ROW 0c : A#5 00 8 ... : D-5 00 8 ... : ... .. . ... : ... .. . ... : ... .. . ... : A#1 03 6 0C0 : ... .. . ... : ... .. . ...
ROW 0d : ... .. . ... : ... .. . ... : ... .. . ... : ... .. . ... : ... .. . ... : ... .. . ... : ... .. . ... : ... .. . ...
ROW 0e : ... .. . ... : ... .. . ... : ... .. . ... : ... .. . ... : ... .. . ... : A#1 03 6 0C0 : ... .. . ... : ... .. . ...
ROW 0f : ... .. . ... : ... .. . ... : ... .. . ... : ... .. . ... : ... .. . ... : ... .. . ... : ... .. . ... : ... .. . ...
ROW 10 : E-5 00 8 050 : C-5 00 8 ... : ... .. . ... : ... .. . ... : ... .. . ... : C-2 03 6 0C0 : ... .. . ... : ... .. . ...
ROW 11 : ... .. . ... : ... .. . ... : ... .. . ... : ... .. . ... : ... .. . ... : ... .. . ... : ... .. . ... : ... .. . ...
ROW 12 : ... .. . ... : ... .. . ... : ... .. . ... : ... .. . ... : ... .. . ... : ... .. . ... : ... .. . ... : ... .. . ...
ROW 13 : ... .. . ... : ... .. . ... : ... .. . ... : ... .. . ... : ... .. . ... : ... .. . ... : ... .. . ... : ... .. . ...
ROW 14 : --- .. . ... : --- .. . ... : ... .. . ... : ... .. . ... : ... .. . ... : --- .. . ... : ... .. . ... : ... .. . ...
ROW 15 : ... .. . ... : ... .. . ... : ... .. . ... : ... .. . ... : ... .. . ... : ... .. . ... : ... .. . ... : ... .. . ...
ROW 16 : F-5 00 8 ... : ... .. . ... : ... .. . ... : ... .. . ... : ... .. . ... : ... .. . ... : ... .. . ... : ... .. . ...
ROW 17 : ... .. . ... : ... .. . ... : ... .. . ... : ... .. . ... : ... .. . ... : ... .. . ... : ... .. . ... : ... .. . ...
ROW 18 : F-5 00 8 ... : A-4 00 8 ... : ... .. . ... : ... .. . ... : ... .. . ... : ... .. . ... : ... .. . ... : ... .. . ...
ROW 19 : ... .. . ... : ... .. . ... : ... .. . ... : ... .. . ... : ... .. . ... : ... .. . ... : ... .. . ... : ... .. . ...
ROW 1a : F-5 00 8 ... : A-4 00 8 ... : ... .. . ... : ... .. . ... : ... .. . ... : ... .. . ... : ... .. . ... : ... .. . ...
ROW 1b : ... .. . ... : ... .. . ... : ... .. . ... : ... .. . ... : ... .. . ... : ... .. . ... : ... .. . ... : ... .. . ...
ROW 1c : F-5 00 8 ... : A-4 00 8 ... : ... .. . ... : ... .. . ... : ... .. . ... : ... .. . ... : ... .. . ... : ... .. . ...
ROW 1d : ... .. . ... : ... .. . ... : ... .. . ... : ... .. . ... : ... .. . ... : ... .. . ... : ... .. . ... : ... .. . ...
ROW 1e : G-5 00 8 ... : A#4 00 8 ... : ... .. . ... : ... .. . ... : ... .. . ... : ... .. . ... : ... .. . ... : ... .. . ...
ROW 1f : F-5 00 8 ... : A-4 00 8 ... : ... .. . ... : ... .. . ... : ... .. . ... : ... .. . ... : ... .. . ... : ... .. . ...
ROW 20 : A-4 00 8 ... : --- .. . ... : ... .. . ... : ... .. . ... : ... .. . ... : D-2 03 6 ... : ... .. . ... : ... .. . ...
ROW 21 : F-5 00 8 ... : ... .. . ... : ... .. . ... : ... .. . ... : ... .. . ... : ... .. . ... : ... .. . ... : ... .. . ...
ROW 22 : ... .. . ... : ... .. . ... : ... .. . ... : ... .. . ... : ... .. . ... : D-3 03 6 ... : ... .. . ... : ... .. . ...
ROW 23 : A-4 00 8 080 : ... .. . ... : ... .. . ... : ... .. . ... : ... .. . ... : ... .. . ... : ... .. . ... : ... .. . ...
ROW 24 : ... .. . ... : ... .. . ... : ... .. . ... : ... .. . ... : ... .. . ... : A-2 03 6 ... : ... .. . ... : ... .. . ...
ROW 25 : A-4 00 8 080 : ... .. . ... : ... .. . ... : ... .. . ... : ... .. . ... : ... .. . ... : ... .. . ... : ... .. . ...
ROW 26 : ... .. . ... : ... .. . ... : ... .. . ... : ... .. . ... : ... .. . ... : C-3 03 6 ... : ... .. . ... : ... .. . ...
ROW 27 : ... .. . ... : ... .. . ... : ... .. . ... : ... .. . ... : ... .. . ... : ... .. . ... : ... .. . ... : ... .. . ...
ROW 28 : F-5 00 8 ... : A-4 00 8 ... : ... .. . ... : ... .. . ... : ... .. . ... : D-2 03 6 ... : ... .. . ... : ... .. . ...
ROW 29 : ... .. . ... : ... .. . ... : ... .. . ... : ... .. . ... : ... .. . ... : ... .. . ... : ... .. . ... : ... .. . ...
ROW 2a : F-5 00 8 ... : A-4 00 8 ... : ... .. . ... : ... .. . ... : ... .. . ... : D-3 03 6 ... : ... .. . ... : ... .. . ...
ROW 2b : ... .. . ... : ... .. . ... : ... .. . ... : ... .. . ... : ... .. . ... : ... .. . ... : ... .. . ... : ... .. . ...
ROW 2c : F-5 00 8 ... : C-5 00 8 ... : ... .. . ... : ... .. . ... : ... .. . ... : A-2 03 6 ... : ... .. . ... : ... .. . ...
ROW 2d : ... .. . ... : ... .. . ... : ... .. . ... : ... .. . ... : ... .. . ... : ... .. . ... : ... .. . ... : ... .. . ...
ROW 2e : D-5 00 8 ... : D-5 00 8 ... : ... .. . ... : ... .. . ... : ... .. . ... : C-3 03 6 ... : ... .. . ... : ... .. . ...
ROW 2f : ... .. . ... : ... .. . ... : ... .. . ... : ... .. . ... : ... .. . ... : ... .. . ... : ... .. . ... : ... .. . ...
ROW 30 : A-4 00 8 ... : --- .. . ... : ... .. . ... : ... .. . ... : ... .. . ... : D-2 03 6 ... : ... .. . ... : ... .. . ...
ROW 31 : F-5 00 8 ... : ... .. . ... : ... .. . ... : ... .. . ... : ... .. . ... : ... .. . ... : ... .. . ... : ... .. . ...
ROW 32 : ... .. . ... : ... .. . ... : ... .. . ... : ... .. . ... : ... .. . ... : D-3 03 6 ... : ... .. . ... : ... .. . ...
ROW 33 : A-4 00 8 080 : ... .. . ... : ... .. . ... : ... .. . ... : ... .. . ... : ... .. . ... : ... .. . ... : ... .. . ...
ROW 34 : ... .. . ... : ... .. . ... : ... .. . ... : ... .. . ... : ... .. . ... : A-2 03 6 ... : ... .. . ... : ... .. . ...
ROW 35 : A-4 00 8 080 : ... .. . ... : ... .. . ... : ... .. . ... : ... .. . ... : ... .. . ... : ... .. . ... : ... .. . ...
ROW 36 : ... .. . ... : ... .. . ... : ... .. . ... : ... .. . ... : ... .. . ... : C-3 03 6 ... : ... .. . ... : ... .. . ...
ROW 37 : ... .. . ... : ... .. . ... : ... .. . ... : ... .. . ... : ... .. . ... : ... .. . ... : ... .. . ... : ... .. . ...
ROW 38 : F-5 00 8 ... : A-4 00 8 ... : ... .. . ... : ... .. . ... : ... .. . ... : D-2 03 6 ... : ... .. . ... : ... .. . ...
ROW 39 : ... .. . ... : ... .. . ... : ... .. . ... : ... .. . ... : ... .. . ... : ... .. . ... : ... .. . ... : ... .. . ...
ROW 3a : F-5 00 8 ... : A-4 00 8 ... : ... .. . ... : ... .. . ... : ... .. . ... : D-3 03 6 ... : ... .. . ... : ... .. . ...
ROW 3b : ... .. . ... : ... .. . ... : ... .. . ... : ... .. . ... : ... .. . ... : ... .. . ... : ... .. . ... : ... .. . ...
ROW 3c : F-5 00 8 ... : C-5 00 8 ... : ... .. . ... : ... .. . ... : ... .. . ... : A-2 03 6 ... : ... .. . ... : ... .. . ...
ROW 3d : ... .. . ... : ... .. . ... : ... .. . ... : ... .. . ... : ... .. . ... : ... .. . ... : ... .. . ... : ... .. . ...
ROW 3e : D-5 00 8 ... : D-5 00 8 ... : ... .. . ... : ... .. . ... : ... .. . ... : C-3 03 6 ... : ... .. . ... : ... .. . ...
ROW 3f : ... .. . ... : ... .. . ... : ... .. . ... : ... .. . ... : ... .. . ... : ... .. . ... : ... .. . ... : ... .. . ...
PATTERN 11
ROW 00 : A-4 00 8 ... : --- .. . ... : ... .. . ... : ... .. . ... : ... .. . ... : D-2 03 6 ... : ... .. . ... : ... .. . ...
ROW 01 : F-5 00 8 ... : ... .. . ... : ... .. . ... : ... .. . ... : ... .. . ... : ... .. . ... : ... .. . ... : ... .. . ...
ROW 02 : ... .. . ... : ... .. . ... : ... .. . ... : ... .. . ... : ... .. . ... : D-3 03 6 ... : ... .. . ... : ... .. . ...
ROW 03 : A-4 00 8 080 : ... .. . ... : ... .. . ... : ... .. . ... : ... .. . ... : ... .. . ... : ... .. . ... : ... .. . ...
ROW 04 : ... .. . ... : ... .. . ... : ... .. . ... : ... .. . ... : ... .. . ... : A-2 03 6 ... : ... .. . ... : ... .. . ...
ROW 05 : A-4 00 8 080 : ... .. . ... : ... .. . ... : ... .. . ... : ... .. . ... : ... .. . ... : ... .. . ... : ... .. . ...
ROW 06 : ... .. . ... : ... .. . ... : ... .. . ... : ... .. . ... : ... .. . ... : C-3 03 6 ... : ... .. . ... : ... .. . ...
ROW 07 : ... .. . ... : ... .. . ... : ... .. . ... : ... .. . ... : ... .. . ... : ... .. . ... : ... .. . ... : ... .. . ...
ROW 08 : F-5 00 8 ... : A-4 00 8 ... : ... .. . ... : ... .. . ... : ... .. . ... : D-2 03 6 ... : ... .. . ... : ... .. . ...
ROW 09 : ... .. . ... : ... .. . ... : ... .. . ... : ... .. . ... : ... .. . ... : ... .. . ... : ... .. . ... : ... .. . ...
ROW 0a : F-5 00 8 ... : A-4 00 8 ... : ... .. . ... : ... .. . ... : ... .. . ... : D-3 03 6 ... : ... .. . ... : ... .. . ...
ROW 0b : ... .. . ... : ... .. . ... : ... .. . ... : ... .. . ... : ... .. . ... : ... .. . ... : ... .. . ... : ... .. . ...
ROW 0c : F-5 00 8 ... : C-5 00 8 ... : ... .. . ... : ... .. . ... : ... .. . ... : A-2 03 6 ... : ... .. . ... : ... .. . ...
ROW 0d : ... .. . ... : ... .. . ... : ... .. . ... : ... .. . ... : ... .. . ... : ... .. . ... : ... .. . ... : ... .. . ...
ROW 0e : D-5 00 8 ... : D-5 00 8 ... : ... .. . ... : ... .. . ... : ... .. . ... : C-3 03 6 ... : ... .. . ... : ... .. . ...
ROW 0f : ... .. . ... : ... .. . ... : ... .. . ... : ... .. . ... : ... .. . ... : ... .. . ... : ... .. . ... : ... .. . ...
ROW 10 : A-4 00 8 ... : --- .. . ... : ... .. . ... : ... .. . ... : ... .. . ... : D-2 03 6 ... : ... .. . ... : ... .. . ...
ROW 11 : F-5 00 8 ... : ... .. . ... : ... .. . ... : ... .. . ... : ... .. . ... : ... .. . ... : ... .. . ... : ... .. . ...
ROW 12 : ... .. . ... : ... .. . ... : ... .. . ... : ... .. . ... : ... .. . ... : D-3 03 6 ... : ... .. . ... : ... .. . ...
ROW 13 : A-4 00 8 080 : ... .. . ... : ... .. . ... : ... .. . ... : ... .. . ... : ... .. . ... : ... .. . ... : ... .. . ...
ROW 14 : ... .. . ... : ... .. . ... : ... .. . ... : ... .. . ... : ... .. . ... : A-2 03 6 ... : ... .. . ... : ... .. . ...
ROW 15 : A-4 00 8 080 : ... .. . ... : ... .. . ... : ... .. . ... : ... .. . ... : ... .. . ... : ... .. . ... : ... .. . ...
ROW 16 : ... .. . ... : ... .. . ... : ... .. . ... : ... .. . ... : ... .. . ... : C-3 03 6 ... : ... .. . ... : ... .. . ...
ROW 17 : ... .. . ... : ... .. . ... : ... .. . ... : ... .. . ... : ... .. . ... : ... .. . ... : ... .. . ... : ... .. . ...
ROW 18 : F-5 00 8 ... : A-4 00 8 ... : ... .. . ... : ... .. . ... : ... .. . ... : G-2 03 6 ... : ... .. . ... : ... .. . ...
ROW 19 : ... .. . ... : ... .. . ... : ... .. . ... : ... .. . ... : ... .. . ... : ... .. . ... : ... .. . ... : ... .. . ...
ROW 1a : F-5 00 8 ... : A-4 00 8 ... : ... .. . ... : ... .. . ... : ... .. . ... : G-3 03 6 ... : ... .. . ... : ... .. . ...
ROW 1b : ... .. . ... : ... .. . ... : ... .. . ... : ... .. . ... : ... .. . ... : ... .. . ... : ... .. . ... : ... .. . ...
ROW 1c : F-5 00 8 ... : A-4 00 8 ... : ... .. . ... : ... .. . ... : ... .. . ... : A-2 03 6 ... : ... .. . ... : ... .. . ...
ROW 1d : ... .. . ... : ... .. . ... : ... .. . ... : ... .. . ... : ... .. . ... : ... .. . ... : ... .. . ... : ... .. . ...
ROW 1e : ... .. . ... : ... .. . ... : ... .. . ... : ... .. . ... : ... .. . ... : A-3 03 6 ... : ... .. . ... : ... .. . ...
ROW 1f : ... .. . ... : ... .. . ... : ... .. . ... : ... .. . ... : ... .. . ... : ... .. . ... : ... .. . ... : ... .. . ...
ROW 20 : A-4 00 8 ... : --- .. . ... : ... .. . ... : ... .. . ... : ... .. . ... : D-2 03 6 ... : ... .. . ... : ... .. . ...
ROW 21 : F-5 00 8 ... : ... .. . ... : ... .. . ... : ... .. . ... : ... .. . ... : ... .. . ... : ... .. . ... : ... .. . ...
ROW 22 : ... .. . ... : ... .. . ... : ... .. . ... : ... .. . ... : ... .. . ... : D-3 03 6 ... : ... .. . ... : ... .. . ...
ROW 23 : A-4 00 8 080 : ... .. . ... : ... .. . ... : ... .. . ... : ... .. . ... : ... .. . ... : ... .. . ... : ... .. . ...
ROW 24 : ... .. . ... : ... .. . ... : ... .. . ... : ... .. . ... : ... .. . ... : A-2 03 6 ... : ... .. . ... : ... .. . ...
ROW 25 : A-4 00 8 080 : ... .. . ... : ... .. . ... : ... .. . ... : ... .. . ... : ... .. . ... : ... .. . ... : ... .. . ...
ROW 26 : ... .. . ... : ... .. . ... : ... .. . ... : ... .. . ... : ... .. . ... : C-3 03 6 ... : ... .. . ... : ... .. . ...
ROW 27 : ... .. . ... : ... .. . ... : ... .. . ... : ... .. . ... : ... .. . ... : ... .. . ... : ... .. . ... : ... .. . ...
ROW 28 : F-5 00 8 ... : A-4 00 8 ... : ... .. . ... : ... .. . ... : ... .. . ... : D-2 03 6 ... : ... .. . ... : ... .. . ...
ROW 29 : ... .. . ... : ... .. . ... : ... .. . ... : ... .. . ... : ... .. . ... : ... .. . ... : ... .. . ... : ... .. . ...
ROW 2a : F-5 00 8 ... : A-4 00 8 ... : ... .. . ... : ... .. . ... : ... .. . ... : D-3 03 6 ... : ... .. . ... : ... .. . ...
ROW 2b : ... .. . ... : ... .. . ... : ... .. . ... : ... .. . ... : ... .. . ... : ... .. . ... : ... .. . ... : ... .. . ...
ROW 2c : F-5 00 8 ... : C-5 00 8 ... : ... .. . ... : ... .. . ... : ... .. . ... : A-2 03 6 ... : ... .. . ... : ... .. . ...
ROW 2d : ... .. . ... : ... .. . ... : ... .. . ... : ... .. . ... : ... .. . ... : ... .. . ... : ... .. . ... : ... .. . ...
ROW 2e : D-5 00 8 ... : D-5 00 8 ... : ... .. . ... : ... .. . ... : ... .. . ... : C-3 03 6 ... : ... .. . ... : ... .. . ...
ROW 2f : ... .. . ... : ... .. . ... : ... .. . ... : ... .. . ... : ... .. . ... : ... .. . ... : ... .. . ... : ... .. . ...
ROW 30 : A-4 00 8 ... : --- .. . ... : ... .. . ... : ... .. . ... : ... .. . ... : D-2 03 6 ... : ... .. . ... : ... .. . ...
ROW 31 : F-5 00 8 ... : ... .. . ... : ... .. . ... : ... .. . ... : ... .. . ... : ... .. . ... : ... .. . ... : ... .. . ...
ROW 32 : ... .. . ... : ... .. . ... : ... .. . ... : ... .. . ... : ... .. . ... : D-3 03 6 ... : ... .. . ... : ... .. . ...
ROW 33 : A-4 00 8 080 : ... .. . ... : ... .. . ... : ... .. . ... : ... .. . ... : ... .. . ... : ... .. . ... : ... .. . ...
ROW 34 : ... .. . ... : ... .. . ... : ... .. . ... : ... .. . ... : ... .. . ... : A-2 03 6 ... : ... .. . ... : ... .. . ...
ROW 35 : A-4 00 8 080 : ... .. . ... : ... .. . ... : ... .. . ... : ... .. . ... : ... .. . ... : ... .. . ... : ... .. . ...
ROW 36 : ... .. . ... : ... .. . ... : ... .. . ... : ... .. . ... : ... .. . ... : C-3 03 6 ... : ... .. . ... : ... .. . ...
ROW 37 : ... .. . ... : ... .. . ... : ... .. . ... : ... .. . ... : ... .. . ... : ... .. . ... : ... .. . ... : ... .. . ...
ROW 38 : F-5 00 8 ... : A-4 00 8 ... : ... .. . ... : ... .. . ... : ... .. . ... : D-2 03 6 ... : ... .. . ... : ... .. . ...
ROW 39 : ... .. . ... : ... .. . ... : ... .. . ... : ... .. . ... : ... .. . ... : ... .. . ... : ... .. . ... : ... .. . ...
ROW 3a : F-5 00 8 ... : A-4 00 8 ... : ... .. . ... : ... .. . ... : ... .. . ... : D-3 03 6 ... : ... .. . ... : ... .. . ...
ROW 3b : ... .. . ... : ... .. . ... : ... .. . ... : ... .. . ... : ... .. . ... : ... .. . ... : ... .. . ... : ... .. . ...
ROW 3c : F-5 00 8 ... : C-5 00 8 ... : ... .. . ... : ... .. . ... : ... .. . ... : A-2 03 6 ... : ... .. . ... : ... .. . ...
ROW 3d : ... .. . ... : ... .. . ... : ... .. . ... : ... .. . ... : ... .. . ... : ... .. . ... : ... .. . ... : ... .. . ...
ROW 3e : D-5 00 8 ... : D-5 00 8 ... : ... .. . ... : ... .. . ... : ... .. . ... : C-3 03 6 ... : ... .. . ... : ... .. . ...
ROW 3f : ... .. . ... : ... .. . ... : ... .. . ... : ... .. . ... : ... .. . ... : ... .. . ... : ... .. . ... : ... .. . ...
PATTERN 12
ROW 00 : A-4 00 8 ... : --- .. . ... : ... .. . ... : ... .. . ... : ... .. . ... : D-2 03 6 ... : ... .. . ... : ... .. . ...
ROW 01 : F-5 00 8 ... : ... .. . ... : ... .. . ... : ... .. . ... : ... .. . ... : ... .. . ... : ... .. . ... : ... .. . ...
ROW 02 : ... .. . ... : ... .. . ... : ... .. . ... : ... .. . ... : ... .. . ... : D-3 03 6 ... : ... .. . ... : ... .. . ...
ROW 03 : A-4 00 8 080 : ... .. . ... : ... .. . ... : ... .. . ... : ... .. . ... : ... .. . ... : ... .. . ... : ... .. . ...
ROW 04 : ... .. . ... : ... .. . ... : ... .. . ... : ... .. . ... : ... .. . ... : A-2 03 6 ... : ... .. . ... : ... .. . ...
ROW 05 : A-4 00 8 080 : ... .. . ... : ... .. . ... : ... .. . ... : ... .. . ... : ... .. . ... : ... .. . ... : ... .. . ...
ROW 06 : ... .. . ... : ... .. . ... : ... .. . ... : ... .. . ... : ... .. . ... : C-3 03 6 ... : ... .. . ... : ... .. . ...
ROW 07 : ... .. . ... : ... .. . ... : ... .. . ... : ... .. . ... : ... .. . ... : ... .. . ... : ... .. . ... : ... .. . ...
ROW 08 : F-5 00 8 ... : A-4 00 8 ... : ... .. . ... : ... .. . ... : ... .. . ... : D-2 03 6 ... : ... .. . ... : ... .. . ...
ROW 09 : ... .. . ... : ... .. . ... : ... .. . ... : ... .. . ... : ... .. . ... : ... .. . ... : ... .. . ... : ... .. . ...
ROW 0a : F-5 00 8 ... : A-4 00 8 ... : ... .. . ... : ... .. . ... : ... .. . ... : D-3 03 6 ... : ... .. . ... : ... .. . ...
ROW 0b : ... .. . ... : ... .. . ... : ... .. . ... : ... .. . ... : ... .. . ... : ... .. . ... : ... .. . ... : ... .. . ...
ROW 0c : F-5 00 8 ... : C-5 00 8 ... : ... .. . ... : ... .. . ... : ... .. . ... : A-2 03 6 ... : ... .. . ... : ... .. . ...
ROW 0d : ... .. . ... : ... .. . ... : ... .. . ... : ... .. . ... : ... .. . ... : ... .. . ... : ... .. . ... : ... .. . ...
ROW 0e : D-5 00 8 ... : D-5 00 8 ... : ... .. . ... : ... .. . ... : ... .. . ... : C-3 03 6 ... : ... .. . ... : ... .. . ...
ROW 0f : ... .. . ... : ... .. . ... : ... .. . ... : ... .. . ... : ... .. . ... : ... .. . ... : ... .. . ... : ... .. . ...
ROW 10 : --- .. . ... : --- .. . ... : ... .. . ... : ... .. . ... : ... .. . ... : G-1 03 6 ... : ... .. . ... : ... .. . ...
ROW 11 : ... .. . ... : ... .. . ... : ... .. . ... : ... .. . ... : ... .. . ... : ... .. . ... : ... .. . ... : ... .. . ...
ROW 12 : ... .. . ... : ... .. . ... : ... .. . ... : ... .. . ... : ... .. . ... : ... .. . ... : ... .. . ... : ... .. . ...
ROW 13 : A#3 00 8 ... : ... .. . ... : ... .. . ... : ... .. . ... : ... .. . ... : ... .. . ... : ... .. . ... : ... .. . ...
ROW 14 : D-4 00 8 ... : ... .. . ... : ... .. . ... : ... .. . ... : ... .. . ... : G-2 03 6 ... : ... .. . ... : ... .. . ...
ROW 15 : ... .. . ... : ... .. . ... : ... .. . ... : ... .. . ... : ... .. . ... : ... .. . ... : ... .. . ... : ... .. . ...
ROW 16 : F-4 00 8 ... : ... .. . ... : ... .. . ... : ... .. . ... : ... .. . ... : ... .. . ... : ... .. . ... : ... .. . ...
ROW 17 : ... .. . ... : ... .. . ... : ... .. . ... : ... .. . ... : ... .. . ... : ... .. . ... : ... .. . ... : ... .. . ...
ROW 18 : E-4 00 8 ... : ... .. . ... : ... .. . ... : ... .. . ... : ... .. . ... : A-1 03 6 ... : ... .. . ... : ... .. . ...
ROW 19 : ... .. . ... : ... .. . ... : ... .. . ... : ... .. . ... : ... .. . ... : ... .. . ... : ... .. . ... : ... .. . ...
ROW 1a : C-4 00 8 ... : ... .. . ... : ... .. . ... : ... .. . ... : ... .. . ... : ... .. . ... : ... .. . ... : ... .. . ...
ROW 1b : ... .. . ... : ... .. . ... : ... .. . ... : ... .. . ... : ... .. . ... : ... .. . ... : ... .. . ... : ... .. . ...
ROW 1c : G-3 00 8 ... : ... .. . ... : ... .. . ... : ... .. . ... : ... .. . ... : A-2 03 6 ... : ... .. . ... : ... .. . ...
ROW 1d : ... .. . ... : ... .. . ... : ... .. . ... : ... .. . ... : ... .. . ... : ... .. . ... : ... .. . ... : ... .. . ...
ROW 1e : ... .. . ... : ... .. . ... : ... .. . ... : ... .. . ... : ... .. . ... : ... .. . ... : ... .. . ... : ... .. . ...
ROW 1f : ... .. . ... : ... .. . ... : ... .. . ... : ... .. . ... : ... .. . ... : ... .. . ... : ... .. . ... : ... .. . ...
ROW 20 : --- .. . ... : ... .. . ... : ... .. . ... : ... .. . ... : ... .. . ... : D-2 03 6 070 : ... .. . ... : ... .. . ...
ROW 21 : ... .. . ... : ... .. . ... : ... .. . ... : ... .. . ... : ... .. . ... : ... .. . ... : ... .. . ... : ... .. . ...
ROW 22 : A-4 00 8 080 : ... .. . ... : ... .. . ... : ... .. . ... : ... .. . ... : --- .. . ... : ... .. . ... : ... .. . ...
ROW 23 : ... .. . ... : ... .. . ... : ... .. . ... : ... .. . ... : ... .. . ... : D-2 03 6 070 : ... .. . ... : ... .. . ...
ROW 24 : A-4 00 8 080 : ... .. . ... : ... .. . ... : ... .. . ... : ... .. . ... : --- .. . ... : ... .. . ... : ... .. . ...
ROW 25 : ... .. . ... : ... .. . ... : ... .. . ... : ... .. . ... : ... .. . ... : ... .. . ... : ... .. . ... : ... .. . ...
ROW 26 : D-5 00 8 ... : ... .. . ... : ... .. . ... : ... .. . ... : ... .. . ... : D-2 03 6 070 : ... .. . ... : ... .. . ...
ROW 27 : A-4 00 8 080 : ... .. . ... : ... .. . ... : ... .. . ... : ... .. . ... : ... .. . ... : ... .. . ... : ... .. . ...
ROW 28 : ... .. . ... : ... .. . ... : ... .. . ... : ... .. . ... : ... .. . ... : --- .. . ... : ... .. . ... : ... .. . ...
ROW 29 : A-4 00 8 080 : ... .. . ... : ... .. . ... : ... .. . ... : ... .. . ... : D-2 03 6 070 : ... .. . ... : ... .. . ...
ROW 2a : ... .. . ... : ... .. . ... : ... .. . ... : ... .. . ... : ... .. . ... : --- .. . ... : ... .. . ... : ... .. . ...
ROW 2b : D-5 00 8 ... : ... .. . ... : ... .. . ... : ... .. . ... : ... .. . ... : ... .. . ... : ... .. . ... : ... .. . ...
ROW 2c : A-4 00 8 080 : ... .. . ... : ... .. . ... : ... .. . ... : ... .. . ... : D-2 03 6 070 : ... .. . ... : ... .. . ...
ROW 2d : ... .. . ... : ... .. . ... : ... .. . ... : ... .. . ... : ... .. . ... : ... .. . ... : ... .. . ... : ... .. . ...
ROW 2e : D-5 00 8 ... : ... .. . ... : ... .. . ... : ... .. . ... : ... .. . ... : --- .. . ... : ... .. . ... : ... .. . ...
ROW 2f : ... .. . ... : ... .. . ... : ... .. . ... : ... .. . ... : ... .. . ... : ... .. . ... : ... .. . ... : ... .. . ...
ROW 30 : --- .. . ... : ... .. . ... : ... .. . ... : ... .. . ... : ... .. . ... : D-2 03 6 070 : ... .. . ... : ... .. . ...
ROW 31 : ... .. . ... : ... .. . ... : ... .. . ... : ... .. . ... : ... .. . ... : ... .. . ... : ... .. . ... : ... .. . ...
ROW 32 : A-4 00 8 080 : ... .. . ... : ... .. . ... : ... .. . ... : ... .. . ... : --- .. . ... : ... .. . ... : ... .. . ...
ROW 33 : ... .. . ... : ... .. . ... : ... .. . ... : ... .. . ... : ... .. . ... : D-2 03 6 070 : ... .. . ... : ... .. . ...
ROW 34 : A-4 00 8 080 : ... .. . ... : ... .. . ... : ... .. . ... : ... .. . ... : --- .. . ... : ... .. . ... : ... .. . ...
ROW 35 : ... .. . ... : ... .. . ... : ... .. . ... : ... .. . ... : ... .. . ... : ... .. . ... : ... .. . ... : ... .. . ...
ROW 36 : D-5 00 8 ... : ... .. . ... : ... .. . ... : ... .. . ... : ... .. . ... : D-2 03 6 070 : ... .. . ... : ... .. . ...
ROW 37 : A-4 00 8 080 : ... .. . ... : ... .. . ... : ... .. . ... : ... .. . ... : ... .. . ... : ... .. . ... : ... .. . ...
ROW 38 : ... .. . ... : ... .. . ... : ... .. . ... : ... .. . ... : ... .. . ... : --- .. . ... : ... .. . ... : ... .. . ...
ROW 39 : A-4 00 8 080 : ... .. . ... : ... .. . ... : ... .. . ... : ... .. . ... : D-2 03 6 070 : ... .. . ... : ... .. . ...
ROW 3a : ... .. . ... : ... .. . ... : ... .. . ... : ... .. . ... : ... .. . ... : --- .. . ... : ... .. . ... : ... .. . ...
ROW 3b : D-5 00 8 ... : ... .. . ... : ... .. . ... : ... .. . ... : ... .. . ... : ... .. . ... : ... .. . ... : ... .. . ...
ROW 3c : A-4 00 8 080 : ... .. . ... : ... .. . ... : ... .. . ... : ... .. . ... : D-2 03 6 070 : ... .. . ... : ... .. . ...
ROW 3d : ... .. . ... : ... .. . ... : ... .. . ... : ... .. . ... : ... .. . ... : ... .. . ... : ... .. . ... : ... .. . ...
ROW 3e : A#4 00 8 090 : ... .. . ... : ... .. . ... : ... .. . ... : ... .. . ... : --- .. . ... : ... .. . ... : ... .. . ...
ROW 3f : ... .. . ... : ... .. . ... : ... .. . ... : ... .. . ... : ... .. . ... : ... .. . ... : ... .. . ... : ... .. . ...
PATTERN 13
ROW 00 : --- .. . ... : ... .. . ... : ... .. . ... : ... .. . ... : ... .. . ... : C-2 03 6 070 : ... .. . ... : ... .. . ...
ROW 01 : ... .. . ... : ... .. . ... : ... .. . ... : ... .. . ... : ... .. . ... : ... .. . ... : ... .. . ... : ... .. . ...
ROW 02 : A-4 00 8 080 : ... .. . ... : ... .. . ... : ... .. . ... : ... .. . ... : --- .. . ... : ... .. . ... : ... .. . ...
ROW 03 : ... .. . ... : ... .. . ... : ... .. . ... : ... .. . ... : ... .. . ... : C-2 03 6 070 : ... .. . ... : ... .. . ...
ROW 04 : A-4 00 8 080 : ... .. . ... : ... .. . ... : ... .. . ... : ... .. . ... : --- .. . ... : ... .. . ... : ... .. . ...
ROW 05 : ... .. . ... : ... .. . ... : ... .. . ... : ... .. . ... : ... .. . ... : ... .. . ... : ... .. . ... : ... .. . ...
ROW 06 : D-5 00 8 ... : ... .. . ... : ... .. . ... : ... .. . ... : ... .. . ... : C-2 03 6 070 : ... .. . ... : ... .. . ...
ROW 07 : A-4 00 8 080 : ... .. . ... : ... .. . ... : ... .. . ... : ... .. . ... : ... .. . ... : ... .. . ... : ... .. . ...
ROW 08 : ... .. . ... : ... .. . ... : ... .. . ... : ... .. . ... : ... .. . ... : --- .. . ... : ... .. . ... : ... .. . ...
ROW 09 : A-4 00 8 080 : ... .. . ... : ... .. . ... : ... .. . ... : ... .. . ... : C-2 03 6 070 : ... .. . ... : ... .. . ...
ROW 0a : ... .. . ... : ... .. . ... : ... .. . ... : ... .. . ... : ... .. . ... : --- .. . ... : ... .. . ... : ... .. . ...
ROW 0b : D-5 00 8 ... : ... .. . ... : ... .. . ... : ... .. . ... : ... .. . ... : ... .. . ... : ... .. . ... : ... .. . ...
ROW 0c : A-4 00 8 080 : ... .. . ... : ... .. . ... : ... .. . ... : ... .. . ... : C-2 03 6 070 : ... .. . ... : ... .. . ...
ROW 0d : ... .. . ... : ... .. . ... : ... .. . ... : ... .. . ... : ... .. . ... : ... .. . ... : ... .. . ... : ... .. . ...
ROW 0e : D-5 00 8 ... : ... .. . ... : ... .. . ... : ... .. . ... : ... .. . ... : --- .. . ... : ... .. . ... : ... .. . ...
ROW 0f : ... .. . ... : ... .. . ... : ... .. . ... : ... .. . ... : ... .. . ... : ... .. . ... : ... .. . ... : ... .. . ...
ROW 10 : A-5 00 8 ... : F-5 00 8 ... : ... .. . ... : ... .. . ... : ... .. . ... : C-2 03 6 070 : ... .. . ... : ... .. . ...
ROW 11 : ... .. . ... : ... .. . ... : ... .. . ... : ... .. . ... : ... .. . ... : ... .. . ... : ... .. . ... : ... .. . ...
ROW 12 : ... .. . ... : ... .. . ... : ... .. . ... : ... .. . ... : ... .. . ... : --- .. . ... : ... .. . ... : ... .. . ...
ROW 13 : ... .. . ... : ... .. . ... : ... .. . ... : ... .. . ... : ... .. . ... : C-2 03 6 070 : ... .. . ... : ... .. . ...
ROW 14 : G-5 00 8 ... : D-5 00 8 ... : ... .. . ... : ... .. . ... : ... .. . ... : --- .. . ... : ... .. . ... : ... .. . ...
ROW 15 : ... .. . ... : ... .. . ... : ... .. . ... : ... .. . ... : ... .. . ... : ... .. . ... : ... .. . ... : ... .. . ...
ROW 16 : ... .. . ... : ... .. . ... : ... .. . ... : ... .. . ... : ... .. . ... : C-2 03 6 070 : ... .. . ... : ... .. . ...
ROW 17 : ... .. . ... : ... .. . ... : ... .. . ... : ... .. . ... : ... .. . ... : ... .. . ... : ... .. . ... : ... .. . ...
ROW 18 : F-5 00 8 ... : C-5 00 8 ... : ... .. . ... : ... .. . ... : ... .. . ... : --- .. . ... : ... .. . ... : ... .. . ...
ROW 19 : ... .. . ... : ... .. . ... : ... .. . ... : ... .. . ... : ... .. . ... : C-2 03 6 070 : ... .. . ... : ... .. . ...
ROW 1a : ... .. . ... : ... .. . ... : ... .. . ... : ... .. . ... : ... .. . ... : --- .. . ... : ... .. . ... : ... .. . ...
ROW 1b : ... .. . ... : ... .. . ... : ... .. . ... : ... .. . ... : ... .. . ... : ... .. . ... : ... .. . ... : ... .. . ...
ROW 1c : G-5 00 8 ... : D-5 00 8 ... : ... .. . ... : ... .. . ... : ... .. . ... : C-2 03 6 070 : ... .. . ... : ... .. . ...
ROW 1d : ... .. . ... : ... .. . ... : ... .. . ... : ... .. . ... : ... .. . ... : ... .. . ... : ... .. . ... : ... .. . ...
ROW 1e : ... .. . ... : ... .. . ... : ... .. . ... : ... .. . ... : ... .. . ... : --- .. . ... : ... .. . ... : ... .. . ...
ROW 1f : ... .. . ... : ... .. . ... : ... .. . ... : ... .. . ... : ... .. . ... : ... .. . ... : ... .. . ... : ... .. . ...
ROW 20 : --- .. . ... : --- .. . ... : ... .. . ... : ... .. . ... : ... .. . ... : A#1 03 6 070 : ... .. . ... : ... .. . ...
ROW 21 : ... .. . ... : ... .. . ... : ... .. . ... : ... .. . ... : ... .. . ... : ... .. . ... : ... .. . ... : ... .. . ...
ROW 22 : A-4 00 8 080 : ... .. . ... : ... .. . ... : ... .. . ... : ... .. . ... : --- .. . ... : ... .. . ... : ... .. . ...
ROW 23 : ... .. . ... : ... .. . ... : ... .. . ... : ... .. . ... : ... .. . ... : A#1 03 6 070 : ... .. . ... : ... .. . ...
ROW 24 : A-4 00 8 080 : ... .. . ... : ... .. . ... : ... .. . ... : ... .. . ... : --- .. . ... : ... .. . ... : ... .. . ...
ROW 25 : ... .. . ... : ... .. . ... : ... .. . ... : ... .. . ... : ... .. . ... : ... .. . ... : ... .. . ... : ... .. . ...
ROW 26 : D-5 00 8 ... : ... .. . ... : ... .. . ... : ... .. . ... : ... .. . ... : A#1 03 6 070 : ... .. . ... : ... .. . ...
ROW 27 : A-4 00 8 080 : ... .. . ... : ... .. . ... : ... .. . ... : ... .. . ... : ... .. . ... : ... .. . ... : ... .. . ...
ROW 28 : ... .. . ... : ... .. . ... : ... .. . ... : ... .. . ... : ... .. . ... : --- .. . ... : ... .. . ... : ... .. . ...
ROW 29 : A-4 00 8 080 : ... .. . ... : ... .. . ... : ... .. . ... : ... .. . ... : A#1 03 6 070 : ... .. . ... : ... .. . ...
ROW 2a : ... .. . ... : ... .. . ... : ... .. . ... : ... .. . ... : ... .. . ... : --- .. . ... : ... .. . ... : ... .. . ...
ROW 2b : D-5 00 8 ... : ... .. . ... : ... .. . ... : ... .. . ... : ... .. . ... : ... .. . ... : ... .. . ... : ... .. . ...
ROW 2c : A-4 00 8 080 : ... .. . ... : ... .. . ... : ... .. . ... : ... .. . ... : A#1 03 6 070 : ... .. . ... : ... .. . ...
ROW 2d : ... .. . ... : ... .. . ... : ... .. . ... : ... .. . ... : ... .. . ... : ... .. . ... : ... .. . ... : ... .. . ...
ROW 2e : D-5 00 8 ... : ... .. . ... : ... .. . ... : ... .. . ... : ... .. . ... : --- .. . ... : ... .. . ... : ... .. . ...
ROW 2f : ... .. . ... : ... .. . ... : ... .. . ... : ... .. . ... : ... .. . ... : ... .. . ... : ... .. . ... : ... .. . ...
ROW 30 : --- .. . ... : ... .. . ... : ... .. . ... : ... .. . ... : ... .. . ... : C-2 03 6 070 : ... .. . ... : ... .. . ...
ROW 31 : ... .. . ... : ... .. . ... : ... .. . ... : ... .. . ... : ... .. . ... : ... .. . ... : ... .. . ... : ... .. . ...
ROW 32 : A-4 00 8 080 : ... .. . ... : ... .. . ... : ... .. . ... : ... .. . ... : --- .. . ... : ... .. . ... : ... .. . ...
ROW 33 : ... .. . ... : ... .. . ... : ... .. . ... : ... .. . ... : ... .. . ... : C-2 03 6 070 : ... .. . ... : ... .. . ...
ROW 34 : A-4 00 8 080 : ... .. . ... : ... .. . ... : ... .. . ... : ... .. . ... : --- .. . ... : ... .. . ... : ... .. . ...
ROW 35 : ... .. . ... : ... .. . ... : ... .. . ... : ... .. . ... : ... .. . ... : ... .. . ... : ... .. . ... : ... .. . ...
ROW 36 : D-5 00 8 ... : ... .. . ... : ... .. . ... : ... .. . ... : ... .. . ... : C-2 03 6 070 : ... .. . ... : ... .. . ...
ROW 37 : A-4 00 8 080 : ... .. . ... : ... .. . ... : ... .. . ... : ... .. . ... : ... .. . ... : ... .. . ... : ... .. . ...
ROW 38 : ... .. . ... : ... .. . ... : ... .. . ... : ... .. . ... : ... .. . ... : --- .. . ... : ... .. . ... : ... .. . ...
ROW 39 : A-4 00 8 080 : ... .. . ... : ... .. . ... : ... .. . ... : ... .. . ... : C-2 03 6 070 : ... .. . ... : ... .. . ...
ROW 3a : ... .. . ... : ... .. . ... : ... .. . ... : ... .. . ... : ... .. . ... : --- .. . ... : ... .. . ... : ... .. . ...
ROW 3b : D-5 00 8 ... : ... .. . ... : ... .. . ... : ... .. . ... : ... .. . ... : ... .. . ... : ... .. . ... : ... .. . ...
ROW 3c : A-4 00 8 080 : ... .. . ... : ... .. . ... : ... .. . ... : ... .. . ... : C-2 03 6 070 : ... .. . ... : ... .. . ...
ROW 3d : ... .. . ... : ... .. . ... : ... .. . ... : ... .. . ... : ... .. . ... : ... .. . ... : ... .. . ... : ... .. . ...
ROW 3e : A#4 00 8 090 : ... .. . ... : ... .. . ... : ... .. . ... : ... .. . ... : C#2 03 6 070 : ... .. . ... : ... .. . ...
ROW 3f : ... .. . ... : ... .. . ... : ... .. . ... : ... .. . ... : ... .. . ... : ... .. . ... : ... .. . ... : ... .. . ...
PATTERN 14
ROW 00 : --- .. . ... : ... .. . ... : ... .. . ... : ... .. . ... : ... .. . ... : D-2 03 6 070 : ... .. . ... : ... .. . ...
ROW 01 : ... .. . ... : ... .. . ... : ... .. . ... : ... .. . ... : ... .. . ... : ... .. . ... : ... .. . ... : ... .. . ...
ROW 02 : A-4 00 8 080 : ... .. . ... : ... .. . ... : ... .. . ... : ... .. . ... : --- .. . ... : ... .. . ... : ... .. . ...
ROW 03 : ... .. . ... : ... .. . ... : ... .. . ... : ... .. . ... : ... .. . ... : D-2 03 6 070 : ... .. . ... : ... .. . ...
ROW 04 : A-4 00 8 080 : ... .. . ... : ... .. . ... : ... .. . ... : ... .. . ... : --- .. . ... : ... .. . ... : ... .. . ...
ROW 05 : ... .. . ... : ... .. . ... : ... .. . ... : ... .. . ... : ... .. . ... : ... .. . ... : ... .. . ... : ... .. . ...
ROW 06 : D-5 00 8 ... : ... .. . ... : ... .. . ... : ... .. . ... : ... .. . ... : D-2 03 6 070 : ... .. . ... : ... .. . ...
ROW 07 : A-4 00 8 080 : ... .. . ... : ... .. . ... : ... .. . ... : ... .. . ... : ... .. . ... : ... .. . ... : ... .. . ...
ROW 08 : ... .. . ... : ... .. . ... : ... .. . ... : ... .. . ... : ... .. . ... : --- .. . ... : ... .. . ... : ... .. . ...
ROW 09 : A-4 00 8 080 : ... .. . ... : ... .. . ... : ... .. . ... : ... .. . ... : D-2 03 6 070 : ... .. . ... : ... .. . ...
ROW 0a : ... .. . ... : ... .. . ... : ... .. . ... : ... .. . ... : ... .. . ... : --- .. . ... : ... .. . ... : ... .. . ...
ROW 0b : D-5 00 8 ... : ... .. . ... : ... .. . ... : ... .. . ... : ... .. . ... : ... .. . ... : ... .. . ... : ... .. . ...
ROW 0c : A-4 00 8 080 : ... .. . ... : ... .. . ... : ... .. . ... : ... .. . ... : D-2 03 6 070 : ... .. . ... : ... .. . ...
ROW 0d : ... .. . ... : ... .. . ... : ... .. . ... : ... .. . ... : ... .. . ... : ... .. . ... : ... .. . ... : ... .. . ...
ROW 0e : D-5 00 8 ... : ... .. . ... : ... .. . ... : ... .. . ... : ... .. . ... : --- .. . ... : ... .. . ... : ... .. . ...
ROW 0f : ... .. . ... : ... .. . ... : ... .. . ... : ... .. . ... : ... .. . ... : ... .. . ... : ... .. . ... : ... .. . ...
ROW 10 : F-5 00 8 ... : A-4 00 8 ... : ... .. . ... : ... .. . ... : ... .. . ... : ... .. . ... : ... .. . ... : ... .. . ...
ROW 11 : ... .. . ... : ... .. . ... : ... .. . ... : ... .. . ... : ... .. . ... : ... .. . ... : ... .. . ... : ... .. . ...
ROW 12 : ... .. . ... : ... .. . ... : ... .. . ... : ... .. . ... : ... .. . ... : ... .. . ... : ... .. . ... : ... .. . ...
ROW 13 : ... .. . ... : ... .. . ... : ... .. . ... : ... .. . ... : ... .. . ... : ... .. . ... : ... .. . ... : ... .. . ...
ROW 14 : F-5 00 8 ... : A-4 00 8 ... : ... .. . ... : ... .. . ... : ... .. . ... : ... .. . ... : ... .. . ... : ... .. . ...
ROW 15 : ... .. . ... : ... .. . ... : ... .. . ... : ... .. . ... : ... .. . ... : ... .. . ... : ... .. . ... : ... .. . ...
ROW 16 : ... .. . ... : ... .. . ... : ... .. . ... : ... .. . ... : ... .. . ... : ... .. . ... : ... .. . ... : ... .. . ...
ROW 17 : ... .. . ... : ... .. . ... : ... .. . ... : ... .. . ... : ... .. . ... : ... .. . ... : ... .. . ... : ... .. . ...
ROW 18 : G-5 00 8 ... : A#4 00 8 ... : ... .. . ... : ... .. . ... : ... .. . ... : C-3 03 6 ... : ... .. . ... : ... .. . ...
ROW 19 : ... .. . ... : ... .. . ... : ... .. . ... : ... .. . ... : ... .. . ... : F-3 03 6 ... : ... .. . ... : ... .. . ...
ROW 1a : ... .. . ... : ... .. . ... : ... .. . ... : ... .. . ... : ... .. . ... : C-3 03 6 ... : ... .. . ... : ... .. . ...
ROW 1b : ... .. . ... : ... .. . ... : ... .. . ... : ... .. . ... : ... .. . ... : --- .. . ... : ... .. . ... : ... .. . ...
ROW 1c : A-5 00 8 ... : C-5 00 8 ... : ... .. . ... : ... .. . ... : ... .. . ... : F-2 03 6 ... : ... .. . ... : ... .. . ...
ROW 1d : ... .. . ... : ... .. . ... : ... .. . ... : ... .. . ... : ... .. . ... : ... .. . ... : ... .. . ... : ... .. . ...
ROW 1e : ... .. . ... : ... .. . ... : ... .. . ... : ... .. . ... : ... .. . ... : ... .. . ... : ... .. . ... : ... .. . ...
ROW 1f : ... .. . ... : ... .. . ... : ... .. . ... : ... .. . ... : ... .. . ... : ... .. . ... : ... .. . ... : ... .. . ...
ROW 20 : D-5 00 8 03A : --- .. . ... : ... .. . ... : ... .. . ... : ... .. . ... : A#2 03 6 ... : A#1 03 6 ... : ... .. . ...
ROW 21 : ... .. . ... : ... .. . ... : ... .. . ... : ... .. . ... : ... .. . ... : ... .. . ... : ... .. . ... : ... .. . ...
ROW 22 : ... .. . ... : ... .. . ... : ... .. . ... : ... .. . ... : ... .. . ... : ... .. . ... : ... .. . ... : ... .. . ...
ROW 23 : ... .. . ... : ... .. . ... : ... .. . ... : ... .. . ... : ... .. . ... : ... .. . ... : ... .. . ... : ... .. . ...
ROW 24 : ... .. . ... : ... .. . ... : ... .. . ... : ... .. . ... : ... .. . ... : A#2 03 6 ... : ... .. . ... : ... .. . ...
ROW 25 : ... .. . ... : ... .. . ... : ... .. . ... : ... .. . ... : ... .. . ... : ... .. . ... : ... .. . ... : ... .. . ...
ROW 26 : A-4 00 8 058 : ... .. . ... : ... .. . ... : ... .. . ... : ... .. . ... : ... .. . ... : ... .. . ... : ... .. . ...
ROW 27 : ... .. . ... : ... .. . ... : ... .. . ... : ... .. . ... : ... .. . ... : ... .. . ... : ... .. . ... : ... .. . ...
ROW 28 : ... .. . ... : ... .. . ... : ... .. . ... : ... .. . ... : ... .. . ... : A#2 03 6 ... : ... .. . ... : ... .. . ...
ROW 29 : ... .. . ... : ... .. . ... : ... .. . ... : ... .. . ... : ... .. . ... : ... .. . ... : ... .. . ... : ... .. . ...
ROW 2a : ... .. . ... : ... .. . ... : ... .. . ... : ... .. . ... : ... .. . ... : ... .. . ... : ... .. . ... : ... .. . ...
ROW 2b : ... .. . ... : ... .. . ... : ... .. . ... : ... .. . ... : ... .. . ... : ... .. . ... : ... .. . ... : ... .. . ...
ROW 2c : ... .. . ... : ... .. . ... : ... .. . ... : ... .. . ... : ... .. . ... : A#2 03 6 ... : ... .. . ... : ... .. . ...
ROW 2d : ... .. . ... : ... .. . ... : ... .. . ... : ... .. . ... : ... .. . ... : ... .. . ... : ... .. . ... : ... .. . ...
ROW 2e : ... .. . ... : ... .. . ... : ... .. . ... : ... .. . ... : ... .. . ... : ... .. . ... : ... .. . ... : ... .. . ...
ROW 2f : ... .. . ... : ... .. . ... : ... .. . ... : ... .. . ... : ... .. . ... : ... .. . ... : ... .. . ... : ... .. . ...
ROW 30 : --- .. . ... : ... .. . ... : ... .. . ... : ... .. . ... : ... .. . ... : A-2 03 6 ... : A-1 03 6 ... : ... .. . ...
ROW 31 : ... .. . ... : ... .. . ... : ... .. . ... : ... .. . ... : ... .. . ... : ... .. . ... : ... .. . ... : ... .. . ...
ROW 32 : F-5 00 8 ... : ... .. . ... : ... .. . ... : ... .. . ... : ... .. . ... : ... .. . ... : ... .. . ... : ... .. . ...
ROW 33 : ... .. . ... : ... .. . ... : ... .. . ... : ... .. . ... : ... .. . ... : ... .. . ... : ... .. . ... : ... .. . ...
ROW 34 : G#5 00 8 ... : C#5 00 8 ... : ... .. . ... : ... .. . ... : ... .. . ... : A-2 03 6 ... : ... .. . ... : ... .. . ...
ROW 35 : ... .. . ... : ... .. . ... : ... .. . ... : ... .. . ... : ... .. . ... : ... .. . ... : ... .. . ... : ... .. . ...
ROW 36 : ... .. . ... : ... .. . ... : ... .. . ... : ... .. . ... : ... .. . ... : ... .. . ... : ... .. . ... : ... .. . ...
ROW 37 : ... .. . ... : ... .. . ... : ... .. . ... : ... .. . ... : ... .. . ... : ... .. . ... : ... .. . ... : ... .. . ...
ROW 38 : G-5 00 8 ... : A-4 00 8 030 : ... .. . ... : ... .. . ... : ... .. . ... : A-2 03 6 ... : ... .. . ... : ... .. . ...
ROW 39 : ... .. . ... : ... .. . ... : ... .. . ... : ... .. . ... : ... .. . ... : ... .. . ... : ... .. . ... : ... .. . ...
ROW 3a : F-5 00 8 ... : ... .. . ... : ... .. . ... : ... .. . ... : ... .. . ... : ... .. . ... : ... .. . ... : ... .. . ...
ROW 3b : ... .. . ... : ... .. . ... : ... .. . ... : ... .. . ... : ... .. . ... : ... .. . ... : ... .. . ... : ... .. . ...
ROW 3c : G-5 00 8 ... : ... .. . ... : ... .. . ... : ... .. . ... : ... .. . ... : A-2 03 6 ... : ... .. . ... : ... .. . ...
ROW 3d : ... .. . ... : ... .. . ... : ... .. . ... : ... .. . ... : ... .. . ... : ... .. . ... : ... .. . ... : ... .. . ...
ROW 3e : F-5 00 8 ... : ... .. . ... : ... .. . ... : ... .. . ... : ... .. . ... : ... .. . ... : ... .. . ... : ... .. . ...
ROW 3f : ... .. . ... : ... .. . ... : ... .. . ... : ... .. . ... : ... .. . ... : ... .. . ... : ... .. . ... : ... .. . ...
PATTERN 15
ROW 00 : F-5 00 8 047 : --- .. . ... : ... .. . ... : ... .. . ... : ... .. . ... : D-3 03 6 ... : D-2 03 6 ... : ... .. . ...
ROW 01 : ... .. . ... : ... .. . ... : ... .. . ... : ... .. . ... : ... .. . ... : ... .. . ... : ... .. . ... : ... .. . ...
ROW 02 : ... .. . ... : ... .. . ... : ... .. . ... : ... .. . ... : ... .. . ... : ... .. . ... : ... .. . ... : ... .. . ...
ROW 03 : ... .. . ... : ... .. . ... : ... .. . ... : ... .. . ... : ... .. . ... : ... .. . ... : ... .. . ... : ... .. . ...
ROW 04 : ... .. . ... : ... .. . ... : ... .. . ... : ... .. . ... : ... .. . ... : D-3 03 6 ... : ... .. . ... : ... .. . ...
ROW 05 : ... .. . ... : ... .. . ... : ... .. . ... : ... .. . ... : ... .. . ... : ... .. . ... : ... .. . ... : ... .. . ...
ROW 06 : A-4 00 8 038 : ... .. . ... : ... .. . ... : ... .. . ... : ... .. . ... : ... .. . ... : ... .. . ... : ... .. . ...
ROW 07 : ... .. . ... : ... .. . ... : ... .. . ... : ... .. . ... : ... .. . ... : ... .. . ... : ... .. . ... : ... .. . ...
ROW 08 : ... .. . ... : ... .. . ... : ... .. . ... : ... .. . ... : ... .. . ... : D-3 03 6 ... : ... .. . ... : ... .. . ...
ROW 09 : ... .. . ... : ... .. . ... : ... .. . ... : ... .. . ... : ... .. . ... : ... .. . ... : ... .. . ... : ... .. . ...
ROW 0a : ... .. . ... : ... .. . ... : ... .. . ... : ... .. . ... : ... .. . ... : ... .. . ... : ... .. . ... : ... .. . ...
ROW 0b : ... .. . ... : ... .. . ... : ... .. . ... : ... .. . ... : ... .. . ... : ... .. . ... : ... .. . ... : ... .. . ...
ROW 0c : ... .. . ... : ... .. . ... : ... .. . ... : ... .. . ... : ... .. . ... : D-3 03 6 ... : ... .. . ... : ... .. . ...
ROW 0d : ... .. . ... : ... .. . ... : ... .. . ... : ... .. . ... : ... .. . ... : ... .. . ... : ... .. . ... : ... .. . ...
ROW 0e : ... .. . ... : ... .. . ... : ... .. . ... : ... .. . ... : ... .. . ... : ... .. . ... : ... .. . ... : ... .. . ...
ROW 0f : ... .. . ... : ... .. . ... : ... .. . ... : ... .. . ... : ... .. . ... : ... .. . ... : ... .. . ... : ... .. . ...
ROW 10 : --- .. . ... : ... .. . ... : ... .. . ... : ... .. . ... : ... .. . ... : C-3 03 6 ... : C-2 03 6 ... : ... .. . ...
ROW 11 : ... .. . ... : ... .. . ... : ... .. . ... : ... .. . ... : ... .. . ... : ... .. . ... : ... .. . ... : ... .. . ...
ROW 12 : F-5 00 8 ... : ... .. . ... : ... .. . ... : ... .. . ... : ... .. . ... : ... .. . ... : ... .. . ... : ... .. . ...
ROW 13 : ... .. . ... : ... .. . ... : ... .. . ... : ... .. . ... : ... .. . ... : ... .. . ... : ... .. . ... : ... .. . ...
ROW 14 : D#5 00 8 050 : C-5 00 8 ... : ... .. . ... : ... .. . ... : ... .. . ... : C-3 03 6 ... : ... .. . ... : ... .. . ...
ROW 15 : ... .. . ... : ... .. . ... : ... .. . ... : ... .. . ... : ... .. . ... : ... .. . ... : ... .. . ... : ... .. . ...
ROW 16 : ... .. . ... : ... .. . ... : ... .. . ... : ... .. . ... : ... .. . ... : ... .. . ... : ... .. . ... : ... .. . ...
ROW 17 : ... .. . ... : ... .. . ... : ... .. . ... : ... .. . ... : ... .. . ... : ... .. . ... : ... .. . ... : ... .. . ...
ROW 18 : G-5 00 8 ... : A#4 00 8 ... : ... .. . ... : ... .. . ... : ... .. . ... : F-3 03 6 ... : F-2 03 6 ... : ... .. . ...
ROW 19 : ... .. . ... : ... .. . ... : ... .. . ... : ... .. . ... : ... .. . ... : ... .. . ... : ... .. . ... : ... .. . ...
ROW 1a : F-5 00 8 ... : A-4 00 8 ... : ... .. . ... : ... .. . ... : ... .. . ... : ... .. . ... : ... .. . ... : ... .. . ...
ROW 1b : ... .. . ... : ... .. . ... : ... .. . ... : ... .. . ... : ... .. . ... : ... .. . ... : ... .. . ... : ... .. . ...
ROW 1c : F-5 00 8 ... : A-4 00 8 ... : ... .. . ... : ... .. . ... : ... .. . ... : F-3 03 6 ... : ... .. . ... : ... .. . ...
ROW 1d : ... .. . ... : ... .. . ... : ... .. . ... : ... .. . ... : ... .. . ... : ... .. . ... : ... .. . ... : ... .. . ...
ROW 1e : ... .. . ... : ... .. . ... : ... .. . ... : ... .. . ... : ... .. . ... : ... .. . ... : ... .. . ... : ... .. . ...
ROW 1f : ... .. . ... : ... .. . ... : ... .. . ... : ... .. . ... : ... .. . ... : ... .. . ... : ... .. . ... : ... .. . ...
ROW 20 : --- .. . ... : --- .. . ... : ... .. . ... : ... .. . ... : ... .. . ... : G-1 03 6 ... : --- .. . ... : ... .. . ...
ROW 21 : ... .. . ... : ... .. . ... : ... .. . ... : ... .. . ... : ... .. . ... : ... .. . ... : ... .. . ... : ... .. . ...
ROW 22 : D-5 00 8 ... : ... .. . ... : ... .. . ... : ... .. . ... : ... .. . ... : G-2 03 6 ... : ... .. . ... : ... .. . ...
ROW 23 : ... .. . ... : ... .. . ... : ... .. . ... : ... .. . ... : ... .. . ... : ... .. . ... : ... .. . ... : ... .. . ...
ROW 24 : D-5 00 8 030 : A#4 00 8 ... : ... .. . ... : ... .. . ... : ... .. . ... : G-1 03 6 ... : ... .. . ... : ... .. . ...
ROW 25 : ... .. . ... : ... .. . ... : ... .. . ... : ... .. . ... : ... .. . ... : ... .. . ... : ... .. . ... : ... .. . ...
ROW 26 : ... .. . ... : ... .. . ... : ... .. . ... : ... .. . ... : ... .. . ... : G-2 03 6 ... : ... .. . ... : ... .. . ...
ROW 27 : F-5 00 8 ... : ... .. . ... : ... .. . ... : ... .. . ... : ... .. . ... : ... .. . ... : ... .. . ... : ... .. . ...
ROW 28 : F-5 00 8 ... : A-4 00 8 ... : ... .. . ... : ... .. . ... : ... .. . ... : G-1 03 6 ... : ... .. . ... : ... .. . ...
ROW 29 : ... .. . ... : ... .. . ... : ... .. . ... : ... .. . ... : ... .. . ... : ... .. . ... : ... .. . ... : ... .. . ...
ROW 2a : G-5 00 8 ... : A#4 00 8 ... : ... .. . ... : ... .. . ... : ... .. . ... : G-2 03 6 ... : ... .. . ... : ... .. . ...
ROW 2b : ... .. . ... : ... .. . ... : ... .. . ... : ... .. . ... : ... .. . ... : ... .. . ... : ... .. . ... : ... .. . ...
ROW 2c : A-5 00 8 ... : C-5 00 8 ... : ... .. . ... : ... .. . ... : ... .. . ... : G-1 03 6 ... : ... .. . ... : ... .. . ...
ROW 2d : ... .. . ... : ... .. . ... : ... .. . ... : ... .. . ... : ... .. . ... : ... .. . ... : ... .. . ... : ... .. . ...
ROW 2e : ... .. . ... : ... .. . ... : ... .. . ... : ... .. . ... : ... .. . ... : G-2 03 6 ... : ... .. . ... : ... .. . ...
ROW 2f : ... .. . ... : ... .. . ... : ... .. . ... : ... .. . ... : ... .. . ... : ... .. . ... : ... .. . ... : ... .. . ...
ROW 30 : --- .. . ... : --- .. . ... : ... .. . ... : ... .. . ... : ... .. . ... : A-1 03 6 ... : ... .. . ... : ... .. . ...
ROW 31 : ... .. . ... : ... .. . ... : ... .. . ... : ... .. . ... : ... .. . ... : ... .. . ... : ... .. . ... : ... .. . ...
ROW 32 : D-5 00 8 ... : ... .. . ... : ... .. . ... : ... .. . ... : ... .. . ... : A-2 03 6 ... : ... .. . ... : ... .. . ...
ROW 33 : ... .. . ... : ... .. . ... : ... .. . ... : ... .. . ... : ... .. . ... : ... .. . ... : ... .. . ... : ... .. . ...
ROW 34 : D-5 00 8 030 : A#4 00 8 ... : ... .. . ... : ... .. . ... : ... .. . ... : A-1 03 6 ... : ... .. . ... : ... .. . ...
ROW 35 : ... .. . ... : ... .. . ... : ... .. . ... : ... .. . ... : ... .. . ... : ... .. . ... : ... .. . ... : ... .. . ...
ROW 36 : ... .. . ... : ... .. . ... : ... .. . ... : ... .. . ... : ... .. . ... : A-2 03 6 ... : ... .. . ... : ... .. . ...
ROW 37 : F-5 00 8 ... : ... .. . ... : ... .. . ... : ... .. . ... : ... .. . ... : ... .. . ... : ... .. . ... : ... .. . ...
ROW 38 : F-5 00 8 ... : ... .. . ... : ... .. . ... : ... .. . ... : ... .. . ... : A-1 03 6 ... : ... .. . ... : ... .. . ...
ROW 39 : ... .. . ... : ... .. . ... : ... .. . ... : ... .. . ... : ... .. . ... : ... .. . ... : ... .. . ... : ... .. . ...
ROW 3a : G-5 00 8 ... : ... .. . ... : ... .. . ... : ... .. . ... : ... .. . ... : A-2 03 6 ... : ... .. . ... : ... .. . ...
ROW 3b : ... .. . ... : ... .. . ... : ... .. . ... : ... .. . ... : ... .. . ... : ... .. . ... : ... .. . ... : ... .. . ...
ROW 3c : A-5 00 8 ... : C-5 00 8 ... : ... .. . ... : ... .. . ... : ... .. . ... : A-1 03 6 ... : ... .. . ... : ... .. . ...
ROW 3d : ... .. . ... : ... .. . ... : ... .. . ... : ... .. . ... : ... .. . ... : ... .. . ... : ... .. . ... : ... .. . ...
ROW 3e : F-5 00 8 ... : A-4 00 8 ... : ... .. . ... : ... .. . ... : ... .. . ... : A-2 03 6 ... : ... .. . ... : ... .. . ...
ROW 3f : ... .. . ... : ... .. . ... : ... .. . ... : ... .. . ... : ... .. . ... : ... .. . ... : ... .. . ... : ... .. . ...
PATTERN 16
ROW 00 : A-5 00 8 030 : F-5 00 8 ... : ... .. . ... : ... .. . ... : ... .. . ... : A#1 03 6 0C0 : ... .. . ... : ... .. . ...
ROW 01 : ... .. . ... : ... .. . ... : ... .. . ... : ... .. . ... : ... .. . ... : ... .. . ... : ... .. . ... : ... .. . ...
ROW 02 : ... .. . ... : ... .. . ... : ... .. . ... : ... .. . ... : ... .. . ... : A#1 03 6 0C0 : ... .. . ... : ... .. . ...
ROW 03 : ... .. . ... : ... .. . ... : ... .. . ... : ... .. . ... : ... .. . ... : ... .. . ... : ... .. . ... : ... .. . ...
ROW 04 : ... .. . ... : ... .. . ... : ... .. . ... : ... .. . ... : ... .. . ... : A#1 03 6 0C0 : ... .. . ... : ... .. . ...
ROW 05 : ... .. . ... : ... .. . ... : ... .. . ... : ... .. . ... : ... .. . ... : ... .. . ... : ... .. . ... : ... .. . ...
ROW 06 : ... .. . ... : ... .. . ... : ... .. . ... : ... .. . ... : ... .. . ... : A#1 03 6 0C0 : ... .. . ... : ... .. . ...
ROW 07 : ... .. . ... : ... .. . ... : ... .. . ... : ... .. . ... : ... .. . ... : ... .. . ... : ... .. . ... : ... .. . ...
ROW 08 : ... .. . ... : ... .. . ... : ... .. . ... : ... .. . ... : ... .. . ... : A#1 03 6 0C0 : ... .. . ... : ... .. . ...
ROW 09 : ... .. . ... : ... .. . ... : ... .. . ... : ... .. . ... : ... .. . ... : ... .. . ... : ... .. . ... : ... .. . ...
ROW 0a : ... .. . ... : ... .. . ... : ... .. . ... : ... .. . ... : ... .. . ... : A#1 03 6 0C0 : ... .. . ... : ... .. . ...
ROW 0b : ... .. . ... : ... .. . ... : ... .. . ... : ... .. . ... : ... .. . ... : ... .. . ... : ... .. . ... : ... .. . ...
ROW 0c : A#5 00 8 ... : D-5 00 8 ... : ... .. . ... : ... .. . ... : ... .. . ... : A#1 03 6 0C0 : ... .. . ... : ... .. . ...
ROW 0d : ... .. . ... : ... .. . ... : ... .. . ... : ... .. . ... : ... .. . ... : ... .. . ... : ... .. . ... : ... .. . ...
ROW 0e : A-5 00 8 ... : C-5 00 8 ... : ... .. . ... : ... .. . ... : ... .. . ... : A#1 03 6 0C0 : ... .. . ... : ... .. . ...
ROW 0f : ... .. . ... : ... .. . ... : ... .. . ... : ... .. . ... : ... .. . ... : ... .. . ... : ... .. . ... : ... .. . ...
ROW 10 : --- .. . ... : --- .. . ... : ... .. . ... : ... .. . ... : ... .. . ... : A-1 03 6 0C0 : ... .. . ... : ... .. . ...
ROW 11 : ... .. . ... : ... .. . ... : ... .. . ... : ... .. . ... : ... .. . ... : ... .. . ... : ... .. . ... : ... .. . ...
ROW 12 : ... .. . ... : ... .. . ... : ... .. . ... : ... .. . ... : ... .. . ... : ... .. . ... : ... .. . ... : ... .. . ...
ROW 13 : ... .. . ... : ... .. . ... : ... .. . ... : ... .. . ... : ... .. . ... : ... .. . ... : ... .. . ... : ... .. . ...
ROW 14 : ... .. . ... : ... .. . ... : ... .. . ... : ... .. . ... : ... .. . ... : --- .. . ... : ... .. . ... : ... .. . ...
ROW 15 : ... .. . ... : ... .. . ... : ... .. . ... : ... .. . ... : ... .. . ... : ... .. . ... : ... .. . ... : ... .. . ...
ROW 16 : D-5 00 8 ... : F-4 00 8 ... : ... .. . ... : ... .. . ... : ... .. . ... : ... .. . ... : ... .. . ... : ... .. . ...
ROW 17 : ... .. . ... : ... .. . ... : ... .. . ... : ... .. . ... : ... .. . ... : ... .. . ... : ... .. . ... : ... .. . ...
ROW 18 : D-5 00 8 ... : F-4 00 8 ... : ... .. . ... : ... .. . ... : ... .. . ... : ... .. . ... : ... .. . ... : ... .. . ...
ROW 19 : ... .. . ... : ... .. . ... : ... .. . ... : ... .. . ... : ... .. . ... : ... .. . ... : ... .. . ... : ... .. . ...
ROW 1a : D-5 00 8 ... : F-4 00 8 ... : ... .. . ... : ... .. . ... : ... .. . ... : ... .. . ... : ... .. . ... : ... .. . ...
ROW 1b : ... .. . ... : ... .. . ... : ... .. . ... : ... .. . ... : ... .. . ... : ... .. . ... : ... .. . ... : ... .. . ...
ROW 1c : F-5 00 8 ... : A-4 00 8 ... : ... .. . ... : ... .. . ... : ... .. . ... : ... .. . ... : ... .. . ... : ... .. . ...
ROW 1d : ... .. . ... : ... .. . ... : ... .. . ... : ... .. . ... : ... .. . ... : ... .. . ... : ... .. . ... : ... .. . ...
ROW 1e : D-5 00 8 ... : F-4 00 8 ... : ... .. . ... : ... .. . ... : ... .. . ... : ... .. . ... : ... .. . ... : ... .. . ...
ROW 1f : ... .. . ... : ... .. . ... : ... .. . ... : ... .. . ... : ... .. . ... : ... .. . ... : ... .. . ... : ... .. . ...
ROW 20 : F-5 00 8 040 : C-5 00 8 ... : ... .. . ... : ... .. . ... : ... .. . ... : A#1 03 6 ... : ... .. . ... : ... .. . ...
ROW 21 : ... .. . ... : ... .. . ... : ... .. . ... : ... .. . ... : ... .. . ... : ... .. . ... : ... .. . ... : ... .. . ...
ROW 22 : ... .. . ... : ... .. . ... : ... .. . ... : ... .. . ... : ... .. . ... : A#2 03 6 ... : ... .. . ... : ... .. . ...
ROW 23 : ... .. . ... : ... .. . ... : ... .. . ... : ... .. . ... : ... .. . ... : ... .. . ... : ... .. . ... : ... .. . ...
ROW 24 : F-5 00 8 040 : C-5 00 8 ... : ... .. . ... : ... .. . ... : ... .. . ... : A#1 03 6 ... : ... .. . ... : ... .. . ...
ROW 25 : ... .. . ... : ... .. . ... : ... .. . ... : ... .. . ... : ... .. . ... : ... .. . ... : ... .. . ... : ... .. . ...
ROW 26 : ... .. . ... : ... .. . ... : ... .. . ... : ... .. . ... : ... .. . ... : A#2 03 6 ... : ... .. . ... : ... .. . ...
ROW 27 : ... .. . ... : ... .. . ... : ... .. . ... : ... .. . ... : ... .. . ... : ... .. . ... : ... .. . ... : ... .. . ...
ROW 28 : F-5 00 8 040 : C-5 00 8 ... : ... .. . ... : ... .. . ... : ... .. . ... : A#1 03 6 ... : ... .. . ... : ... .. . ...
ROW 29 : ... .. . ... : ... .. . ... : ... .. . ... : ... .. . ... : ... .. . ... : ... .. . ... : ... .. . ... : ... .. . ...
ROW 2a : ... .. . ... : ... .. . ... : ... .. . ... : ... .. . ... : ... .. . ... : A#2 03 6 ... : ... .. . ... : ... .. . ...
ROW 2b : ... .. . ... : ... .. . ... : ... .. . ... : ... .. . ... : ... .. . ... : ... .. . ... : ... .. . ... : ... .. . ...
ROW 2c : F-5 00 8 ... : ... .. . ... : ... .. . ... : ... .. . ... : ... .. . ... : A#1 03 6 ... : ... .. . ... : ... .. . ...
ROW 2d : ... .. . ... : ... .. . ... : ... .. . ... : ... .. . ... : ... .. . ... : ... .. . ... : ... .. . ... : ... .. . ...
ROW 2e : G-5 00 8 ... : ... .. . ... : ... .. . ... : ... .. . ... : ... .. . ... : A#2 03 6 ... : ... .. . ... : ... .. . ...
ROW 2f : ... .. . ... : ... .. . ... : ... .. . ... : ... .. . ... : ... .. . ... : ... .. . ... : ... .. . ... : ... .. . ...
ROW 30 : E-5 00 8 050 : C-5 00 8 ... : ... .. . ... : ... .. . ... : ... .. . ... : C-2 03 6 ... : ... .. . ... : ... .. . ...
ROW 31 : ... .. . ... : ... .. . ... : ... .. . ... : ... .. . ... : ... .. . ... : ... .. . ... : ... .. . ... : ... .. . ...
ROW 32 : F-5 00 8 ... : ... .. . ... : ... .. . ... : ... .. . ... : ... .. . ... : C-3 03 6 ... : ... .. . ... : ... .. . ...
ROW 33 : ... .. . ... : ... .. . ... : ... .. . ... : ... .. . ... : ... .. . ... : ... .. . ... : ... .. . ... : ... .. . ...
ROW 34 : F-5 00 8 ... : ... .. . ... : ... .. . ... : ... .. . ... : ... .. . ... : C-2 03 6 ... : ... .. . ... : ... .. . ...
ROW 35 : ... .. . ... : ... .. . ... : ... .. . ... : ... .. . ... : ... .. . ... : ... .. . ... : ... .. . ... : ... .. . ...
ROW 36 : D-5 00 8 ... : ... .. . ... : ... .. . ... : ... .. . ... : ... .. . ... : C-3 03 6 ... : ... .. . ... : ... .. . ...
ROW 37 : ... .. . ... : ... .. . ... : ... .. . ... : ... .. . ... : ... .. . ... : ... .. . ... : ... .. . ... : ... .. . ...
ROW 38 : F-5 00 8 ... : A-4 00 8 ... : ... .. . ... : ... .. . ... : ... .. . ... : C-2 03 6 ... : ... .. . ... : ... .. . ...
ROW 39 : ... .. . ... : ... .. . ... : ... .. . ... : ... .. . ... : ... .. . ... : ... .. . ... : ... .. . ... : ... .. . ...
ROW 3a : ... .. . ... : ... .. . ... : ... .. . ... : ... .. . ... : ... .. . ... : C-3 03 6 ... : ... .. . ... : ... .. . ...
ROW 3b : ... .. . ... : ... .. . ... : ... .. . ... : ... .. . ... : ... .. . ... : ... .. . ... : ... .. . ... : ... .. . ...
ROW 3c : G-5 00 8 ... : A#4 00 8 ... : ... .. . ... : ... .. . ... : ... .. . ... : C-2 03 6 ... : ... .. . ... : ... .. . ...
ROW 3d : ... .. . ... : ... .. . ... : ... .. . ... : ... .. . ... : ... .. . ... : ... .. . ... : ... .. . ... : ... .. . ...
ROW 3e : ... .. . ... : ... .. . ... : ... .. . ... : ... .. . ... : ... .. . ... : C-3 03 6 ... : ... .. . ... : ... .. . ...
ROW 3f : ... .. . ... : ... .. . ... : ... .. . ... : ... .. . ... : ... .. . ... : ... .. . ... : ... .. . ... : ... .. . ...
PATTERN 17
ROW 00 : E-5 00 8 050 : C-5 00 8 ... : ... .. . ... : ... .. . ... : ... .. . ... : A-1 03 6 ... : ... .. . ... : ... .. . ...
ROW 01 : ... .. . ... : ... .. . ... : ... .. . ... : ... .. . ... : ... .. . ... : ... .. . ... : ... .. . ... : ... .. . ...
ROW 02 : ... .. . ... : ... .. . ... : ... .. . ... : ... .. . ... : ... .. . ... : A-2 03 6 ... : ... .. . ... : ... .. . ...
ROW 03 : ... .. . ... : ... .. . ... : ... .. . ... : ... .. . ... : ... .. . ... : ... .. . ... : ... .. . ... : ... .. . ...
ROW 04 : E-5 00 8 050 : C-5 00 8 ... : ... .. . ... : ... .. . ... : ... .. . ... : A-1 03 6 ... : ... .. . ... : ... .. . ...
ROW 05 : ... .. . ... : ... .. . ... : ... .. . ... : ... .. . ... : ... .. . ... : ... .. . ... : ... .. . ... : ... .. . ...
ROW 06 : ... .. . ... : ... .. . ... : ... .. . ... : ... .. . ... : ... .. . ... : A-2 03 6 ... : ... .. . ... : ... .. . ...
ROW 07 : ... .. . ... : ... .. . ... : ... .. . ... : ... .. . ... : ... .. . ... : ... .. . ... : ... .. . ... : ... .. . ...
ROW 08 : E-5 00 8 050 : C-5 00 8 ... : ... .. . ... : ... .. . ... : ... .. . ... : A-1 03 6 ... : ... .. . ... : ... .. . ...
ROW 09 : ... .. . ... : ... .. . ... : ... .. . ... : ... .. . ... : ... .. . ... : ... .. . ... : ... .. . ... : ... .. . ...
ROW 0a : ... .. . ... : ... .. . ... : ... .. . ... : ... .. . ... : ... .. . ... : A-2 03 6 ... : ... .. . ... : ... .. . ...
ROW 0b : ... .. . ... : ... .. . ... : ... .. . ... : ... .. . ... : ... .. . ... : ... .. . ... : ... .. . ... : ... .. . ...
ROW 0c : F-5 00 8 ... : ... .. . ... : ... .. . ... : ... .. . ... : ... .. . ... : A-1 03 6 ... : ... .. . ... : ... .. . ...
ROW 0d : ... .. . ... : ... .. . ... : ... .. . ... : ... .. . ... : ... .. . ... : ... .. . ... : ... .. . ... : ... .. . ...
ROW 0e : D-5 00 8 ... : ... .. . ... : ... .. . ... : ... .. . ... : ... .. . ... : A-2 03 6 ... : ... .. . ... : ... .. . ...
ROW 0f : ... .. . ... : ... .. . ... : ... .. . ... : ... .. . ... : ... .. . ... : ... .. . ... : ... .. . ... : ... .. . ...
ROW 10 : C-5 00 8 050 : A-4 00 8 ... : ... .. . ... : ... .. . ... : ... .. . ... : D-2 03 6 ... : ... .. . ... : ... .. . ...
ROW 11 : ... .. . ... : ... .. . ... : ... .. . ... : ... .. . ... : ... .. . ... : ... .. . ... : ... .. . ... : ... .. . ...
ROW 12 : D-5 00 8 ... : ... .. . ... : ... .. . ... : ... .. . ... : ... .. . ... : D-3 03 6 ... : ... .. . ... : ... .. . ...
ROW 13 : ... .. . ... : ... .. . ... : ... .. . ... : ... .. . ... : ... .. . ... : ... .. . ... : ... .. . ... : ... .. . ...
ROW 14 : F-5 00 8 ... : A-4 00 8 ... : ... .. . ... : ... .. . ... : ... .. . ... : D-2 03 6 ... : ... .. . ... : ... .. . ...
ROW 15 : ... .. . ... : ... .. . ... : ... .. . ... : ... .. . ... : ... .. . ... : ... .. . ... : ... .. . ... : ... .. . ...
ROW 16 : G-5 00 8 ... : A#4 00 8 ... : ... .. . ... : ... .. . ... : ... .. . ... : D-3 03 6 ... : ... .. . ... : ... .. . ...
ROW 17 : ... .. . ... : ... .. . ... : ... .. . ... : ... .. . ... : ... .. . ... : ... .. . ... : ... .. . ... : ... .. . ...
ROW 18 : F-5 00 8 ... : A-4 00 8 ... : ... .. . ... : ... .. . ... : ... .. . ... : D-2 03 6 ... : ... .. . ... : ... .. . ...
ROW 19 : ... .. . ... : ... .. . ... : ... .. . ... : ... .. . ... : ... .. . ... : ... .. . ... : ... .. . ... : ... .. . ...
ROW 1a : ... .. . ... : ... .. . ... : ... .. . ... : ... .. . ... : ... .. . ... : D-3 03 6 ... : ... .. . ... : ... .. . ...
ROW 1b : ... .. . ... : ... .. . ... : ... .. . ... : ... .. . ... : ... .. . ... : ... .. . ... : ... .. . ... : ... .. . ...
ROW 1c : --- .. . ... : --- .. . ... : ... .. . ... : ... .. . ... : ... .. . ... : D-2 03 6 ... : ... .. . ... : ... .. . ...
ROW 1d : ... .. . ... : ... .. . ... : ... .. . ... : ... .. . ... : ... .. . ... : ... .. . ... : ... .. . ... : ... .. . ...
ROW 1e : D-5 00 8 ... : ... .. . ... : ... .. . ... : ... .. . ... : ... .. . ... : D-3 03 6 ... : ... .. . ... : ... .. . ...
ROW 1f : ... .. . ... : ... .. . ... : ... .. . ... : ... .. . ... : ... .. . ... : ... .. . ... : ... .. . ... : ... .. . ...
ROW 20 : --- .. . ... : A-4 00 8 ... : F-5 01 7 ... : ... .. . ... : ... .. . ... : G-1 03 6 ... : ... .. . ... : ... .. . ...
ROW 21 : ... .. . ... : ... .. . ... : ... .. . ... : ... .. . ... : ... .. . ... : ... .. . ... : ... .. . ... : ... .. . ...
ROW 22 : ... .. . ... : A#4 00 8 ... : G-5 01 7 ... : ... .. . ... : ... .. . ... : G-2 03 6 ... : ... .. . ... : ... .. . ...
ROW 23 : ... .. . ... : ... .. . ... : ... .. . ... : ... .. . ... : ... .. . ... : ... .. . ... : ... .. . ... : ... .. . ...
ROW 24 : ... .. . ... : C-5 00 8 ... : A-5 01 7 ... : ... .. . ... : ... .. . ... : G-1 03 6 ... : ... .. . ... : ... .. . ...
ROW 25 : ... .. . ... : ... .. . ... : ... .. . ... : ... .. . ... : ... .. . ... : ... .. . ... : ... .. . ... : ... .. . ...
ROW 26 : ... .. . ... : ... .. . ... : ... .. . ... : ... .. . ... : ... .. . ... : G-2 03 6 ... : ... .. . ... : ... .. . ...
ROW 27 : ... .. . ... : ... .. . ... : ... .. . ... : ... .. . ... : ... .. . ... : ... .. . ... : ... .. . ... : ... .. . ...
ROW 28 : A-5 00 8 080 : --- .. . ... : --- .. . ... : ... .. . ... : ... .. . ... : G-1 03 6 ... : ... .. . ... : ... .. . ...
ROW 29 : ... .. . ... : ... .. . ... : ... .. . ... : ... .. . ... : ... .. . ... : ... .. . ... : ... .. . ... : ... .. . ...
ROW 2a : A-5 00 8 080 : ... .. . ... : ... .. . ... : ... .. . ... : ... .. . ... : G-2 03 6 ... : ... .. . ... : ... .. . ...
ROW 2b : ... .. . ... : ... .. . ... : ... .. . ... : ... .. . ... : ... .. . ... : ... .. . ... : ... .. . ... : ... .. . ...
ROW 2c : A-5 00 8 080 : ... .. . ... : ... .. . ... : ... .. . ... : ... .. . ... : G-1 03 6 ... : ... .. . ... : ... .. . ...
ROW 2d : ... .. . ... : ... .. . ... : ... .. . ... : ... .. . ... : ... .. . ... : ... .. . ... : ... .. . ... : ... .. . ...
ROW 2e : --- .. . ... : D-5 00 8 ... : ... .. . ... : ... .. . ... : ... .. . ... : G-2 03 6 ... : ... .. . ... : ... .. . ...
ROW 2f : ... .. . ... : ... .. . ... : ... .. . ... : ... .. . ... : ... .. . ... : ... .. . ... : ... .. . ... : ... .. . ...
ROW 30 : ... .. . ... : A-4 00 8 ... : F-5 01 7 ... : ... .. . ... : ... .. . ... : C-2 03 6 ... : ... .. . ... : ... .. . ...
ROW 31 : ... .. . ... : ... .. . ... : ... .. . ... : ... .. . ... : ... .. . ... : ... .. . ... : ... .. . ... : ... .. . ...
ROW 32 : ... .. . ... : A#4 00 8 ... : G-5 01 7 ... : ... .. . ... : ... .. . ... : C-3 03 6 ... : ... .. . ... : ... .. . ...
ROW 33 : ... .. . ... : ... .. . ... : ... .. . ... : ... .. . ... : ... .. . ... : ... .. . ... : ... .. . ... : ... .. . ...
ROW 34 : ... .. . ... : C-5 00 8 ... : A-5 01 7 ... : ... .. . ... : ... .. . ... : C-2 03 6 ... : ... .. . ... : ... .. . ...
ROW 35 : ... .. . ... : ... .. . ... : ... .. . ... : ... .. . ... : ... .. . ... : ... .. . ... : ... .. . ... : ... .. . ...
ROW 36 : ... .. . ... : ... .. . ... : ... .. . ... : ... .. . ... : ... .. . ... : C-3 03 6 ... : ... .. . ... : ... .. . ...
ROW 37 : ... .. . ... : ... .. . ... : ... .. . ... : ... .. . ... : ... .. . ... : ... .. . ... : ... .. . ... : ... .. . ...
ROW 38 : A-5 00 8 080 : --- .. . ... : --- .. . ... : ... .. . ... : ... .. . ... : C-2 03 6 ... : ... .. . ... : ... .. . ...
ROW 39 : ... .. . ... : ... .. . ... : ... .. . ... : ... .. . ... : ... .. . ... : ... .. . ... : ... .. . ... : ... .. . ...
ROW 3a : A-5 00 8 080 : ... .. . ... : ... .. . ... : ... .. . ... : ... .. . ... : C-3 03 6 ... : ... .. . ... : ... .. . ...
ROW 3b : ... .. . ... : ... .. . ... : ... .. . ... : ... .. . ... : ... .. . ... : ... .. . ... : ... .. . ... : ... .. . ...
ROW 3c : A-5 00 8 080 : ... .. . ... : ... .. . ... : ... .. . ... : ... .. . ... : C-2 03 6 ... : ... .. . ... : ... .. . ...
ROW 3d : ... .. . ... : ... .. . ... : ... .. . ... : ... .. . ... : ... .. . ... : ... .. . ... : ... .. . ... : ... .. . ...
ROW 3e : --- .. . ... : ... .. . ... : ... .. . ... : ... .. . ... : ... .. . ... : C-3 03 6 ... : ... .. . ... : ... .. . ...
ROW 3f : ... .. . ... : ... .. . ... : ... .. . ... : ... .. . ... : ... .. . ... : ... .. . ... : ... .. . ... : ... .. . ...
PATTERN 18
ROW 00 : C-5 00 8 060 : A-4 00 8 ... : ... .. . ... : ... .. . ... : ... .. . ... : D-2 03 6 ... : ... .. . ... : ... .. . ...
ROW 01 : ... .. . ... : ... .. . ... : ... .. . ... : ... .. . ... : ... .. . ... : ... .. . ... : ... .. . ... : ... .. . ...
ROW 02 : ... .. . ... : ... .. . ... : ... .. . ... : ... .. . ... : ... .. . ... : D-3 03 6 ... : ... .. . ... : ... .. . ...
ROW 03 : ... .. . ... : ... .. . ... : ... .. . ... : ... .. . ... : ... .. . ... : ... .. . ... : ... .. . ... : ... .. . ...
ROW 04 : C-5 00 8 060 : A-4 00 8 ... : ... .. . ... : ... .. . ... : ... .. . ... : D-2 03 6 ... : ... .. . ... : ... .. . ...
ROW 05 : ... .. . ... : ... .. . ... : ... .. . ... : ... .. . ... : ... .. . ... : ... .. . ... : ... .. . ... : ... .. . ...
ROW 06 : ... .. . ... : ... .. . ... : ... .. . ... : ... .. . ... : ... .. . ... : D-3 03 6 ... : ... .. . ... : ... .. . ...
ROW 07 : ... .. . ... : ... .. . ... : ... .. . ... : ... .. . ... : ... .. . ... : ... .. . ... : ... .. . ... : ... .. . ...
ROW 08 : F#5 00 8 ... : A-4 00 8 ... : ... .. . ... : ... .. . ... : ... .. . ... : D-2 03 6 ... : ... .. . ... : ... .. . ...
ROW 09 : ... .. . ... : ... .. . ... : ... .. . ... : ... .. . ... : ... .. . ... : ... .. . ... : ... .. . ... : ... .. . ...
ROW 0a : ... .. . ... : ... .. . ... : ... .. . ... : ... .. . ... : ... .. . ... : D-3 03 6 ... : ... .. . ... : ... .. . ...
ROW 0b : G-5 00 8 ... : A#4 00 8 ... : ... .. . ... : ... .. . ... : ... .. . ... : ... .. . ... : ... .. . ... : ... .. . ...
ROW 0c : ... .. . ... : ... .. . ... : ... .. . ... : ... .. . ... : ... .. . ... : D-2 03 6 ... : ... .. . ... : ... .. . ...
ROW 0d : ... .. . ... : ... .. . ... : ... .. . ... : ... .. . ... : ... .. . ... : ... .. . ... : ... .. . ... : ... .. . ...
ROW 0e : A-5 00 8 ... : C-5 00 8 ... : ... .. . ... : ... .. . ... : ... .. . ... : D-3 03 6 ... : ... .. . ... : ... .. . ...
ROW 0f : ... .. . ... : ... .. . ... : ... .. . ... : ... .. . ... : ... .. . ... : ... .. . ... : ... .. . ... : ... .. . ...
ROW 10 : ... .. . ... : ... .. . ... : ... .. . ... : ... .. . ... : ... .. . ... : D-2 03 6 ... : ... .. . ... : ... .. . ...
ROW 11 : ... .. . ... : ... .. . ... : ... .. . ... : ... .. . ... : ... .. . ... : ... .. . ... : ... .. . ... : ... .. . ...
ROW 12 : ... .. . ... : ... .. . ... : ... .. . ... : ... .. . ... : ... .. . ... : D-3 03 6 ... : ... .. . ... : ... .. . ...
ROW 13 : ... .. . ... : ... .. . ... : ... .. . ... : ... .. . ... : ... .. . ... : ... .. . ... : ... .. . ... : ... .. . ...
ROW 14 : --- .. . ... : --- .. . ... : ... .. . ... : ... .. . ... : ... .. . ... : D-2 03 6 ... : ... .. . ... : ... .. . ...
ROW 15 : ... .. . ... : ... .. . ... : ... .. . ... : ... .. . ... : ... .. . ... : ... .. . ... : ... .. . ... : ... .. . ...
ROW 16 : ... .. . ... : ... .. . ... : ... .. . ... : ... .. . ... : ... .. . ... : D-3 03 6 ... : ... .. . ... : ... .. . ...
ROW 17 : ... .. . ... : ... .. . ... : ... .. . ... : ... .. . ... : ... .. . ... : ... .. . ... : ... .. . ... : ... .. . ...
ROW 18 : D-5 00 8 ... : ... .. . ... : ... .. . ... : ... .. . ... : ... .. . ... : D-2 03 6 ... : ... .. . ... : ... .. . ...
ROW 19 : ... .. . ... : ... .. . ... : ... .. . ... : ... .. . ... : ... .. . ... : ... .. . ... : ... .. . ... : ... .. . ...
ROW 1a : D-5 00 8 ... : ... .. . ... : ... .. . ... : ... .. . ... : ... .. . ... : D-3 03 6 ... : ... .. . ... : ... .. . ...
ROW 1b : ... .. . ... : ... .. . ... : ... .. . ... : ... .. . ... : ... .. . ... : ... .. . ... : ... .. . ... : ... .. . ...
ROW 1c : F-5 00 8 ... : A-4 00 8 ... : ... .. . ... : ... .. . ... : ... .. . ... : C-2 03 6 ... : ... .. . ... : ... .. . ...
ROW 1d : ... .. . ... : ... .. . ... : ... .. . ... : ... .. . ... : ... .. . ... : ... .. . ... : ... .. . ... : ... .. . ...
ROW 1e : D-5 00 8 ... : ... .. . ... : ... .. . ... : ... .. . ... : ... .. . ... : C-3 03 6 ... : ... .. . ... : ... .. . ...
ROW 1f : ... .. . ... : ... .. . ... : ... .. . ... : ... .. . ... : ... .. . ... : ... .. . ... : ... .. . ... : ... .. . ...
ROW 20 : F-5 00 8 040 : C-5 00 8 ... : ... .. . ... : ... .. . ... : ... .. . ... : A#1 03 6 ... : ... .. . ... : ... .. . ...
ROW 21 : ... .. . ... : ... .. . ... : ... .. . ... : ... .. . ... : ... .. . ... : ... .. . ... : ... .. . ... : ... .. . ...
ROW 22 : ... .. . ... : ... .. . ... : ... .. . ... : ... .. . ... : ... .. . ... : A#2 03 6 ... : ... .. . ... : ... .. . ...
ROW 23 : ... .. . ... : ... .. . ... : ... .. . ... : ... .. . ... : ... .. . ... : ... .. . ... : ... .. . ... : ... .. . ...
ROW 24 : F-5 00 8 040 : C-5 00 8 ... : ... .. . ... : ... .. . ... : ... .. . ... : A#1 03 6 ... : ... .. . ... : ... .. . ...
ROW 25 : ... .. . ... : ... .. . ... : ... .. . ... : ... .. . ... : ... .. . ... : ... .. . ... : ... .. . ... : ... .. . ...
ROW 26 : ... .. . ... : ... .. . ... : ... .. . ... : ... .. . ... : ... .. . ... : A#2 03 6 ... : ... .. . ... : ... .. . ...
ROW 27 : ... .. . ... : ... .. . ... : ... .. . ... : ... .. . ... : ... .. . ... : ... .. . ... : ... .. . ... : ... .. . ...
ROW 28 : F-5 00 8 040 : C-5 00 8 ... : ... .. . ... : ... .. . ... : ... .. . ... : A#1 03 6 ... : ... .. . ... : ... .. . ...
ROW 29 : ... .. . ... : ... .. . ... : ... .. . ... : ... .. . ... : ... .. . ... : ... .. . ... : ... .. . ... : ... .. . ...
ROW 2a : ... .. . ... : ... .. . ... : ... .. . ... : ... .. . ... : ... .. . ... : A#2 03 6 ... : ... .. . ... : ... .. . ...
ROW 2b : ... .. . ... : ... .. . ... : ... .. . ... : ... .. . ... : ... .. . ... : ... .. . ... : ... .. . ... : ... .. . ...
ROW 2c : F-5 00 8 ... : ... .. . ... : ... .. . ... : ... .. . ... : ... .. . ... : A#1 03 6 ... : ... .. . ... : ... .. . ...
ROW 2d : ... .. . ... : ... .. . ... : ... .. . ... : ... .. . ... : ... .. . ... : ... .. . ... : ... .. . ... : ... .. . ...
ROW 2e : G-5 00 8 ... : ... .. . ... : ... .. . ... : ... .. . ... : ... .. . ... : A#2 03 6 ... : ... .. . ... : ... .. . ...
ROW 2f : ... .. . ... : ... .. . ... : ... .. . ... : ... .. . ... : ... .. . ... : ... .. . ... : ... .. . ... : ... .. . ...
ROW 30 : E-5 00 8 050 : C-5 00 8 ... : ... .. . ... : ... .. . ... : ... .. . ... : C-2 03 6 ... : ... .. . ... : ... .. . ...
ROW 31 : ... .. . ... : ... .. . ... : ... .. . ... : ... .. . ... : ... .. . ... : ... .. . ... : ... .. . ... : ... .. . ...
ROW 32 : F-5 00 8 ... : ... .. . ... : ... .. . ... : ... .. . ... : ... .. . ... : C-3 03 6 ... : ... .. . ... : ... .. . ...
ROW 33 : ... .. . ... : ... .. . ... : ... .. . ... : ... .. . ... : ... .. . ... : ... .. . ... : ... .. . ... : ... .. . ...
ROW 34 : F-5 00 8 ... : ... .. . ... : ... .. . ... : ... .. . ... : ... .. . ... : C-2 03 6 ... : ... .. . ... : ... .. . ...
ROW 35 : ... .. . ... : ... .. . ... : ... .. . ... : ... .. . ... : ... .. . ... : ... .. . ... : ... .. . ... : ... .. . ...
ROW 36 : D-5 00 8 ... : ... .. . ... : ... .. . ... : ... .. . ... : ... .. . ... : C-3 03 6 ... : ... .. . ... : ... .. . ...
ROW 37 : ... .. . ... : ... .. . ... : ... .. . ... : ... .. . ... : ... .. . ... : ... .. . ... : ... .. . ... : ... .. . ...
ROW 38 : F-5 00 8 ... : A-4 00 8 ... : ... .. . ... : ... .. . ... : ... .. . ... : C-2 03 6 ... : ... .. . ... : ... .. . ...
ROW 39 : ... .. . ... : ... .. . ... : ... .. . ... : ... .. . ... : ... .. . ... : ... .. . ... : ... .. . ... : ... .. . ...
ROW 3a : ... .. . ... : ... .. . ... : ... .. . ... : ... .. . ... : ... .. . ... : C-3 03 6 ... : ... .. . ... : ... .. . ...
ROW 3b : ... .. . ... : ... .. . ... : ... .. . ... : ... .. . ... : ... .. . ... : ... .. . ... : ... .. . ... : ... .. . ...
ROW 3c : G-5 00 8 ... : A#4 00 8 ... : ... .. . ... : ... .. . ... : ... .. . ... : C-2 03 6 ... : ... .. . ... : ... .. . ...
ROW 3d : ... .. . ... : ... .. . ... : ... .. . ... : ... .. . ... : ... .. . ... : ... .. . ... : ... .. . ... : ... .. . ...
ROW 3e : ... .. . ... : ... .. . ... : ... .. . ... : ... .. . ... : ... .. . ... : C-3 03 6 ... : ... .. . ... : ... .. . ...
ROW 3f : ... .. . ... : ... .. . ... : ... .. . ... : ... .. . ... : ... .. . ... : ... .. . ... : ... .. . ... : ... .. . ...
PATTERN 19
ROW 00 : E-5 00 8 050 : C-5 00 8 ... : ... .. . ... : ... .. . ... : ... .. . ... : A-1 03 6 ... : ... .. . ... : ... .. . ...
ROW 01 : ... .. . ... : ... .. . ... : ... .. . ... : ... .. . ... : ... .. . ... : ... .. . ... : ... .. . ... : ... .. . ...
ROW 02 : ... .. . ... : ... .. . ... : ... .. . ... : ... .. . ... : ... .. . ... : A-2 03 6 ... : ... .. . ... : ... .. . ...
ROW 03 : ... .. . ... : ... .. . ... : ... .. . ... : ... .. . ... : ... .. . ... : ... .. . ... : ... .. . ... : ... .. . ...
ROW 04 : E-5 00 8 050 : C-5 00 8 ... : ... .. . ... : ... .. . ... : ... .. . ... : A-1 03 6 ... : ... .. . ... : ... .. . ...
ROW 05 : ... .. . ... : ... .. . ... : ... .. . ... : ... .. . ... : ... .. . ... : ... .. . ... : ... .. . ... : ... .. . ...
ROW 06 : ... .. . ... : ... .. . ... : ... .. . ... : ... .. . ... : ... .. . ... : A-2 03 6 ... : ... .. . ... : ... .. . ...
ROW 07 : ... .. . ... : ... .. . ... : ... .. . ... : ... .. . ... : ... .. . ... : ... .. . ... : ... .. . ... : ... .. . ...
ROW 08 : E-5 00 8 050 : C-5 00 8 ... : ... .. . ... : ... .. . ... : ... .. . ... : A-1 03 6 ... : ... .. . ... : ... .. . ...
ROW 09 : ... .. . ... : ... .. . ... : ... .. . ... : ... .. . ... : ... .. . ... : ... .. . ... : ... .. . ... : ... .. . ...
ROW 0a : ... .. . ... : ... .. . ... : ... .. . ... : ... .. . ... : ... .. . ... : A-2 03 6 ... : ... .. . ... : ... .. . ...
ROW 0b : ... .. . ... : ... .. . ... : ... .. . ... : ... .. . ... : ... .. . ... : ... .. . ... : ... .. . ... : ... .. . ...
ROW 0c : F-5 00 8 ... : ... .. . ... : ... .. . ... : ... .. . ... : ... .. . ... : A-1 03 6 ... : ... .. . ... : ... .. . ...
ROW 0d : ... .. . ... : ... .. . ... : ... .. . ... : ... .. . ... : ... .. . ... : ... .. . ... : ... .. . ... : ... .. . ...
ROW 0e : D-5 00 8 ... : ... .. . ... : ... .. . ... : ... .. . ... : ... .. . ... : A-2 03 6 ... : ... .. . ... : ... .. . ...
ROW 0f : ... .. . ... : ... .. . ... : ... .. . ... : ... .. . ... : ... .. . ... : ... .. . ... : ... .. . ... : ... .. . ...
ROW 10 : C-5 00 8 050 : A-4 00 8 ... : ... .. . ... : ... .. . ... : ... .. . ... : D-2 03 6 ... : ... .. . ... : ... .. . ...
ROW 11 : ... .. . ... : ... .. . ... : ... .. . ... : ... .. . ... : ... .. . ... : ... .. . ... : ... .. . ... : ... .. . ...
ROW 12 : D-5 00 8 ... : ... .. . ... : ... .. . ... : ... .. . ... : ... .. . ... : D-3 03 6 ... : ... .. . ... : ... .. . ...
ROW 13 : ... .. . ... : ... .. . ... : ... .. . ... : ... .. . ... : ... .. . ... : ... .. . ... : ... .. . ... : ... .. . ...
ROW 14 : F-5 00 8 ... : A-4 00 8 ... : ... .. . ... : ... .. . ... : ... .. . ... : D-2 03 6 ... : ... .. . ... : ... .. . ...
ROW 15 : ... .. . ... : ... .. . ... : ... .. . ... : ... .. . ... : ... .. . ... : ... .. . ... : ... .. . ... : ... .. . ...
ROW 16 : G-5 00 8 ... : A#4 00 8 ... : ... .. . ... : ... .. . ... : ... .. . ... : D-3 03 6 ... : ... .. . ... : ... .. . ...
ROW 17 : ... .. . ... : ... .. . ... : ... .. . ... : ... .. . ... : ... .. . ... : ... .. . ... : ... .. . ... : ... .. . ...
ROW 18 : F-5 00 8 ... : A-4 00 8 ... : ... .. . ... : ... .. . ... : ... .. . ... : D-2 03 6 ... : ... .. . ... : ... .. . ...
ROW 19 : ... .. . ... : ... .. . ... : ... .. . ... : ... .. . ... : ... .. . ... : ... .. . ... : ... .. . ... : ... .. . ...
ROW 1a : ... .. . ... : ... .. . ... : ... .. . ... : ... .. . ... : ... .. . ... : D-3 03 6 ... : ... .. . ... : ... .. . ...
ROW 1b : ... .. . ... : ... .. . ... : ... .. . ... : ... .. . ... : ... .. . ... : ... .. . ... : ... .. . ... : ... .. . ...
ROW 1c : --- .. . ... : --- .. . ... : ... .. . ... : ... .. . ... : ... .. . ... : D-2 03 6 ... : ... .. . ... : ... .. . ...
ROW 1d : ... .. . ... : ... .. . ... : ... .. . ... : ... .. . ... : ... .. . ... : ... .. . ... : ... .. . ... : ... .. . ...
ROW 1e : D-5 00 8 ... : ... .. . ... : ... .. . ... : ... .. . ... : ... .. . ... : D-3 03 6 ... : ... .. . ... : ... .. . ...
ROW 1f : ... .. . ... : ... .. . ... : ... .. . ... : ... .. . ... : ... .. . ... : ... .. . ... : ... .. . ... : ... .. . ...
ROW 20 : --- .. . ... : A-4 00 8 ... : F-5 01 7 ... : ... .. . ... : ... .. . ... : G-1 03 6 ... : ... .. . ... : ... .. . ...
ROW 21 : ... .. . ... : ... .. . ... : ... .. . ... : ... .. . ... : ... .. . ... : ... .. . ... : ... .. . ... : ... .. . ...
ROW 22 : ... .. . ... : A#4 00 8 ... : G-5 01 7 ... : ... .. . ... : ... .. . ... : G-2 03 6 ... : ... .. . ... : ... .. . ...
ROW 23 : ... .. . ... : ... .. . ... : ... .. . ... : ... .. . ... : ... .. . ... : ... .. . ... : ... .. . ... : ... .. . ...
ROW 24 : ... .. . ... : C-5 00 8 ... : A-5 01 7 ... : ... .. . ... : ... .. . ... : G-1 03 6 ... : ... .. . ... : ... .. . ...
ROW 25 : ... .. . ... : ... .. . ... : ... .. . ... : ... .. . ... : ... .. . ... : ... .. . ... : ... .. . ... : ... .. . ...
ROW 26 : ... .. . ... : ... .. . ... : ... .. . ... : ... .. . ... : ... .. . ... : G-2 03 6 ... : ... .. . ... : ... .. . ...
ROW 27 : ... .. . ... : ... .. . ... : ... .. . ... : ... .. . ... : ... .. . ... : ... .. . ... : ... .. . ... : ... .. . ...
ROW 28 : A-5 00 8 080 : --- .. . ... : --- .. . ... : ... .. . ... : ... .. . ... : G-1 03 6 ... : ... .. . ... : ... .. . ...
ROW 29 : ... .. . ... : ... .. . ... : ... .. . ... : ... .. . ... : ... .. . ... : ... .. . ... : ... .. . ... : ... .. . ...
ROW 2a : A-5 00 8 080 : ... .. . ... : ... .. . ... : ... .. . ... : ... .. . ... : G-2 03 6 ... : ... .. . ... : ... .. . ...
ROW 2b : ... .. . ... : ... .. . ... : ... .. . ... : ... .. . ... : ... .. . ... : ... .. . ... : ... .. . ... : ... .. . ...
ROW 2c : A-5 00 8 080 : ... .. . ... : ... .. . ... : ... .. . ... : ... .. . ... : G-1 03 6 ... : ... .. . ... : ... .. . ...
ROW 2d : ... .. . ... : ... .. . ... : ... .. . ... : ... .. . ... : ... .. . ... : ... .. . ... : ... .. . ... : ... .. . ...
ROW 2e : --- .. . ... : D-5 00 8 ... : ... .. . ... : ... .. . ... : ... .. . ... : G-2 03 6 ... : ... .. . ... : ... .. . ...
ROW 2f : ... .. . ... : ... .. . ... : ... .. . ... : ... .. . ... : ... .. . ... : ... .. . ... : ... .. . ... : ... .. . ...
ROW 30 : ... .. . ... : A-4 00 8 ... : F-5 01 7 ... : ... .. . ... : ... .. . ... : A-1 03 6 ... : ... .. . ... : ... .. . ...
ROW 31 : ... .. . ... : ... .. . ... : ... .. . ... : ... .. . ... : ... .. . ... : ... .. . ... : ... .. . ... : ... .. . ...
ROW 32 : ... .. . ... : A#4 00 8 ... : G-5 01 7 ... : ... .. . ... : ... .. . ... : A-2 03 6 ... : ... .. . ... : ... .. . ...
ROW 33 : ... .. . ... : ... .. . ... : ... .. . ... : ... .. . ... : ... .. . ... : ... .. . ... : ... .. . ... : ... .. . ...
ROW 34 : ... .. . ... : C-5 00 8 ... : A-5 01 7 ... : ... .. . ... : ... .. . ... : A-1 03 6 ... : ... .. . ... : ... .. . ...
ROW 35 : ... .. . ... : ... .. . ... : ... .. . ... : ... .. . ... : ... .. . ... : ... .. . ... : ... .. . ... : ... .. . ...
ROW 36 : ... .. . ... : ... .. . ... : ... .. . ... : ... .. . ... : ... .. . ... : A-2 03 6 ... : ... .. . ... : ... .. . ...
ROW 37 : ... .. . ... : ... .. . ... : ... .. . ... : ... .. . ... : ... .. . ... : ... .. . ... : ... .. . ... : ... .. . ...
ROW 38 : A-5 00 8 080 : --- .. . ... : --- .. . ... : ... .. . ... : ... .. . ... : A-1 03 6 ... : ... .. . ... : ... .. . ...
ROW 39 : ... .. . ... : ... .. . ... : ... .. . ... : ... .. . ... : ... .. . ... : ... .. . ... : ... .. . ... : ... .. . ...
ROW 3a : A-5 00 8 080 : ... .. . ... : ... .. . ... : ... .. . ... : ... .. . ... : A-2 03 6 ... : ... .. . ... : ... .. . ...
ROW 3b : ... .. . ... : ... .. . ... : ... .. . ... : ... .. . ... : ... .. . ... : ... .. . ... : ... .. . ... : ... .. . ...
ROW 3c : A-5 00 8 080 : ... .. . ... : ... .. . ... : ... .. . ... : ... .. . ... : A-1 03 6 ... : ... .. . ... : ... .. . ...
ROW 3d : ... .. . ... : ... .. . ... : ... .. . ... : ... .. . ... : ... .. . ... : ... .. . ... : ... .. . ... : ... .. . ...
ROW 3e : --- .. . ... : ... .. . ... : ... .. . ... : ... .. . ... : ... .. . ... : A-2 03 6 ... : ... .. . ... : ... .. . ...
ROW 3f : ... .. . ... : ... .. . ... : ... .. . ... : ... .. . ... : ... .. . ... : ... .. . ... : ... .. . ... : ... .. . ...
PATTERN 1a
ROW 00 : C-6 00 8 ... : F-5 00 8 ... : ... .. . ... : ... .. . ... : ... .. . ... : A#1 03 6 0C0 : ... .. . ... : ... .. . ...
ROW 01 : ... .. . ... : ... .. . ... : ... .. . ... : ... .. . ... : ... .. . ... : ... .. . ... : ... .. . ... : ... .. . ...
ROW 02 : ... .. . ... : ... .. . ... : ... .. . ... : ... .. . ... : ... .. . ... : A#1 03 6 0C0 : ... .. . ... : ... .. . ...
ROW 03 : ... .. . ... : ... .. . ... : ... .. . ... : ... .. . ... : ... .. . ... : ... .. . ... : ... .. . ... : ... .. . ...
ROW 04 : A#5 00 8 ... : D-5 00 8 ... : ... .. . ... : ... .. . ... : ... .. . ... : A#1 03 6 0C0 : ... .. . ... : ... .. . ...
ROW 05 : ... .. . ... : ... .. . ... : ... .. . ... : ... .. . ... : ... .. . ... : ... .. . ... : ... .. . ... : ... .. . ...
ROW 06 : ... .. . ... : ... .. . ... : ... .. . ... : ... .. . ... : ... .. . ... : A#1 03 6 0C0 : ... .. . ... : ... .. . ...
ROW 07 : ... .. . ... : ... .. . ... : ... .. . ... : ... .. . ... : ... .. . ... : ... .. . ... : ... .. . ... : ... .. . ...
ROW 08 : A-5 00 8 ... : C-5 00 8 ... : ... .. . ... : ... .. . ... : ... .. . ... : A#1 03 6 0C0 : ... .. . ... : ... .. . ...
ROW 09 : ... .. . ... : ... .. . ... : ... .. . ... : ... .. . ... : ... .. . ... : ... .. . ... : ... .. . ... : ... .. . ...
ROW 0a : ... .. . ... : ... .. . ... : ... .. . ... : ... .. . ... : ... .. . ... : A#1 03 6 0C0 : ... .. . ... : ... .. . ...
ROW 0b : ... .. . ... : ... .. . ... : ... .. . ... : ... .. . ... : ... .. . ... : ... .. . ... : ... .. . ... : ... .. . ...
ROW 0c : A#5 00 8 ... : D-5 00 8 ... : ... .. . ... : ... .. . ... : ... .. . ... : A#1 03 6 0C0 : ... .. . ... : ... .. . ...
ROW 0d : ... .. . ... : ... .. . ... : ... .. . ... : ... .. . ... : ... .. . ... : ... .. . ... : ... .. . ... : ... .. . ...
ROW 0e : ... .. . ... : ... .. . ... : ... .. . ... : ... .. . ... : ... .. . ... : A#1 03 6 0C0 : ... .. . ... : ... .. . ...
ROW 0f : ... .. . ... : ... .. . ... : ... .. . ... : ... .. . ... : ... .. . ... : ... .. . ... : ... .. . ... : ... .. . ...
ROW 10 : E-5 00 8 050 : C-5 00 8 ... : ... .. . ... : ... .. . ... : ... .. . ... : C-2 03 6 0C0 : ... .. . ... : ... .. . ...
ROW 11 : ... .. . ... : ... .. . ... : ... .. . ... : ... .. . ... : ... .. . ... : ... .. . ... : ... .. . ... : ... .. . ...
ROW 12 : ... .. . ... : ... .. . ... : ... .. . ... : ... .. . ... : ... .. . ... : ... .. . ... : ... .. . ... : ... .. . ...
ROW 13 : ... .. . ... : ... .. . ... : ... .. . ... : ... .. . ... : ... .. . ... : ... .. . ... : ... .. . ... : ... .. . ...
ROW 14 : --- .. . ... : --- .. . ... : ... .. . ... : ... .. . ... : ... .. . ... : --- .. . ... : ... .. . ... : ... .. . ...
ROW 15 : ... .. . ... : ... .. . ... : ... .. . ... : ... .. . ... : ... .. . ... : ... .. . ... : ... .. . ... : ... .. . ...
ROW 16 : F-5 00 8 ... : ... .. . ... : ... .. . ... : ... .. . ... : ... .. . ... : ... .. . ... : ... .. . ... : ... .. . ...
ROW 17 : ... .. . ... : ... .. . ... : ... .. . ... : ... .. . ... : ... .. . ... : ... .. . ... : ... .. . ... : ... .. . ...
ROW 18 : F-5 00 8 ... : A-4 00 8 ... : ... .. . ... : ... .. . ... : ... .. . ... : ... .. . ... : ... .. . ... : ... .. . ...
ROW 19 : ... .. . ... : ... .. . ... : ... .. . ... : ... .. . ... : ... .. . ... : ... .. . ... : ... .. . ... : ... .. . ...
ROW 1a : D-5 00 8 ... : ... .. . ... : ... .. . ... : ... .. . ... : ... .. . ... : ... .. . ... : ... .. . ... : ... .. . ...
ROW 1b : ... .. . ... : ... .. . ... : ... .. . ... : ... .. . ... : ... .. . ... : ... .. . ... : ... .. . ... : ... .. . ...
ROW 1c : F-5 00 8 ... : A-4 00 8 ... : ... .. . ... : ... .. . ... : ... .. . ... : ... .. . ... : ... .. . ... : ... .. . ...
ROW 1d : G-5 00 8 ... : A#4 00 8 ... : ... .. . ... : ... .. . ... : ... .. . ... : ... .. . ... : ... .. . ... : ... .. . ...
ROW 1e : ... .. . ... : ... .. . ... : ... .. . ... : ... .. . ... : ... .. . ... : ... .. . ... : ... .. . ... : ... .. . ...
ROW 1f : A-5 00 8 ... : C-5 00 8 ... : ... .. . ... : ... .. . ... : ... .. . ... : ... .. . ... : ... .. . ... : ... .. . ...
ROW 20 : D-5 00 8 070 : --- .. . ... : ... .. . ... : ... .. . ... : ... .. . ... : D-2 03 6 070 : ... .. . ... : ... .. . ...
ROW 21 : ... .. . ... : A-4 00 8 ... : ... .. . ... : ... .. . ... : ... .. . ... : ... .. . ... : ... .. . ... : ... .. . ...
ROW 22 : ... .. . ... : F-4 00 8 ... : ... .. . ... : ... .. . ... : ... .. . ... : ... .. . ... : ... .. . ... : ... .. . ...
ROW 23 : ... .. . ... : D-4 00 8 ... : ... .. . ... : ... .. . ... : ... .. . ... : ... .. . ... : ... .. . ... : ... .. . ...
ROW 24 : ... .. . ... : A-4 00 8 ... : ... .. . ... : ... .. . ... : ... .. . ... : D-2 03 6 070 : ... .. . ... : ... .. . ...
ROW 25 : ... .. . ... : F-4 00 8 ... : ... .. . ... : ... .. . ... : ... .. . ... : ... .. . ... : ... .. . ... : ... .. . ...
ROW 26 : ... .. . ... : D-4 00 8 ... : ... .. . ... : ... .. . ... : ... .. . ... : ... .. . ... : ... .. . ... : ... .. . ...
ROW 27 : ... .. . ... : C-4 00 8 ... : ... .. . ... : ... .. . ... : ... .. . ... : ... .. . ... : ... .. . ... : ... .. . ...
ROW 28 : ... .. . ... : A-4 00 8 ... : ... .. . ... : ... .. . ... : ... .. . ... : D-2 03 6 070 : ... .. . ... : ... .. . ...
ROW 29 : ... .. . ... : F-4 00 8 ... : ... .. . ... : ... .. . ... : ... .. . ... : ... .. . ... : ... .. . ... : ... .. . ...
ROW 2a : ... .. . ... : D-4 00 8 ... : ... .. . ... : ... .. . ... : ... .. . ... : ... .. . ... : ... .. . ... : ... .. . ...
ROW 2b : ... .. . ... : C-4 00 8 ... : ... .. . ... : ... .. . ... : ... .. . ... : ... .. . ... : ... .. . ... : ... .. . ...
ROW 2c : ... .. . ... : A-4 00 8 ... : ... .. . ... : ... .. . ... : ... .. . ... : D-2 03 6 070 : ... .. . ... : ... .. . ...
ROW 2d : ... .. . ... : F-4 00 8 ... : ... .. . ... : ... .. . ... : ... .. . ... : ... .. . ... : ... .. . ... : ... .. . ...
ROW 2e : ... .. . ... : D-4 00 8 ... : ... .. . ... : ... .. . ... : ... .. . ... : ... .. . ... : ... .. . ... : ... .. . ...
ROW 2f : ... .. . ... : C-4 00 8 ... : ... .. . ... : ... .. . ... : ... .. . ... : ... .. . ... : ... .. . ... : ... .. . ...
ROW 30 : C-5 00 8 ... : --- .. . ... : ... .. . ... : ... .. . ... : ... .. . ... : C-2 03 6 070 : ... .. . ... : ... .. . ...
ROW 31 : ... .. . ... : A-4 00 8 ... : ... .. . ... : ... .. . ... : ... .. . ... : ... .. . ... : ... .. . ... : ... .. . ...
ROW 32 : ... .. . ... : F-4 00 8 ... : ... .. . ... : ... .. . ... : ... .. . ... : ... .. . ... : ... .. . ... : ... .. . ...
ROW 33 : ... .. . ... : D-4 00 8 ... : ... .. . ... : ... .. . ... : ... .. . ... : ... .. . ... : ... .. . ... : ... .. . ...
ROW 34 : ... .. . ... : A-4 00 8 ... : ... .. . ... : ... .. . ... : ... .. . ... : C-2 03 6 070 : ... .. . ... : ... .. . ...
ROW 35 : ... .. . ... : F-4 00 8 ... : ... .. . ... : ... .. . ... : ... .. . ... : ... .. . ... : ... .. . ... : ... .. . ...
ROW 36 : ... .. . ... : D-4 00 8 ... : ... .. . ... : ... .. . ... : ... .. . ... : ... .. . ... : ... .. . ... : ... .. . ...
ROW 37 : ... .. . ... : C-4 00 8 ... : ... .. . ... : ... .. . ... : ... .. . ... : ... .. . ... : ... .. . ... : ... .. . ...
ROW 38 : ... .. . ... : A-4 00 8 ... : ... .. . ... : ... .. . ... : ... .. . ... : C-2 03 6 070 : ... .. . ... : ... .. . ...
ROW 39 : ... .. . ... : F-4 00 8 ... : ... .. . ... : ... .. . ... : ... .. . ... : ... .. . ... : ... .. . ... : ... .. . ...
ROW 3a : ... .. . ... : D-4 00 8 ... : ... .. . ... : ... .. . ... : ... .. . ... : ... .. . ... : ... .. . ... : ... .. . ...
ROW 3b : ... .. . ... : C-4 00 8 ... : ... .. . ... : ... .. . ... : ... .. . ... : ... .. . ... : ... .. . ... : ... .. . ...
ROW 3c : ... .. . ... : A-4 00 8 ... : ... .. . ... : ... .. . ... : ... .. . ... : C-2 03 6 070 : ... .. . ... : ... .. . ...
ROW 3d : ... .. . ... : F-4 00 8 ... : ... .. . ... : ... .. . ... : ... .. . ... : ... .. . ... : ... .. . ... : ... .. . ...
ROW 3e : ... .. . ... : D-4 00 8 ... : ... .. . ... : ... .. . ... : ... .. . ... : ... .. . ... : ... .. . ... : ... .. . ...
ROW 3f : ... .. . ... : C-4 00 8 ... : ... .. . ... : ... .. . ... : ... .. . ... : ... .. . ... : ... .. . ... : ... .. . ...
PATTERN 1b
ROW 00 : B-4 00 8 ... : --- .. . ... : ... .. . ... : ... .. . ... : ... .. . ... : B-1 03 6 060 : ... .. . ... : ... .. . ...
ROW 01 : ... .. . ... : F-4 00 8 ... : ... .. . ... : ... .. . ... : ... .. . ... : ... .. . ... : ... .. . ... : ... .. . ...
ROW 02 : ... .. . ... : D-4 00 8 ... : ... .. . ... : ... .. . ... : ... .. . ... : ... .. . ... : ... .. . ... : ... .. . ...
ROW 03 : ... .. . ... : B-3 00 8 ... : ... .. . ... : ... .. . ... : ... .. . ... : ... .. . ... : ... .. . ... : ... .. . ...
ROW 04 : ... .. . ... : A-4 00 8 ... : ... .. . ... : ... .. . ... : ... .. . ... : B-1 03 6 060 : ... .. . ... : ... .. . ...
ROW 05 : ... .. . ... : F-4 00 8 ... : ... .. . ... : ... .. . ... : ... .. . ... : ... .. . ... : ... .. . ... : ... .. . ...
ROW 06 : ... .. . ... : D-4 00 8 ... : ... .. . ... : ... .. . ... : ... .. . ... : ... .. . ... : ... .. . ... : ... .. . ...
ROW 07 : ... .. . ... : B-3 00 8 ... : ... .. . ... : ... .. . ... : ... .. . ... : ... .. . ... : ... .. . ... : ... .. . ...
ROW 08 : ... .. . ... : A-4 00 8 ... : ... .. . ... : ... .. . ... : ... .. . ... : B-1 03 6 060 : ... .. . ... : ... .. . ...
ROW 09 : ... .. . ... : F-4 00 8 ... : ... .. . ... : ... .. . ... : ... .. . ... : ... .. . ... : ... .. . ... : ... .. . ...
ROW 0a : ... .. . ... : D-4 00 8 ... : ... .. . ... : ... .. . ... : ... .. . ... : ... .. . ... : ... .. . ... : ... .. . ...
ROW 0b : ... .. . ... : B-3 00 8 ... : ... .. . ... : ... .. . ... : ... .. . ... : ... .. . ... : ... .. . ... : ... .. . ...
ROW 0c : ... .. . ... : A-4 00 8 ... : ... .. . ... : ... .. . ... : ... .. . ... : B-1 03 6 060 : ... .. . ... : ... .. . ...
ROW 0d : ... .. . ... : F-4 00 8 ... : ... .. . ... : ... .. . ... : ... .. . ... : ... .. . ... : ... .. . ... : ... .. . ...
ROW 0e : ... .. . ... : D-4 00 8 ... : ... .. . ... : ... .. . ... : ... .. . ... : ... .. . ... : ... .. . ... : ... .. . ...
ROW 0f : ... .. . ... : B-3 00 8 ... : ... .. . ... : ... .. . ... : ... .. . ... : ... .. . ... : ... .. . ... : ... .. . ...
ROW 10 : A#4 00 8 ... : --- .. . ... : ... .. . ... : ... .. . ... : ... .. . ... : A#1 03 6 070 : ... .. . ... : ... .. . ...
ROW 11 : F-4 00 8 ... : ... .. . ... : ... .. . ... : ... .. . ... : ... .. . ... : ... .. . ... : ... .. . ... : ... .. . ...
ROW 12 : D-4 00 8 ... : ... .. . ... : ... .. . ... : ... .. . ... : ... .. . ... : ... .. . ... : ... .. . ... : ... .. . ...
ROW 13 : C-4 00 8 ... : ... .. . ... : ... .. . ... : ... .. . ... : ... .. . ... : ... .. . ... : ... .. . ... : ... .. . ...
ROW 14 : A#4 00 8 ... : ... .. . ... : ... .. . ... : ... .. . ... : ... .. . ... : A#1 03 6 070 : ... .. . ... : ... .. . ...
ROW 15 : F-4 00 8 ... : ... .. . ... : ... .. . ... : ... .. . ... : ... .. . ... : ... .. . ... : ... .. . ... : ... .. . ...
ROW 16 : D-4 00 8 ... : ... .. . ... : ... .. . ... : ... .. . ... : ... .. . ... : ... .. . ... : ... .. . ... : ... .. . ...
ROW 17 : C-4 00 8 ... : ... .. . ... : ... .. . ... : ... .. . ... : ... .. . ... : ... .. . ... : ... .. . ... : ... .. . ...
ROW 18 : C-5 00 8 ... : ... .. . ... : ... .. . ... : ... .. . ... : ... .. . ... : C-2 03 6 070 : ... .. . ... : ... .. . ...
ROW 19 : G-4 00 8 ... : ... .. . ... : ... .. . ... : ... .. . ... : ... .. . ... : ... .. . ... : ... .. . ... : ... .. . ...
ROW 1a : E-4 00 8 ... : ... .. . ... : ... .. . ... : ... .. . ... : ... .. . ... : ... .. . ... : ... .. . ... : ... .. . ...
ROW 1b : D-4 00 8 ... : ... .. . ... : ... .. . ... : ... .. . ... : ... .. . ... : ... .. . ... : ... .. . ... : ... .. . ...
ROW 1c : C-5 00 8 ... : ... .. . ... : ... .. . ... : ... .. . ... : ... .. . ... : C-2 03 6 070 : ... .. . ... : ... .. . ...
ROW 1d : G-4 00 8 ... : ... .. . ... : ... .. . ... : ... .. . ... : ... .. . ... : ... .. . ... : ... .. . ... : ... .. . ...
ROW 1e : E-4 00 8 ... : ... .. . ... : ... .. . ... : ... .. . ... : ... .. . ... : ... .. . ... : ... .. . ... : ... .. . ...
ROW 1f : D-4 00 8 ... : ... .. . ... : ... .. . ... : ... .. . ... : ... .. . ... : ... .. . ... : ... .. . ... : ... .. . ...
ROW 20 : D-5 00 8 ... : ... .. . ... : ... .. . ... : ... .. . ... : ... .. . ... : D-2 03 6 070 : ... .. . ... : ... .. . ...
ROW 21 : ... .. . ... : A-4 00 8 ... : ... .. . ... : ... .. . ... : ... .. . ... : ... .. . ... : ... .. . ... : ... .. . ...
ROW 22 : ... .. . ... : F-4 00 8 ... : ... .. . ... : ... .. . ... : ... .. . ... : ... .. . ... : ... .. . ... : ... .. . ...
ROW 23 : ... .. . ... : D-4 00 8 ... : ... .. . ... : ... .. . ... : ... .. . ... : ... .. . ... : ... .. . ... : ... .. . ...
ROW 24 : ... .. . ... : A-4 00 8 ... : ... .. . ... : ... .. . ... : ... .. . ... : D-2 03 6 070 : ... .. . ... : ... .. . ...
ROW 25 : ... .. . ... : F-4 00 8 ... : ... .. . ... : ... .. . ... : ... .. . ... : ... .. . ... : ... .. . ... : ... .. . ...
ROW 26 : ... .. . ... : D-4 00 8 ... : ... .. . ... : ... .. . ... : ... .. . ... : ... .. . ... : ... .. . ... : ... .. . ...
ROW 27 : ... .. . ... : C-4 00 8 ... : ... .. . ... : ... .. . ... : ... .. . ... : ... .. . ... : ... .. . ... : ... .. . ...
ROW 28 : ... .. . ... : A-4 00 8 ... : ... .. . ... : ... .. . ... : ... .. . ... : D-2 03 6 070 : ... .. . ... : ... .. . ...
ROW 29 : ... .. . ... : F-4 00 8 ... : ... .. . ... : ... .. . ... : ... .. . ... : ... .. . ... : ... .. . ... : ... .. . ...
ROW 2a : ... .. . ... : D-4 00 8 ... : ... .. . ... : ... .. . ... : ... .. . ... : ... .. . ... : ... .. . ... : ... .. . ...
ROW 2b : ... .. . ... : C-4 00 8 ... : ... .. . ... : ... .. . ... : ... .. . ... : ... .. . ... : ... .. . ... : ... .. . ...
ROW 2c : ... .. . ... : A-4 00 8 ... : ... .. . ... : ... .. . ... : ... .. . ... : D-2 03 6 070 : ... .. . ... : ... .. . ...
ROW 2d : ... .. . ... : F-4 00 8 ... : ... .. . ... : ... .. . ... : ... .. . ... : ... .. . ... : ... .. . ... : ... .. . ...
ROW 2e : ... .. . ... : D-4 00 8 ... : ... .. . ... : ... .. . ... : ... .. . ... : ... .. . ... : ... .. . ... : ... .. . ...
ROW 2f : ... .. . ... : C-4 00 8 ... : ... .. . ... : ... .. . ... : ... .. . ... : ... .. . ... : ... .. . ... : ... .. . ...
ROW 30 : C-5 00 8 ... : --- .. . ... : ... .. . ... : ... .. . ... : ... .. . ... : C-2 03 6 070 : ... .. . ... : ... .. . ...
ROW 31 : ... .. . ... : A-4 00 8 ... : ... .. . ... : ... .. . ... : ... .. . ... : ... .. . ... : ... .. . ... : ... .. . ...
ROW 32 : ... .. . ... : F-4 00 8 ... : ... .. . ... : ... .. . ... : ... .. . ... : ... .. . ... : ... .. . ... : ... .. . ...
ROW 33 : ... .. . ... : D-4 00 8 ... : ... .. . ... : ... .. . ... : ... .. . ... : ... .. . ... : ... .. . ... : ... .. . ...
ROW 34 : ... .. . ... : A-4 00 8 ... : ... .. . ... : ... .. . ... : ... .. . ... : C-2 03 6 070 : ... .. . ... : ... .. . ...
ROW 35 : ... .. . ... : F-4 00 8 ... : ... .. . ... : ... .. . ... : ... .. . ... : ... .. . ... : ... .. . ... : ... .. . ...
ROW 36 : ... .. . ... : D-4 00 8 ... : ... .. . ... : ... .. . ... : ... .. . ... : ... .. . ... : ... .. . ... : ... .. . ...
ROW 37 : ... .. . ... : C-4 00 8 ... : ... .. . ... : ... .. . ... : ... .. . ... : ... .. . ... : ... .. . ... : ... .. . ...
ROW 38 : ... .. . ... : A-4 00 8 ... : ... .. . ... : ... .. . ... : ... .. . ... : C-2 03 6 070 : ... .. . ... : ... .. . ...
ROW 39 : ... .. . ... : F-4 00 8 ... : ... .. . ... : ... .. . ... : ... .. . ... : ... .. . ... : ... .. . ... : ... .. . ...
ROW 3a : ... .. . ... : D-4 00 8 ... : ... .. . ... : ... .. . ... : ... .. . ... : ... .. . ... : ... .. . ... : ... .. . ...
ROW 3b : ... .. . ... : C-4 00 8 ... : ... .. . ... : ... .. . ... : ... .. . ... : ... .. . ... : ... .. . ... : ... .. . ...
ROW 3c : ... .. . ... : A-4 00 8 ... : ... .. . ... : ... .. . ... : ... .. . ... : C-2 03 6 070 : ... .. . ... : ... .. . ...
ROW 3d : ... .. . ... : F-4 00 8 ... : ... .. . ... : ... .. . ... : ... .. . ... : ... .. . ... : ... .. . ... : ... .. . ...
ROW 3e : ... .. . ... : D-4 00 8 ... : ... .. . ... : ... .. . ... : ... .. . ... : ... .. . ... : ... .. . ... : ... .. . ...
ROW 3f : ... .. . ... : C-4 00 8 ... : ... .. . ... : ... .. . ... : ... .. . ... : ... .. . ... : ... .. . ... : ... .. . ...
PATTERN 1c
ROW 00 : B-4 00 8 ... : --- .. . ... : ... .. . ... : ... .. . ... : ... .. . ... : B-1 03 6 060 : ... .. . ... : ... .. . ...
ROW 01 : ... .. . ... : F-4 00 8 ... : ... .. . ... : ... .. . ... : ... .. . ... : ... .. . ... : ... .. . ... : ... .. . ...
ROW 02 : ... .. . ... : D-4 00 8 ... : ... .. . ... : ... .. . ... : ... .. . ... : ... .. . ... : ... .. . ... : ... .. . ...
ROW 03 : ... .. . ... : B-3 00 8 ... : ... .. . ... : ... .. . ... : ... .. . ... : ... .. . ... : ... .. . ... : ... .. . ...
ROW 04 : ... .. . ... : F-4 00 8 ... : ... .. . ... : ... .. . ... : ... .. . ... : B-1 03 6 060 : ... .. . ... : ... .. . ...
ROW 05 : ... .. . ... : D-4 00 8 ... : ... .. . ... : ... .. . ... : ... .. . ... : ... .. . ... : ... .. . ... : ... .. . ...
ROW 06 : ... .. . ... : B-3 00 8 ... : ... .. . ... : ... .. . ... : ... .. . ... : ... .. . ... : ... .. . ... : ... .. . ...
ROW 07 : ... .. . ... : A-3 00 8 ... : ... .. . ... : ... .. . ... : ... .. . ... : ... .. . ... : ... .. . ... : ... .. . ...
ROW 08 : ... .. . ... : F-4 00 8 ... : ... .. . ... : ... .. . ... : ... .. . ... : B-1 03 6 060 : ... .. . ... : ... .. . ...
ROW 09 : ... .. . ... : D-4 00 8 ... : ... .. . ... : ... .. . ... : ... .. . ... : ... .. . ... : ... .. . ... : ... .. . ...
ROW 0a : ... .. . ... : B-3 00 8 ... : ... .. . ... : ... .. . ... : ... .. . ... : ... .. . ... : ... .. . ... : ... .. . ...
ROW 0b : ... .. . ... : A-3 00 8 ... : ... .. . ... : ... .. . ... : ... .. . ... : ... .. . ... : ... .. . ... : ... .. . ...
ROW 0c : ... .. . ... : F-4 00 8 ... : ... .. . ... : ... .. . ... : ... .. . ... : B-1 03 6 060 : ... .. . ... : ... .. . ...
ROW 0d : ... .. . ... : D-4 00 8 ... : ... .. . ... : ... .. . ... : ... .. . ... : ... .. . ... : ... .. . ... : ... .. . ...
ROW 0e : ... .. . ... : B-3 00 8 ... : ... .. . ... : ... .. . ... : ... .. . ... : ... .. . ... : ... .. . ... : ... .. . ...
ROW 0f : ... .. . ... : A-3 00 8 ... : ... .. . ... : ... .. . ... : ... .. . ... : ... .. . ... : ... .. . ... : ... .. . ...
ROW 10 : C-5 00 8 ... : --- .. . ... : ... .. . ... : ... .. . ... : ... .. . ... : C-2 03 6 070 : ... .. . ... : ... .. . ...
ROW 11 : G-4 00 8 ... : ... .. . ... : ... .. . ... : ... .. . ... : ... .. . ... : ... .. . ... : ... .. . ... : ... .. . ...
ROW 12 : E-4 00 8 ... : ... .. . ... : ... .. . ... : ... .. . ... : ... .. . ... : ... .. . ... : ... .. . ... : ... .. . ...
ROW 13 : D-4 00 8 ... : ... .. . ... : ... .. . ... : ... .. . ... : ... .. . ... : ... .. . ... : ... .. . ... : ... .. . ...
ROW 14 : C-5 00 8 ... : ... .. . ... : ... .. . ... : ... .. . ... : ... .. . ... : C-2 03 6 070 : ... .. . ... : ... .. . ...
ROW 15 : G-4 00 8 ... : ... .. . ... : ... .. . ... : ... .. . ... : ... .. . ... : ... .. . ... : ... .. . ... : ... .. . ...
ROW 16 : E-4 00 8 ... : ... .. . ... : ... .. . ... : ... .. . ... : ... .. . ... : ... .. . ... : ... .. . ... : ... .. . ...
ROW 17 : D-4 00 8 ... : ... .. . ... : ... .. . ... : ... .. . ... : ... .. . ... : ... .. . ... : ... .. . ... : ... .. . ...
ROW 18 : --- .. . ... : ... .. . ... : ... .. . ... : ... .. . ... : ... .. . ... : C-2 03 6 070 : ... .. . ... : ... .. . ...
ROW 19 : ... .. . ... : ... .. . ... : ... .. . ... : ... .. . ... : ... .. . ... : ... .. . ... : ... .. . ... : ... .. . ...
ROW 1a : ... .. . ... : ... .. . ... : ... .. . ... : ... .. . ... : ... .. . ... : ... .. . ... : ... .. . ... : ... .. . ...
ROW 1b : ... .. . ... : ... .. . ... : ... .. . ... : ... .. . ... : ... .. . ... : ... .. . ... : ... .. . ... : ... .. . ...
ROW 1c : ... .. . ... : ... .. . ... : ... .. . ... : ... .. . ... : ... .. . ... : --- .. . ... : ... .. . ... : ... .. . ...
ROW 1d : ... .. . ... : ... .. . ... : ... .. . ... : ... .. . ... : ... .. . ... : ... .. . ... : ... .. . ... : ... .. . ...
ROW 1e : ... .. . ... : ... .. . ... : ... .. . ... : ... .. . ... : ... .. . ... : ... .. . ... : ... .. . ... : ... .. . ...
ROW 1f : ... .. . ... : ... .. . ... : ... .. . ... : ... .. . ... : ... .. . ... : ... .. . ... : ... .. . ... : ... .. . ...
ROW 20 : D-5 00 8 ... : ... .. . ... : ... .. . ... : ... .. . ... : ... .. . ... : D-2 03 6 070 : ... .. . ... : ... .. . ...
ROW 21 : ... .. . ... : A-4 00 8 ... : ... .. . ... : ... .. . ... : ... .. . ... : ... .. . ... : ... .. . ... : ... .. . ...
ROW 22 : ... .. . ... : F-4 00 8 ... : ... .. . ... : ... .. . ... : ... .. . ... : ... .. . ... : ... .. . ... : ... .. . ...
ROW 23 : ... .. . ... : D-4 00 8 ... : ... .. . ... : ... .. . ... : ... .. . ... : ... .. . ... : ... .. . ... : ... .. . ...
ROW 24 : ... .. . ... : A-4 00 8 ... : ... .. . ... : ... .. . ... : ... .. . ... : D-2 03 6 070 : ... .. . ... : ... .. . ...
ROW 25 : ... .. . ... : F-4 00 8 ... : ... .. . ... : ... .. . ... : ... .. . ... : ... .. . ... : ... .. . ... : ... .. . ...
ROW 26 : ... .. . ... : D-4 00 8 ... : ... .. . ... : ... .. . ... : ... .. . ... : ... .. . ... : ... .. . ... : ... .. . ...
ROW 27 : ... .. . ... : C-4 00 8 ... : ... .. . ... : ... .. . ... : ... .. . ... : ... .. . ... : ... .. . ... : ... .. . ...
ROW 28 : ... .. . ... : A-4 00 8 ... : ... .. . ... : ... .. . ... : ... .. . ... : D-2 03 6 070 : ... .. . ... : ... .. . ...
ROW 29 : ... .. . ... : F-4 00 8 ... : ... .. . ... : ... .. . ... : ... .. . ... : ... .. . ... : ... .. . ... : ... .. . ...
ROW 2a : ... .. . ... : D-4 00 8 ... : ... .. . ... : ... .. . ... : ... .. . ... : ... .. . ... : ... .. . ... : ... .. . ...
ROW 2b : ... .. . ... : C-4 00 8 ... : ... .. . ... : ... .. . ... : ... .. . ... : ... .. . ... : ... .. . ... : ... .. . ...
ROW 2c : ... .. . ... : A-4 00 8 ... : ... .. . ... : ... .. . ... : ... .. . ... : D-2 03 6 070 : ... .. . ... : ... .. . ...
ROW 2d : ... .. . ... : F-4 00 8 ... : ... .. . ... : ... .. . ... : ... .. . ... : ... .. . ... : ... .. . ... : ... .. . ...
ROW 2e : ... .. . ... : D-4 00 8 ... : ... .. . ... : ... .. . ... : ... .. . ... : ... .. . ... : ... .. . ... : ... .. . ...
ROW 2f : ... .. . ... : C-4 00 8 ... : ... .. . ... : ... .. . ... : ... .. . ... : ... .. . ... : ... .. . ... : ... .. . ...
ROW 30 : C-5 00 8 ... : --- .. . ... : ... .. . ... : ... .. . ... : ... .. . ... : C-2 03 6 070 : ... .. . ... : ... .. . ...
ROW 31 : ... .. . ... : A-4 00 8 ... : ... .. . ... : ... .. . ... : ... .. . ... : ... .. . ... : ... .. . ... : ... .. . ...
ROW 32 : ... .. . ... : F-4 00 8 ... : ... .. . ... : ... .. . ... : ... .. . ... : ... .. . ... : ... .. . ... : ... .. . ...
ROW 33 : ... .. . ... : D-4 00 8 ... : ... .. . ... : ... .. . ... : ... .. . ... : ... .. . ... : ... .. . ... : ... .. . ...
ROW 34 : ... .. . ... : A-4 00 8 ... : ... .. . ... : ... .. . ... : ... .. . ... : C-2 03 6 070 : ... .. . ... : ... .. . ...
ROW 35 : ... .. . ... : F-4 00 8 ... : ... .. . ... : ... .. . ... : ... .. . ... : ... .. . ... : ... .. . ... : ... .. . ...
ROW 36 : ... .. . ... : D-4 00 8 ... : ... .. . ... : ... .. . ... : ... .. . ... : ... .. . ... : ... .. . ... : ... .. . ...
ROW 37 : ... .. . ... : C-4 00 8 ... : ... .. . ... : ... .. . ... : ... .. . ... : ... .. . ... : ... .. . ... : ... .. . ...
ROW 38 : ... .. . ... : A-4 00 8 ... : ... .. . ... : ... .. . ... : ... .. . ... : C-2 03 6 070 : ... .. . ... : ... .. . ...
ROW 39 : ... .. . ... : F-4 00 8 ... : ... .. . ... : ... .. . ... : ... .. . ... : ... .. . ... : ... .. . ... : ... .. . ...
ROW 3a : ... .. . ... : D-4 00 8 ... : ... .. . ... : ... .. . ... : ... .. . ... : ... .. . ... : ... .. . ... : ... .. . ...
ROW 3b : ... .. . ... : C-4 00 8 ... : ... .. . ... : ... .. . ... : ... .. . ... : ... .. . ... : ... .. . ... : ... .. . ...
ROW 3c : ... .. . ... : A-4 00 8 ... : ... .. . ... : ... .. . ... : ... .. . ... : C-2 03 6 070 : ... .. . ... : ... .. . ...
ROW 3d : ... .. . ... : F-4 00 8 ... : ... .. . ... : ... .. . ... : ... .. . ... : ... .. . ... : ... .. . ... : ... .. . ...
ROW 3e : ... .. . ... : D-4 00 8 ... : ... .. . ... : ... .. . ... : ... .. . ... : ... .. . ... : ... .. . ... : ... .. . ...
ROW 3f : ... .. . ... : C-4 00 8 ... : ... .. . ... : ... .. . ... : ... .. . ... : ... .. . ... : ... .. . ... : ... .. . ...
PATTERN 1d
ROW 00 : B-4 00 8 ... : --- .. . ... : ... .. . ... : ... .. . ... : ... .. . ... : B-1 03 6 060 : ... .. . ... : ... .. . ...
ROW 01 : ... .. . ... : F-4 00 8 ... : ... .. . ... : ... .. . ... : ... .. . ... : ... .. . ... : ... .. . ... : ... .. . ...
ROW 02 : ... .. . ... : D-4 00 8 ... : ... .. . ... : ... .. . ... : ... .. . ... : ... .. . ... : ... .. . ... : ... .. . ...
ROW 03 : ... .. . ... : B-3 00 8 ... : ... .. . ... : ... .. . ... : ... .. . ... : ... .. . ... : ... .. . ... : ... .. . ...
ROW 04 : ... .. . ... : A-4 00 8 ... : ... .. . ... : ... .. . ... : ... .. . ... : B-1 03 6 060 : ... .. . ... : ... .. . ...
ROW 05 : ... .. . ... : F-4 00 8 ... : ... .. . ... : ... .. . ... : ... .. . ... : ... .. . ... : ... .. . ... : ... .. . ...
ROW 06 : ... .. . ... : D-4 00 8 ... : ... .. . ... : ... .. . ... : ... .. . ... : ... .. . ... : ... .. . ... : ... .. . ...
ROW 07 : ... .. . ... : B-3 00 8 ... : ... .. . ... : ... .. . ... : ... .. . ... : ... .. . ... : ... .. . ... : ... .. . ...
ROW 08 : ... .. . ... : A-4 00 8 ... : ... .. . ... : ... .. . ... : ... .. . ... : B-1 03 6 060 : ... .. . ... : ... .. . ...
ROW 09 : ... .. . ... : F-4 00 8 ... : ... .. . ... : ... .. . ... : ... .. . ... : ... .. . ... : ... .. . ... : ... .. . ...
ROW 0a : ... .. . ... : D-4 00 8 ... : ... .. . ... : ... .. . ... : ... .. . ... : ... .. . ... : ... .. . ... : ... .. . ...
ROW 0b : ... .. . ... : B-3 00 8 ... : ... .. . ... : ... .. . ... : ... .. . ... : ... .. . ... : ... .. . ... : ... .. . ...
ROW 0c : ... .. . ... : A-4 00 8 ... : ... .. . ... : ... .. . ... : ... .. . ... : B-1 03 6 060 : ... .. . ... : ... .. . ...
ROW 0d : ... .. . ... : F-4 00 8 ... : ... .. . ... : ... .. . ... : ... .. . ... : ... .. . ... : ... .. . ... : ... .. . ...
ROW 0e : ... .. . ... : D-4 00 8 ... : ... .. . ... : ... .. . ... : ... .. . ... : ... .. . ... : ... .. . ... : ... .. . ...
ROW 0f : ... .. . ... : B-3 00 8 ... : ... .. . ... : ... .. . ... : ... .. . ... : ... .. . ... : ... .. . ... : ... .. . ...
ROW 10 : A#4 00 8 ... : --- .. . ... : ... .. . ... : ... .. . ... : ... .. . ... : A#1 03 6 070 : ... .. . ... : ... .. . ...
ROW 11 : F-4 00 8 ... : ... .. . ... : ... .. . ... : ... .. . ... : ... .. . ... : ... .. . ... : ... .. . ... : ... .. . ...
ROW 12 : D-4 00 8 ... : ... .. . ... : ... .. . ... : ... .. . ... : ... .. . ... : ... .. . ... : ... .. . ... : ... .. . ...
ROW 13 : C-4 00 8 ... : ... .. . ... : ... .. . ... : ... .. . ... : ... .. . ... : ... .. . ... : ... .. . ... : ... .. . ...
ROW 14 : A#4 00 8 ... : ... .. . ... : ... .. . ... : ... .. . ... : ... .. . ... : A#1 03 6 070 : ... .. . ... : ... .. . ...
ROW 15 : F-4 00 8 ... : ... .. . ... : ... .. . ... : ... .. . ... : ... .. . ... : ... .. . ... : ... .. . ... : ... .. . ...
ROW 16 : D-4 00 8 ... : ... .. . ... : ... .. . ... : ... .. . ... : ... .. . ... : ... .. . ... : ... .. . ... : ... .. . ...
ROW 17 : C-4 00 8 ... : ... .. . ... : ... .. . ... : ... .. . ... : ... .. . ... : ... .. . ... : ... .. . ... : ... .. . ...
ROW 18 : C-5 00 8 ... : ... .. . ... : ... .. . ... : ... .. . ... : ... .. . ... : C-2 03 6 070 : ... .. . ... : ... .. . ...
ROW 19 : G-4 00 8 ... : ... .. . ... : ... .. . ... : ... .. . ... : ... .. . ... : ... .. . ... : ... .. . ... : ... .. . ...
ROW 1a : E-4 00 8 ... : ... .. . ... : ... .. . ... : ... .. . ... : ... .. . ... : ... .. . ... : ... .. . ... : ... .. . ...
ROW 1b : D-4 00 8 ... : ... .. . ... : ... .. . ... : ... .. . ... : ... .. . ... : ... .. . ... : ... .. . ... : ... .. . ...
ROW 1c : C-5 00 8 ... : ... .. . ... : ... .. . ... : ... .. . ... : ... .. . ... : C-2 03 6 070 : ... .. . ... : ... .. . ...
ROW 1d : G-4 00 8 ... : ... .. . ... : ... .. . ... : ... .. . ... : ... .. . ... : ... .. . ... : ... .. . ... : ... .. . ...
ROW 1e : E-4 00 8 ... : ... .. . ... : ... .. . ... : ... .. . ... : ... .. . ... : ... .. . ... : ... .. . ... : ... .. . ...
ROW 1f : D-4 00 8 ... : ... .. . ... : ... .. . ... : ... .. . ... : ... .. . ... : ... .. . ... : ... .. . ... : ... .. . ...
ROW 20 : D-5 00 8 ... : ... .. . ... : ... .. . ... : ... .. . ... : ... .. . ... : D-2 03 6 070 : ... .. . ... : ... .. . ...
ROW 21 : ... .. . ... : A-4 00 8 ... : ... .. . ... : ... .. . ... : ... .. . ... : ... .. . ... : ... .. . ... : ... .. . ...
ROW 22 : ... .. . ... : F-4 00 8 ... : ... .. . ... : ... .. . ... : ... .. . ... : ... .. . ... : ... .. . ... : ... .. . ...
ROW 23 : ... .. . ... : D-4 00 8 ... : ... .. . ... : ... .. . ... : ... .. . ... : D-2 03 6 ... : ... .. . ... : ... .. . ...
ROW 24 : ... .. . ... : A-4 00 8 ... : ... .. . ... : ... .. . ... : ... .. . ... : A-2 03 6 ... : ... .. . ... : ... .. . ...
ROW 25 : ... .. . ... : F-4 00 8 ... : ... .. . ... : ... .. . ... : ... .. . ... : ... .. . ... : ... .. . ... : ... .. . ...
ROW 26 : ... .. . ... : D-4 00 8 ... : ... .. . ... : ... .. . ... : ... .. . ... : D-2 03 6 ... : ... .. . ... : ... .. . ...
ROW 27 : ... .. . ... : C-4 00 8 ... : ... .. . ... : ... .. . ... : ... .. . ... : ... .. . ... : ... .. . ... : ... .. . ...
ROW 28 : ... .. . ... : A-4 00 8 ... : ... .. . ... : ... .. . ... : ... .. . ... : D-2 03 6 070 : ... .. . ... : ... .. . ...
ROW 29 : ... .. . ... : F-4 00 8 ... : ... .. . ... : ... .. . ... : ... .. . ... : ... .. . ... : ... .. . ... : ... .. . ...
ROW 2a : ... .. . ... : D-4 00 8 ... : ... .. . ... : ... .. . ... : ... .. . ... : ... .. . ... : ... .. . ... : ... .. . ...
ROW 2b : ... .. . ... : C-4 00 8 ... : ... .. . ... : ... .. . ... : ... .. . ... : ... .. . ... : ... .. . ... : ... .. . ...
ROW 2c : ... .. . ... : A-4 00 8 ... : ... .. . ... : ... .. . ... : ... .. . ... : D-2 03 6 070 : ... .. . ... : ... .. . ...
ROW 2d : ... .. . ... : F-4 00 8 ... : ... .. . ... : ... .. . ... : ... .. . ... : ... .. . ... : ... .. . ... : ... .. . ...
ROW 2e : ... .. . ... : D-4 00 8 ... : ... .. . ... : ... .. . ... : ... .. . ... : ... .. . ... : ... .. . ... : ... .. . ...
ROW 2f : ... .. . ... : C-4 00 8 ... : ... .. . ... : ... .. . ... : ... .. . ... : ... .. . ... : ... .. . ... : ... .. . ...
ROW 30 : C-5 00 8 ... : --- .. . ... : ... .. . ... : ... .. . ... : ... .. . ... : C-2 03 6 070 : ... .. . ... : ... .. . ...
ROW 31 : ... .. . ... : A-4 00 8 ... : ... .. . ... : ... .. . ... : ... .. . ... : ... .. . ... : ... .. . ... : ... .. . ...
ROW 32 : ... .. . ... : F-4 00 8 ... : ... .. . ... : ... .. . ... : ... .. . ... : ... .. . ... : ... .. . ... : ... .. . ...
ROW 33 : ... .. . ... : D-4 00 8 ... : ... .. . ... : ... .. . ... : ... .. . ... : C-2 03 6 ... : ... .. . ... : ... .. . ...
ROW 34 : ... .. . ... : A-4 00 8 ... : ... .. . ... : ... .. . ... : ... .. . ... : G-2 03 6 ... : ... .. . ... : ... .. . ...
ROW 35 : ... .. . ... : F-4 00 8 ... : ... .. . ... : ... .. . ... : ... .. . ... : ... .. . ... : ... .. . ... : ... .. . ...
ROW 36 : ... .. . ... : D-4 00 8 ... : ... .. . ... : ... .. . ... : ... .. . ... : C-2 03 6 ... : ... .. . ... : ... .. . ...
ROW 37 : ... .. . ... : C-4 00 8 ... : ... .. . ... : ... .. . ... : ... .. . ... : ... .. . ... : ... .. . ... : ... .. . ...
ROW 38 : ... .. . ... : A-4 00 8 ... : ... .. . ... : ... .. . ... : ... .. . ... : C-2 03 6 070 : ... .. . ... : ... .. . ...
ROW 39 : ... .. . ... : F-4 00 8 ... : ... .. . ... : ... .. . ... : ... .. . ... : ... .. . ... : ... .. . ... : ... .. . ...
ROW 3a : ... .. . ... : D-4 00 8 ... : ... .. . ... : ... .. . ... : ... .. . ... : ... .. . ... : ... .. . ... : ... .. . ...
ROW 3b : ... .. . ... : C-4 00 8 ... : ... .. . ... : ... .. . ... : ... .. . ... : ... .. . ... : ... .. . ... : ... .. . ...
ROW 3c : ... .. . ... : A-4 00 8 ... : ... .. . ... : ... .. . ... : ... .. . ... : C-2 03 6 070 : ... .. . ... : ... .. . ...
ROW 3d : ... .. . ... : F-4 00 8 ... : ... .. . ... : ... .. . ... : ... .. . ... : ... .. . ... : ... .. . ... : ... .. . ...
ROW 3e : ... .. . ... : D-4 00 8 ... : ... .. . ... : ... .. . ... : ... .. . ... : ... .. . ... : ... .. . ... : ... .. . ...
ROW 3f : ... .. . ... : C-4 00 8 ... : ... .. . ... : ... .. . ... : ... .. . ... : ... .. . ... : ... .. . ... : ... .. . ...
PATTERN 1e
ROW 00 : B-4 00 8 ... : --- .. . ... : ... .. . ... : ... .. . ... : ... .. . ... : B-1 03 6 060 : ... .. . ... : ... .. . ...
ROW 01 : ... .. . ... : F-4 00 8 ... : ... .. . ... : ... .. . ... : ... .. . ... : ... .. . ... : ... .. . ... : ... .. . ...
ROW 02 : ... .. . ... : D-4 00 8 ... : ... .. . ... : ... .. . ... : ... .. . ... : B-1 03 6 060 : ... .. . ... : ... .. . ...
ROW 03 : ... .. . ... : B-3 00 8 ... : ... .. . ... : ... .. . ... : ... .. . ... : ... .. . ... : ... .. . ... : ... .. . ...
ROW 04 : ... .. . ... : A-4 00 8 ... : ... .. . ... : ... .. . ... : ... .. . ... : B-1 03 6 060 : ... .. . ... : ... .. . ...
ROW 05 : ... .. . ... : F-4 00 8 ... : ... .. . ... : ... .. . ... : ... .. . ... : ... .. . ... : ... .. . ... : ... .. . ...
ROW 06 : ... .. . ... : D-4 00 8 ... : ... .. . ... : ... .. . ... : ... .. . ... : B-1 03 6 060 : ... .. . ... : ... .. . ...
ROW 07 : ... .. . ... : B-3 00 8 ... : ... .. . ... : ... .. . ... : ... .. . ... : ... .. . ... : ... .. . ... : ... .. . ...
ROW 08 : ... .. . ... : A-4 00 8 ... : ... .. . ... : ... .. . ... : ... .. . ... : B-1 03 6 060 : ... .. . ... : ... .. . ...
ROW 09 : ... .. . ... : F-4 00 8 ... : ... .. . ... : ... .. . ... : ... .. . ... : ... .. . ... : ... .. . ... : ... .. . ...
ROW 0a : ... .. . ... : D-4 00 8 ... : ... .. . ... : ... .. . ... : ... .. . ... : B-1 03 6 060 : ... .. . ... : ... .. . ...
ROW 0b : ... .. . ... : B-3 00 8 ... : ... .. . ... : ... .. . ... : ... .. . ... : ... .. . ... : ... .. . ... : ... .. . ...
ROW 0c : ... .. . ... : A-4 00 8 ... : ... .. . ... : ... .. . ... : ... .. . ... : B-1 03 6 060 : ... .. . ... : ... .. . ...
ROW 0d : ... .. . ... : F-4 00 8 ... : ... .. . ... : ... .. . ... : ... .. . ... : ... .. . ... : ... .. . ... : ... .. . ...
ROW 0e : ... .. . ... : D-4 00 8 ... : ... .. . ... : ... .. . ... : ... .. . ... : B-1 03 6 060 : ... .. . ... : ... .. . ...
ROW 0f : ... .. . ... : B-3 00 8 ... : ... .. . ... : ... .. . ... : ... .. . ... : ... .. . ... : ... .. . ... : ... .. . ...
ROW 10 : A#4 00 8 ... : --- .. . ... : ... .. . ... : ... .. . ... : ... .. . ... : A#1 03 6 070 : ... .. . ... : ... .. . ...
ROW 11 : F-4 00 8 ... : ... .. . ... : ... .. . ... : ... .. . ... : ... .. . ... : ... .. . ... : ... .. . ... : ... .. . ...
ROW 12 : D-4 00 8 ... : ... .. . ... : ... .. . ... : ... .. . ... : ... .. . ... : A#1 03 6 070 : ... .. . ... : ... .. . ...
ROW 13 : C-4 00 8 ... : ... .. . ... : ... .. . ... : ... .. . ... : ... .. . ... : ... .. . ... : ... .. . ... : ... .. . ...
ROW 14 : A#4 00 8 ... : ... .. . ... : ... .. . ... : ... .. . ... : ... .. . ... : A#1 03 6 070 : ... .. . ... : ... .. . ...
ROW 15 : F-4 00 8 ... : ... .. . ... : ... .. . ... : ... .. . ... : ... .. . ... : ... .. . ... : ... .. . ... : ... .. . ...
ROW 16 : D-4 00 8 ... : ... .. . ... : ... .. . ... : ... .. . ... : ... .. . ... : A#1 03 6 070 : ... .. . ... : ... .. . ...
ROW 17 : C-4 00 8 ... : ... .. . ... : ... .. . ... : ... .. . ... : ... .. . ... : ... .. . ... : ... .. . ... : ... .. . ...
ROW 18 : C-5 00 8 ... : ... .. . ... : ... .. . ... : ... .. . ... : ... .. . ... : C-2 03 6 070 : ... .. . ... : ... .. . ...
ROW 19 : G-4 00 8 ... : ... .. . ... : ... .. . ... : ... .. . ... : ... .. . ... : ... .. . ... : ... .. . ... : ... .. . ...
ROW 1a : E-4 00 8 ... : ... .. . ... : ... .. . ... : ... .. . ... : ... .. . ... : C-2 03 6 070 : ... .. . ... : ... .. . ...
ROW 1b : D-4 00 8 ... : ... .. . ... : ... .. . ... : ... .. . ... : ... .. . ... : ... .. . ... : ... .. . ... : ... .. . ...
ROW 1c : C-5 00 8 ... : ... .. . ... : ... .. . ... : ... .. . ... : ... .. . ... : C-2 03 6 070 : ... .. . ... : ... .. . ...
ROW 1d : G-4 00 8 ... : ... .. . ... : ... .. . ... : ... .. . ... : ... .. . ... : ... .. . ... : ... .. . ... : ... .. . ...
ROW 1e : E-4 00 8 ... : ... .. . ... : ... .. . ... : ... .. . ... : ... .. . ... : C-2 03 6 070 : ... .. . ... : ... .. . ...
ROW 1f : D-4 00 8 ... : ... .. . ... : ... .. . ... : ... .. . ... : ... .. . ... : ... .. . ... : ... .. . ... : ... .. . ...
ROW 20 : --- .. . ... : ... .. . ... : ... .. . ... : ... .. . ... : ... .. . ... : C-2 03 6 070 : ... .. . ... : ... .. . ...
ROW 21 : ... .. . ... : ... .. . ... : ... .. . ... : ... .. . ... : ... .. . ... : ... .. . ... : ... .. . ... : ... .. . ...
ROW 22 : ... .. . ... : ... .. . ... : ... .. . ... : ... .. . ... : ... .. . ... : ... .. . ... : ... .. . ... : ... .. . ...
ROW 23 : ... .. . ... : ... .. . ... : ... .. . ... : ... .. . ... : ... .. . ... : ... .. . ... : ... .. . ... : ... .. . ...
ROW 24 : ... .. . ... : ... .. . ... : ... .. . ... : ... .. . ... : ... .. . ... : ... .. . ... : ... .. . ... : ... .. . ...
ROW 25 : ... .. . ... : ... .. . ... : ... .. . ... : ... .. . ... : ... .. . ... : ... .. . ... : ... .. . ... : ... .. . ...
ROW 26 : ... .. . ... : ... .. . ... : ... .. . ... : ... .. . ... : ... .. . ... : ... .. . ... : ... .. . ... : ... .. . ...
ROW 27 : ... .. . ... : ... .. . ... : ... .. . ... : ... .. . ... : ... .. . ... : ... .. . ... : ... .. . ... : ... .. . ...
ROW 28 : ... .. . ... : ... .. . ... : ... .. . ... : ... .. . ... : ... .. . ... : ... .. . ... : ... .. . ... : ... .. . ...
ROW 29 : ... .. . ... : ... .. . ... : ... .. . ... : ... .. . ... : ... .. . ... : ... .. . ... : ... .. . ... : ... .. . ...
ROW 2a : ... .. . ... : ... .. . ... : ... .. . ... : ... .. . ... : ... .. . ... : ... .. . ... : ... .. . ... : ... .. . ...
ROW 2b : ... .. . ... : ... .. . ... : ... .. . ... : ... .. . ... : ... .. . ... : ... .. . ... : ... .. . ... : ... .. . ...
ROW 2c : ... .. . ... : ... .. . ... : ... .. . ... : ... .. . ... : ... .. . ... : --- .. . ... : ... .. . ... : ... .. . ...
ROW 2d : ... .. . ... : ... .. . ... : ... .. . ... : ... .. . ... : ... .. . ... : ... .. . ... : ... .. . ... : ... .. . ...
ROW 2e : ... .. . ... : ... .. . ... : ... .. . ... : ... .. . ... : ... .. . ... : ... .. . ... : ... .. . ... : ... .. . ...
ROW 2f : ... .. . ... : ... .. . ... : ... .. . ... : ... .. . ... : ... .. . ... : ... .. . ... : ... .. . ... : ... .. . ...
ROW 30 : ... .. . ... : ... .. . ... : ... .. . ... : ... .. . ... : ... .. . ... : ... .. . ... : ... .. . ... : ... .. . ...
ROW 31 : ... .. . ... : ... .. . ... : ... .. . ... : ... .. . ... : ... .. . ... : ... .. . ... : ... .. . ... : ... .. . ...
ROW 32 : ... .. . ... : ... .. . ... : ... .. . ... : ... .. . ... : ... .. . ... : ... .. . ... : ... .. . ... : ... .. . ...
ROW 33 : ... .. . ... : ... .. . ... : ... .. . ... : ... .. . ... : ... .. . ... : ... .. . ... : ... .. . ... : ... .. . ...
ROW 34 : ... .. . ... : ... .. . ... : ... .. . ... : ... .. . ... : ... .. . ... : ... .. . ... : ... .. . ... : ... .. . ...
ROW 35 : ... .. . ... : ... .. . ... : ... .. . ... : ... .. . ... : ... .. . ... : ... .. . ... : ... .. . ... : ... .. . ...
ROW 36 : D-5 00 8 ... : F-4 00 8 ... : ... .. . ... : ... .. . ... : ... .. . ... : ... .. . ... : ... .. . ... : ... .. . ...
ROW 37 : ... .. . ... : ... .. . ... : ... .. . ... : ... .. . ... : ... .. . ... : ... .. . ... : ... .. . ... : ... .. . ...
ROW 38 : D-5 00 8 ... : F-4 00 8 ... : ... .. . ... : ... .. . ... : ... .. . ... : ... .. . ... : ... .. . ... : ... .. . ...
ROW 39 : ... .. . ... : ... .. . ... : ... .. . ... : ... .. . ... : ... .. . ... : ... .. . ... : ... .. . ... : ... .. . ...
ROW 3a : D-5 00 8 ... : F-4 00 8 ... : ... .. . ... : ... .. . ... : ... .. . ... : ... .. . ... : ... .. . ... : ... .. . ...
ROW 3b : ... .. . ... : ... .. . ... : ... .. . ... : ... .. . ... : ... .. . ... : ... .. . ... : ... .. . ... : ... .. . ...
ROW 3c : F-5 00 8 ... : A-4 00 8 ... : ... .. . ... : ... .. . ... : ... .. . ... : ... .. . ... : ... .. . ... : ... .. . ...
ROW 3d : ... .. . ... : ... .. . ... : ... .. . ... : ... .. . ... : ... .. . ... : ... .. . ... : ... .. . ... : ... .. . ...
ROW 3e : D-5 00 8 ... : F-4 00 8 ... : ... .. . ... : ... .. . ... : ... .. . ... : ... .. . ... : ... .. . ... : ... .. . ...
ROW 3f : ... .. . ... : ... .. . ... : ... .. . ... : ... .. . ... : ... .. . ... : ... .. . ... : ... .. . ... : ... .. . ...
PATTERN 1f
ROW 00 : A-5 00 8 ... : C-5 00 8 ... : ... .. . ... : ... .. . ... : ... .. . ... : A#2 03 6 04B : ... .. . ... : ... .. . ...
ROW 01 : ... .. . ... : ... .. . ... : ... .. . ... : ... .. . ... : ... .. . ... : ... .. . ... : ... .. . ... : ... .. . ...
ROW 02 : ... .. . ... : ... .. . ... : ... .. . ... : ... .. . ... : ... .. . ... : ... .. . ... : ... .. . ... : ... .. . ...
ROW 03 : ... .. . ... : ... .. . ... : ... .. . ... : ... .. . ... : ... .. . ... : ... .. . ... : ... .. . ... : ... .. . ...
ROW 04 : A-5 00 8 ... : C-5 00 8 ... : ... .. . ... : ... .. . ... : ... .. . ... : ... .. . ... : ... .. . ... : ... .. . ...
ROW 05 : ... .. . ... : ... .. . ... : ... .. . ... : ... .. . ... : ... .. . ... : ... .. . ... : ... .. . ... : ... .. . ...
ROW 06 : ... .. . ... : ... .. . ... : ... .. . ... : ... .. . ... : ... .. . ... : ... .. . ... : ... .. . ... : ... .. . ...
ROW 07 : ... .. . ... : ... .. . ... : ... .. . ... : ... .. . ... : ... .. . ... : ... .. . ... : ... .. . ... : ... .. . ...
ROW 08 : A-5 00 8 ... : C-5 00 8 ... : ... .. . ... : ... .. . ... : ... .. . ... : ... .. . ... : ... .. . ... : ... .. . ...
ROW 09 : ... .. . ... : ... .. . ... : ... .. . ... : ... .. . ... : ... .. . ... : ... .. . ... : ... .. . ... : ... .. . ...
ROW 0a : ... .. . ... : ... .. . ... : ... .. . ... : ... .. . ... : ... .. . ... : ... .. . ... : ... .. . ... : ... .. . ...
ROW 0b : ... .. . ... : ... .. . ... : ... .. . ... : ... .. . ... : ... .. . ... : ... .. . ... : ... .. . ... : ... .. . ...
ROW 0c : F-5 00 8 ... : ... .. . ... : ... .. . ... : ... .. . ... : ... .. . ... : ... .. . ... : ... .. . ... : ... .. . ...
ROW 0d : ... .. . ... : ... .. . ... : ... .. . ... : ... .. . ... : ... .. . ... : ... .. . ... : ... .. . ... : ... .. . ...
ROW 0e : G-5 00 8 ... : ... .. . ... : ... .. . ... : ... .. . ... : ... .. . ... : ... .. . ... : ... .. . ... : ... .. . ...
ROW 0f : ... .. . ... : ... .. . ... : ... .. . ... : ... .. . ... : ... .. . ... : ... .. . ... : ... .. . ... : ... .. . ...
ROW 10 : A-5 00 8 ... : C#5 00 8 ... : ... .. . ... : ... .. . ... : ... .. . ... : A-2 03 6 04A : ... .. . ... : ... .. . ...
ROW 11 : ... .. . ... : ... .. . ... : ... .. . ... : ... .. . ... : ... .. . ... : ... .. . ... : ... .. . ... : ... .. . ...
ROW 12 : F-5 00 8 ... : ... .. . ... : ... .. . ... : ... .. . ... : ... .. . ... : ... .. . ... : ... .. . ... : ... .. . ...
ROW 13 : ... .. . ... : ... .. . ... : ... .. . ... : ... .. . ... : ... .. . ... : ... .. . ... : ... .. . ... : ... .. . ...
ROW 14 : F-5 00 8 ... : ... .. . ... : ... .. . ... : ... .. . ... : ... .. . ... : ... .. . ... : ... .. . ... : ... .. . ...
ROW 15 : ... .. . ... : ... .. . ... : ... .. . ... : ... .. . ... : ... .. . ... : ... .. . ... : ... .. . ... : ... .. . ...
ROW 16 : D-5 00 8 ... : ... .. . ... : ... .. . ... : ... .. . ... : ... .. . ... : ... .. . ... : ... .. . ... : ... .. . ...
ROW 17 : ... .. . ... : ... .. . ... : ... .. . ... : ... .. . ... : ... .. . ... : ... .. . ... : ... .. . ... : ... .. . ...
ROW 18 : F-5 00 8 ... : C#5 00 8 ... : ... .. . ... : ... .. . ... : ... .. . ... : C#3 03 6 039 : ... .. . ... : ... .. . ...
ROW 19 : ... .. . ... : ... .. . ... : ... .. . ... : ... .. . ... : ... .. . ... : ... .. . ... : ... .. . ... : ... .. . ...
ROW 1a : ... .. . ... : ... .. . ... : ... .. . ... : ... .. . ... : ... .. . ... : ... .. . ... : ... .. . ... : ... .. . ...
ROW 1b : ... .. . ... : ... .. . ... : ... .. . ... : ... .. . ... : ... .. . ... : ... .. . ... : ... .. . ... : ... .. . ...
ROW 1c : G-5 00 8 ... : ... .. . ... : ... .. . ... : ... .. . ... : ... .. . ... : ... .. . ... : ... .. . ... : ... .. . ...
ROW 1d : ... .. . ... : ... .. . ... : ... .. . ... : ... .. . ... : ... .. . ... : ... .. . ... : ... .. . ... : ... .. . ...
ROW 1e : ... .. . ... : ... .. . ... : ... .. . ... : ... .. . ... : ... .. . ... : ... .. . ... : ... .. . ... : ... .. . ...
ROW 1f : ... .. . ... : ... .. . ... : ... .. . ... : ... .. . ... : ... .. . ... : ... .. . ... : ... .. . ... : ... .. . ...
ROW 20 : A-5 00 8 ... : C-5 00 8 ... : ... .. . ... : ... .. . ... : ... .. . ... : D-3 03 6 03A : ... .. . ... : ... .. . ...
ROW 21 : ... .. . ... : ... .. . ... : ... .. . ... : ... .. . ... : ... .. . ... : ... .. . ... : ... .. . ... : ... .. . ...
ROW 22 : ... .. . ... : ... .. . ... : ... .. . ... : ... .. . ... : ... .. . ... : ... .. . ... : ... .. . ... : ... .. . ...
ROW 23 : ... .. . ... : ... .. . ... : ... .. . ... : ... .. . ... : ... .. . ... : ... .. . ... : ... .. . ... : ... .. . ...
ROW 24 : A-5 00 8 ... : C-5 00 8 ... : ... .. . ... : ... .. . ... : ... .. . ... : ... .. . ... : ... .. . ... : ... .. . ...
ROW 25 : ... .. . ... : ... .. . ... : ... .. . ... : ... .. . ... : ... .. . ... : ... .. . ... : ... .. . ... : ... .. . ...
ROW 26 : ... .. . ... : ... .. . ... : ... .. . ... : ... .. . ... : ... .. . ... : ... .. . ... : ... .. . ... : ... .. . ...
ROW 27 : ... .. . ... : ... .. . ... : ... .. . ... : ... .. . ... : ... .. . ... : ... .. . ... : ... .. . ... : ... .. . ...
ROW 28 : A-5 00 8 ... : C-5 00 8 ... : ... .. . ... : ... .. . ... : ... .. . ... : ... .. . ... : ... .. . ... : ... .. . ...
ROW 29 : ... .. . ... : ... .. . ... : ... .. . ... : ... .. . ... : ... .. . ... : ... .. . ... : ... .. . ... : ... .. . ...
ROW 2a : ... .. . ... : ... .. . ... : ... .. . ... : ... .. . ... : ... .. . ... : ... .. . ... : ... .. . ... : ... .. . ...
ROW 2b : ... .. . ... : ... .. . ... : ... .. . ... : ... .. . ... : ... .. . ... : ... .. . ... : ... .. . ... : ... .. . ...
ROW 2c : F-5 00 8 ... : ... .. . ... : ... .. . ... : ... .. . ... : ... .. . ... : ... .. . ... : ... .. . ... : ... .. . ...
ROW 2d : ... .. . ... : ... .. . ... : ... .. . ... : ... .. . ... : ... .. . ... : ... .. . ... : ... .. . ... : ... .. . ...
ROW 2e : D-5 00 8 ... : ... .. . ... : ... .. . ... : ... .. . ... : ... .. . ... : ... .. . ... : ... .. . ... : ... .. . ...
ROW 2f : ... .. . ... : ... .. . ... : ... .. . ... : ... .. . ... : ... .. . ... : ... .. . ... : ... .. . ... : ... .. . ...
ROW 30 : F-5 00 8 ... : G-4 00 8 ... : ... .. . ... : ... .. . ... : ... .. . ... : C-3 03 6 03A : ... .. . ... : ... .. . ...
ROW 31 : ... .. . ... : ... .. . ... : ... .. . ... : ... .. . ... : ... .. . ... : ... .. . ... : ... .. . ... : ... .. . ...
ROW 32 : D-5 00 8 ... : ... .. . ... : ... .. . ... : ... .. . ... : ... .. . ... : ... .. . ... : ... .. . ... : ... .. . ...
ROW 33 : ... .. . ... : ... .. . ... : ... .. . ... : ... .. . ... : ... .. . ... : ... .. . ... : ... .. . ... : ... .. . ...
ROW 34 : F-5 00 8 ... : ... .. . ... : ... .. . ... : ... .. . ... : ... .. . ... : ... .. . ... : ... .. . ... : ... .. . ...
ROW 35 : ... .. . ... : ... .. . ... : ... .. . ... : ... .. . ... : ... .. . ... : ... .. . ... : ... .. . ... : ... .. . ...
ROW 36 : G-5 00 8 ... : ... .. . ... : ... .. . ... : ... .. . ... : ... .. . ... : ... .. . ... : ... .. . ... : ... .. . ...
ROW 37 : ... .. . ... : ... .. . ... : ... .. . ... : ... .. . ... : ... .. . ... : ... .. . ... : ... .. . ... : ... .. . ...
ROW 38 : F-5 00 8 ... : A-4 00 8 ... : ... .. . ... : ... .. . ... : ... .. . ... : F-3 03 6 04A : ... .. . ... : ... .. . ...
ROW 39 : ... .. . ... : ... .. . ... : ... .. . ... : ... .. . ... : ... .. . ... : ... .. . ... : ... .. . ... : ... .. . ...
ROW 3a : ... .. . ... : ... .. . ... : ... .. . ... : ... .. . ... : ... .. . ... : ... .. . ... : ... .. . ... : ... .. . ...
ROW 3b : ... .. . ... : ... .. . ... : ... .. . ... : ... .. . ... : ... .. . ... : ... .. . ... : ... .. . ... : ... .. . ...
ROW 3c : --- .. . ... : ... .. . ... : ... .. . ... : ... .. . ... : ... .. . ... : ... .. . ... : ... .. . ... : ... .. . ...
ROW 3d : ... .. . ... : ... .. . ... : ... .. . ... : ... .. . ... : ... .. . ... : ... .. . ... : ... .. . ... : ... .. . ...
ROW 3e : D-5 00 8 ... : ... .. . ... : ... .. . ... : ... .. . ... : ... .. . ... : ... .. . ... : ... .. . ... : ... .. . ...
ROW 3f : ... .. . ... : ... .. . ... : ... .. . ... : ... .. . ... : ... .. . ... : ... .. . ... : ... .. . ... : ... .. . ...
PATTERN 20
ROW 00 : --- .. . ... : A-4 00 8 ... : F-5 01 7 ... : ... .. . ... : ... .. . ... : G-3 03 6 03A : ... .. . ... : ... .. . ...
ROW 01 : ... .. . ... : ... .. . ... : ... .. . ... : ... .. . ... : ... .. . ... : ... .. . ... : ... .. . ... : ... .. . ...
ROW 02 : ... .. . ... : A#4 00 8 ... : G-5 01 7 ... : ... .. . ... : ... .. . ... : ... .. . ... : ... .. . ... : ... .. . ...
ROW 03 : ... .. . ... : ... .. . ... : ... .. . ... : ... .. . ... : ... .. . ... : ... .. . ... : ... .. . ... : ... .. . ...
ROW 04 : ... .. . ... : C-5 00 8 ... : A-5 01 7 ... : ... .. . ... : ... .. . ... : ... .. . ... : ... .. . ... : ... .. . ...
ROW 05 : ... .. . ... : ... .. . ... : ... .. . ... : ... .. . ... : ... .. . ... : ... .. . ... : ... .. . ... : ... .. . ...
ROW 06 : ... .. . ... : ... .. . ... : ... .. . ... : ... .. . ... : ... .. . ... : ... .. . ... : ... .. . ... : ... .. . ...
ROW 07 : ... .. . ... : ... .. . ... : ... .. . ... : ... .. . ... : ... .. . ... : ... .. . ... : ... .. . ... : ... .. . ...
ROW 08 : F-6 00 8 ... : ... .. . ... : ... .. . ... : ... .. . ... : ... .. . ... : ... .. . ... : ... .. . ... : ... .. . ...
ROW 09 : ... .. . ... : ... .. . ... : ... .. . ... : ... .. . ... : ... .. . ... : ... .. . ... : ... .. . ... : ... .. . ...
ROW 0a : F-6 00 8 ... : ... .. . ... : ... .. . ... : ... .. . ... : ... .. . ... : ... .. . ... : ... .. . ... : ... .. . ...
ROW 0b : ... .. . ... : ... .. . ... : ... .. . ... : ... .. . ... : ... .. . ... : ... .. . ... : ... .. . ... : ... .. . ...
ROW 0c : F-6 00 8 ... : --- .. . ... : --- .. . ... : ... .. . ... : ... .. . ... : ... .. . ... : ... .. . ... : ... .. . ...
ROW 0d : ... .. . ... : ... .. . ... : ... .. . ... : ... .. . ... : ... .. . ... : ... .. . ... : ... .. . ... : ... .. . ...
ROW 0e : --- .. . ... : ... .. . ... : D-5 01 7 ... : ... .. . ... : ... .. . ... : ... .. . ... : ... .. . ... : ... .. . ...
ROW 0f : ... .. . ... : ... .. . ... : ... .. . ... : ... .. . ... : ... .. . ... : ... .. . ... : ... .. . ... : ... .. . ...
ROW 10 : ... .. . ... : A-4 00 8 ... : F-5 01 7 ... : ... .. . ... : ... .. . ... : A-3 03 6 04A : ... .. . ... : ... .. . ...
ROW 11 : ... .. . ... : ... .. . ... : ... .. . ... : ... .. . ... : ... .. . ... : ... .. . ... : ... .. . ... : ... .. . ...
ROW 12 : ... .. . ... : A#4 00 8 ... : G-5 01 7 ... : ... .. . ... : ... .. . ... : ... .. . ... : ... .. . ... : ... .. . ...
ROW 13 : ... .. . ... : ... .. . ... : ... .. . ... : ... .. . ... : ... .. . ... : ... .. . ... : ... .. . ... : ... .. . ...
ROW 14 : ... .. . ... : C-5 00 8 ... : A-5 01 7 ... : ... .. . ... : ... .. . ... : ... .. . ... : ... .. . ... : ... .. . ...
ROW 15 : ... .. . ... : ... .. . ... : ... .. . ... : ... .. . ... : ... .. . ... : ... .. . ... : ... .. . ... : ... .. . ...
ROW 16 : ... .. . ... : ... .. . ... : ... .. . ... : ... .. . ... : ... .. . ... : ... .. . ... : ... .. . ... : ... .. . ...
ROW 17 : ... .. . ... : ... .. . ... : ... .. . ... : ... .. . ... : ... .. . ... : ... .. . ... : ... .. . ... : ... .. . ...
ROW 18 : F-6 00 8 ... : ... .. . ... : ... .. . ... : ... .. . ... : ... .. . ... : ... .. . ... : ... .. . ... : ... .. . ...
ROW 19 : ... .. . ... : ... .. . ... : ... .. . ... : ... .. . ... : ... .. . ... : ... .. . ... : ... .. . ... : ... .. . ...
ROW 1a : F-6 00 8 ... : ... .. . ... : ... .. . ... : ... .. . ... : ... .. . ... : ... .. . ... : ... .. . ... : ... .. . ...
ROW 1b : ... .. . ... : ... .. . ... : ... .. . ... : ... .. . ... : ... .. . ... : ... .. . ... : ... .. . ... : ... .. . ...
ROW 1c : F-6 00 8 ... : --- .. . ... : --- .. . ... : ... .. . ... : ... .. . ... : ... .. . ... : ... .. . ... : ... .. . ...
ROW 1d : ... .. . ... : ... .. . ... : ... .. . ... : ... .. . ... : ... .. . ... : ... .. . ... : ... .. . ... : ... .. . ...
ROW 1e : --- .. . ... : ... .. . ... : ... .. . ... : ... .. . ... : ... .. . ... : ... .. . ... : ... .. . ... : ... .. . ...
ROW 1f : ... .. . ... : ... .. . ... : ... .. . ... : ... .. . ... : ... .. . ... : ... .. . ... : ... .. . ... : ... .. . ...
ROW 20 : F#5 00 8 ... : A-4 00 8 ... : ... .. . ... : ... .. . ... : ... .. . ... : D-3 03 6 04A : ... .. . ... : ... .. . ...
ROW 21 : ... .. . ... : ... .. . ... : ... .. . ... : ... .. . ... : ... .. . ... : ... .. . ... : ... .. . ... : ... .. . ...
ROW 22 : ... .. . ... : ... .. . ... : ... .. . ... : ... .. . ... : ... .. . ... : ... .. . ... : ... .. . ... : ... .. . ...
ROW 23 : ... .. . ... : ... .. . ... : ... .. . ... : ... .. . ... : ... .. . ... : ... .. . ... : ... .. . ... : ... .. . ...
ROW 24 : F#5 00 8 ... : A-4 00 8 ... : ... .. . ... : ... .. . ... : ... .. . ... : ... .. . ... : ... .. . ... : ... .. . ...
ROW 25 : ... .. . ... : ... .. . ... : ... .. . ... : ... .. . ... : ... .. . ... : ... .. . ... : ... .. . ... : ... .. . ...
ROW 26 : ... .. . ... : ... .. . ... : ... .. . ... : ... .. . ... : ... .. . ... : ... .. . ... : ... .. . ... : ... .. . ...
ROW 27 : ... .. . ... : ... .. . ... : ... .. . ... : ... .. . ... : ... .. . ... : ... .. . ... : ... .. . ... : ... .. . ...
ROW 28 : F#5 00 8 ... : A-4 00 8 ... : ... .. . ... : ... .. . ... : ... .. . ... : ... .. . ... : ... .. . ... : ... .. . ...
ROW 29 : ... .. . ... : ... .. . ... : ... .. . ... : ... .. . ... : ... .. . ... : ... .. . ... : ... .. . ... : ... .. . ...
ROW 2a : ... .. . ... : ... .. . ... : ... .. . ... : ... .. . ... : ... .. . ... : ... .. . ... : ... .. . ... : ... .. . ...
ROW 2b : G-5 00 8 ... : A#4 00 8 ... : ... .. . ... : ... .. . ... : ... .. . ... : ... .. . ... : ... .. . ... : ... .. . ...
ROW 2c : ... .. . ... : ... .. . ... : ... .. . ... : ... .. . ... : ... .. . ... : ... .. . ... : ... .. . ... : ... .. . ...
ROW 2d : ... .. . ... : ... .. . ... : ... .. . ... : ... .. . ... : ... .. . ... : ... .. . ... : ... .. . ... : ... .. . ...
ROW 2e : A-5 00 8 ... : C-5 00 8 ... : ... .. . ... : ... .. . ... : ... .. . ... : ... .. . ... : ... .. . ... : ... .. . ...
ROW 2f : ... .. . ... : ... .. . ... : ... .. . ... : ... .. . ... : ... .. . ... : ... .. . ... : ... .. . ... : ... .. . ...
ROW 30 : ... .. . ... : ... .. . ... : ... .. . ... : ... .. . ... : ... .. . ... : D-3 03 6 ... : ... .. . ... : ... .. . ...
ROW 31 : ... .. . ... : ... .. . ... : ... .. . ... : ... .. . ... : ... .. . ... : D-3 03 6 ... : ... .. . ... : ... .. . ...
ROW 32 : ... .. . ... : ... .. . ... : ... .. . ... : ... .. . ... : ... .. . ... : ... .. . ... : ... .. . ... : ... .. . ...
ROW 33 : ... .. . ... : ... .. . ... : ... .. . ... : ... .. . ... : ... .. . ... : D-3 03 6 ... : ... .. . ... : ... .. . ...
ROW 34 : ... .. . ... : ... .. . ... : ... .. . ... : ... .. . ... : ... .. . ... : A-3 03 6 ... : ... .. . ... : ... .. . ...
ROW 35 : ... .. . ... : ... .. . ... : ... .. . ... : ... .. . ... : ... .. . ... : ... .. . ... : ... .. . ... : ... .. . ...
ROW 36 : ... .. . ... : ... .. . ... : ... .. . ... : ... .. . ... : ... .. . ... : D-3 03 6 ... : ... .. . ... : ... .. . ...
ROW 37 : ... .. . ... : ... .. . ... : ... .. . ... : ... .. . ... : ... .. . ... : ... .. . ... : ... .. . ... : ... .. . ...
ROW 38 : D-5 00 8 ... : --- .. . ... : ... .. . ... : ... .. . ... : ... .. . ... : D-3 03 6 ... : ... .. . ... : ... .. . ...
ROW 39 : ... .. . ... : ... .. . ... : ... .. . ... : ... .. . ... : ... .. . ... : ... .. . ... : ... .. . ... : ... .. . ...
ROW 3a : D-5 00 8 ... : ... .. . ... : ... .. . ... : ... .. . ... : ... .. . ... : A-2 03 6 ... : ... .. . ... : ... .. . ...
ROW 3b : ... .. . ... : ... .. . ... : ... .. . ... : ... .. . ... : ... .. . ... : ... .. . ... : ... .. . ... : ... .. . ...
ROW 3c : F-5 00 8 ... : A-4 00 8 ... : ... .. . ... : ... .. . ... : ... .. . ... : C-2 03 6 ... : ... .. . ... : ... .. . ...
ROW 3d : ... .. . ... : ... .. . ... : ... .. . ... : ... .. . ... : ... .. . ... : ... .. . ... : ... .. . ... : ... .. . ...
ROW 3e : D-5 00 8 ... : ... .. . ... : ... .. . ... : ... .. . ... : ... .. . ... : ... .. . ... : ... .. . ... : ... .. . ...
ROW 3f : ... .. . ... : ... .. . ... : ... .. . ... : ... .. . ... : ... .. . ... : ... .. . ... : ... .. . ... : ... .. . ...
PATTERN 21
ROW 00 : F-5 00 8 040 : C-5 00 8 ... : ... .. . ... : ... .. . ... : ... .. . ... : A#1 03 6 ... : ... .. . ... : ... .. . ...
ROW 01 : ... .. . ... : ... .. . ... : ... .. . ... : ... .. . ... : ... .. . ... : ... .. . ... : ... .. . ... : ... .. . ...
ROW 02 : ... .. . ... : ... .. . ... : ... .. . ... : ... .. . ... : ... .. . ... : A#2 03 6 ... : ... .. . ... : ... .. . ...
ROW 03 : ... .. . ... : ... .. . ... : ... .. . ... : ... .. . ... : ... .. . ... : ... .. . ... : ... .. . ... : ... .. . ...
ROW 04 : F-5 00 8 040 : C-5 00 8 ... : ... .. . ... : ... .. . ... : ... .. . ... : A#1 03 6 ... : ... .. . ... : ... .. . ...
ROW 05 : ... .. . ... : ... .. . ... : ... .. . ... : ... .. . ... : ... .. . ... : ... .. . ... : ... .. . ... : ... .. . ...
ROW 06 : ... .. . ... : ... .. . ... : ... .. . ... : ... .. . ... : ... .. . ... : A#2 03 6 ... : ... .. . ... : ... .. . ...
ROW 07 : ... .. . ... : ... .. . ... : ... .. . ... : ... .. . ... : ... .. . ... : ... .. . ... : ... .. . ... : ... .. . ...
ROW 08 : F-5 00 8 040 : C-5 00 8 ... : ... .. . ... : ... .. . ... : ... .. . ... : A#1 03 6 ... : ... .. . ... : ... .. . ...
ROW 09 : ... .. . ... : ... .. . ... : ... .. . ... : ... .. . ... : ... .. . ... : ... .. . ... : ... .. . ... : ... .. . ...
ROW 0a : ... .. . ... : ... .. . ... : ... .. . ... : ... .. . ... : ... .. . ... : A#2 03 6 ... : ... .. . ... : ... .. . ...
ROW 0b : ... .. . ... : ... .. . ... : ... .. . ... : ... .. . ... : ... .. . ... : ... .. . ... : ... .. . ... : ... .. . ...
ROW 0c : F-5 00 8 ... : ... .. . ... : ... .. . ... : ... .. . ... : ... .. . ... : A#1 03 6 ... : ... .. . ... : ... .. . ...
ROW 0d : ... .. . ... : ... .. . ... : ... .. . ... : ... .. . ... : ... .. . ... : ... .. . ... : ... .. . ... : ... .. . ...
ROW 0e : G-5 00 8 ... : ... .. . ... : ... .. . ... : ... .. . ... : ... .. . ... : A#2 03 6 ... : ... .. . ... : ... .. . ...
ROW 0f : ... .. . ... : ... .. . ... : ... .. . ... : ... .. . ... : ... .. . ... : ... .. . ... : ... .. . ... : ... .. . ...
ROW 10 : E-5 00 8 050 : C-5 00 8 ... : ... .. . ... : ... .. . ... : ... .. . ... : C-2 03 6 ... : ... .. . ... : ... .. . ...
ROW 11 : ... .. . ... : ... .. . ... : ... .. . ... : ... .. . ... : ... .. . ... : ... .. . ... : ... .. . ... : ... .. . ...
ROW 12 : F-5 00 8 ... : ... .. . ... : ... .. . ... : ... .. . ... : ... .. . ... : C-3 03 6 ... : ... .. . ... : ... .. . ...
ROW 13 : ... .. . ... : ... .. . ... : ... .. . ... : ... .. . ... : ... .. . ... : ... .. . ... : ... .. . ... : ... .. . ...
ROW 14 : F-5 00 8 ... : ... .. . ... : ... .. . ... : ... .. . ... : ... .. . ... : C-2 03 6 ... : ... .. . ... : ... .. . ...
ROW 15 : ... .. . ... : ... .. . ... : ... .. . ... : ... .. . ... : ... .. . ... : ... .. . ... : ... .. . ... : ... .. . ...
ROW 16 : D-5 00 8 ... : ... .. . ... : ... .. . ... : ... .. . ... : ... .. . ... : C-3 03 6 ... : ... .. . ... : ... .. . ...
ROW 17 : ... .. . ... : ... .. . ... : ... .. . ... : ... .. . ... : ... .. . ... : ... .. . ... : ... .. . ... : ... .. . ...
ROW 18 : F-5 00 8 ... : A-4 00 8 ... : ... .. . ... : ... .. . ... : ... .. . ... : C-2 03 6 ... : ... .. . ... : ... .. . ...
ROW 19 : ... .. . ... : ... .. . ... : ... .. . ... : ... .. . ... : ... .. . ... : ... .. . ... : ... .. . ... : ... .. . ...
ROW 1a : ... .. . ... : ... .. . ... : ... .. . ... : ... .. . ... : ... .. . ... : C-3 03 6 ... : ... .. . ... : ... .. . ...
ROW 1b : ... .. . ... : ... .. . ... : ... .. . ... : ... .. . ... : ... .. . ... : ... .. . ... : ... .. . ... : ... .. . ...
ROW 1c : G-5 00 8 ... : A#4 00 8 ... : ... .. . ... : ... .. . ... : ... .. . ... : C-2 03 6 ... : ... .. . ... : ... .. . ...
ROW 1d : ... .. . ... : ... .. . ... : ... .. . ... : ... .. . ... : ... .. . ... : ... .. . ... : ... .. . ... : ... .. . ...
ROW 1e : ... .. . ... : ... .. . ... : ... .. . ... : ... .. . ... : ... .. . ... : C-3 03 6 ... : ... .. . ... : ... .. . ...
ROW 1f : ... .. . ... : ... .. . ... : ... .. . ... : ... .. . ... : ... .. . ... : ... .. . ... : ... .. . ... : ... .. . ...
ROW 20 : E-5 00 8 050 : C-5 00 8 ... : ... .. . ... : ... .. . ... : ... .. . ... : A-1 03 6 ... : ... .. . ... : ... .. . ...
ROW 21 : ... .. . ... : ... .. . ... : ... .. . ... : ... .. . ... : ... .. . ... : ... .. . ... : ... .. . ... : ... .. . ...
ROW 22 : ... .. . ... : ... .. . ... : ... .. . ... : ... .. . ... : ... .. . ... : A-2 03 6 ... : ... .. . ... : ... .. . ...
ROW 23 : ... .. . ... : ... .. . ... : ... .. . ... : ... .. . ... : ... .. . ... : ... .. . ... : ... .. . ... : ... .. . ...
ROW 24 : E-5 00 8 050 : C-5 00 8 ... : ... .. . ... : ... .. . ... : ... .. . ... : A-1 03 6 ... : ... .. . ... : ... .. . ...
ROW 25 : ... .. . ... : ... .. . ... : ... .. . ... : ... .. . ... : ... .. . ... : ... .. . ... : ... .. . ... : ... .. . ...
ROW 26 : ... .. . ... : ... .. . ... : ... .. . ... : ... .. . ... : ... .. . ... : A-2 03 6 ... : ... .. . ... : ... .. . ...
ROW 27 : ... .. . ... : ... .. . ... : ... .. . ... : ... .. . ... : ... .. . ... : ... .. . ... : ... .. . ... : ... .. . ...
ROW 28 : E-5 00 8 050 : C-5 00 8 ... : ... .. . ... : ... .. . ... : ... .. . ... : A-1 03 6 ... : ... .. . ... : ... .. . ...
ROW 29 : ... .. . ... : ... .. . ... : ... .. . ... : ... .. . ... : ... .. . ... : ... .. . ... : ... .. . ... : ... .. . ...
ROW 2a : ... .. . ... : ... .. . ... : ... .. . ... : ... .. . ... : ... .. . ... : A-2 03 6 ... : ... .. . ... : ... .. . ...
ROW 2b : ... .. . ... : ... .. . ... : ... .. . ... : ... .. . ... : ... .. . ... : ... .. . ... : ... .. . ... : ... .. . ...
ROW 2c : F-5 00 8 ... : ... .. . ... : ... .. . ... : ... .. . ... : ... .. . ... : A-1 03 6 ... : ... .. . ... : ... .. . ...
ROW 2d : ... .. . ... : ... .. . ... : ... .. . ... : ... .. . ... : ... .. . ... : ... .. . ... : ... .. . ... : ... .. . ...
ROW 2e : D-5 00 8 ... : ... .. . ... : ... .. . ... : ... .. . ... : ... .. . ... : A-2 03 6 ... : ... .. . ... : ... .. . ...
ROW 2f : ... .. . ... : ... .. . ... : ... .. . ... : ... .. . ... : ... .. . ... : ... .. . ... : ... .. . ... : ... .. . ...
ROW 30 : C-5 00 8 050 : A-4 00 8 ... : ... .. . ... : ... .. . ... : ... .. . ... : D-2 03 6 ... : ... .. . ... : ... .. . ...
ROW 31 : ... .. . ... : ... .. . ... : ... .. . ... : ... .. . ... : ... .. . ... : ... .. . ... : ... .. . ... : ... .. . ...
ROW 32 : D-5 00 8 ... : ... .. . ... : ... .. . ... : ... .. . ... : ... .. . ... : D-3 03 6 ... : ... .. . ... : ... .. . ...
ROW 33 : ... .. . ... : ... .. . ... : ... .. . ... : ... .. . ... : ... .. . ... : ... .. . ... : ... .. . ... : ... .. . ...
ROW 34 : F-5 00 8 ... : A-4 00 8 ... : ... .. . ... : ... .. . ... : ... .. . ... : D-2 03 6 ... : ... .. . ... : ... .. . ...
ROW 35 : ... .. . ... : ... .. . ... : ... .. . ... : ... .. . ... : ... .. . ... : ... .. . ... : ... .. . ... : ... .. . ...
ROW 36 : G-5 00 8 ... : A#4 00 8 ... : ... .. . ... : ... .. . ... : ... .. . ... : D-3 03 6 ... : ... .. . ... : ... .. . ...
ROW 37 : ... .. . ... : ... .. . ... : ... .. . ... : ... .. . ... : ... .. . ... : ... .. . ... : ... .. . ... : ... .. . ...
ROW 38 : F-5 00 8 ... : A-4 00 8 ... : ... .. . ... : ... .. . ... : ... .. . ... : D-2 03 6 ... : ... .. . ... : ... .. . ...
ROW 39 : ... .. . ... : ... .. . ... : ... .. . ... : ... .. . ... : ... .. . ... : ... .. . ... : ... .. . ... : ... .. . ...
ROW 3a : ... .. . ... : ... .. . ... : ... .. . ... : ... .. . ... : ... .. . ... : D-3 03 6 ... : ... .. . ... : ... .. . ...
ROW 3b : ... .. . ... : ... .. . ... : ... .. . ... : ... .. . ... : ... .. . ... : ... .. . ... : ... .. . ... : ... .. . ...
ROW 3c : --- .. . ... : --- .. . ... : ... .. . ... : ... .. . ... : ... .. . ... : D-2 03 6 ... : ... .. . ... : ... .. . ...
ROW 3d : ... .. . ... : ... .. . ... : ... .. . ... : ... .. . ... : ... .. . ... : ... .. . ... : ... .. . ... : ... .. . ...
ROW 3e : D-5 00 8 ... : ... .. . ... : ... .. . ... : ... .. . ... : ... .. . ... : D-3 03 6 ... : ... .. . ... : ... .. . ...
ROW 3f : ... .. . ... : ... .. . ... : ... .. . ... : ... .. . ... : ... .. . ... : ... .. . ... : ... .. . ... : ... .. . ...
PATTERN 22
ROW 00 : --- .. . ... : A-4 00 8 ... : F-5 01 7 ... : ... .. . ... : ... .. . ... : G-1 03 6 ... : ... .. . ... : ... .. . ...
ROW 01 : ... .. . ... : ... .. . ... : ... .. . ... : ... .. . ... : ... .. . ... : ... .. . ... : ... .. . ... : ... .. . ...
ROW 02 : ... .. . ... : A#4 00 8 ... : G-5 01 7 ... : ... .. . ... : ... .. . ... : G-2 03 6 ... : ... .. . ... : ... .. . ...
ROW 03 : ... .. . ... : ... .. . ... : ... .. . ... : ... .. . ... : ... .. . ... : ... .. . ... : ... .. . ... : ... .. . ...
ROW 04 : ... .. . ... : C-5 00 8 ... : A-5 01 7 ... : ... .. . ... : ... .. . ... : G-1 03 6 ... : ... .. . ... : ... .. . ...
ROW 05 : ... .. . ... : ... .. . ... : ... .. . ... : ... .. . ... : ... .. . ... : ... .. . ... : ... .. . ... : ... .. . ...
ROW 06 : ... .. . ... : ... .. . ... : ... .. . ... : ... .. . ... : ... .. . ... : G-2 03 6 ... : ... .. . ... : ... .. . ...
ROW 07 : ... .. . ... : ... .. . ... : ... .. . ... : ... .. . ... : ... .. . ... : ... .. . ... : ... .. . ... : ... .. . ...
ROW 08 : A-5 00 8 080 : --- .. . ... : --- .. . ... : ... .. . ... : ... .. . ... : G-1 03 6 ... : ... .. . ... : ... .. . ...
ROW 09 : ... .. . ... : ... .. . ... : ... .. . ... : ... .. . ... : ... .. . ... : ... .. . ... : ... .. . ... : ... .. . ...
ROW 0a : A-5 00 8 080 : ... .. . ... : ... .. . ... : ... .. . ... : ... .. . ... : G-2 03 6 ... : ... .. . ... : ... .. . ...
ROW 0b : ... .. . ... : ... .. . ... : ... .. . ... : ... .. . ... : ... .. . ... : ... .. . ... : ... .. . ... : ... .. . ...
ROW 0c : A-5 00 8 080 : ... .. . ... : ... .. . ... : ... .. . ... : ... .. . ... : G-1 03 6 ... : ... .. . ... : ... .. . ...
ROW 0d : ... .. . ... : ... .. . ... : ... .. . ... : ... .. . ... : ... .. . ... : ... .. . ... : ... .. . ... : ... .. . ...
ROW 0e : --- .. . ... : D-5 00 8 ... : ... .. . ... : ... .. . ... : ... .. . ... : G-2 03 6 ... : ... .. . ... : ... .. . ...
ROW 0f : ... .. . ... : ... .. . ... : ... .. . ... : ... .. . ... : ... .. . ... : ... .. . ... : ... .. . ... : ... .. . ...
ROW 10 : ... .. . ... : A-4 00 8 ... : F-5 01 7 ... : ... .. . ... : ... .. . ... : A-1 03 6 ... : ... .. . ... : ... .. . ...
ROW 11 : ... .. . ... : ... .. . ... : ... .. . ... : ... .. . ... : ... .. . ... : ... .. . ... : ... .. . ... : ... .. . ...
ROW 12 : ... .. . ... : A#4 00 8 ... : G-5 01 7 ... : ... .. . ... : ... .. . ... : A-2 03 6 ... : ... .. . ... : ... .. . ...
ROW 13 : ... .. . ... : ... .. . ... : ... .. . ... : ... .. . ... : ... .. . ... : ... .. . ... : ... .. . ... : ... .. . ...
ROW 14 : ... .. . ... : C-5 00 8 ... : A-5 01 7 ... : ... .. . ... : ... .. . ... : A-1 03 6 ... : ... .. . ... : ... .. . ...
ROW 15 : ... .. . ... : ... .. . ... : ... .. . ... : ... .. . ... : ... .. . ... : ... .. . ... : ... .. . ... : ... .. . ...
ROW 16 : ... .. . ... : ... .. . ... : ... .. . ... : ... .. . ... : ... .. . ... : A-2 03 6 ... : ... .. . ... : ... .. . ...
ROW 17 : ... .. . ... : ... .. . ... : ... .. . ... : ... .. . ... : ... .. . ... : ... .. . ... : ... .. . ... : ... .. . ...
ROW 18 : A-5 00 8 080 : --- .. . ... : --- .. . ... : ... .. . ... : ... .. . ... : A-1 03 6 ... : ... .. . ... : ... .. . ...
ROW 19 : ... .. . ... : ... .. . ... : ... .. . ... : ... .. . ... : ... .. . ... : ... .. . ... : ... .. . ... : ... .. . ...
ROW 1a : A-5 00 8 080 : ... .. . ... : ... .. . ... : ... .. . ... : ... .. . ... : A-2 03 6 ... : ... .. . ... : ... .. . ...
ROW 1b : ... .. . ... : ... .. . ... : ... .. . ... : ... .. . ... : ... .. . ... : ... .. . ... : ... .. . ... : ... .. . ...
ROW 1c : A-5 00 8 080 : ... .. . ... : ... .. . ... : ... .. . ... : ... .. . ... : A-1 03 6 ... : ... .. . ... : ... .. . ...
ROW 1d : ... .. . ... : ... .. . ... : ... .. . ... : ... .. . ... : ... .. . ... : ... .. . ... : ... .. . ... : ... .. . ...
ROW 1e : --- .. . ... : ... .. . ... : ... .. . ... : ... .. . ... : ... .. . ... : A-2 03 6 ... : ... .. . ... : ... .. . ...
ROW 1f : ... .. . ... : ... .. . ... : ... .. . ... : ... .. . ... : ... .. . ... : ... .. . ... : ... .. . ... : ... .. . ...
ROW 20 : C-6 00 8 ... : F-5 00 8 ... : ... .. . ... : ... .. . ... : ... .. . ... : A#1 03 6 0C0 : ... .. . ... : ... .. . ...
ROW 21 : ... .. . ... : ... .. . ... : ... .. . ... : ... .. . ... : ... .. . ... : ... .. . ... : ... .. . ... : ... .. . ...
ROW 22 : ... .. . ... : ... .. . ... : ... .. . ... : ... .. . ... : ... .. . ... : A#1 03 6 0C0 : ... .. . ... : ... .. . ...
ROW 23 : ... .. . ... : ... .. . ... : ... .. . ... : ... .. . ... : ... .. . ... : ... .. . ... : ... .. . ... : ... .. . ...
ROW 24 : A#5 00 8 ... : D-5 00 8 ... : ... .. . ... : ... .. . ... : ... .. . ... : A#1 03 6 0C0 : ... .. . ... : ... .. . ...
ROW 25 : ... .. . ... : ... .. . ... : ... .. . ... : ... .. . ... : ... .. . ... : ... .. . ... : ... .. . ... : ... .. . ...
ROW 26 : ... .. . ... : ... .. . ... : ... .. . ... : ... .. . ... : ... .. . ... : A#1 03 6 0C0 : ... .. . ... : ... .. . ...
ROW 27 : ... .. . ... : ... .. . ... : ... .. . ... : ... .. . ... : ... .. . ... : ... .. . ... : ... .. . ... : ... .. . ...
ROW 28 : A-5 00 8 ... : C-5 00 8 ... : ... .. . ... : ... .. . ... : ... .. . ... : A#1 03 6 0C0 : ... .. . ... : ... .. . ...
ROW 29 : ... .. . ... : ... .. . ... : ... .. . ... : ... .. . ... : ... .. . ... : ... .. . ... : ... .. . ... : ... .. . ...
ROW 2a : ... .. . ... : ... .. . ... : ... .. . ... : ... .. . ... : ... .. . ... : A#1 03 6 0C0 : ... .. . ... : ... .. . ...
ROW 2b : ... .. . ... : ... .. . ... : ... .. . ... : ... .. . ... : ... .. . ... : ... .. . ... : ... .. . ... : ... .. . ...
ROW 2c : A#5 00 8 ... : D-5 00 8 ... : ... .. . ... : ... .. . ... : ... .. . ... : A#1 03 6 0C0 : ... .. . ... : ... .. . ...
ROW 2d : ... .. . ... : ... .. . ... : ... .. . ... : ... .. . ... : ... .. . ... : ... .. . ... : ... .. . ... : ... .. . ...
ROW 2e : ... .. . ... : ... .. . ... : ... .. . ... : ... .. . ... : ... .. . ... : A#1 03 6 0C0 : ... .. . ... : ... .. . ...
ROW 2f : ... .. . ... : ... .. . ... : ... .. . ... : ... .. . ... : ... .. . ... : ... .. . ... : ... .. . ... : ... .. . ...
ROW 30 : E-5 00 8 050 : C-5 00 8 ... : ... .. . ... : ... .. . ... : ... .. . ... : C-2 03 6 0C0 : ... .. . ... : ... .. . ...
ROW 31 : ... .. . ... : ... .. . ... : ... .. . ... : ... .. . ... : ... .. . ... : ... .. . ... : ... .. . ... : ... .. . ...
ROW 32 : ... .. . ... : ... .. . ... : ... .. . ... : ... .. . ... : ... .. . ... : ... .. . ... : ... .. . ... : ... .. . ...
ROW 33 : ... .. . ... : ... .. . ... : ... .. . ... : ... .. . ... : ... .. . ... : ... .. . ... : ... .. . ... : ... .. . ...
ROW 34 : --- .. . ... : --- .. . ... : ... .. . ... : ... .. . ... : ... .. . ... : --- .. . ... : ... .. . ... : ... .. . ...
ROW 35 : ... .. . ... : ... .. . ... : ... .. . ... : ... .. . ... : ... .. . ... : ... .. . ... : ... .. . ... : ... .. . ...
ROW 36 : F-5 00 8 ... : ... .. . ... : ... .. . ... : ... .. . ... : ... .. . ... : ... .. . ... : ... .. . ... : ... .. . ...
ROW 37 : ... .. . ... : ... .. . ... : ... .. . ... : ... .. . ... : ... .. . ... : ... .. . ... : ... .. . ... : ... .. . ...
ROW 38 : F-5 00 8 ... : A-4 00 8 ... : ... .. . ... : ... .. . ... : ... .. . ... : ... .. . ... : ... .. . ... : ... .. . ...
ROW 39 : ... .. . ... : ... .. . ... : ... .. . ... : ... .. . ... : ... .. . ... : ... .. . ... : ... .. . ... : ... .. . ...
ROW 3a : F-5 00 8 ... : A-4 00 8 ... : ... .. . ... : ... .. . ... : ... .. . ... : ... .. . ... : ... .. . ... : ... .. . ...
ROW 3b : ... .. . ... : ... .. . ... : ... .. . ... : ... .. . ... : ... .. . ... : ... .. . ... : ... .. . ... : ... .. . ...
ROW 3c : F-5 00 8 ... : A-4 00 8 ... : ... .. . ... : ... .. . ... : ... .. . ... : ... .. . ... : ... .. . ... : ... .. . ...
ROW 3d : ... .. . ... : ... .. . ... : ... .. . ... : ... .. . ... : ... .. . ... : ... .. . ... : ... .. . ... : ... .. . ...
ROW 3e : G-5 00 8 ... : A#4 00 8 ... : ... .. . ... : ... .. . ... : ... .. . ... : ... .. . ... : ... .. . ... : ... .. . ...
ROW 3f : F-5 00 8 ... : A-4 00 8 ... : ... .. . ... : ... .. . ... : ... .. . ... : ... .. . ... : ... .. . ... : ... .. . ...
PATTERN 23
ROW 00 : A-4 00 8 ... : --- .. . ... : ... .. . ... : ... .. . ... : ... .. . ... : D-2 03 6 ... : ... .. . ... : ... .. . ...
ROW 01 : F-5 00 8 ... : ... .. . ... : ... .. . ... : ... .. . ... : ... .. . ... : ... .. . ... : ... .. . ... : ... .. . ...
ROW 02 : ... .. . ... : ... .. . ... : ... .. . ... : ... .. . ... : ... .. . ... : D-3 03 6 ... : ... .. . ... : ... .. . ...
ROW 03 : A-4 00 8 080 : ... .. . ... : ... .. . ... : ... .. . ... : ... .. . ... : ... .. . ... : ... .. . ... : ... .. . ...
ROW 04 : ... .. . ... : ... .. . ... : ... .. . ... : ... .. . ... : ... .. . ... : A-2 03 6 ... : ... .. . ... : ... .. . ...
ROW 05 : A-4 00 8 080 : ... .. . ... : ... .. . ... : ... .. . ... : ... .. . ... : ... .. . ... : ... .. . ... : ... .. . ...
ROW 06 : ... .. . ... : ... .. . ... : ... .. . ... : ... .. . ... : ... .. . ... : C-3 03 6 ... : ... .. . ... : ... .. . ...
ROW 07 : ... .. . ... : ... .. . ... : ... .. . ... : ... .. . ... : ... .. . ... : ... .. . ... : ... .. . ... : ... .. . ...
ROW 08 : F-5 00 8 ... : A-4 00 8 ... : ... .. . ... : ... .. . ... : ... .. . ... : D-2 03 6 ... : ... .. . ... : ... .. . ...
ROW 09 : ... .. . ... : ... .. . ... : ... .. . ... : ... .. . ... : ... .. . ... : ... .. . ... : ... .. . ... : ... .. . ...
ROW 0a : F-5 00 8 ... : A-4 00 8 ... : ... .. . ... : ... .. . ... : ... .. . ... : D-3 03 6 ... : ... .. . ... : ... .. . ...
ROW 0b : ... .. . ... : ... .. . ... : ... .. . ... : ... .. . ... : ... .. . ... : ... .. . ... : ... .. . ... : ... .. . ...
ROW 0c : F-5 00 8 ... : C-5 00 8 ... : ... .. . ... : ... .. . ... : ... .. . ... : A-2 03 6 ... : ... .. . ... : ... .. . ...
ROW 0d : ... .. . ... : ... .. . ... : ... .. . ... : ... .. . ... : ... .. . ... : ... .. . ... : ... .. . ... : ... .. . ...
ROW 0e : D-5 00 8 ... : D-5 00 8 ... : ... .. . ... : ... .. . ... : ... .. . ... : C-3 03 6 ... : ... .. . ... : ... .. . ...
ROW 0f : ... .. . ... : ... .. . ... : ... .. . ... : ... .. . ... : ... .. . ... : ... .. . ... : ... .. . ... : ... .. . ...
ROW 10 : A-4 00 8 ... : --- .. . ... : ... .. . ... : ... .. . ... : ... .. . ... : D-2 03 6 ... : ... .. . ... : ... .. . ...
ROW 11 : F-5 00 8 ... : ... .. . ... : ... .. . ... : ... .. . ... : ... .. . ... : ... .. . ... : ... .. . ... : ... .. . ...
ROW 12 : ... .. . ... : ... .. . ... : ... .. . ... : ... .. . ... : ... .. . ... : D-3 03 6 ... : ... .. . ... : ... .. . ...
ROW 13 : A-4 00 8 080 : ... .. . ... : ... .. . ... : ... .. . ... : ... .. . ... : ... .. . ... : ... .. . ... : ... .. . ...
ROW 14 : ... .. . ... : ... .. . ... : ... .. . ... : ... .. . ... : ... .. . ... : A-2 03 6 ... : ... .. . ... : ... .. . ...
ROW 15 : A-4 00 8 080 : ... .. . ... : ... .. . ... : ... .. . ... : ... .. . ... : ... .. . ... : ... .. . ... : ... .. . ...
ROW 16 : ... .. . ... : ... .. . ... : ... .. . ... : ... .. . ... : ... .. . ... : C-3 03 6 ... : ... .. . ... : ... .. . ...
ROW 17 : ... .. . ... : ... .. . ... : ... .. . ... : ... .. . ... : ... .. . ... : ... .. . ... : ... .. . ... : ... .. . ...
ROW 18 : F-5 00 8 ... : A-4 00 8 ... : ... .. . ... : ... .. . ... : ... .. . ... : D-2 03 6 ... : ... .. . ... : ... .. . ...
ROW 19 : ... .. . ... : ... .. . ... : ... .. . ... : ... .. . ... : ... .. . ... : ... .. . ... : ... .. . ... : ... .. . ...
ROW 1a : F-5 00 8 ... : A-4 00 8 ... : ... .. . ... : ... .. . ... : ... .. . ... : D-3 03 6 ... : ... .. . ... : ... .. . ...
ROW 1b : ... .. . ... : ... .. . ... : ... .. . ... : ... .. . ... : ... .. . ... : ... .. . ... : ... .. . ... : ... .. . ...
ROW 1c : F-5 00 8 ... : C-5 00 8 ... : ... .. . ... : ... .. . ... : ... .. . ... : A-2 03 6 ... : ... .. . ... : ... .. . ...
ROW 1d : ... .. . ... : ... .. . ... : ... .. . ... : ... .. . ... : ... .. . ... : ... .. . ... : ... .. . ... : ... .. . ...
ROW 1e : D-5 00 8 ... : D-5 00 8 ... : ... .. . ... : ... .. . ... : ... .. . ... : C-3 03 6 ... : ... .. . ... : ... .. . ...
ROW 1f : ... .. . ... : ... .. . ... : ... .. . ... : ... .. . ... : ... .. . ... : ... .. . ... : ... .. . ... : ... .. . ...
ROW 20 : A-4 00 8 ... : --- .. . ... : ... .. . ... : ... .. . ... : ... .. . ... : D-2 03 6 ... : ... .. . ... : ... .. . ...
ROW 21 : F-5 00 8 ... : ... .. . ... : ... .. . ... : ... .. . ... : ... .. . ... : ... .. . ... : ... .. . ... : ... .. . ...
ROW 22 : ... .. . ... : ... .. . ... : ... .. . ... : ... .. . ... : ... .. . ... : D-3 03 6 ... : ... .. . ... : ... .. . ...
ROW 23 : A-4 00 8 080 : ... .. . ... : ... .. . ... : ... .. . ... : ... .. . ... : ... .. . ... : ... .. . ... : ... .. . ...
ROW 24 : ... .. . ... : ... .. . ... : ... .. . ... : ... .. . ... : ... .. . ... : A-2 03 6 ... : ... .. . ... : ... .. . ...
ROW 25 : A-4 00 8 080 : ... .. . ... : ... .. . ... : ... .. . ... : ... .. . ... : ... .. . ... : ... .. . ... : ... .. . ...
ROW 26 : ... .. . ... : ... .. . ... : ... .. . ... : ... .. . ... : ... .. . ... : C-3 03 6 ... : ... .. . ... : ... .. . ...
ROW 27 : ... .. . ... : ... .. . ... : ... .. . ... : ... .. . ... : ... .. . ... : ... .. . ... : ... .. . ... : ... .. . ...
ROW 28 : F-5 00 8 ... : A-4 00 8 ... : ... .. . ... : ... .. . ... : ... .. . ... : D-2 03 6 ... : ... .. . ... : ... .. . ...
ROW 29 : ... .. . ... : ... .. . ... : ... .. . ... : ... .. . ... : ... .. . ... : ... .. . ... : ... .. . ... : ... .. . ...
ROW 2a : F-5 00 8 ... : A-4 00 8 ... : ... .. . ... : ... .. . ... : ... .. . ... : D-3 03 6 ... : ... .. . ... : ... .. . ...
ROW 2b : ... .. . ... : ... .. . ... : ... .. . ... : ... .. . ... : ... .. . ... : ... .. . ... : ... .. . ... : ... .. . ...
ROW 2c : F-5 00 8 ... : C-5 00 8 ... : ... .. . ... : ... .. . ... : ... .. . ... : A-2 03 6 ... : ... .. . ... : ... .. . ...
ROW 2d : ... .. . ... : ... .. . ... : ... .. . ... : ... .. . ... : ... .. . ... : ... .. . ... : ... .. . ... : ... .. . ...
ROW 2e : D-5 00 8 ... : D-5 00 8 ... : ... .. . ... : ... .. . ... : ... .. . ... : C-3 03 6 ... : ... .. . ... : ... .. . ...
ROW 2f : ... .. . ... : ... .. . ... : ... .. . ... : ... .. . ... : ... .. . ... : ... .. . ... : ... .. . ... : ... .. . ...
ROW 30 : A-4 00 8 ... : --- .. . ... : ... .. . ... : ... .. . ... : ... .. . ... : D-2 03 6 ... : ... .. . ... : ... .. . ...
ROW 31 : F-5 00 8 ... : ... .. . ... : ... .. . ... : ... .. . ... : ... .. . ... : ... .. . ... : ... .. . ... : ... .. . ...
ROW 32 : ... .. . ... : ... .. . ... : ... .. . ... : ... .. . ... : ... .. . ... : D-3 03 6 ... : ... .. . ... : ... .. . ...
ROW 33 : A-4 00 8 080 : ... .. . ... : ... .. . ... : ... .. . ... : ... .. . ... : ... .. . ... : ... .. . ... : ... .. . ...
ROW 34 : ... .. . ... : ... .. . ... : ... .. . ... : ... .. . ... : ... .. . ... : A-2 03 6 ... : ... .. . ... : ... .. . ...
ROW 35 : A-4 00 8 080 : ... .. . ... : ... .. . ... : ... .. . ... : ... .. . ... : ... .. . ... : ... .. . ... : ... .. . ...
ROW 36 : ... .. . ... : ... .. . ... : ... .. . ... : ... .. . ... : ... .. . ... : C-3 03 6 ... : ... .. . ... : ... .. . ...
ROW 37 : ... .. . ... : ... .. . ... : ... .. . ... : ... .. . ... : ... .. . ... : ... .. . ... : ... .. . ... : ... .. . ...
ROW 38 : F-5 00 8 ... : A-4 00 8 ... : ... .. . ... : ... .. . ... : ... .. . ... : G-2 03 6 ... : ... .. . ... : ... .. . ...
ROW 39 : ... .. . ... : ... .. . ... : ... .. . ... : ... .. . ... : ... .. . ... : ... .. . ... : ... .. . ... : ... .. . ...
ROW 3a : F-5 00 8 ... : A-4 00 8 ... : ... .. . ... : ... .. . ... : ... .. . ... : G-3 03 6 ... : ... .. . ... : ... .. . ...
ROW 3b : ... .. . ... : ... .. . ... : ... .. . ... : ... .. . ... : ... .. . ... : ... .. . ... : ... .. . ... : ... .. . ...
ROW 3c : F-5 00 8 ... : A-4 00 8 ... : ... .. . ... : ... .. . ... : ... .. . ... : A-2 03 6 ... : ... .. . ... : ... .. . ...
ROW 3d : ... .. . ... : ... .. . ... : ... .. . ... : ... .. . ... : ... .. . ... : ... .. . ... : ... .. . ... : ... .. . ...
ROW 3e : ... .. . ... : ... .. . ... : ... .. . ... : ... .. . ... : ... .. . ... : A-3 03 6 ... : ... .. . ... : ... .. . ...
ROW 3f : ... .. . ... : ... .. . ... : ... .. . ... : ... .. . ... : ... .. . ... : ... .. . ... : ... .. . ... : ... .. . ...
PATTERN 24
ROW 00 : A-4 00 8 ... : --- .. . ... : ... .. . ... : ... .. . ... : ... .. . ... : D-2 03 6 ... : ... .. . ... : ... .. . ...
ROW 01 : F-5 00 8 ... : ... .. . ... : ... .. . ... : ... .. . ... : ... .. . ... : ... .. . ... : ... .. . ... : ... .. . ...
ROW 02 : ... .. . ... : ... .. . ... : ... .. . ... : ... .. . ... : ... .. . ... : D-3 03 6 ... : ... .. . ... : ... .. . ...
ROW 03 : A-4 00 8 080 : ... .. . ... : ... .. . ... : ... .. . ... : ... .. . ... : ... .. . ... : ... .. . ... : ... .. . ...
ROW 04 : ... .. . ... : ... .. . ... : ... .. . ... : ... .. . ... : ... .. . ... : A-2 03 6 ... : ... .. . ... : ... .. . ...
ROW 05 : A-4 00 8 080 : ... .. . ... : ... .. . ... : ... .. . ... : ... .. . ... : ... .. . ... : ... .. . ... : ... .. . ...
ROW 06 : ... .. . ... : ... .. . ... : ... .. . ... : ... .. . ... : ... .. . ... : C-3 03 6 ... : ... .. . ... : ... .. . ...
ROW 07 : ... .. . ... : ... .. . ... : ... .. . ... : ... .. . ... : ... .. . ... : ... .. . ... : ... .. . ... : ... .. . ...
ROW 08 : F-5 00 8 ... : A-4 00 8 ... : ... .. . ... : ... .. . ... : ... .. . ... : D-2 03 6 ... : ... .. . ... : ... .. . ...
ROW 09 : ... .. . ... : ... .. . ... : ... .. . ... : ... .. . ... : ... .. . ... : ... .. . ... : ... .. . ... : ... .. . ...
ROW 0a : F-5 00 8 ... : A-4 00 8 ... : ... .. . ... : ... .. . ... : ... .. . ... : D-3 03 6 ... : ... .. . ... : ... .. . ...
ROW 0b : ... .. . ... : ... .. . ... : ... .. . ... : ... .. . ... : ... .. . ... : ... .. . ... : ... .. . ... : ... .. . ...
ROW 0c : F-5 00 8 ... : C-5 00 8 ... : ... .. . ... : ... .. . ... : ... .. . ... : A-2 03 6 ... : ... .. . ... : ... .. . ...
ROW 0d : ... .. . ... : ... .. . ... : ... .. . ... : ... .. . ... : ... .. . ... : ... .. . ... : ... .. . ... : ... .. . ...
ROW 0e : D-5 00 8 ... : D-5 00 8 ... : ... .. . ... : ... .. . ... : ... .. . ... : C-3 03 6 ... : ... .. . ... : ... .. . ...
ROW 0f : ... .. . ... : ... .. . ... : ... .. . ... : ... .. . ... : ... .. . ... : ... .. . ... : ... .. . ... : ... .. . ...
ROW 10 : A-4 00 8 ... : --- .. . ... : ... .. . ... : ... .. . ... : ... .. . ... : D-2 03 6 ... : ... .. . ... : ... .. . ...
ROW 11 : F-5 00 8 ... : ... .. . ... : ... .. . ... : ... .. . ... : ... .. . ... : ... .. . ... : ... .. . ... : ... .. . ...
ROW 12 : ... .. . ... : ... .. . ... : ... .. . ... : ... .. . ... : ... .. . ... : D-3 03 6 ... : ... .. . ... : ... .. . ...
ROW 13 : A-4 00 8 080 : ... .. . ... : ... .. . ... : ... .. . ... : ... .. . ... : ... .. . ... : ... .. . ... : ... .. . ...
ROW 14 : ... .. . ... : ... .. . ... : ... .. . ... : ... .. . ... : ... .. . ... : A-2 03 6 ... : ... .. . ... : ... .. . ...
ROW 15 : A-4 00 8 080 : ... .. . ... : ... .. . ... : ... .. . ... : ... .. . ... : ... .. . ... : ... .. . ... : ... .. . ...
ROW 16 : ... .. . ... : ... .. . ... : ... .. . ... : ... .. . ... : ... .. . ... : C-3 03 6 ... : ... .. . ... : ... .. . ...
ROW 17 : ... .. . ... : ... .. . ... : ... .. . ... : ... .. . ... : ... .. . ... : ... .. . ... : ... .. . ... : ... .. . ...
ROW 18 : F-5 00 8 ... : A-4 00 8 ... : ... .. . ... : ... .. . ... : ... .. . ... : D-2 03 6 ... : ... .. . ... : ... .. . ...
ROW 19 : ... .. . ... : ... .. . ... : ... .. . ... : ... .. . ... : ... .. . ... : ... .. . ... : ... .. . ... : ... .. . ...
ROW 1a : F-5 00 8 ... : A-4 00 8 ... : ... .. . ... : ... .. . ... : ... .. . ... : D-3 03 6 ... : ... .. . ... : ... .. . ...
ROW 1b : ... .. . ... : ... .. . ... : ... .. . ... : ... .. . ... : ... .. . ... : ... .. . ... : ... .. . ... : ... .. . ...
ROW 1c : F-5 00 8 ... : C-5 00 8 ... : ... .. . ... : ... .. . ... : ... .. . ... : A-2 03 6 ... : ... .. . ... : ... .. . ...
ROW 1d : ... .. . ... : ... .. . ... : ... .. . ... : ... .. . ... : ... .. . ... : ... .. . ... : ... .. . ... : ... .. . ...
ROW 1e : D-5 00 8 ... : D-5 00 8 ... : ... .. . ... : ... .. . ... : ... .. . ... : C-3 03 6 ... : ... .. . ... : ... .. . ...
ROW 1f : ... .. . ... : ... .. . ... : ... .. . ... : ... .. . ... : ... .. . ... : ... .. . ... : ... .. . ... : ... .. . ...
ROW 20 : A-4 00 8 ... : --- .. . ... : ... .. . ... : ... .. . ... : ... .. . ... : D-2 03 6 ... : ... .. . ... : ... .. . ...
ROW 21 : F-5 00 8 ... : ... .. . ... : ... .. . ... : ... .. . ... : ... .. . ... : ... .. . ... : ... .. . ... : ... .. . ...
ROW 22 : ... .. . ... : ... .. . ... : ... .. . ... : ... .. . ... : ... .. . ... : D-3 03 6 ... : ... .. . ... : ... .. . ...
ROW 23 : A-4 00 8 080 : ... .. . ... : ... .. . ... : ... .. . ... : ... .. . ... : ... .. . ... : ... .. . ... : ... .. . ...
ROW 24 : ... .. . ... : ... .. . ... : ... .. . ... : ... .. . ... : ... .. . ... : A-2 03 6 ... : ... .. . ... : ... .. . ...
ROW 25 : A-4 00 8 080 : ... .. . ... : ... .. . ... : ... .. . ... : ... .. . ... : ... .. . ... : ... .. . ... : ... .. . ...
ROW 26 : ... .. . ... : ... .. . ... : ... .. . ... : ... .. . ... : ... .. . ... : C-3 03 6 ... : ... .. . ... : ... .. . ...
ROW 27 : ... .. . ... : ... .. . ... : ... .. . ... : ... .. . ... : ... .. . ... : ... .. . ... : ... .. . ... : ... .. . ...
ROW 28 : F-5 00 8 ... : A-4 00 8 ... : ... .. . ... : ... .. . ... : ... .. . ... : D-2 03 6 ... : ... .. . ... : ... .. . ...
ROW 29 : ... .. . ... : ... .. . ... : ... .. . ... : ... .. . ... : ... .. . ... : ... .. . ... : ... .. . ... : ... .. . ...
ROW 2a : F-5 00 8 ... : A-4 00 8 ... : ... .. . ... : ... .. . ... : ... .. . ... : D-3 03 6 ... : ... .. . ... : ... .. . ...
ROW 2b : ... .. . ... : ... .. . ... : ... .. . ... : ... .. . ... : ... .. . ... : ... .. . ... : ... .. . ... : ... .. . ...
ROW 2c : F-5 00 8 ... : C-5 00 8 ... : ... .. . ... : ... .. . ... : ... .. . ... : A-2 03 6 ... : ... .. . ... : ... .. . ...
ROW 2d : ... .. . ... : ... .. . ... : ... .. . ... : ... .. . ... : ... .. . ... : ... .. . ... : ... .. . ... : ... .. . ...
ROW 2e : D-5 00 8 ... : D-5 00 8 ... : ... .. . ... : ... .. . ... : ... .. . ... : C-3 03 6 ... : ... .. . ... : ... .. . ...
ROW 2f : ... .. . ... : ... .. . ... : ... .. . ... : ... .. . ... : ... .. . ... : ... .. . ... : ... .. . ... : ... .. . ...
ROW 30 : --- .. . ... : --- .. . ... : ... .. . ... : ... .. . ... : ... .. . ... : G-1 03 6 0C0 : ... .. . ... : ... .. . ...
ROW 31 : ... .. . ... : ... .. . ... : ... .. . ... : ... .. . ... : ... .. . ... : ... .. . ... : ... .. . ... : ... .. . ...
ROW 32 : ... .. . ... : ... .. . ... : ... .. . ... : ... .. . ... : ... .. . ... : ... .. . ... : ... .. . ... : ... .. . ...
ROW 33 : ... .. . ... : ... .. . ... : ... .. . ... : ... .. . ... : ... .. . ... : ... .. . ... : ... .. . ... : ... .. . ...
ROW 34 : G-3 00 8 ... : D-3 00 8 ... : ... .. . ... : ... .. . ... : ... .. . ... : --- .. . ... : ... .. . ... : ... .. . ...
ROW 35 : ... .. . ... : ... .. . ... : ... .. . ... : ... .. . ... : ... .. . ... : ... .. . ... : ... .. . ... : ... .. . ...
ROW 36 : ... .. . ... : ... .. . ... : ... .. . ... : ... .. . ... : ... .. . ... : ... .. . ... : ... .. . ... : ... .. . ...
ROW 37 : ... .. . ... : ... .. . ... : ... .. . ... : ... .. . ... : ... .. . ... : ... .. . ... : ... .. . ... : ... .. . ...
ROW 38 : --- .. . ... : --- .. . ... : ... .. . ... : ... .. . ... : ... .. . ... : A-1 03 6 0C0 : ... .. . ... : ... .. . ...
ROW 39 : ... .. . ... : ... .. . ... : ... .. . ... : ... .. . ... : ... .. . ... : ... .. . ... : ... .. . ... : ... .. . ...
ROW 3a : ... .. . ... : ... .. . ... : ... .. . ... : ... .. . ... : ... .. . ... : ... .. . ... : ... .. . ... : ... .. . ...
ROW 3b : ... .. . ... : ... .. . ... : ... .. . ... : ... .. . ... : ... .. . ... : ... .. . ... : ... .. . ... : ... .. . ...
ROW 3c : A-3 00 8 ... : E-3 00 8 ... : ... .. . ... : ... .. . ... : ... .. . ... : --- .. . ... : ... .. . ... : ... .. . ...
ROW 3d : ... .. . ... : ... .. . ... : ... .. . ... : ... .. . ... : ... .. . ... : ... .. . ... : ... .. . ... : ... .. . ...
ROW 3e : ... .. . ... : ... .. . ... : ... .. . ... : ... .. . ... : ... .. . ... : ... .. . ... : ... .. . ... : ... .. . ...
ROW 3f : ... .. . ... : ... .. . ... : ... .. . ... : ... .. . ... : ... .. . ... : ... .. . ... : ... .. . ... : ... .. . ...
PATTERN 25
ROW 00 : --- .. . ... : --- .. . ... : ... .. . ... : ... .. . ... : ... .. . ... : D-1 03 6 0C0 : ... .. . ... : ... .. . ...
ROW 01 : ... .. . ... : ... .. . ... : ... .. . ... : ... .. . ... : ... .. . ... : ... .. . ... : ... .. . ... : ... .. . ...
ROW 02 : ... .. . ... : ... .. . ... : ... .. . ... : ... .. . ... : ... .. . ... : ... .. . ... : ... .. . ... : ... .. . ...
ROW 03 : ... .. . ... : ... .. . ... : ... .. . ... : ... .. . ... : ... .. . ... : ... .. . ... : ... .. . ... : ... .. . ...
ROW 04 : ... .. . ... : ... .. . ... : ... .. . ... : ... .. . ... : ... .. . ... : --- .. . ... : ... .. . ... : ... .. . ...
ROW 05 : ... .. . ... : ... .. . ... : ... .. . ... : ... .. . ... : ... .. . ... : ... .. . ... : ... .. . ... : ... .. . ...
ROW 06 : ... .. . ... : ... .. . ... : ... .. . ... : ... .. . ... : ... .. . ... : ... .. . ... : ... .. . ... : ... .. . ...
ROW 07 : ... .. . ... : ... .. . ... : ... .. . ... : ... .. . ... : ... .. . ... : ... .. . ... : ... .. . ... : ... .. . ...
ROW 08 : ... .. . ... : ... .. . ... : ... .. . ... : ... .. . ... : ... .. . ... : ... .. . ... : ... .. . ... : ... .. . ...
ROW 09 : ... .. . ... : ... .. . ... : ... .. . ... : ... .. . ... : ... .. . ... : ... .. . ... : ... .. . ... : ... .. . ...
ROW 0a : ... .. . ... : ... .. . ... : ... .. . ... : ... .. . ... : ... .. . ... : ... .. . ... : ... .. . ... : ... .. . ...
ROW 0b : ... .. . ... : ... .. . ... : ... .. . ... : ... .. . ... : ... .. . ... : ... .. . ... : ... .. . ... : ... .. . ...
ROW 0c : ... .. . ... : ... .. . ... : ... .. . ... : ... .. . ... : ... .. . ... : ... .. . ... : ... .. . ... : ... .. . ...
ROW 0d : ... .. . ... : ... .. . ... : ... .. . ... : ... .. . ... : ... .. . ... : ... .. . ... : ... .. . ... : ... .. . ...
ROW 0e : ... .. . ... : ... .. . ... : ... .. . ... : ... .. . ... : ... .. . ... : ... .. . ... : ... .. . ... : ... .. . ...
ROW 0f : ... .. . ... : ... .. . ... : ... .. . ... : ... .. . ... : ... .. . ... : ... .. . ... : ... .. . ... : ... .. . ...

# track BOOKMARKS block

# JSON block
JSON "null"

# PARAMS_EMU block
USEEXTERNALOPLL 0

# End of export
